<svg width="138" height="138" viewBox="0 0 138 138" fill="none" xmlns="http://www.w3.org/2000/svg">
<g filter="url(#filter0_d)">
<path d="M119.167 17.3333H99.6667V6.5C99.6667 2.9104 96.7563 0 93.1667 0H19.5C15.9104 0 13 2.9104 13 6.5V17.3333H10.8333C4.85278 17.3407 0.00740561 22.1861 0 28.1667V93.1667C0.00740561 99.1472 4.85278 103.993 10.8333 104H47.3789L45.7539 117H43.3333C40.9403 117 39 118.94 39 121.333V125.667H34.6667V130H95.3333V125.667H91V121.333C91 118.94 89.0597 117 86.6667 117H84.2461L82.6211 104H119.167C125.147 103.993 129.993 99.1472 130 93.1667V28.1667C129.993 22.1861 125.147 17.3407 119.167 17.3333ZM19.5 4.33333H93.1667C94.3632 4.33333 95.3333 5.30347 95.3333 6.5V13H17.3333V6.5C17.3333 5.30347 18.3035 4.33333 19.5 4.33333ZM10.8333 21.6667H13V71.5C13 75.0896 15.9104 78 19.5 78H93.1667C96.7563 78 99.6667 75.0896 99.6667 71.5H95.3333C95.3333 72.6965 94.3632 73.6667 93.1667 73.6667H19.5C18.3035 73.6667 17.3333 72.6965 17.3333 71.5V17.3333H95.3333V23.8333H99.6667V21.6667H119.167C122.756 21.6667 125.667 24.5771 125.667 28.1667V82.3333H4.33333V28.1667C4.33333 24.5771 7.24373 21.6667 10.8333 21.6667ZM86.6667 125.667H43.3333V121.333H86.6667V125.667ZM79.8789 117H50.1211L51.7461 104H78.2539L79.8789 117ZM119.167 99.6667H10.8333C7.24373 99.6667 4.33333 96.7563 4.33333 93.1667V86.6667H125.667V93.1667C125.667 96.7563 122.756 99.6667 119.167 99.6667Z" fill="url(#paint0_linear)"/>
<path d="M114.833 91H119.167V95.3333H114.833V91Z" fill="url(#paint1_linear)"/>
<path d="M21.6665 6.5H25.9998V10.8333H21.6665V6.5Z" fill="url(#paint2_linear)"/>
<path d="M30.3335 6.5H34.6668V10.8333H30.3335V6.5Z" fill="url(#paint3_linear)"/>
<path d="M39 6.5H43.3333V10.8333H39V6.5Z" fill="url(#paint4_linear)"/>
<path d="M101.488 61.5331L106.383 64.7831C107.242 65.3565 108.387 65.2433 109.117 64.5123L112.181 61.4485C112.91 60.7185 113.022 59.5749 112.45 58.7169L109.2 53.8218C109.301 53.588 109.4 53.3521 109.491 53.114L115.267 51.9566C116.275 51.7503 117 50.8627 117 49.8333V45.5C117 44.4706 116.275 43.583 115.267 43.3767L109.491 42.2193C109.4 41.9813 109.301 41.7454 109.2 41.5116L112.45 36.6165C113.023 35.7574 112.91 34.6127 112.179 33.8827L109.115 30.8189C108.385 30.09 107.241 29.9779 106.383 30.5502L101.488 33.8002C101.254 33.6986 101.019 33.6003 100.781 33.5093L99.6231 27.7329C99.4168 26.7247 98.5292 26 97.4998 26H93.1665C92.1371 26 91.2495 26.7247 91.0432 27.7329L89.8858 33.5093C89.6478 33.6003 89.4119 33.6986 89.1781 33.8002L84.283 30.5502C83.4239 29.9768 82.2792 30.09 81.5492 30.821L78.4854 33.8848C77.7565 34.6148 77.6444 35.7585 78.2167 36.6165L81.4667 41.5116C81.3651 41.7454 81.2668 41.9813 81.1758 42.2193L75.3994 43.3767C74.3912 43.583 73.6665 44.4706 73.6665 45.5V49.8333C73.6665 50.8627 74.3912 51.7503 75.3994 51.9566L81.1758 53.114C81.2668 53.3521 81.3651 53.588 81.4667 53.8218L78.2167 58.7169C77.6433 59.5759 77.7565 60.7206 78.4875 61.4506L81.5513 64.5144C82.2813 65.2433 83.425 65.3555 84.283 64.7831L89.1781 61.5331C89.4119 61.6347 89.6478 61.7331 89.8858 61.8241L91.0432 67.6004C91.2495 68.6086 92.1371 69.3333 93.1665 69.3333H97.4998C98.5292 69.3333 99.4168 68.6086 99.6231 67.6004L100.781 61.8241C101.019 61.7236 101.254 61.6262 101.488 61.5331V61.5331ZM98.3081 58.0662C97.5284 58.2895 96.9381 58.9285 96.7783 59.724L95.7235 65H94.9428L93.888 59.7325C93.7283 58.938 93.1379 58.2979 92.3582 58.0758C91.5627 57.8504 90.7956 57.5341 90.072 57.1331C89.3632 56.7385 88.4925 56.7734 87.8165 57.2241L83.3541 60.1991L82.8008 59.6458L85.7757 55.1834C86.2264 54.5073 86.2613 53.6366 85.8667 52.9278C85.4657 52.2042 85.1494 51.4372 84.9241 50.6416C84.7019 49.8619 84.0618 49.2716 83.2673 49.1118L77.9998 48.057V47.2763L83.2673 46.2215C84.0618 46.0618 84.7019 45.4714 84.9241 44.6917C85.1494 43.8962 85.4657 43.1292 85.8667 42.4055C86.2613 41.6967 86.2264 40.826 85.7757 40.15L82.8008 35.6876L83.3541 35.1343L87.8165 38.1092C88.4925 38.5599 89.3632 38.5948 90.072 38.2002C90.7956 37.7992 91.5627 37.4829 92.3582 37.2576C93.1379 37.0354 93.7283 36.3953 93.888 35.6008L94.9428 30.3333H95.7235L96.7783 35.6008C96.9381 36.3953 97.5284 37.0354 98.3081 37.2576C99.1037 37.4829 99.8707 37.7992 100.594 38.2002C101.303 38.5948 102.174 38.5599 102.85 38.1092L107.312 35.1343L107.866 35.6876L104.891 40.15C104.44 40.826 104.405 41.6967 104.8 42.4055C105.201 43.1292 105.517 43.8962 105.742 44.6917C105.964 45.4714 106.604 46.0618 107.399 46.2215L112.666 47.2763V48.057L107.399 49.1118C106.604 49.2716 105.964 49.8619 105.742 50.6416C105.517 51.4372 105.201 52.2042 104.8 52.9278C104.405 53.6366 104.44 54.5073 104.891 55.1834L107.866 59.6458L107.312 60.1991L102.85 57.2241C102.174 56.7734 101.303 56.7385 100.594 57.1331C99.8707 57.5309 99.1037 57.8441 98.3081 58.0662Z" fill="url(#paint5_linear)"/>
<path d="M95.3335 41.1666C91.7439 41.1666 88.8335 44.077 88.8335 47.6666C88.8335 51.2562 91.7439 54.1666 95.3335 54.1666C98.9231 54.1666 101.833 51.2562 101.833 47.6666C101.833 44.077 98.9231 41.1666 95.3335 41.1666ZM95.3335 49.8333C94.137 49.8333 93.1668 48.8632 93.1668 47.6666C93.1668 46.4701 94.137 45.5 95.3335 45.5C96.53 45.5 97.5002 46.4701 97.5002 47.6666C97.5002 48.8632 96.53 49.8333 95.3335 49.8333Z" fill="url(#paint6_linear)"/>
<path d="M28.1665 21.6667H32.4998V34.6667H28.1665V21.6667Z" fill="url(#paint7_linear)"/>
<path d="M49.8335 21.6667H54.1668V34.6667H49.8335V21.6667Z" fill="url(#paint8_linear)"/>
<path d="M43.3335 39H47.6668V52H43.3335V39Z" fill="url(#paint9_linear)"/>
<path d="M49.8335 39H54.1668V52H49.8335V39Z" fill="url(#paint10_linear)"/>
<path d="M56.3335 21.6667H60.6668V34.6667H56.3335V21.6667Z" fill="url(#paint11_linear)"/>
<path d="M62.8335 21.6667H67.1668V34.6667H62.8335V21.6667Z" fill="url(#paint12_linear)"/>
<path d="M28.1665 56.3333H32.4998V69.3334H28.1665V56.3333Z" fill="url(#paint13_linear)"/>
<path d="M56.3335 56.3333H60.6668V69.3334H56.3335V56.3333Z" fill="url(#paint14_linear)"/>
<path d="M62.8335 56.3333H67.1668V69.3334H62.8335V56.3333Z" fill="url(#paint15_linear)"/>
<path d="M34.6665 56.3333H38.9998V69.3334H34.6665V56.3333Z" fill="url(#paint16_linear)"/>
<path d="M41.1665 34.6667C44.7561 34.6667 47.6665 31.7563 47.6665 28.1667C47.6665 24.5771 44.7561 21.6667 41.1665 21.6667C37.5769 21.6667 34.6665 24.5771 34.6665 28.1667C34.6665 31.7563 37.5769 34.6667 41.1665 34.6667ZM41.1665 26C42.363 26 43.3332 26.9702 43.3332 28.1667C43.3332 29.3632 42.363 30.3334 41.1665 30.3334C39.97 30.3334 38.9998 29.3632 38.9998 28.1667C38.9998 26.9702 39.97 26 41.1665 26Z" fill="url(#paint17_linear)"/>
<path d="M34.6665 39C31.0769 39 28.1665 41.9104 28.1665 45.5C28.1665 49.0896 31.0769 52 34.6665 52C38.2561 52 41.1665 49.0896 41.1665 45.5C41.1665 41.9104 38.2561 39 34.6665 39ZM34.6665 47.6667C33.47 47.6667 32.4998 46.6965 32.4998 45.5C32.4998 44.3035 33.47 43.3333 34.6665 43.3333C35.863 43.3333 36.8332 44.3035 36.8332 45.5C36.8332 46.6965 35.863 47.6667 34.6665 47.6667Z" fill="url(#paint18_linear)"/>
<path d="M47.6665 56.3333C44.0769 56.3333 41.1665 59.2437 41.1665 62.8333C41.1665 66.423 44.0769 69.3334 47.6665 69.3334C51.2561 69.3334 54.1665 66.423 54.1665 62.8333C54.1665 59.2437 51.2561 56.3333 47.6665 56.3333ZM47.6665 65C46.47 65 45.4998 64.0299 45.4998 62.8333C45.4998 61.6368 46.47 60.6667 47.6665 60.6667C48.863 60.6667 49.8332 61.6368 49.8332 62.8333C49.8332 64.0299 48.863 65 47.6665 65Z" fill="url(#paint19_linear)"/>
<path d="M62.8335 39C59.2439 39 56.3335 41.9104 56.3335 45.5C56.3335 49.0896 59.2439 52 62.8335 52C66.4231 52 69.3335 49.0896 69.3335 45.5C69.3335 41.9104 66.4231 39 62.8335 39ZM62.8335 47.6667C61.637 47.6667 60.6668 46.6965 60.6668 45.5C60.6668 44.3035 61.637 43.3333 62.8335 43.3333C64.03 43.3333 65.0002 44.3035 65.0002 45.5C65.0002 46.6965 64.03 47.6667 62.8335 47.6667Z" fill="url(#paint20_linear)"/>
</g>
<defs>
<filter id="filter0_d" x="0" y="0" width="138" height="138" filterUnits="userSpaceOnUse" color-interpolation-filters="sRGB">
<feFlood flood-opacity="0" result="BackgroundImageFix"/>
<feColorMatrix in="SourceAlpha" type="matrix" values="0 0 0 0 0 0 0 0 0 0 0 0 0 0 0 0 0 0 127 0"/>
<feOffset dx="4" dy="4"/>
<feGaussianBlur stdDeviation="2"/>
<feColorMatrix type="matrix" values="0 0 0 0 0.337255 0 0 0 0 0.8 0 0 0 0 0.94902 0 0 0 0.25 0"/>
<feBlend mode="normal" in2="BackgroundImageFix" result="effect1_dropShadow"/>
<feBlend mode="normal" in="SourceGraphic" in2="effect1_dropShadow" result="shape"/>
</filter>
<linearGradient id="paint0_linear" x1="63.9773" y1="130.279" x2="65.9512" y2="-4.03433" gradientUnits="userSpaceOnUse">
<stop stop-color="#1976D2"/>
<stop offset="1" stop-color="#56CCF2"/>
</linearGradient>
<linearGradient id="paint1_linear" x1="116.443" y1="131.051" x2="118.417" y2="-3.26323" gradientUnits="userSpaceOnUse">
<stop stop-color="#1976D2"/>
<stop offset="1" stop-color="#56CCF2"/>
</linearGradient>
<linearGradient id="paint2_linear" x1="22.0543" y1="129.662" x2="24.0282" y2="-4.64966" gradientUnits="userSpaceOnUse">
<stop stop-color="#1976D2"/>
<stop offset="1" stop-color="#56CCF2"/>
</linearGradient>
<linearGradient id="paint3_linear" x1="30.7192" y1="129.79" x2="32.6952" y2="-4.524" gradientUnits="userSpaceOnUse">
<stop stop-color="#1976D2"/>
<stop offset="1" stop-color="#56CCF2"/>
</linearGradient>
<linearGradient id="paint4_linear" x1="39.3835" y1="129.918" x2="41.3595" y2="-4.39617" gradientUnits="userSpaceOnUse">
<stop stop-color="#1976D2"/>
<stop offset="1" stop-color="#56CCF2"/>
</linearGradient>
<linearGradient id="paint5_linear" x1="94.1112" y1="130.722" x2="96.0872" y2="-3.59017" gradientUnits="userSpaceOnUse">
<stop stop-color="#1976D2"/>
<stop offset="1" stop-color="#56CCF2"/>
</linearGradient>
<linearGradient id="paint6_linear" x1="94.1115" y1="130.721" x2="96.0875" y2="-3.59021" gradientUnits="userSpaceOnUse">
<stop stop-color="#1976D2"/>
<stop offset="1" stop-color="#56CCF2"/>
</linearGradient>
<linearGradient id="paint7_linear" x1="28.8382" y1="129.762" x2="30.8142" y2="-4.54997" gradientUnits="userSpaceOnUse">
<stop stop-color="#1976D2"/>
<stop offset="1" stop-color="#56CCF2"/>
</linearGradient>
<linearGradient id="paint8_linear" x1="50.5008" y1="130.08" x2="52.4768" y2="-4.23147" gradientUnits="userSpaceOnUse">
<stop stop-color="#1976D2"/>
<stop offset="1" stop-color="#56CCF2"/>
</linearGradient>
<linearGradient id="paint9_linear" x1="44.2587" y1="129.989" x2="46.2325" y2="-4.32468" gradientUnits="userSpaceOnUse">
<stop stop-color="#1976D2"/>
<stop offset="1" stop-color="#56CCF2"/>
</linearGradient>
<linearGradient id="paint10_linear" x1="50.7565" y1="130.085" x2="52.7325" y2="-4.22935" gradientUnits="userSpaceOnUse">
<stop stop-color="#1976D2"/>
<stop offset="1" stop-color="#56CCF2"/>
</linearGradient>
<linearGradient id="paint11_linear" x1="57.0008" y1="130.175" x2="58.9747" y2="-4.13614" gradientUnits="userSpaceOnUse">
<stop stop-color="#1976D2"/>
<stop offset="1" stop-color="#56CCF2"/>
</linearGradient>
<linearGradient id="paint12_linear" x1="63.4987" y1="130.271" x2="65.4747" y2="-4.04081" gradientUnits="userSpaceOnUse">
<stop stop-color="#1976D2"/>
<stop offset="1" stop-color="#56CCF2"/>
</linearGradient>
<linearGradient id="paint13_linear" x1="29.3495" y1="129.77" x2="31.3233" y2="-4.54354" gradientUnits="userSpaceOnUse">
<stop stop-color="#1976D2"/>
<stop offset="1" stop-color="#56CCF2"/>
</linearGradient>
<linearGradient id="paint14_linear" x1="57.51" y1="130.184" x2="59.4838" y2="-4.12971" gradientUnits="userSpaceOnUse">
<stop stop-color="#1976D2"/>
<stop offset="1" stop-color="#56CCF2"/>
</linearGradient>
<linearGradient id="paint15_linear" x1="64.0078" y1="130.28" x2="65.9838" y2="-4.03437" gradientUnits="userSpaceOnUse">
<stop stop-color="#1976D2"/>
<stop offset="1" stop-color="#56CCF2"/>
</linearGradient>
<linearGradient id="paint16_linear" x1="35.8473" y1="129.866" x2="37.8233" y2="-4.44821" gradientUnits="userSpaceOnUse">
<stop stop-color="#1976D2"/>
<stop offset="1" stop-color="#56CCF2"/>
</linearGradient>
<linearGradient id="paint17_linear" x1="39.6693" y1="129.922" x2="41.6453" y2="-4.3918" gradientUnits="userSpaceOnUse">
<stop stop-color="#1976D2"/>
<stop offset="1" stop-color="#56CCF2"/>
</linearGradient>
<linearGradient id="paint18_linear" x1="33.4272" y1="129.829" x2="35.401" y2="-4.48284" gradientUnits="userSpaceOnUse">
<stop stop-color="#1976D2"/>
<stop offset="1" stop-color="#56CCF2"/>
</linearGradient>
<linearGradient id="paint19_linear" x1="46.6785" y1="130.024" x2="48.6545" y2="-4.28788" gradientUnits="userSpaceOnUse">
<stop stop-color="#1976D2"/>
<stop offset="1" stop-color="#56CCF2"/>
</linearGradient>
<linearGradient id="paint20_linear" x1="61.5877" y1="130.243" x2="63.5615" y2="-4.06901" gradientUnits="userSpaceOnUse">
<stop stop-color="#1976D2"/>
<stop offset="1" stop-color="#56CCF2"/>
</linearGradient>
</defs>
</svg>
