<svg width="138" height="138" viewBox="0 0 138 138" fill="none" xmlns="http://www.w3.org/2000/svg">
<g filter="url(#filter0_d)">
<path d="M21.6665 8.66669H25.9998V13H21.6665V8.66669Z" fill="url(#paint0_linear)"/>
<path d="M30.3335 8.66669H34.6668V13H30.3335V8.66669Z" fill="url(#paint1_linear)"/>
<path d="M39 8.66669H43.3333V13H39V8.66669Z" fill="url(#paint2_linear)"/>
<path d="M123.5 0H19.5C15.9104 0 13 2.9104 13 6.5V13H6.5C2.9104 13 0 15.9104 0 19.5V123.5C0 127.09 2.9104 130 6.5 130H110.5C114.09 130 117 127.09 117 123.5V117H123.5C127.09 117 130 114.09 130 110.5V6.5C130 2.9104 127.09 0 123.5 0ZM19.5 4.33333H123.5C124.697 4.33333 125.667 5.30347 125.667 6.5V17.3333H17.3333V6.5C17.3333 5.30347 18.3035 4.33333 19.5 4.33333ZM6.5 17.3333H13V30.3333H4.33333V19.5C4.33333 18.3035 5.30347 17.3333 6.5 17.3333ZM112.667 123.5C112.667 124.697 111.697 125.667 110.5 125.667H6.5C5.30347 125.667 4.33333 124.697 4.33333 123.5V34.6667H13V110.5C13 114.09 15.9104 117 19.5 117H112.667V123.5ZM123.5 112.667H19.5C18.3035 112.667 17.3333 111.697 17.3333 110.5V21.6667H125.667V110.5C125.667 111.697 124.697 112.667 123.5 112.667Z" fill="url(#paint3_linear)"/>
<path d="M71.5 28.1667C49.9613 28.1667 32.5 45.628 32.5 67.1667C32.5 88.7053 49.9613 106.167 71.5 106.167C93.0387 106.167 110.5 88.7053 110.5 67.1667C110.475 45.6376 93.0291 28.1921 71.5 28.1667ZM71.5 101.833C52.3544 101.833 36.8333 86.3123 36.8333 67.1667C36.8333 48.0211 52.3544 32.5 71.5 32.5C90.6456 32.5 106.167 48.0211 106.167 67.1667C106.144 86.3028 90.6361 101.811 71.5 101.833Z" fill="url(#paint4_linear)"/>
<path d="M69.3335 34.6667H73.6668V39H69.3335V34.6667Z" fill="url(#paint5_linear)"/>
<path d="M53.373 40.1045L57.1256 37.9378L59.2922 41.6903L55.5397 43.8581L53.373 40.1045Z" fill="url(#paint6_linear)"/>
<path d="M42.271 52.7924L44.4377 49.0399L48.1902 51.2065L46.0235 54.9601L42.271 52.7924Z" fill="url(#paint7_linear)"/>
<path d="M39 65H43.3333V69.3333H39V65Z" fill="url(#paint8_linear)"/>
<path d="M42.2725 81.5388L46.025 79.3721L48.1917 83.1257L44.4391 85.2924L42.2725 81.5388Z" fill="url(#paint9_linear)"/>
<path d="M94.8105 83.1268L96.9772 79.3743L100.73 81.5409L98.5631 85.2945L94.8105 83.1268Z" fill="url(#paint10_linear)"/>
<path d="M99.6665 65H104V69.3333H99.6665V65Z" fill="url(#paint11_linear)"/>
<path d="M94.8076 51.2065L98.5612 49.0399L100.728 52.7924L96.9743 54.959L94.8076 51.2065Z" fill="url(#paint12_linear)"/>
<path d="M83.7065 41.6925L85.8732 37.9399L89.6257 40.1056L87.4601 43.8591L83.7065 41.6925Z" fill="url(#paint13_linear)"/>
<path d="M85.993 56.3957C82.379 57.2844 70.4211 60.2964 68.2502 61.5373C65.1388 63.3326 64.0724 67.3095 65.8667 70.4209C67.662 73.5323 71.6388 74.5997 74.7502 72.8044C76.9169 71.5518 85.4968 62.6947 88.075 60.0075C88.7426 59.3125 88.8695 58.2588 88.3871 57.424C87.9047 56.5904 86.9293 56.1746 85.993 56.4052V56.3957ZM72.5835 69.0434C71.9128 69.4359 71.0823 69.4401 70.4084 69.0529C69.7345 68.6657 69.3198 67.9463 69.3209 67.1687C69.323 66.3912 69.7409 65.6749 70.4169 65.2898C73.4003 64.1832 76.4493 63.2586 79.5448 62.5212C77.3591 64.8339 75.0337 67.0122 72.5835 69.0434Z" fill="url(#paint14_linear)"/>
<path d="M60.6665 82.3333H69.3332V86.6667H60.6665V82.3333Z" fill="url(#paint15_linear)"/>
<path d="M73.6665 82.3333H82.3332V86.6667H73.6665V82.3333Z" fill="url(#paint16_linear)"/>
<path d="M52 8.66669H108.333V13H52V8.66669Z" fill="url(#paint17_linear)"/>
</g>
<defs>
<filter id="filter0_d" x="0" y="0" width="138" height="138" filterUnits="userSpaceOnUse" color-interpolation-filters="sRGB">
<feFlood flood-opacity="0" result="BackgroundImageFix"/>
<feColorMatrix in="SourceAlpha" type="matrix" values="0 0 0 0 0 0 0 0 0 0 0 0 0 0 0 0 0 0 127 0"/>
<feOffset dx="4" dy="4"/>
<feGaussianBlur stdDeviation="2"/>
<feColorMatrix type="matrix" values="0 0 0 0 0.337255 0 0 0 0 0.8 0 0 0 0 0.94902 0 0 0 0.25 0"/>
<feBlend mode="normal" in2="BackgroundImageFix" result="effect1_dropShadow"/>
<feBlend mode="normal" in="SourceGraphic" in2="effect1_dropShadow" result="shape"/>
</filter>
<linearGradient id="paint0_linear" x1="21.075" y1="129.066" x2="24.2362" y2="-6.43065" gradientUnits="userSpaceOnUse">
<stop stop-color="#1976D2"/>
<stop offset="1" stop-color="#56CCF2"/>
</linearGradient>
<linearGradient id="paint1_linear" x1="29.7377" y1="129.27" x2="32.8988" y2="-6.22915" gradientUnits="userSpaceOnUse">
<stop stop-color="#1976D2"/>
<stop offset="1" stop-color="#56CCF2"/>
</linearGradient>
<linearGradient id="paint2_linear" x1="38.3998" y1="129.471" x2="41.5588" y2="-6.02765" gradientUnits="userSpaceOnUse">
<stop stop-color="#1976D2"/>
<stop offset="1" stop-color="#56CCF2"/>
</linearGradient>
<linearGradient id="paint3_linear" x1="63.4833" y1="130.056" x2="66.6423" y2="-5.44267" gradientUnits="userSpaceOnUse">
<stop stop-color="#1976D2"/>
<stop offset="1" stop-color="#56CCF2"/>
</linearGradient>
<linearGradient id="paint4_linear" x1="70.0288" y1="130.208" x2="73.19" y2="-5.28881" gradientUnits="userSpaceOnUse">
<stop stop-color="#1976D2"/>
<stop offset="1" stop-color="#56CCF2"/>
</linearGradient>
<linearGradient id="paint5_linear" x1="69.3227" y1="130.193" x2="72.4838" y2="-5.3062" gradientUnits="userSpaceOnUse">
<stop stop-color="#1976D2"/>
<stop offset="1" stop-color="#56CCF2"/>
</linearGradient>
<linearGradient id="paint6_linear" x1="54.2582" y1="129.841" x2="57.4172" y2="-5.6576" gradientUnits="userSpaceOnUse">
<stop stop-color="#1976D2"/>
<stop offset="1" stop-color="#56CCF2"/>
</linearGradient>
<linearGradient id="paint7_linear" x1="43.4234" y1="129.588" x2="46.5824" y2="-5.91098" gradientUnits="userSpaceOnUse">
<stop stop-color="#1976D2"/>
<stop offset="1" stop-color="#56CCF2"/>
</linearGradient>
<linearGradient id="paint8_linear" x1="39.7128" y1="129.502" x2="42.874" y2="-5.99521" gradientUnits="userSpaceOnUse">
<stop stop-color="#1976D2"/>
<stop offset="1" stop-color="#56CCF2"/>
</linearGradient>
<linearGradient id="paint9_linear" x1="44.1277" y1="129.605" x2="47.2867" y2="-5.89359" gradientUnits="userSpaceOnUse">
<stop stop-color="#1976D2"/>
<stop offset="1" stop-color="#56CCF2"/>
</linearGradient>
<linearGradient id="paint10_linear" x1="96.6392" y1="130.831" x2="99.8003" y2="-4.66835" gradientUnits="userSpaceOnUse">
<stop stop-color="#1976D2"/>
<stop offset="1" stop-color="#56CCF2"/>
</linearGradient>
<linearGradient id="paint11_linear" x1="100.347" y1="130.917" x2="103.506" y2="-4.58254" gradientUnits="userSpaceOnUse">
<stop stop-color="#1976D2"/>
<stop offset="1" stop-color="#56CCF2"/>
</linearGradient>
<linearGradient id="paint12_linear" x1="95.93" y1="130.811" x2="99.089" y2="-4.68549" gradientUnits="userSpaceOnUse">
<stop stop-color="#1976D2"/>
<stop offset="1" stop-color="#56CCF2"/>
</linearGradient>
<linearGradient id="paint13_linear" x1="84.5759" y1="130.55" x2="87.7371" y2="-4.94892" gradientUnits="userSpaceOnUse">
<stop stop-color="#1976D2"/>
<stop offset="1" stop-color="#56CCF2"/>
</linearGradient>
<linearGradient id="paint14_linear" x1="75.2659" y1="130.331" x2="78.4249" y2="-5.1675" gradientUnits="userSpaceOnUse">
<stop stop-color="#1976D2"/>
<stop offset="1" stop-color="#56CCF2"/>
</linearGradient>
<linearGradient id="paint15_linear" x1="63.936" y1="130.067" x2="67.0972" y2="-5.43206" gradientUnits="userSpaceOnUse">
<stop stop-color="#1976D2"/>
<stop offset="1" stop-color="#56CCF2"/>
</linearGradient>
<linearGradient id="paint16_linear" x1="76.9295" y1="130.371" x2="80.0907" y2="-5.12873" gradientUnits="userSpaceOnUse">
<stop stop-color="#1976D2"/>
<stop offset="1" stop-color="#56CCF2"/>
</linearGradient>
<linearGradient id="paint17_linear" x1="77.3782" y1="130.381" x2="80.5393" y2="-5.11765" gradientUnits="userSpaceOnUse">
<stop stop-color="#1976D2"/>
<stop offset="1" stop-color="#56CCF2"/>
</linearGradient>
</defs>
</svg>
