<svg width="138" height="138" viewBox="0 0 138 138" fill="none" xmlns="http://www.w3.org/2000/svg">
<g filter="url(#filter0_d)">
<path d="M119.167 17.3333H95.3333V21.6666H119.167C122.756 21.6666 125.667 24.577 125.667 28.1666V82.3333H4.33333V28.1666C4.33333 24.577 7.24373 21.6666 10.8333 21.6666H34.6667V17.3333H10.8333C4.85278 17.3407 0.00740561 22.1861 0 28.1666V93.1666C0.00740561 99.1472 4.85278 103.993 10.8333 104H47.3789L45.7539 117H43.3333C40.9403 117 39 118.94 39 121.333V125.667H34.6667V130H95.3333V125.667H91V121.333C91 118.94 89.0597 117 86.6667 117H84.2461L82.6211 104H119.167C125.147 103.993 129.993 99.1472 130 93.1666V28.1666C129.993 22.1861 125.147 17.3407 119.167 17.3333ZM86.6667 125.667H43.3333V121.333H86.6667V125.667ZM79.8789 117H50.1211L51.7461 104H78.2539L79.8789 117ZM119.167 99.6666H10.8333C7.24373 99.6666 4.33333 96.7562 4.33333 93.1666V86.6666H125.667V93.1666C125.667 96.7562 122.756 99.6666 119.167 99.6666Z" fill="url(#paint0_linear)"/>
<path d="M114.833 91H119.167V95.3333H114.833V91Z" fill="url(#paint1_linear)"/>
<path d="M42.6076 19.299C41.3719 21.3895 40.4399 23.6461 39.8389 26H34.6667C33.4701 26 32.5 26.9701 32.5 28.1667V36.8333C32.5 38.0299 33.4701 39 34.6667 39H39.8389C40.4399 41.3539 41.3719 43.6105 42.6076 45.701L38.9545 49.352C38.1082 50.1983 38.1082 51.5694 38.9545 52.4158L45.0842 58.5455C45.9306 59.3918 47.3017 59.3918 48.148 58.5455L51.799 54.8924C53.8895 56.1281 56.1461 57.0601 58.5 57.6611V62.8333C58.5 64.0299 59.4701 65 60.6667 65H69.3333C70.5299 65 71.5 64.0299 71.5 62.8333V57.6611C73.8539 57.0601 76.1105 56.1281 78.201 54.8924L81.852 58.5455C82.6983 59.3918 84.0694 59.3918 84.9158 58.5455L91.0455 52.4158C91.8918 51.5694 91.8918 50.1983 91.0455 49.352L87.3924 45.701C88.6281 43.6105 89.5601 41.3539 90.1611 39H95.3333C96.5299 39 97.5 38.0299 97.5 36.8333V28.1667C97.5 26.9701 96.5299 26 95.3333 26H90.1611C89.5601 23.6461 88.6281 21.3895 87.3924 19.299L91.0455 15.648C91.8918 14.8017 91.8918 13.4306 91.0455 12.5842L84.9158 6.45451C84.0694 5.60815 82.6983 5.60815 81.852 6.45451L78.201 10.1076C76.1105 8.87191 73.8539 7.93986 71.5 7.33895V2.16667C71.5 0.970133 70.5299 0 69.3333 0H60.6667C59.4701 0 58.5 0.970133 58.5 2.16667V7.33895C56.1461 7.93986 53.8895 8.87191 51.799 10.1076L48.148 6.45451C47.3017 5.60815 45.9306 5.60815 45.0842 6.45451L38.9545 12.5842C38.1082 13.4306 38.1082 14.8017 38.9545 15.648L42.6076 19.299ZM46.8997 17.4656L43.5502 14.1161L46.6161 11.0502L49.9656 14.3975C50.704 15.137 51.8646 15.2428 52.7257 14.6514C55.2278 12.9259 58.0684 11.7516 61.0592 11.2078C62.0864 11.0195 62.8333 10.1235 62.8333 9.07821V4.33333H67.1667V9.07821C67.1656 10.1245 67.9125 11.0206 68.9408 11.21C71.9316 11.7537 74.7722 12.9281 77.2743 14.6536C78.1354 15.245 79.296 15.1392 80.0344 14.3997L83.3839 11.0502L86.4498 14.1161L83.1025 17.4656C82.363 18.204 82.2572 19.3646 82.8486 20.2257C84.5741 22.7278 85.7484 25.5684 86.2922 28.5592C86.4805 29.5864 87.3765 30.3333 88.4218 30.3333H93.1667V34.6667H88.4218C87.3755 34.6656 86.4794 35.4125 86.29 36.4408C85.7463 39.4316 84.5719 42.2722 82.8464 44.7743C82.255 45.6354 82.3608 46.796 83.1003 47.5344L86.4498 50.8839L83.3839 53.9498L80.0344 50.6025C79.296 49.863 78.1354 49.7572 77.2743 50.3486C74.7722 52.0741 71.9316 53.2484 68.9408 53.7922C67.9136 53.9805 67.1667 54.8765 67.1667 55.9218V60.6667H62.8333V55.9218C62.8344 54.8755 62.0875 53.9794 61.0592 53.79C58.0684 53.2463 55.2278 52.0719 52.7257 50.3464C51.8646 49.755 50.704 49.8608 49.9656 50.6003L46.6161 53.9498L43.5502 50.8839L46.8975 47.5344C47.637 46.796 47.7428 45.6354 47.1514 44.7743C45.4259 42.2722 44.2516 39.4316 43.7078 36.4408C43.5195 35.4136 42.6235 34.6667 41.5782 34.6667H36.8333V30.3333H41.5782C42.6245 30.3344 43.5206 29.5875 43.71 28.5592C44.2537 25.5684 45.4281 22.7278 47.1536 20.2257C47.745 19.3646 47.6392 18.204 46.8997 17.4656V17.4656Z" fill="url(#paint2_linear)"/>
<path d="M65.0002 47.6666C73.377 47.6666 80.1668 40.8768 80.1668 32.5C80.1668 24.1232 73.377 17.3333 65.0002 17.3333C56.6234 17.3333 49.8335 24.1232 49.8335 32.5C49.843 40.8725 56.6276 47.6571 65.0002 47.6666ZM65.0002 21.6666C70.9828 21.6666 75.8335 26.5173 75.8335 32.5C75.8335 38.4826 70.9828 43.3333 65.0002 43.3333C59.0175 43.3333 54.1668 38.4826 54.1668 32.5C54.1742 26.5194 59.0196 21.6741 65.0002 21.6666Z" fill="url(#paint3_linear)"/>
<path d="M28.1665 73.6667C31.7561 73.6667 34.6665 70.7563 34.6665 67.1667C34.6665 63.5771 31.7561 60.6667 28.1665 60.6667C24.5769 60.6667 21.6665 63.5771 21.6665 67.1667C21.6665 70.7563 24.5769 73.6667 28.1665 73.6667ZM28.1665 65C29.363 65 30.3332 65.9702 30.3332 67.1667C30.3332 68.3632 29.363 69.3334 28.1665 69.3334C26.97 69.3334 25.9998 68.3632 25.9998 67.1667C25.9998 65.9702 26.97 65 28.1665 65Z" fill="url(#paint4_linear)"/>
<path d="M86.6665 67.1667C86.6665 70.7563 89.5769 73.6667 93.1665 73.6667C96.7561 73.6667 99.6665 70.7563 99.6665 67.1667C99.6665 63.5771 96.7561 60.6667 93.1665 60.6667C89.5769 60.6667 86.6665 63.5771 86.6665 67.1667ZM95.3332 67.1667C95.3332 68.3632 94.363 69.3334 93.1665 69.3334C91.97 69.3334 90.9998 68.3632 90.9998 67.1667C90.9998 65.9702 91.97 65 93.1665 65C94.363 65 95.3332 65.9702 95.3332 67.1667Z" fill="url(#paint5_linear)"/>
<path d="M101.833 43.3333C98.2439 43.3333 95.3335 46.2437 95.3335 49.8333C95.3335 53.4229 98.2439 56.3333 101.833 56.3333C105.423 56.3333 108.333 53.4229 108.333 49.8333C108.333 46.2437 105.423 43.3333 101.833 43.3333ZM101.833 52C100.637 52 99.6668 51.0298 99.6668 49.8333C99.6668 48.6368 100.637 47.6666 101.833 47.6666C103.03 47.6666 104 48.6368 104 49.8333C104 51.0298 103.03 52 101.833 52Z" fill="url(#paint6_linear)"/>
<path d="M13 60.6667H17.3333V73.6667H13V60.6667Z" fill="url(#paint7_linear)"/>
<path d="M39 60.6667H43.3333V73.6667H39V60.6667Z" fill="url(#paint8_linear)"/>
<path d="M13 43.3333H17.3333V56.3333H13V43.3333Z" fill="url(#paint9_linear)"/>
<path d="M21.6665 43.3333H25.9998V56.3333H21.6665V43.3333Z" fill="url(#paint10_linear)"/>
<path d="M104 60.6667H108.333V73.6667H104V60.6667Z" fill="url(#paint11_linear)"/>
<path d="M112.667 60.6667H117V73.6667H112.667V60.6667Z" fill="url(#paint12_linear)"/>
<path d="M112.667 43.3333H117V56.3333H112.667V43.3333Z" fill="url(#paint13_linear)"/>
</g>
<defs>
<filter id="filter0_d" x="0" y="0" width="138" height="138" filterUnits="userSpaceOnUse" color-interpolation-filters="sRGB">
<feFlood flood-opacity="0" result="BackgroundImageFix"/>
<feColorMatrix in="SourceAlpha" type="matrix" values="0 0 0 0 0 0 0 0 0 0 0 0 0 0 0 0 0 0 127 0"/>
<feOffset dx="4" dy="4"/>
<feGaussianBlur stdDeviation="2"/>
<feColorMatrix type="matrix" values="0 0 0 0 0.337255 0 0 0 0 0.8 0 0 0 0 0.94902 0 0 0 0.25 0"/>
<feBlend mode="normal" in2="BackgroundImageFix" result="effect1_dropShadow"/>
<feBlend mode="normal" in="SourceGraphic" in2="effect1_dropShadow" result="shape"/>
</filter>
<linearGradient id="paint0_linear" x1="67.9423" y1="130.442" x2="62.4108" y2="-0.710685" gradientUnits="userSpaceOnUse">
<stop stop-color="#1976D2"/>
<stop offset="1" stop-color="#56CCF2"/>
</linearGradient>
<linearGradient id="paint1_linear" x1="118.482" y1="128.312" x2="112.951" y2="-2.84055" gradientUnits="userSpaceOnUse">
<stop stop-color="#1976D2"/>
<stop offset="1" stop-color="#56CCF2"/>
</linearGradient>
<linearGradient id="paint2_linear" x1="69.1275" y1="130.379" x2="63.596" y2="-0.773502" gradientUnits="userSpaceOnUse">
<stop stop-color="#1976D2"/>
<stop offset="1" stop-color="#56CCF2"/>
</linearGradient>
<linearGradient id="paint3_linear" x1="69.1277" y1="130.392" x2="63.5983" y2="-0.76052" gradientUnits="userSpaceOnUse">
<stop stop-color="#1976D2"/>
<stop offset="1" stop-color="#56CCF2"/>
</linearGradient>
<linearGradient id="paint4_linear" x1="30.9008" y1="132.004" x2="25.3693" y2="0.851505" gradientUnits="userSpaceOnUse">
<stop stop-color="#1976D2"/>
<stop offset="1" stop-color="#56CCF2"/>
</linearGradient>
<linearGradient id="paint5_linear" x1="95.786" y1="129.27" x2="90.2545" y2="-1.88283" gradientUnits="userSpaceOnUse">
<stop stop-color="#1976D2"/>
<stop offset="1" stop-color="#56CCF2"/>
</linearGradient>
<linearGradient id="paint6_linear" x1="105.166" y1="128.873" x2="99.6365" y2="-2.27931" gradientUnits="userSpaceOnUse">
<stop stop-color="#1976D2"/>
<stop offset="1" stop-color="#56CCF2"/>
</linearGradient>
<linearGradient id="paint7_linear" x1="17.9248" y1="132.552" x2="12.3933" y2="1.39967" gradientUnits="userSpaceOnUse">
<stop stop-color="#1976D2"/>
<stop offset="1" stop-color="#56CCF2"/>
</linearGradient>
<linearGradient id="paint8_linear" x1="43.8772" y1="131.458" x2="38.3478" y2="0.305505" gradientUnits="userSpaceOnUse">
<stop stop-color="#1976D2"/>
<stop offset="1" stop-color="#56CCF2"/>
</linearGradient>
<linearGradient id="paint9_linear" x1="18.6528" y1="132.522" x2="13.1235" y2="1.36935" gradientUnits="userSpaceOnUse">
<stop stop-color="#1976D2"/>
<stop offset="1" stop-color="#56CCF2"/>
</linearGradient>
<linearGradient id="paint10_linear" x1="27.3042" y1="132.156" x2="21.7748" y2="1.00318" gradientUnits="userSpaceOnUse">
<stop stop-color="#1976D2"/>
<stop offset="1" stop-color="#56CCF2"/>
</linearGradient>
<linearGradient id="paint11_linear" x1="108.762" y1="128.722" x2="103.231" y2="-2.431" gradientUnits="userSpaceOnUse">
<stop stop-color="#1976D2"/>
<stop offset="1" stop-color="#56CCF2"/>
</linearGradient>
<linearGradient id="paint12_linear" x1="117.414" y1="128.358" x2="111.882" y2="-2.795" gradientUnits="userSpaceOnUse">
<stop stop-color="#1976D2"/>
<stop offset="1" stop-color="#56CCF2"/>
</linearGradient>
<linearGradient id="paint13_linear" x1="118.144" y1="128.325" x2="112.612" y2="-2.82748" gradientUnits="userSpaceOnUse">
<stop stop-color="#1976D2"/>
<stop offset="1" stop-color="#56CCF2"/>
</linearGradient>
</defs>
</svg>
