<svg width="535" height="488" viewBox="0 0 535 488" fill="none" xmlns="http://www.w3.org/2000/svg">
<g style="mix-blend-mode:multiply" opacity="0.1">
<path d="M51.1066 298.6C50.3343 298.946 49.6679 299.492 49.1759 300.181C48.6838 300.87 48.3838 301.677 48.3066 302.52V314C48.3793 314.86 48.6811 315.684 49.1806 316.388C49.6801 317.091 50.359 317.648 51.1466 318L249.027 432.253C251.132 433.321 253.459 433.878 255.82 433.878C258.181 433.878 260.508 433.321 262.613 432.253L387.173 359.867V348.173L51.1066 298.6Z" fill="#008EFF"/>
</g>
<path opacity="0.44" d="M419.92 269.627L229.16 159.493V29.9333L419.92 140.067V269.627Z" fill="#97DAF8"/>
<path d="M419.92 140.067L229.16 29.9333V21.1733C229.16 19.2533 230.333 18.3733 231.827 19.2L417.333 126.32C418.127 126.89 418.776 127.638 419.227 128.504C419.679 129.37 419.921 130.33 419.934 131.307L419.92 140.067Z" fill="#B6CEEA"/>
<path d="M234.187 26.7066C234.187 25.3733 235.134 24.8266 236.294 25.4933C236.906 25.8949 237.416 26.4347 237.782 27.0692C238.148 27.7038 238.36 28.4153 238.4 29.1466C238.4 30.48 237.454 31.0266 236.294 30.36C235.681 29.9583 235.171 29.4186 234.806 28.784C234.44 28.1495 234.228 27.438 234.187 26.7066Z" fill="white"/>
<path d="M244.622 34.4606C245.444 33.9857 245.446 32.4478 244.625 31.0257C243.803 29.6035 242.471 28.8357 241.648 29.3107C240.826 29.7856 240.824 31.3235 241.645 32.7457C242.466 34.1678 243.799 34.9356 244.622 34.4606Z" fill="white"/>
<path d="M247.867 34.6133C247.867 33.28 248.813 32.72 249.973 33.4C250.586 33.7979 251.097 34.335 251.463 34.9676C251.829 35.6001 252.04 36.3102 252.08 37.04C252.08 38.3733 251.133 38.92 249.973 38.2533C249.361 37.8546 248.851 37.3172 248.485 36.6849C248.119 36.0525 247.907 35.3428 247.867 34.6133Z" fill="white"/>
<path opacity="0.44" d="M439.787 310.893L249.027 200.747V71.1866L439.787 181.32V310.893Z" fill="#97DAF8"/>
<path d="M439.787 181.32L249.027 71.1867V62.4267C249.027 60.5067 250.2 59.6267 251.694 60.4533L437.227 167.573C438.033 168.136 438.694 168.881 439.158 169.747C439.621 170.614 439.873 171.578 439.894 172.56L439.787 181.32Z" fill="#B6CEEA"/>
<path d="M254.053 67.96C254.053 66.6266 255 66.08 256.16 66.7466C256.772 67.1482 257.282 67.688 257.648 68.3226C258.014 68.9571 258.226 69.6686 258.267 70.4C258.267 71.7333 257.32 72.28 256.16 71.6133C255.547 71.2117 255.038 70.6719 254.672 70.0374C254.306 69.4028 254.094 68.6913 254.053 67.96Z" fill="white"/>
<path d="M260.893 71.92C260.893 70.5867 261.84 70.0267 263 70.6933C263.612 71.095 264.122 71.6347 264.488 72.2693C264.854 72.9038 265.066 73.6154 265.106 74.3467C265.106 75.68 264.16 76.2267 263 75.56C262.387 75.1613 261.878 74.624 261.512 73.9916C261.146 73.3592 260.934 72.6495 260.893 71.92Z" fill="white"/>
<path d="M271.337 79.665C272.16 79.19 272.161 77.6521 271.34 76.23C270.519 74.8079 269.187 74.0401 268.364 74.515C267.541 74.99 267.54 76.5279 268.361 77.95C269.182 79.3721 270.515 80.14 271.337 79.665Z" fill="white"/>
<g style="mix-blend-mode:multiply" opacity="0.1">
<path d="M210.36 415L179.694 397.293C178.282 396.651 176.739 396.35 175.189 396.415C173.64 396.48 172.127 396.909 170.774 397.667L141.44 414.627C140.844 414.881 140.327 415.291 139.945 415.814C139.562 416.338 139.328 416.955 139.267 417.6C139.31 418.065 139.474 418.51 139.743 418.891C140.013 419.273 140.377 419.577 140.8 419.773L171.467 437.48C172.88 438.118 174.423 438.417 175.971 438.352C177.52 438.287 179.033 437.861 180.387 437.107L209.72 420.147C210.324 419.892 210.846 419.476 211.23 418.945C211.613 418.413 211.843 417.787 211.894 417.133C211.844 416.676 211.677 416.239 211.408 415.865C211.139 415.491 210.778 415.193 210.36 415Z" fill="#008EFF"/>
</g>
<g style="mix-blend-mode:multiply" opacity="0.1">
<path d="M165.933 414.333L135.267 396.627C133.854 395.988 132.311 395.69 130.762 395.755C129.213 395.82 127.701 396.246 126.347 397L97.0133 413.96C96.4161 414.214 95.8981 414.625 95.5135 415.148C95.1288 415.671 94.8916 416.287 94.8267 416.933C94.8697 417.398 95.0339 417.843 95.303 418.225C95.5721 418.606 95.9366 418.91 96.36 419.107L127.027 436.813C128.439 437.455 129.982 437.755 131.531 437.69C133.081 437.625 134.593 437.197 135.947 436.44L165.28 419.48C165.884 419.223 166.406 418.807 166.791 418.277C167.177 417.746 167.41 417.12 167.467 416.467C167.417 416.009 167.25 415.572 166.981 415.198C166.712 414.824 166.351 414.526 165.933 414.333Z" fill="#008EFF"/>
</g>
<g style="mix-blend-mode:multiply" opacity="0.1">
<path d="M114.947 227.507L65.6132 199.027C61.9332 196.907 55.5065 197.173 51.2532 199.627L3.99984 226.907C1.63984 228.24 0.453166 230.04 0.493166 231.693C0.56355 232.444 0.829638 233.163 1.26483 233.778C1.70003 234.393 2.28909 234.884 2.97317 235.2L52.3065 263.68C55.9865 265.8 62.3998 265.533 66.6532 263.08L113.92 235.8C116.32 234.467 117.52 232.627 117.427 230.947C117.343 230.209 117.07 229.505 116.636 228.903C116.202 228.3 115.62 227.82 114.947 227.507Z" fill="#008EFF"/>
</g>
<path d="M175.666 221.24L51.1063 293.667C47.3596 295.84 47.3729 299.36 51.1063 301.533L248.986 415.787C251.091 416.858 253.418 417.416 255.78 417.416C258.141 417.416 260.469 416.858 262.573 415.787L387.133 343.4L175.666 221.24Z" fill="url(#paint0_linear)"/>
<path d="M380.787 187.52C382.769 188.804 384.418 190.539 385.6 192.583C386.782 194.627 387.463 196.922 387.587 199.28L387.174 343.28L175.667 221.24L176.067 77.24C176.067 72.9067 179.147 71.16 182.92 73.3333L380.787 187.52ZM281.84 134.187C280.774 133.573 279.907 134.067 279.907 135.293C279.941 135.959 280.134 136.607 280.467 137.184C280.801 137.762 281.267 138.251 281.827 138.613C282.894 139.227 283.76 138.733 283.76 137.52C283.726 136.852 283.534 136.202 283.2 135.623C282.866 135.044 282.4 134.552 281.84 134.187Z" fill="url(#paint1_linear)"/>
<path d="M183.787 85.1866V214.2L379.947 327.573V198.333L183.787 85.1866Z" fill="#26186A"/>
<path d="M384.894 185.133L187.014 70.88C186.319 70.3771 185.504 70.0687 184.65 69.9867C183.797 69.9046 182.937 70.0519 182.16 70.4133L178.067 72.8C178.844 72.4386 179.704 72.2913 180.557 72.3733C181.41 72.4554 182.226 72.7638 182.92 73.2666L380.787 187.52C382.769 188.804 384.418 190.539 385.6 192.583C386.782 194.627 387.463 196.922 387.587 199.28L387.174 343.28L391.28 340.893L391.68 196.827C391.545 194.482 390.861 192.202 389.682 190.17C388.503 188.139 386.863 186.414 384.894 185.133Z" fill="url(#paint2_linear)"/>
<path d="M262.667 415.733C260.562 416.805 258.235 417.363 255.873 417.363C253.512 417.363 251.184 416.805 249.08 415.733L51.1466 301.493C50.3581 301.142 49.6785 300.586 49.1788 299.882C48.6792 299.179 48.3779 298.353 48.3066 297.493V302.24C48.3779 303.1 48.6792 303.925 49.1788 304.629C49.6785 305.333 50.3581 305.889 51.1466 306.24L249.027 420.493C251.131 421.565 253.459 422.123 255.82 422.123C258.181 422.123 260.509 421.565 262.613 420.493L387.173 348.107V343.36L262.667 415.733Z" fill="url(#paint3_linear)"/>
<path d="M190.667 239.84L180.827 245.573L168.44 238.413L178.28 232.693L190.667 239.84ZM192.64 240.973L182.787 246.707L195.187 253.853L205.027 248.133L192.64 240.973ZM161.173 242.627L151.333 248.36L163.72 255.507L173.573 249.787L161.173 242.627ZM206.987 249.293L197.173 255L209.56 262.16L219.413 256.44L206.987 249.293ZM137.547 256.333L127.693 262.053L140.08 269.213L149.933 263.48L137.547 256.333ZM163.733 257.733L153.88 263.467L166.267 270.627L176.12 264.893L163.733 257.733ZM189.92 259.16L180.067 264.88L192.453 272.027L202.307 266.307L189.92 259.16ZM204.267 267.44L194.427 273.16L206.813 280.32L216.667 274.6L204.267 267.44ZM250.08 274.107L240.227 279.827L252.627 286.987L262.48 281.253L250.08 274.107ZM192.44 274.333L182.587 280.067L194.987 287.227L204.84 281.493L192.44 274.333ZM180.6 281.213L170.747 286.947L183.147 294.107L193 288.373L180.6 281.213ZM264.44 282.387L254.587 288.12L266.987 295.267L276.84 289.547L264.44 282.387ZM232.973 284.04L223.133 289.76L235.52 296.92L245.373 291.2L232.973 284.04ZM194.96 289.507L185.107 295.24L197.507 302.387L207.36 296.667L194.96 289.507ZM278.8 290.68L268.947 296.4L281.333 303.56L291.187 297.84L278.8 290.68ZM221.147 290.92L211.293 296.64L223.693 303.8L233.547 298.067L221.147 290.92ZM247.333 292.333L237.493 298.053L249.88 305.213L259.733 299.493L247.333 292.333ZM183.133 296.333L173.333 302.133L185.733 309.293L195.573 303.573L183.133 296.333ZM209.333 297.813L199.48 303.547L211.867 310.707L221.72 304.973L209.333 297.813ZM293.16 299L283.32 304.72L295.707 311.88L305.56 306.147L293.16 299ZM235.52 299.227L225.667 304.96L238.067 312.12L247.92 306.387L235.52 299.227ZM261.707 300.653L251.867 306.373L264.253 313.52L274.093 307.8L261.707 300.653ZM223.693 306.107L213.827 311.84L226.227 319L236.08 313.267L223.693 306.107ZM307.52 307.28L297.68 313.013L310.067 320.16L319.907 314.44L307.52 307.28ZM249.88 307.52L240.027 313.253L252.413 320.4L262.267 314.68L249.88 307.52ZM276 308.933L266.147 314.653L278.547 321.813L288.387 316.093L276 308.933ZM185.587 311.6L175.747 317.32L188.147 324.48L197.987 318.76L185.587 311.6ZM237.987 314.427L228.12 320.16L240.507 327.307L250.373 321.573L237.987 314.427ZM321.8 315.6L312 321.293L324.4 328.453L334.24 322.733L321.8 315.6ZM264.16 315.84L254.307 321.56L266.707 328.72L276.56 322.987L264.16 315.84ZM252.333 322.707L242.48 328.44L254.867 335.6L264.733 329.867L252.333 322.707ZM336.16 323.893L326.32 329.613L338.707 336.76L348.56 331.04L336.16 323.893ZM304.707 325.533L294.853 331.253L307.253 338.413L317.107 332.693L304.707 325.533ZM226.147 321.307L216.347 327L243.093 342.44L252.947 336.72L226.147 321.307ZM350.52 332.173L340.667 337.893L353.067 345.053L362.907 339.333L350.52 332.173ZM292.933 332.333L283.08 338.053L295.467 345.213L305.32 339.493L292.933 332.333ZM319.12 333.747L309.333 339.52L321.72 346.68L331.573 340.947L319.12 333.747ZM200 319.867L190.16 325.587L231.267 349.32L241.107 343.6L200 319.867ZM281.093 339.267L271.24 344.987L283.64 352.147L293.493 346.413L281.093 339.267ZM307.293 340.68L297.44 346.4L309.827 353.547L319.68 347.827L307.293 340.68ZM333.467 342.08L323.627 347.813L336 355L345.853 349.28L333.467 342.08ZM216.88 343.32L207.027 349.04L219.427 356.2L229.28 350.48L216.88 343.32ZM269.253 346.133L259.413 351.867L271.813 359.013L281.653 353.293L269.253 346.133ZM295.453 347.547L285.6 353.28L297.987 360.427L307.84 354.707L295.453 347.547ZM321.64 348.96L311.787 354.68L324.187 361.84L334.04 356.12L321.64 348.96ZM257.427 352.96L247.573 358.68L259.973 365.84L269.827 360.12L257.427 352.96ZM283.613 354.373L273.773 360.093L286.16 367.253L296.013 361.533L283.613 354.373ZM309.8 355.787L300 361.56L312.4 368.72L322.253 363L309.8 355.787ZM245.587 359.787L235.747 365.667L248.133 372.827L257.987 367.107L245.587 359.787ZM271.787 361.2L261.933 367L274.32 374.16L284.173 368.427L271.787 361.2ZM297.973 362.613L288.12 368.333L300.52 375.493L310.36 369.76L297.973 362.613ZM260 368.187L250.16 373.907L262.547 381.053L272.387 375.333L260 368.187ZM286.187 369.587L276.347 375.32L288.733 382.467L298.587 376.747L286.187 369.587ZM274.36 376.467L264.507 382.187L276.907 389.347L286.747 383.627L274.36 376.467ZM149.333 249.507L139.48 255.227L151.867 262.387L161.733 256.653L149.333 249.507ZM175.52 250.92L165.667 256.64L178.067 263.8L187.92 258.067L175.52 250.92ZM221.333 257.587L211.48 263.307L223.88 270.453L233.72 264.733L221.333 257.587ZM151.853 264.693L142 270.427L154.4 277.573L164.253 271.853L151.853 264.693ZM235.693 265.867L225.84 271.587L238.24 278.747L248.08 273.027L235.693 265.867ZM178.053 266.107L168.2 271.84L180.587 278.987L190.44 273.253L178.053 266.107ZM113.84 270.107L103.987 275.84L116.373 282.987L126.227 277.267L113.84 270.107ZM125.667 263.227L115.827 268.96L142.667 284.427L152.507 278.707L125.667 263.227ZM166.213 272.933L156.36 278.653L168.747 285.813L178.6 280.08L166.213 272.933ZM218.667 275.787L208.813 281.507L221.213 288.667L231.067 282.933L218.667 275.787ZM102.08 277.013L92.2266 282.733L104.613 289.893L114.467 284.173L102.08 277.013ZM128.267 278.427L118.413 284.147L130.813 291.307L140.667 285.573L128.267 278.427ZM154.453 279.84L144.613 285.56L157 292.707L166.853 286.987L154.453 279.84ZM206.84 282.653L196.987 288.387L209.333 295.533L219.2 289.813L206.84 282.653ZM116.427 285.32L106.547 291L118.933 298.16L128.787 292.427L116.427 285.32ZM142.627 286.653L132.773 292.387L145.16 299.533L155.013 293.813L142.627 286.653ZM168.813 288.067L158.96 293.787L171.36 300.947L181.2 295.227L168.813 288.067ZM156.933 295L147.093 300.72L159.48 307.88L169.333 302.16L156.933 295ZM171.293 303.293L161.44 309.013L173.84 316.173L183.693 310.44L171.293 303.293ZM197.48 304.627L187.627 310.36L200.027 317.507L209.88 311.787L197.48 304.627ZM211.84 312.92L201.987 318.64L214.387 325.8L224.24 320.08L211.84 312.92ZM130.747 293.52L120.907 299.253L190.667 339.627L200.507 333.893L130.747 293.52ZM202.533 335L192.68 340.733L205.067 347.88L214.92 342.16L202.533 335ZM163.547 328.427L136.88 343.907L170.387 363.253L197.053 347.773L163.547 328.427Z" fill="url(#paint4_linear)"/>
<path d="M281.827 139C283.053 139.707 284.04 139.147 284.053 137.667C284.011 136.9 283.788 136.154 283.403 135.489C283.019 134.824 282.483 134.259 281.84 133.84C280.613 133.133 279.627 133.707 279.613 135.173C279.654 135.941 279.876 136.687 280.26 137.352C280.645 138.018 281.182 138.582 281.827 139Z" fill="#170C2A"/>
<path d="M249.333 198.2L241.227 186.893V183.387L249.333 181.4V184.92L243.507 186.44L249.333 194.68V198.2Z" fill="white"/>
<path d="M256.933 204.053C256.187 203.636 255.501 203.121 254.893 202.52C254.372 201.991 253.923 201.394 253.56 200.747C253.194 200.092 252.917 199.393 252.733 198.667C252.532 197.915 252.394 197.148 252.32 196.373C252.233 195.487 252.193 194.597 252.2 193.707V189.333C252.183 188.303 252.25 187.273 252.4 186.253C252.488 185.568 252.729 184.912 253.106 184.333C253.264 184.096 253.485 183.906 253.744 183.786C254.003 183.666 254.29 183.62 254.573 183.653C255.434 183.769 256.258 184.074 256.986 184.547C257.784 185.002 258.523 185.552 259.186 186.187C259.743 186.751 260.195 187.41 260.52 188.133C260.852 188.845 261.086 189.598 261.213 190.373C261.353 191.255 261.42 192.147 261.413 193.04V194.173L258.666 192.68V191.533C258.707 190.578 258.586 189.622 258.306 188.707C258.056 188.061 257.583 187.527 256.973 187.2C256.226 186.773 255.746 186.787 255.52 187.2C255.222 188.225 255.109 189.295 255.186 190.36V196.333C255.132 197.497 255.258 198.662 255.56 199.787C255.817 200.494 256.325 201.082 256.986 201.44C257.209 201.591 257.466 201.682 257.733 201.707C257.821 201.718 257.91 201.71 257.995 201.685C258.08 201.66 258.159 201.617 258.226 201.56C258.369 201.408 258.466 201.218 258.506 201.013C258.573 200.747 258.614 200.474 258.626 200.2C258.626 199.907 258.626 199.56 258.626 199.12V197.667L261.373 199.24V200.573C261.392 201.401 261.32 202.228 261.16 203.04C261.066 203.589 260.821 204.101 260.453 204.52C260.283 204.696 260.073 204.826 259.84 204.901C259.607 204.975 259.36 204.991 259.12 204.947C258.34 204.794 257.597 204.491 256.933 204.053Z" fill="white"/>
<path d="M268.573 210.773C267.727 210.291 266.959 209.684 266.293 208.973C265.673 208.308 265.173 207.542 264.813 206.707C264.451 205.851 264.192 204.956 264.04 204.04C263.868 203.036 263.783 202.019 263.786 201V195.52C263.773 194.594 263.858 193.668 264.04 192.76C264.155 192.129 264.42 191.534 264.813 191.027C264.995 190.818 265.225 190.657 265.482 190.557C265.74 190.458 266.018 190.422 266.293 190.453C267.107 190.559 267.886 190.846 268.573 191.293C270.184 192.177 271.473 193.55 272.253 195.213C273.029 197.055 273.401 199.042 273.346 201.04V206.52C273.346 208.787 272.986 210.307 272.253 211.08C271.52 211.853 270.293 211.773 268.573 210.773ZM268.573 208.187C268.791 208.327 269.037 208.418 269.293 208.453C269.385 208.47 269.479 208.462 269.566 208.429C269.653 208.396 269.729 208.34 269.786 208.267C269.899 208.116 269.997 207.955 270.08 207.787C270.165 207.527 270.218 207.259 270.24 206.987C270.24 206.613 270.24 206.307 270.24 206.067V198.173C270.24 197.96 270.24 197.68 270.24 197.32C270.234 197.03 270.207 196.74 270.16 196.453C270.16 196.24 270.053 196 269.973 195.707C269.901 195.449 269.793 195.202 269.653 194.973C269.515 194.769 269.359 194.577 269.186 194.4C269.009 194.196 268.797 194.024 268.56 193.893C268.386 193.789 268.197 193.712 268 193.667C267.847 193.629 267.686 193.629 267.533 193.667C267.459 193.703 267.392 193.753 267.337 193.815C267.282 193.876 267.24 193.949 267.213 194.027C267.139 194.2 267.077 194.378 267.026 194.56C266.97 194.81 266.939 195.064 266.933 195.32C266.933 195.653 266.933 195.933 266.933 196.133C266.933 196.333 266.933 196.627 266.933 197.04V203C266.933 203.413 266.933 203.72 266.933 203.92C266.933 204.12 266.933 204.413 266.933 204.773C266.943 205.06 266.974 205.345 267.026 205.627C267.026 205.84 267.133 206.093 267.213 206.387C267.291 206.638 267.398 206.88 267.533 207.107C267.664 207.317 267.821 207.509 268 207.68C268.168 207.873 268.361 208.043 268.573 208.187Z" fill="white"/>
<path d="M279.92 217.333C278.505 216.524 277.406 215.26 276.8 213.747C276.06 211.665 275.725 209.461 275.813 207.253V203.573C275.813 202.64 275.813 201.813 275.893 201.12C275.951 200.451 276.076 199.79 276.266 199.147C276.394 198.656 276.631 198.2 276.96 197.813C277.108 197.655 277.288 197.529 277.488 197.444C277.687 197.359 277.903 197.317 278.12 197.32C278.723 197.347 279.308 197.536 279.813 197.867C280.95 198.632 281.869 199.679 282.48 200.907V192.067L285.52 193.813V220.333L282.48 218.573V217.36C282.098 217.609 281.651 217.739 281.196 217.734C280.74 217.73 280.296 217.59 279.92 217.333ZM280.68 215C281.236 215.336 281.891 215.468 282.533 215.373V203C282.04 202.229 281.39 201.571 280.626 201.067C279.44 200.387 278.84 201.36 278.84 203.987V209.32C278.84 209.92 278.84 210.427 278.84 210.853C278.857 211.301 278.906 211.746 278.986 212.187C279.041 212.592 279.14 212.989 279.28 213.373C279.418 213.708 279.602 214.022 279.826 214.307C280.06 214.595 280.35 214.831 280.68 215Z" fill="white"/>
<path d="M293.187 224.987C292.302 224.487 291.494 223.863 290.787 223.133C290.152 222.453 289.646 221.662 289.294 220.8C288.941 219.911 288.69 218.985 288.547 218.04C288.399 216.908 288.328 215.768 288.334 214.627V210.293C288.318 209.227 288.393 208.16 288.56 207.107C288.664 206.423 288.929 205.774 289.334 205.213C289.511 204.995 289.741 204.826 290.003 204.723C290.265 204.62 290.549 204.587 290.827 204.627C291.659 204.758 292.454 205.062 293.16 205.52C293.717 205.83 294.239 206.196 294.72 206.613C295.148 206.976 295.541 207.378 295.894 207.813C296.22 208.224 296.497 208.672 296.72 209.147C296.954 209.635 297.141 210.144 297.28 210.667C297.442 211.234 297.558 211.814 297.627 212.4C297.707 213.053 297.76 213.733 297.787 214.293C297.814 214.853 297.787 215.627 297.787 216.413V217.933L291.347 214.213V218.133C291.347 218.387 291.347 218.733 291.347 219.16C291.372 219.502 291.426 219.841 291.507 220.173C291.595 220.45 291.697 220.721 291.814 220.987C291.928 221.272 292.101 221.531 292.32 221.747C292.544 221.969 292.795 222.162 293.067 222.32C293.734 222.707 294.174 222.707 294.4 222.32C294.684 221.647 294.803 220.915 294.747 220.187V219.027L297.707 220.747V221.48C297.769 225.596 296.263 226.764 293.187 224.987ZM291.374 212.333L294.84 214.347V212.627C294.84 212.133 294.84 211.707 294.84 211.293C294.81 210.935 294.761 210.579 294.694 210.227C294.64 209.909 294.546 209.6 294.414 209.307C294.289 209.046 294.122 208.807 293.92 208.6C293.699 208.362 293.443 208.16 293.16 208C292.44 207.587 291.974 207.613 291.747 208.067C291.435 209.103 291.318 210.188 291.4 211.267L291.374 212.333Z" fill="white"/>
<path d="M299.854 228.56L306.04 205.667L308.707 207.187L302.493 230.107L299.854 228.56Z" fill="white"/>
<path d="M311.133 233.907V230.387L316.973 228.867L311.133 220.627V217.107L319.28 228.44V231.96L311.133 233.907Z" fill="white"/>
<path d="M391.533 78.4133L388.333 87.5067L391.76 101.053L388.52 99.1867L386.013 88.84L383.48 96.28L380.613 94.6267L384.04 85.0267L380.84 72.24L384 74.08L386.307 83.7067L388.68 76.7733L391.533 78.4133Z" fill="#26186A"/>
<path d="M400.134 99.36L402.227 84.5866L406.48 87.0533V109.56L403.587 107.88V91.7466L401.48 106.667L398.574 104.987L396.294 87.76V103.667L393.627 102.133V79.6266L397.88 82.08L400.134 99.36Z" fill="#26186A"/>
<path d="M408.494 88.2133L411.547 89.9733V109.267L416.6 112.173V115.387L408.494 110.72V88.2133Z" fill="#26186A"/>
<path d="M304.307 124.573V127.56C304.307 129.387 303.92 130.547 303.147 131.067C302.374 131.587 301.24 131.413 299.747 130.547C298.31 129.747 297.128 128.559 296.334 127.12C295.542 125.622 295.143 123.948 295.174 122.253V110.547C295.174 108.733 295.56 107.547 296.334 107.027C297.107 106.507 298.24 106.667 299.747 107.533C301.179 108.334 302.357 109.521 303.147 110.96C303.939 112.458 304.338 114.132 304.307 115.827V118.013L301.414 116.333V113.933C301.442 113.25 301.295 112.57 300.987 111.96C300.707 111.476 300.308 111.072 299.827 110.787C299.666 110.657 299.474 110.573 299.269 110.545C299.065 110.517 298.856 110.545 298.667 110.627C298.387 110.787 298.24 111.28 298.24 112.093V124.333C298.214 125.012 298.36 125.687 298.667 126.293C298.951 126.767 299.35 127.161 299.827 127.44C299.989 127.566 300.18 127.649 300.383 127.681C300.586 127.714 300.793 127.695 300.987 127.627C301.267 127.467 301.414 126.987 301.414 126.173V122.947L304.307 124.573Z" fill="#26186A"/>
<path d="M306.067 116.84C306.067 115.027 306.44 113.84 307.187 113.293C307.933 112.747 309.067 112.92 310.573 113.787C312.004 114.579 313.179 115.763 313.96 117.2C314.728 118.701 315.112 120.368 315.08 122.053V122.92L312.187 121.24V120.147C312.219 119.474 312.082 118.805 311.787 118.2C311.531 117.713 311.137 117.314 310.653 117.053C310.173 116.778 309.8 116.724 309.533 116.893C309.253 117.067 309.12 117.56 309.12 118.387C309.128 119.173 309.281 119.95 309.573 120.68C309.883 121.478 310.248 122.253 310.667 123C311.12 123.773 311.6 124.573 312.107 125.4C312.613 126.213 313.093 127.067 313.547 127.947C313.992 128.834 314.362 129.757 314.653 130.707C314.949 131.697 315.098 132.726 315.093 133.76C315.093 135.587 314.72 136.76 313.947 137.293C313.173 137.827 312.04 137.653 310.533 136.787C309.097 135.987 307.914 134.799 307.12 133.36C306.332 131.861 305.938 130.186 305.973 128.493V127L308.867 128.68V130.453C308.859 131.11 309.02 131.757 309.333 132.333C309.61 132.812 310.011 133.208 310.493 133.48C310.973 133.76 311.36 133.827 311.64 133.667C311.92 133.507 312.08 133.027 312.08 132.213C312.079 131.422 311.925 130.639 311.627 129.907C311.313 129.108 310.943 128.333 310.52 127.587C310.067 126.813 309.587 126.013 309.08 125.187C308.573 124.36 308.093 123.52 307.653 122.64C307.198 121.751 306.823 120.823 306.533 119.867C306.23 118.886 306.073 117.866 306.067 116.84Z" fill="#26186A"/>
<path d="M316.813 123C316.813 121.173 317.186 119.987 317.946 119.453C318.706 118.92 319.813 119.067 321.32 119.933C322.751 120.725 323.926 121.91 324.707 123.347C325.479 124.846 325.868 126.513 325.84 128.2V129.067L322.933 127.4V126.307C322.963 125.63 322.825 124.957 322.533 124.347C322.27 123.866 321.877 123.469 321.4 123.2C320.92 122.924 320.546 122.871 320.28 123.04C320.013 123.227 319.88 123.72 319.88 124.533C319.882 125.318 320.032 126.096 320.32 126.827C320.633 127.628 321.007 128.403 321.44 129.147C321.88 129.933 322.36 130.733 322.867 131.547C323.373 132.36 323.853 133.227 324.307 134.093C324.754 134.984 325.124 135.912 325.413 136.867C325.715 137.856 325.868 138.885 325.867 139.92C325.867 141.747 325.48 142.92 324.707 143.453C323.933 143.987 322.8 143.813 321.293 142.947C319.853 142.146 318.67 140.953 317.88 139.507C317.092 138.012 316.698 136.342 316.733 134.653V133.107L319.627 134.773V136.56C319.6 137.239 319.747 137.914 320.053 138.52C320.333 139 320.733 139.4 321.213 139.68C321.375 139.806 321.567 139.889 321.769 139.921C321.972 139.954 322.18 139.935 322.373 139.867C322.653 139.707 322.8 139.227 322.8 138.4C322.797 137.615 322.648 136.837 322.36 136.107C322.041 135.308 321.667 134.533 321.24 133.787C320.786 133 320.32 132.2 319.8 131.373C319.28 130.547 318.813 129.707 318.373 128.827C317.927 127.933 317.552 127.006 317.253 126.053C316.955 125.063 316.807 124.034 316.813 123Z" fill="#26186A"/>
<path d="M465.253 290.533L465.787 290.867L466.307 291.173C466.668 291.426 467.11 291.535 467.547 291.48C467.893 291.4 468.067 290.92 468.067 290.04V272.84L471.133 274.6V291.52C471.173 292.397 471.051 293.274 470.773 294.107C470.603 294.604 470.25 295.019 469.787 295.267C469.361 295.43 468.894 295.453 468.453 295.333C467.874 295.176 467.318 294.942 466.8 294.64L466.04 294.2L465.32 293.72L465.253 290.533Z" fill="#26186A"/>
<path d="M482.667 303.787L479.587 302L479.053 297.613L475.293 295.44L474.76 299.213L472 297.667L475.12 276.947L479.613 279.613L482.667 303.787ZM475.68 292.613L478.64 294.32L477.16 282.08L475.68 292.613Z" fill="#26186A"/>
<path d="M488.093 302.76L490.427 285.747L493.24 287.373L490.227 308.147L485.667 305.48L482.667 281.267L485.76 283.04L488.093 302.76Z" fill="#26186A"/>
<path d="M504 316.053L500.906 314.267L500.386 309.88L496.626 307.707L496.093 311.48L493.28 309.853L496.4 289.16L500.88 291.747L504 316.053ZM497.013 304.88L499.96 306.587L498.48 294.347L497.013 304.88Z" fill="#26186A"/>
<path d="M408.267 313.56C408.267 311.729 408.64 310.542 409.387 310C410.134 309.467 411.267 309.627 412.774 310.493C414.204 311.285 415.379 312.47 416.16 313.907C416.928 315.407 417.313 317.075 417.28 318.76V319.627L414.387 317.947V316.853C414.419 316.181 414.282 315.512 413.987 314.907C413.724 314.426 413.331 314.029 412.854 313.76C412.374 313.484 412 313.431 411.734 313.6C411.454 313.773 411.32 314.28 411.32 315.093C411.321 315.88 411.475 316.659 411.774 317.387C412.087 318.185 412.457 318.96 412.88 319.707C413.334 320.493 413.8 321.28 414.32 322.107C414.84 322.933 415.307 323.773 415.747 324.653C416.199 325.544 416.573 326.472 416.867 327.427C417.165 328.417 417.313 329.446 417.307 330.48C417.307 332.293 416.92 333.48 416.16 334C415.4 334.52 414.24 334.36 412.747 333.493C411.31 332.693 410.128 331.506 409.334 330.067C408.542 328.569 408.143 326.894 408.174 325.2V323.653L411.067 325.333V327.12C411.036 327.801 411.188 328.478 411.507 329.08C411.775 329.562 412.172 329.959 412.654 330.227C413.147 330.507 413.52 330.573 413.814 330.413C414.107 330.253 414.24 329.773 414.24 328.96C414.238 328.17 414.088 327.388 413.8 326.653C413.489 325.858 413.119 325.087 412.694 324.347C412.24 323.56 411.76 322.76 411.254 321.933C410.747 321.107 410.267 320.267 409.814 319.387C409.366 318.496 408.996 317.568 408.707 316.613C408.403 315.624 408.255 314.594 408.267 313.56Z" fill="#26186A"/>
<path d="M418.974 319.733C418.974 317.92 419.374 316.747 420.174 316.227C420.974 315.707 422.134 315.893 423.627 316.76C425.073 317.572 426.268 318.767 427.08 320.213C427.896 321.714 428.309 323.399 428.28 325.107V336.813C428.346 337.787 428.143 338.76 427.694 339.627C427.75 339.836 427.85 340.032 427.987 340.2C428.159 340.359 428.352 340.493 428.56 340.6L428.84 340.76V343.92L428.414 343.68C427.783 343.332 427.216 342.881 426.734 342.347C426.306 341.851 425.98 341.275 425.774 340.653C425.433 340.592 425.099 340.503 424.774 340.387C424.379 340.232 423.995 340.05 423.627 339.84C422.184 339.024 420.99 337.83 420.174 336.387C419.358 334.886 418.945 333.201 418.974 331.493V319.733ZM422.04 333.427C422.007 334.112 422.159 334.794 422.48 335.4C422.747 335.889 423.144 336.295 423.627 336.573C423.789 336.699 423.982 336.78 424.186 336.808C424.389 336.836 424.596 336.811 424.787 336.733C425.067 336.573 425.214 336.08 425.214 335.267V323.107C425.24 322.428 425.093 321.753 424.787 321.147C424.511 320.66 424.111 320.255 423.627 319.973C423.147 319.693 422.76 319.64 422.48 319.813C422.2 319.987 422.04 320.467 422.04 321.28V333.427Z" fill="#26186A"/>
<path d="M430.667 321.08L433.72 322.853V342.147L438.76 345.053V348.333L430.667 343.667V321.08Z" fill="#26186A"/>
<path d="M431.467 198.067C432.913 198.857 434.105 200.04 434.907 201.48C435.682 202.954 436.072 204.601 436.04 206.267V209.2C436.04 211.027 435.654 212.187 434.907 212.693C434.16 213.2 433.014 213.013 431.467 212.12L430.027 211.293V219.747L426.96 217.973V195.467L431.467 198.067ZM430.027 200.453V208.067L431.467 208.907C431.947 209.182 432.32 209.249 432.587 209.107C432.84 208.947 432.974 208.467 432.974 207.653V204.333C433.008 203.68 432.875 203.028 432.587 202.44C432.316 201.984 431.929 201.607 431.467 201.347L430.027 200.453Z" fill="#26186A"/>
<path d="M440.88 226.013L437.813 224.24V201.733L440.88 203.507V213.147L444.36 215.16V205.52L447.48 207.32V229.827L444.36 228.027V218.373L440.88 216.373V226.013Z" fill="#26186A"/>
<path d="M454 211.08C455.437 211.877 456.626 213.053 457.44 214.48C458.213 215.96 458.598 217.611 458.56 219.28V222.2C458.56 224.027 458.187 225.187 457.44 225.707C456.694 226.227 455.534 226.027 454 225.133L452.547 224.293V232.747L449.494 231V208.48L454 211.08ZM452.547 213.453V221.08L454 221.92C454.48 222.2 454.854 222.253 455.107 222.107C455.36 221.96 455.507 221.48 455.507 220.667V217.28C455.542 216.625 455.404 215.972 455.107 215.387C454.844 214.928 454.462 214.55 454 214.293L452.547 213.453Z" fill="#26186A"/>
<path d="M80.0003 24.64L76.9336 22.8666V0.333313L80.0003 2.10665V11.7466L83.4803 13.76V4.13331L86.6669 5.93331V28.4533L83.5469 26.6533V17L80.0003 15V24.64Z" fill="#26186A"/>
<path d="M88.2134 6.86664L97.68 12.3333V15.56L94.48 13.6666V33L91.4134 31.2266V11.9333L88.2134 10.0933V6.86664Z" fill="#26186A"/>
<path d="M105.787 33L107.867 18.2267L112.134 20.68V43.1867L109.24 41.52V25.3733L107.12 40.3333L104.227 38.6667L101.934 21.4267V37.3067L99.2671 35.76V13.2533L103.534 15.72L105.787 33Z" fill="#26186A"/>
<path d="M114.133 21.84L117.2 23.6133V42.9067L122.24 45.8133V49.0267L114.133 44.3333V21.84Z" fill="#26186A"/>
<path d="M126.44 44.1866V46.2933C126.407 46.9744 126.559 47.6517 126.88 48.2533C127.151 48.7356 127.547 49.1362 128.027 49.4133C128.189 49.539 128.38 49.6219 128.583 49.6546C128.785 49.6872 128.993 49.6684 129.187 49.6C129.48 49.44 129.613 48.9466 129.613 48.1333V43.16C129.646 42.4762 129.499 41.7957 129.187 41.1866C128.91 40.7034 128.51 40.3029 128.027 40.0266C127.867 39.8997 127.678 39.8168 127.476 39.7864C127.275 39.756 127.069 39.779 126.88 39.8533C126.587 40.0133 126.44 40.5066 126.44 41.32V42L123.547 40.3333L124.107 27.6L132.187 32.2533V35.4666L126.853 32.4L126.667 37.6666C127.24 36.9066 128.133 36.88 129.333 37.5733C130.429 38.2137 131.3 39.1779 131.827 40.3333C132.43 41.6915 132.722 43.1676 132.68 44.6533V49.6666C132.68 51.4933 132.293 52.6666 131.52 53.2C130.747 53.7333 129.613 53.56 128.12 52.6933C126.68 51.8922 125.496 50.6994 124.707 49.2533C123.915 47.76 123.516 46.0899 123.547 44.4V42.5333L126.44 44.1866Z" fill="#26186A"/>
<path d="M0.493652 209.32V222.653C0.565694 223.376 0.824988 224.067 1.24589 224.659C1.66679 225.25 2.23474 225.722 2.89366 226.027L52.5603 254.693C56.2003 256.8 62.6003 256.533 66.8137 254.093L114.4 226.627C115.219 226.242 115.945 225.685 116.529 224.995C117.113 224.305 117.542 223.497 117.787 222.627V209.293L0.493652 209.32Z" fill="url(#paint5_linear)"/>
<path d="M115.44 205.92L65.7736 177.253C63.8724 176.256 61.7463 175.764 59.6002 175.827C56.7783 175.804 53.9973 176.501 51.5202 177.853L4.00023 205.32C1.76023 206.653 0.506896 208.307 0.560229 209.96C0.632271 210.682 0.891545 211.374 1.31245 211.965C1.73335 212.557 2.30132 213.028 2.96023 213.333L52.6269 242C56.2669 244.107 62.6669 243.84 66.8802 241.413L114.4 213.933C116.667 212.6 117.92 210.907 117.84 209.227C117.756 208.516 117.491 207.84 117.071 207.261C116.651 206.682 116.089 206.22 115.44 205.92Z" fill="url(#paint6_linear)"/>
<path d="M3.8667 204.333V206.56C3.93218 207.24 4.1747 207.89 4.57007 208.447C4.96544 209.004 5.49985 209.447 6.12004 209.733L52.9334 236.76C56.3734 238.747 62.4 238.493 66.3734 236.2L111.227 210.307C111.995 209.947 112.678 209.426 113.228 208.78C113.777 208.134 114.182 207.376 114.413 206.56V204.333H3.8667Z" fill="url(#paint7_linear)"/>
<path d="M112.214 200.867L65.4003 173.84C63.6016 172.911 61.5972 172.453 59.5736 172.507C56.9164 172.482 54.2966 173.134 51.9603 174.4L7.10697 200.333C5.0003 201.547 3.81362 203.133 3.86696 204.707C3.93244 205.386 4.17496 206.037 4.57033 206.594C4.9657 207.151 5.50011 207.594 6.12029 207.88L52.9336 234.907C56.3736 236.893 62.4003 236.64 66.3736 234.347L111.227 208.44C113.374 207.213 114.547 205.587 114.467 204C114.394 203.328 114.147 202.686 113.753 202.137C113.358 201.588 112.828 201.15 112.214 200.867Z" fill="url(#paint8_linear)"/>
<path d="M87.0003 237.107L67.9336 248.12V245.667L87.0003 234.653V237.107Z" fill="url(#paint9_linear)"/>
<path d="M93.5197 233.347L88.6797 236.147V233.693L93.5197 230.893V233.347Z" fill="url(#paint10_linear)"/>
<path opacity="0.44" d="M205.227 217.573L60.2402 133.867V35.3867L205.227 119.093V217.573Z" fill="#97DAF8"/>
<path d="M205.227 119.093L60.2402 35.3866V28.72C60.2402 27.2533 61.1336 26.5866 62.2269 27.2133L203.254 108.64C203.857 109.072 204.35 109.639 204.693 110.297C205.036 110.955 205.219 111.685 205.227 112.427V119.093Z" fill="url(#paint11_linear)"/>
<path d="M64.0664 32.9333C64.0664 31.92 64.7731 31.5066 65.6664 32.0133C66.1287 32.32 66.5129 32.7305 66.7884 33.212C67.0638 33.6935 67.223 34.2327 67.2531 34.7866C67.2531 35.8 66.5464 36.2133 65.6664 35.7066C65.1979 35.4054 64.8083 34.9965 64.53 34.5141C64.2516 34.0316 64.0927 33.4896 64.0664 32.9333Z" fill="white"/>
<path d="M69.2534 35.9466C69.2534 34.92 69.9734 34.5066 70.8534 35.0133C71.3189 35.3178 71.7062 35.7274 71.9842 36.2092C72.2621 36.6909 72.4229 37.2313 72.4534 37.7866C72.4534 38.8133 71.7467 39.2266 70.8534 38.7066C70.389 38.4043 70.0021 37.997 69.7242 37.5175C69.4462 37.0381 69.285 36.4999 69.2534 35.9466Z" fill="white"/>
<path d="M74.4531 39C74.4531 37.9733 75.1731 37.56 76.0531 38.0667C76.5171 38.3726 76.9034 38.7826 77.1811 39.2641C77.4589 39.7455 77.6205 40.2851 77.6531 40.84C77.6531 41.8667 76.9331 42.28 76.0531 41.76C75.5887 41.4577 75.2019 41.0503 74.9239 40.5709C74.646 40.0914 74.4847 39.5533 74.4531 39Z" fill="white"/>
<path d="M131.133 128.44L67.8931 91.92V49.0266L131.133 85.5466V128.44Z" fill="#B6CEEA"/>
<path d="M97.6264 146.96L67.8931 129.8V95.7733L97.6264 112.947V146.96Z" fill="#B6CEEA"/>
<path d="M164.146 147.493L135.76 131.107V88.2133L164.146 104.6V147.493Z" fill="#B6CEEA"/>
<path d="M196.173 174.52L135.76 139.653V135.813L196.173 170.693V174.52Z" fill="#B6CEEA"/>
<path d="M164.146 161.787L135.76 145.4V141.56L164.146 157.947V161.787Z" fill="#B6CEEA"/>
<path d="M173.6 167.24L165.973 162.827V159L173.6 163.4V167.24Z" fill="#B6CEEA"/>
<path d="M196.173 180.267L175.56 168.373V164.533L196.173 176.427V180.267Z" fill="#B6CEEA"/>
<path d="M185.573 197.747L135.76 168.987V165.16L185.573 193.907V197.747Z" fill="#B6CEEA"/>
<path d="M196.173 186.013L135.76 151.133V147.307L196.173 182.173V186.013Z" fill="#B6CEEA"/>
<path d="M196.173 191.76L173.907 178.907V175.067L196.173 187.92V191.76Z" fill="#B6CEEA"/>
<path d="M172.226 177.933L135.76 156.88V153.053L172.226 174.093V177.933Z" fill="#B6CEEA"/>
<path d="M153.346 172.773L135.76 162.627V158.787L153.346 168.947V172.773Z" fill="#B6CEEA"/>
<path d="M196.173 197.507L155.36 173.933V170.107L196.173 193.667V197.507Z" fill="#B6CEEA"/>
<path d="M196.173 165.987L167.787 149.6V106.707L196.173 123.093V165.987Z" fill="#B6CEEA"/>
<path d="M131.134 166.32L101.414 149.147V115.133L131.134 132.293V166.32Z" fill="#B6CEEA"/>
<g style="mix-blend-mode:multiply" opacity="0.1">
<path d="M354.4 487.32L297.08 454.227L367.013 413.84H390.48L436.08 440.16L354.4 487.32Z" fill="#008EFF"/>
</g>
<path d="M354.613 478.173L297.28 445.08L367.226 404.693H390.693L436.28 431.027L354.613 478.173Z" fill="white"/>
<path d="M378.96 411.467L367.227 404.693H390.693L378.96 411.467Z" fill="#80D4F9"/>
<path d="M343.053 437.573L331.44 430.867L338.8 426.613L350.413 433.32L343.053 437.573Z" fill="#B6CEEA"/>
<path d="M356.36 436.76L349.013 441.013L360.613 447.707L367.973 443.467L356.36 436.76Z" fill="#B6CEEA"/>
<path d="M366.574 451.147L378.187 457.853L385.547 453.6L373.934 446.907L366.574 451.147Z" fill="#B6CEEA"/>
<path d="M391.293 437.6L379.533 430.813L381.76 429.52L386.934 432.507L394.307 428.267L382.693 421.56L375.333 425.813L380.52 428.8L378.28 430.093L366.52 423.293L363.253 425.187L358.08 422.187L350.72 426.44L362.32 433.147L369.68 428.893L364.507 425.907L366.52 424.733L377.04 430.813L365.12 437.693L347.56 427.547L343.987 429.613L345.227 430.333L347.56 428.987L363.88 438.413L361.547 439.747L362.8 440.467L365.12 439.12L381.453 448.547L379.12 449.893L380.36 450.613L383.934 448.547L366.36 438.413L378.28 431.52L388.8 437.6L386.787 438.76L381.6 435.773L374.24 440.027L385.854 446.72L393.213 442.48L388.027 439.48L391.293 437.6Z" fill="#B6CEEA"/>
<g style="mix-blend-mode:multiply" opacity="0.1">
<path d="M452.387 427.32L395.053 394.227L465 353.84H488.467L534.053 380.16L452.387 427.32Z" fill="#008EFF"/>
</g>
<path d="M452.387 419.6L395.053 386.507L465 346.12H488.467L534.053 372.453L452.387 419.6Z" fill="white"/>
<path d="M476.733 352.893L465 346.12H488.467L476.733 352.893Z" fill="#80D4F9"/>
<path d="M501.867 381.547L460.987 357.947L462.88 356.84L503.76 380.453L501.867 381.547Z" fill="#B6CEEA"/>
<path d="M477.347 370.68L458.133 359.587L460.04 358.493L479.24 369.573L477.347 370.68Z" fill="#B6CEEA"/>
<path d="M483.747 374.373L478.574 371.387L480.48 370.293L485.64 373.267L483.747 374.373Z" fill="#B6CEEA"/>
<path d="M499.013 383.187L485.066 375.133L486.973 374.04L500.92 382.093L499.013 383.187Z" fill="#B6CEEA"/>
<path d="M480.16 385.787L446.453 366.333L448.346 365.24L482.053 384.693L480.16 385.787Z" fill="#B6CEEA"/>
<path d="M496.173 384.827L455.293 361.227L457.187 360.133L498.067 383.733L496.173 384.827Z" fill="#B6CEEA"/>
<path d="M493.32 386.48L478.253 377.773L480.147 376.68L495.227 385.373L493.32 386.48Z" fill="#B6CEEA"/>
<path d="M477.12 377.12L452.44 362.867L454.347 361.773L479.013 376.013L477.12 377.12Z" fill="#B6CEEA"/>
<path d="M461.493 371.387L449.6 364.507L451.493 363.413L463.4 370.28L461.493 371.387Z" fill="#B6CEEA"/>
<path d="M490.48 388.12L462.854 372.173L464.76 371.067L492.373 387.013L490.48 388.12Z" fill="#B6CEEA"/>
<path d="M480.587 393.827L439.707 370.227L441.613 369.12L482.493 392.733L480.587 393.827Z" fill="#B6CEEA"/>
<path d="M456.067 382.96L436.867 371.867L438.76 370.773L457.973 381.853L456.067 382.96Z" fill="#B6CEEA"/>
<path d="M477.747 395.467L457.307 383.667L459.2 382.573L479.64 394.373L477.747 395.467Z" fill="#B6CEEA"/>
<path d="M431.133 382.053L425.173 378.613L427.08 377.52L433.027 380.947L431.133 382.053Z" fill="#B6CEEA"/>
<path d="M474.906 397.107L434.013 373.507L435.92 372.413L476.8 396.013L474.906 397.107Z" fill="#B6CEEA"/>
<path d="M472.054 398.747L456.987 390.053L458.88 388.96L473.96 397.653L472.054 398.747Z" fill="#B6CEEA"/>
<path d="M455.853 389.4L431.173 375.147L433.08 374.053L457.747 388.307L455.853 389.4Z" fill="#B6CEEA"/>
<path d="M449.08 388.773L428.333 376.8L430.227 375.693L450.974 387.68L449.08 388.773Z" fill="#B6CEEA"/>
<path d="M469.213 400.4L450.213 389.427L452.12 388.333L471.107 399.307L469.213 400.4Z" fill="#B6CEEA"/>
<path d="M96.2931 99.92C94.8398 93.0533 90.0531 85.8533 84.3731 82.5867C78.6931 79.32 73.9065 80.9733 72.4531 86.1733L96.2931 99.92Z" fill="white"/>
<path d="M79.4399 72.7067C79.4399 69.56 81.6533 68.28 84.3733 69.8533C85.811 70.7883 87.0073 72.0499 87.8646 73.5352C88.722 75.0205 89.2161 76.6874 89.3066 78.4C89.3066 81.5467 87.1066 82.8267 84.3733 81.2533C82.9378 80.316 81.7432 79.0539 80.8861 77.5691C80.029 76.0843 79.5336 74.4185 79.4399 72.7067Z" fill="white"/>
<path opacity="0.44" d="M395.734 321.053L317.187 275.693V247.547L395.734 292.907V321.053Z" fill="#97DAF8"/>
<path d="M339.547 274.547C339.547 280.013 335.707 282.24 330.973 279.493C328.473 277.866 326.392 275.672 324.9 273.088C323.407 270.505 322.546 267.606 322.387 264.627C322.387 259.147 326.227 256.933 330.973 259.667C333.47 261.3 335.546 263.499 337.036 266.084C338.525 268.669 339.385 271.568 339.547 274.547Z" fill="white"/>
<path d="M381 297.547L344.173 276.28V273.88L381 295.147V297.547Z" fill="white"/>
<path d="M357.173 278.08L344.173 270.573V268.173L357.173 275.68V278.08Z" fill="white"/>
<path d="M388.427 307.533L344.173 281.907V279.507L388.427 305.147V307.533Z" fill="white"/>
<path d="M388.427 312.6L344.173 286.96V284.56L388.427 310.2V312.6Z" fill="white"/>
<path d="M388.84 296.36L358.654 278.933V276.533L388.84 293.973V296.36Z" fill="white"/>
<defs>
<linearGradient id="paint0_linear" x1="240.026" y1="242.12" x2="179.573" y2="453.933" gradientUnits="userSpaceOnUse">
<stop stop-color="#14A4DB"/>
<stop offset="0.2" stop-color="#1AABDC"/>
<stop offset="0.48" stop-color="#2BBEE0"/>
<stop offset="0.81" stop-color="#46DDE5"/>
<stop offset="1" stop-color="#58F2E9"/>
</linearGradient>
<linearGradient id="paint1_linear" x1="78136.8" y1="-60331.4" x2="78136.8" y2="71606.7" gradientUnits="userSpaceOnUse">
<stop stop-color="#14A4DB"/>
<stop offset="0.2" stop-color="#1AABDC"/>
<stop offset="0.48" stop-color="#2BBEE0"/>
<stop offset="0.81" stop-color="#46DDE5"/>
<stop offset="1" stop-color="#58F2E9"/>
</linearGradient>
<linearGradient id="paint2_linear" x1="537.094" y1="97.92" x2="56.2269" y2="305.467" gradientUnits="userSpaceOnUse">
<stop stop-color="#008DC9"/>
<stop offset="0.16" stop-color="#0694CB"/>
<stop offset="0.4" stop-color="#17A7D1"/>
<stop offset="0.68" stop-color="#32C6DB"/>
<stop offset="0.99" stop-color="#57F1E9"/>
<stop offset="1" stop-color="#58F2E9"/>
</linearGradient>
<linearGradient id="paint3_linear" x1="136720" y1="41953.7" x2="113607" y2="5379.35" gradientUnits="userSpaceOnUse">
<stop stop-color="#008DC9"/>
<stop offset="0.16" stop-color="#0694CB"/>
<stop offset="0.4" stop-color="#17A7D1"/>
<stop offset="0.68" stop-color="#32C6DB"/>
<stop offset="0.99" stop-color="#57F1E9"/>
<stop offset="1" stop-color="#58F2E9"/>
</linearGradient>
<linearGradient id="paint4_linear" x1="97347.5" y1="22925.5" x2="93497.9" y2="50235.3" gradientUnits="userSpaceOnUse">
<stop stop-color="#14A4DB"/>
<stop offset="0.2" stop-color="#1AABDC"/>
<stop offset="0.48" stop-color="#2BBEE0"/>
<stop offset="0.81" stop-color="#46DDE5"/>
<stop offset="1" stop-color="#58F2E9"/>
</linearGradient>
<linearGradient id="paint5_linear" x1="59.1737" y1="246.827" x2="59.1737" y2="184.68" gradientUnits="userSpaceOnUse">
<stop stop-color="#3F51B5"/>
<stop offset="0.21" stop-color="#3C58BB"/>
<stop offset="0.52" stop-color="#346BCC"/>
<stop offset="0.88" stop-color="#268AE8"/>
<stop offset="1" stop-color="#2196F3"/>
</linearGradient>
<linearGradient id="paint6_linear" x1="21389.9" y1="14933.6" x2="21389.9" y2="11782.8" gradientUnits="userSpaceOnUse">
<stop stop-color="#14A4DB"/>
<stop offset="0.2" stop-color="#1AABDC"/>
<stop offset="0.48" stop-color="#2BBEE0"/>
<stop offset="0.81" stop-color="#46DDE5"/>
<stop offset="1" stop-color="#58F2E9"/>
</linearGradient>
<linearGradient id="paint7_linear" x1="20165.4" y1="7507.95" x2="20165.4" y2="6373.41" gradientUnits="userSpaceOnUse">
<stop stop-color="#3F51B5"/>
<stop offset="0.21" stop-color="#3C58BB"/>
<stop offset="0.52" stop-color="#346BCC"/>
<stop offset="0.88" stop-color="#268AE8"/>
<stop offset="1" stop-color="#2196F3"/>
</linearGradient>
<linearGradient id="paint8_linear" x1="100.467" y1="280.787" x2="31.1337" y2="152.453" gradientUnits="userSpaceOnUse">
<stop stop-color="#148BDB"/>
<stop offset="0.16" stop-color="#1992DC"/>
<stop offset="0.4" stop-color="#25A5DF"/>
<stop offset="0.67" stop-color="#3AC4E3"/>
<stop offset="0.98" stop-color="#56EFE9"/>
<stop offset="1" stop-color="#58F2E9"/>
</linearGradient>
<linearGradient id="paint9_linear" x1="3670.58" y1="3248.36" x2="3943.23" y2="3248.36" gradientUnits="userSpaceOnUse">
<stop stop-color="#14A4DB"/>
<stop offset="0.2" stop-color="#1AABDC"/>
<stop offset="0.48" stop-color="#2BBEE0"/>
<stop offset="0.81" stop-color="#46DDE5"/>
<stop offset="1" stop-color="#58F2E9"/>
</linearGradient>
<linearGradient id="paint10_linear" x1="1058.38" y1="1392.77" x2="1095.49" y2="1374.01" gradientUnits="userSpaceOnUse">
<stop stop-color="#14A4DB"/>
<stop offset="0.2" stop-color="#1AABDC"/>
<stop offset="0.48" stop-color="#2BBEE0"/>
<stop offset="0.81" stop-color="#46DDE5"/>
<stop offset="1" stop-color="#58F2E9"/>
</linearGradient>
<linearGradient id="paint11_linear" x1="26618.9" y1="9010.98" x2="42384.8" y2="9010.98" gradientUnits="userSpaceOnUse">
<stop stop-color="#14A4DB"/>
<stop offset="0.2" stop-color="#1AABDC"/>
<stop offset="0.48" stop-color="#2BBEE0"/>
<stop offset="0.81" stop-color="#46DDE5"/>
<stop offset="1" stop-color="#58F2E9"/>
</linearGradient>
</defs>
</svg>
