<svg width="245" height="226" viewBox="0 0 245 226" fill="none" xmlns="http://www.w3.org/2000/svg">
<g opacity="0.1">
<path opacity="0.1" d="M225.926 120.372L214.008 127.301L201.997 120.372L213.915 113.443L225.926 120.372Z" fill="black"/>
</g>
<g opacity="0.14">
<path opacity="0.14" d="M224.356 113.167L214.008 119.172L203.614 113.167L213.962 107.162L224.356 113.167Z" fill="#FFDF75"/>
</g>
<g opacity="0.29">
<path opacity="0.29" d="M222.739 106.422L214.008 111.504L205.185 106.422L213.962 101.341L222.739 106.422Z" fill="#FFDF75"/>
</g>
<g opacity="0.43">
<path opacity="0.43" d="M221.167 99.6779L214.007 103.835L206.754 99.6779L213.96 95.4741L221.167 99.6779Z" fill="#FFDF75"/>
</g>
<g opacity="0.57">
<path opacity="0.57" d="M219.597 92.887L214.007 96.1668L208.372 92.887L213.961 89.6533L219.597 92.887Z" fill="#FFDF75"/>
</g>
<g opacity="0.71">
<path opacity="0.71" d="M217.982 86.1423L213.963 88.4982L209.944 86.1423L213.963 83.8325L217.982 86.1423Z" fill="#FFDF75"/>
</g>
<g opacity="0.86">
<path opacity="0.86" d="M216.41 79.3981L213.962 80.8301L211.514 79.3981L213.962 78.0122L216.41 79.3981Z" fill="#FFDF75"/>
</g>
<path d="M214.794 72.6534L213.962 73.1615L213.131 72.6534L213.962 72.1914L214.794 72.6534Z" fill="#FFDF75"/>
<g opacity="0.1">
<path opacity="0.1" d="M201.629 104.62L187.955 112.612L174.143 104.62L187.863 96.6748L201.629 104.62Z" fill="black"/>
</g>
<g opacity="0.14">
<path opacity="0.14" d="M199.828 96.3511L187.909 103.28L175.945 96.3511L187.863 89.4219L199.828 96.3511Z" fill="#FDCDE7"/>
</g>
<g opacity="0.29">
<path opacity="0.29" d="M197.979 88.5904L187.909 94.4572L177.792 88.5904L187.863 82.7236L197.979 88.5904Z" fill="#FDCDE7"/>
</g>
<g opacity="0.43">
<path opacity="0.43" d="M196.179 80.8302L187.91 85.5883L179.595 80.8302L187.864 76.0259L196.179 80.8302Z" fill="#FDCDE7"/>
</g>
<g opacity="0.57">
<path opacity="0.57" d="M194.33 73.0232L187.909 76.765L181.442 73.0232L187.863 69.3276L194.33 73.0232Z" fill="#FDCDE7"/>
</g>
<g opacity="0.71">
<path opacity="0.71" d="M192.528 65.2613L187.909 67.9407L183.289 65.2613L187.862 62.582L192.528 65.2613Z" fill="#FDCDE7"/>
</g>
<g opacity="0.86">
<path opacity="0.86" d="M190.681 57.5011L187.909 59.1179L185.091 57.5011L187.863 55.8843L190.681 57.5011Z" fill="#FDCDE7"/>
</g>
<path d="M188.879 49.7404L187.909 50.2947L186.938 49.7404L187.909 49.186L188.879 49.7404Z" fill="#FDCDE7"/>
<g opacity="0.1">
<path opacity="0.1" d="M244.453 132.014L234.012 138.112L223.48 132.014L233.966 125.963L244.453 132.014Z" fill="black"/>
</g>
<g opacity="0.14">
<path opacity="0.14" d="M242.188 127.255L234.012 132.013L225.743 127.255L233.965 122.497L242.188 127.255Z" fill="#A1F7F6"/>
</g>
<g opacity="0.29">
<path opacity="0.29" d="M240.94 121.943L234.011 125.962L227.035 121.943L233.964 117.924L240.94 121.943Z" fill="#A1F7F6"/>
</g>
<g opacity="0.43">
<path opacity="0.43" d="M239.692 116.584L234.01 119.864L228.282 116.584L233.964 113.304L239.692 116.584Z" fill="#A1F7F6"/>
</g>
<g opacity="0.57">
<path opacity="0.57" d="M238.399 111.272L234.011 113.813L229.53 111.272L233.965 108.685L238.399 111.272Z" fill="#A1F7F6"/>
</g>
<g opacity="0.71">
<path opacity="0.71" d="M237.152 105.913L233.965 107.761L230.777 105.913L233.965 104.065L237.152 105.913Z" fill="#A1F7F6"/>
</g>
<g opacity="0.86">
<path opacity="0.86" d="M235.906 100.554L233.966 101.663L232.072 100.554L233.966 99.4458L235.906 100.554Z" fill="#A1F7F6"/>
</g>
<path d="M234.659 95.2424L233.966 95.612L233.319 95.2424L233.966 94.8267L234.659 95.2424Z" fill="#A1F7F6"/>
<path opacity="0.1" d="M203.707 155.434L120.925 108.176C119.707 107.563 118.362 107.244 116.999 107.244C115.635 107.244 114.29 107.563 113.072 108.176L2.38863 173.219C0.217461 174.466 0.217461 176.499 2.38863 177.839L85.1703 225.05C86.3932 225.675 87.7468 226 89.1199 226C90.4931 226 91.8467 225.675 93.0696 225.05L203.938 160.054C204.434 159.887 204.863 159.562 205.158 159.13C205.453 158.697 205.599 158.179 205.573 157.656C205.547 157.133 205.35 156.633 205.013 156.232C204.676 155.83 204.218 155.55 203.707 155.434Z" fill="black"/>
<path d="M193.683 145.178V150.86L114.921 105.82L114.875 100.138L193.683 145.178Z" fill="#778489"/>
<path d="M114.874 100.138L114.92 105.82L20.8667 161.07V155.341L114.874 100.138Z" fill="#ABBEC5"/>
<path d="M55.5132 181.628V187.31C55.4602 186.801 55.2743 186.316 54.9743 185.903C54.6742 185.489 54.2706 185.162 53.804 184.954L52.9263 184.769V178.856L53.7578 179.272C54.2244 179.48 54.628 179.807 54.9281 180.221C55.2281 180.634 55.414 181.119 55.467 181.628H55.5132Z" fill="#738085"/>
<path d="M52.9273 178.856V184.769L52.2344 184.538V178.625H52.9273V178.856Z" fill="#78858A"/>
<path d="M52.2343 178.625V184.307H51.6338V178.486H52.2805L52.2343 178.625Z" fill="#7C8A8F"/>
<path d="M51.5873 178.486V184.168H50.9868V178.394H51.5412L51.5873 178.486Z" fill="#818F94"/>
<path d="M50.8937 178.394V184.076H50.3394V178.348L50.8937 178.394Z" fill="#859499"/>
<path d="M50.4787 178.347V184.029H49.9243V178.301L50.4787 178.347Z" fill="#8A999E"/>
<path d="M49.9248 178.301V183.983H49.3242V178.301H49.9248Z" fill="#8E9DA3"/>
<path d="M49.3235 178.301V183.983H48.6768V178.347L49.3235 178.301Z" fill="#93A2A8"/>
<path d="M48.6761 178.348V184.03H47.937V178.486H48.6761V178.348Z" fill="#97A7AD"/>
<path d="M47.937 178.486V184.122L46.8745 184.399V178.717H47.937V178.486Z" fill="#9BACB3"/>
<path d="M46.8742 178.717V184.399L45.627 184.769V179.318C46.0241 179.081 46.4415 178.88 46.8742 178.717Z" fill="#A0B1B8"/>
<path d="M45.5352 179.317V184.999L44.8423 185.554V179.872L45.5814 179.317H45.5352Z" fill="#9BACB3"/>
<path d="M44.7968 179.872V185.554L44.4272 185.924V180.149L44.7506 179.78L44.7968 179.872Z" fill="#97A7AD"/>
<path d="M44.4735 180.148V185.83V186.2V180.61C44.4594 180.488 44.4594 180.364 44.4735 180.241V180.148Z" fill="#93A2A8"/>
<path d="M44.2426 180.611V186.293V186.616V180.934C44.2245 180.827 44.2245 180.718 44.2426 180.611Z" fill="#8E9DA3"/>
<path d="M44.1026 180.935V186.617C44.0752 186.723 44.0752 186.834 44.1026 186.94V181.258C44.0825 181.151 44.0825 181.041 44.1026 180.935Z" fill="#8A999E"/>
<path d="M44.011 181.257V186.939C43.9885 187.046 43.9885 187.156 44.011 187.263V181.581C43.9885 181.474 43.9885 181.364 44.011 181.257Z" fill="#859499"/>
<path d="M55.5127 181.673V187.355C55.5351 187.462 55.5351 187.572 55.5127 187.679V181.997C55.5127 181.997 55.5127 181.997 55.5127 181.673Z" fill="#396E85"/>
<path d="M55.5127 181.997V187.679C55.5327 187.786 55.5327 187.896 55.5127 188.002V182.32C55.5127 182.32 55.5127 182.32 55.5127 181.997Z" fill="#3B7189"/>
<path d="M55.1893 182.643V188.325V188.695V183.013C55.1752 182.89 55.1752 182.766 55.1893 182.643Z" fill="#3F7992"/>
<path d="M54.9575 183.013V188.695L54.5879 189.065V183.383L54.9575 183.013Z" fill="#417C96"/>
<path d="M54.5897 183.382V189.064C54.3696 189.281 54.1209 189.468 53.8506 189.618V183.936L54.5897 183.382Z" fill="#43809B"/>
<path d="M53.8503 183.937V189.619L52.603 190.173V184.769L53.8503 184.214V183.937Z" fill="#44849F"/>
<path d="M52.5569 184.769V190.451L51.4482 190.728V184.769L52.5569 184.492V184.769Z" fill="#43809B"/>
<path d="M51.4471 184.768V190.45H50.708V184.768H51.4471Z" fill="#417C96"/>
<path d="M50.8935 184.768V190.45H50.293V184.768H50.8935Z" fill="#3F7992"/>
<path d="M50.0626 184.768V190.45H49.5083V184.768H50.0626Z" fill="#3D758D"/>
<path d="M49.5075 184.768V190.45H48.9531V184.768H49.5075Z" fill="#3B7189"/>
<path d="M48.9079 184.768V190.404H48.3535V184.768H48.9079Z" fill="#396E85"/>
<path d="M48.3515 184.768V190.45H47.751V184.768H48.3053H48.3515Z" fill="#376A80"/>
<path d="M47.7988 184.768V190.45H47.1982V184.768H47.7988Z" fill="#35667C"/>
<path d="M47.1963 184.768V190.312L46.5034 190.081V184.399H47.1963V184.768Z" fill="#336377"/>
<path d="M46.5046 184.399V190.081C46.2102 189.98 45.9306 189.84 45.6731 189.665C45.2065 189.457 44.8028 189.13 44.5028 188.716C44.2028 188.303 44.0169 187.818 43.9639 187.309V181.627C44.0091 182.144 44.1913 182.639 44.4918 183.061C44.7923 183.483 45.2001 183.818 45.6731 184.03L46.5046 184.399Z" fill="#315F73"/>
<path d="M99.6755 200.382V206.064L20.8667 161.069V155.341L99.6755 200.382Z" fill="#336277"/>
<path d="M53.758 179.271C54.2169 179.458 54.6097 179.778 54.8862 180.189C55.1626 180.6 55.3103 181.085 55.3103 181.58C55.3103 182.076 55.1626 182.56 54.8862 182.972C54.6097 183.383 54.2169 183.703 53.758 183.89C52.4925 184.51 51.102 184.833 49.6928 184.833C48.2836 184.833 46.8931 184.51 45.6276 183.89C43.3641 182.597 43.3179 180.472 45.6276 179.271C46.8847 178.622 48.2785 178.284 49.6928 178.284C51.1071 178.284 52.5009 178.622 53.758 179.271Z" fill="#C0C0F6"/>
<path d="M193.683 145.179V150.861L99.6758 206.064V200.382L193.683 145.179Z" fill="#498DAB"/>
<path d="M193.683 145.178L99.6755 200.382L20.8667 155.341L114.874 100.138L193.683 145.178Z" fill="url(#paint0_linear)"/>
<path d="M204.585 145.41C204.53 145.611 204.436 145.799 204.308 145.964L203.846 146.426L203.337 146.888L203.014 147.119L92.4692 212.115V217.797L203.337 152.801V152.431H203.799L204.169 152.062V151.738V145.733C204.295 145.61 204.434 145.501 204.585 145.41Z" fill="#C0C0F6"/>
<path d="M203.014 142.545C203.516 142.689 203.958 142.992 204.272 143.409C204.587 143.825 204.757 144.333 204.757 144.855C204.757 145.377 204.587 145.885 204.272 146.302C203.958 146.719 203.516 147.022 203.014 147.165L92.4695 212.115C91.2466 212.74 89.893 213.065 88.5198 213.065C87.1467 213.065 85.7931 212.74 84.5702 212.115L1.74235 164.858C1.24039 164.714 0.798811 164.411 0.484434 163.994C0.170058 163.578 0 163.07 0 162.548C0 162.026 0.170058 161.518 0.484434 161.101C0.798811 160.684 1.24039 160.381 1.74235 160.238L112.611 95.2416C113.834 94.6171 115.187 94.2915 116.56 94.2915C117.933 94.2915 119.287 94.6171 120.51 95.2416L203.014 142.545ZM99.6759 200.382L193.683 144.948L114.874 100.138L20.8671 155.388L99.6759 200.382ZM45.6739 184.029C46.9393 184.649 48.3299 184.971 49.7391 184.971C51.1483 184.971 52.5388 184.649 53.8042 184.029C54.2632 183.841 54.6559 183.522 54.9324 183.11C55.2089 182.699 55.3566 182.214 55.3566 181.719C55.3566 181.223 55.2089 180.739 54.9324 180.327C54.6559 179.916 54.2632 179.596 53.8042 179.409C52.5472 178.761 51.1534 178.423 49.7391 178.423C48.3247 178.423 46.9309 178.761 45.6739 179.409C43.4103 180.703 43.4565 182.828 45.6739 184.029Z" fill="#E9F0F4"/>
<path d="M92.4693 212.115L91.4068 212.624H90.9449C90.7624 212.665 90.573 212.665 90.3905 212.624C90.1757 212.65 89.9586 212.65 89.7438 212.624H87.434H86.5101H85.771L84.8933 212.254L1.74213 164.858C1.28556 164.667 0.889547 164.356 0.596571 163.957C0.303595 163.558 0.124709 163.087 0.0791016 162.594L0.0791016 168.276C0.124709 168.769 0.303595 169.24 0.596571 169.639C0.889547 170.038 1.28556 170.349 1.74213 170.54L84.5237 217.844L85.3091 218.213H85.8172H86.4177H86.9259H89.9286H90.1595H90.7139H90.9911C91.376 218.099 91.7477 217.944 92.0997 217.751L92.4693 212.115Z" fill="#C0C0F6"/>
<path d="M111.687 89.3289C113.35 88.3588 113.951 89.6523 113.997 91.5925C114.071 92.5456 113.897 93.5016 113.492 94.3677C113.088 95.2338 112.466 95.9805 111.687 96.5354C110.117 97.4131 109.424 96.212 109.424 94.2718C109.331 93.3214 109.491 92.3633 109.889 91.495C110.286 90.6268 110.907 89.8794 111.687 89.3289ZM111.687 95.2881C112.242 94.9647 112.519 93.9946 112.519 92.424C112.519 90.8534 112.195 90.2066 111.641 90.53C111.087 90.8534 110.763 91.8235 110.809 93.4403C110.856 95.0571 111.133 95.6114 111.687 95.2881Z" fill="#FF61CB"/>
<path d="M117.831 85.8647L117.877 92.8402L116.492 93.6255V88.1283H116.445L115.291 89.4218L115.06 88.3593L116.676 86.5577L117.831 85.8647Z" fill="#FF61CB"/>
<path d="M122.081 83.1388C123.698 82.2149 124.345 83.5084 124.345 85.4024C124.433 86.3571 124.265 87.318 123.859 88.1866C123.453 89.0552 122.824 89.8003 122.035 90.3452C120.464 91.2691 119.771 90.0681 119.771 88.0817C119.706 87.1296 119.884 86.1767 120.288 85.3121C120.692 84.4476 121.309 83.6998 122.081 83.1388ZM122.081 89.098C122.635 88.8208 122.913 87.8507 122.913 86.2339C122.913 84.6171 122.635 84.0627 122.035 84.3861C121.434 84.7094 121.157 85.6795 121.203 87.2502C121.25 88.8208 121.527 89.4213 122.081 89.098Z" fill="#FF61CB"/>
<path d="M127.255 80.3214C128.872 79.3975 129.519 80.691 129.519 82.585C129.606 83.5461 129.438 84.5132 129.033 85.389C128.627 86.2648 127.998 87.0184 127.209 87.5741C125.639 88.4518 124.946 87.2507 124.946 85.2643C124.881 84.3122 125.059 83.3593 125.463 82.4947C125.867 81.6302 126.483 80.8824 127.255 80.3214ZM127.255 86.3268C127.81 86.0034 128.087 85.0333 128.087 83.4627C128.087 81.8921 127.81 81.2453 127.209 81.5687C126.609 81.8921 126.332 82.8622 126.378 84.479C126.424 86.0958 126.701 86.6502 127.255 86.3268Z" fill="#FF61CB"/>
<path d="M132.428 77.3651C134.045 76.395 134.692 77.6884 134.692 79.6286C134.775 80.5828 134.605 81.5421 134.2 82.4098C133.794 83.2776 133.168 84.0231 132.382 84.5715C130.812 85.4954 130.119 84.2481 130.119 82.3079C130.045 81.3548 130.219 80.3988 130.623 79.5327C131.028 78.6666 131.65 77.9199 132.428 77.3651ZM132.428 83.3242C132.983 83.0009 133.26 82.0308 133.26 80.4601C133.26 78.8895 132.983 78.2428 132.428 78.6123C131.874 78.9819 131.551 79.8596 131.551 81.4764C131.551 83.0932 131.874 83.6476 132.428 83.3242Z" fill="#FF61CB"/>
<path d="M138.573 73.8999V80.8754L137.234 81.6607L137.188 76.1635L136.033 77.4569L135.802 76.3944L137.372 74.5928L138.573 73.8999Z" fill="#FF61CB"/>
<path d="M143.748 70.9434V77.9188L142.409 78.7041L142.362 73.1607V73.2069L141.208 74.5004L140.977 73.3917L142.547 71.5901L143.748 70.9434Z" fill="#FF61CB"/>
<path d="M147.905 68.357C149.522 67.4331 150.168 68.7266 150.168 70.6668C150.247 71.6157 150.081 72.569 149.684 73.4348C149.288 74.3005 148.675 75.0495 147.905 75.6097C146.334 76.4874 145.641 75.2863 145.595 73.3461C145.526 72.387 145.702 71.4262 146.106 70.5536C146.51 69.681 147.129 68.9252 147.905 68.357ZM147.905 74.3624C148.459 74.039 148.783 73.0689 148.736 71.4983C148.69 69.9277 148.459 69.2809 147.905 69.6043C147.35 69.9277 147.027 70.8977 147.027 72.5146C147.027 74.1314 147.35 74.6858 147.905 74.3624Z" fill="#FF61CB"/>
<path d="M65.1232 129.334C66.74 128.364 67.3868 129.658 67.3868 131.598C67.4798 132.548 67.3193 133.506 66.9217 134.375C66.5241 135.243 65.9035 135.99 65.1232 136.541C63.5526 137.465 62.8597 136.217 62.8135 134.277C62.7396 133.324 62.9134 132.368 63.3181 131.502C63.7229 130.636 64.3447 129.889 65.1232 129.334ZM65.1232 135.293C65.6776 134.97 66.0009 134 66.0009 132.429C66.0009 130.859 65.6776 130.212 65.1232 130.535C64.5689 130.859 64.2455 131.829 64.2455 133.446C64.2455 135.062 64.5689 135.617 65.1232 135.293Z" fill="#FF61CB"/>
<path d="M96.2135 111.133C97.8303 110.209 98.477 111.503 98.477 113.397C98.5638 114.358 98.3961 115.325 97.9906 116.201C97.5852 117.076 96.9563 117.83 96.1673 118.386C94.5966 119.263 93.9037 118.062 93.9037 116.076C93.8387 115.124 94.0166 114.171 94.4206 113.306C94.8246 112.442 95.4415 111.694 96.2135 111.133ZM96.2135 117.092C96.7678 116.815 97.045 115.845 97.045 114.228C97.045 112.611 96.7678 112.057 96.2135 112.38C95.6591 112.704 95.3358 113.674 95.3358 115.244C95.3358 116.815 95.6591 117.415 96.2135 117.092Z" fill="#FF61CB"/>
<path d="M102.355 107.715V114.69L101.016 115.476L100.969 109.978L99.8145 111.272L99.5835 110.163L101.154 108.408L102.355 107.715Z" fill="#FF61CB"/>
<path d="M107.53 104.711V111.687L106.19 112.472L106.144 106.975L104.989 108.268L104.758 107.206L106.329 105.404L107.53 104.711Z" fill="#FF61CB"/>
<path d="M112.704 101.755L112.751 108.685L111.365 109.47V103.973H111.318L110.164 105.266L109.933 104.204L111.549 102.402L112.704 101.755Z" fill="#FF61CB"/>
<path d="M116.909 99.1681C118.526 98.2442 119.172 99.5377 119.172 101.432C119.232 102.358 119.055 103.285 118.659 104.125C118.263 104.965 117.661 105.692 116.909 106.236C115.338 107.114 114.645 105.913 114.599 103.926C114.565 103.005 114.758 102.089 115.161 101.259C115.564 100.43 116.164 99.7117 116.909 99.1681ZM116.909 105.173C117.417 104.85 117.74 103.88 117.74 102.263C117.74 100.646 117.417 100.092 116.863 100.415C116.308 100.739 115.985 101.709 115.985 103.326C115.985 104.943 116.354 105.497 116.909 105.173Z" fill="#FF61CB"/>
<path d="M122.081 96.2117C123.744 95.2416 124.344 96.5351 124.39 98.4753C124.464 99.4284 124.29 100.384 123.886 101.251C123.481 102.117 122.859 102.863 122.081 103.418C120.51 104.342 119.817 103.095 119.817 101.155C119.734 100.205 119.898 99.2503 120.295 98.3838C120.692 97.5172 121.307 96.7687 122.081 96.2117ZM122.081 102.171C122.589 101.848 122.912 100.877 122.912 99.3068C122.912 97.7362 122.589 97.0894 122.034 97.4128C121.48 97.7362 121.157 98.7063 121.203 100.323C121.249 101.94 121.526 102.494 122.081 102.171Z" fill="#FF61CB"/>
<path d="M127.255 93.2096C128.918 92.2857 129.565 93.5792 129.565 95.4732C129.643 96.4268 129.471 97.3845 129.066 98.2514C128.661 99.1183 128.037 99.8644 127.255 100.416C125.684 101.34 124.991 100.093 124.991 98.1525C124.925 97.2051 125.098 96.2562 125.493 95.3928C125.889 94.5293 126.494 93.7787 127.255 93.2096ZM127.255 99.1688C127.809 98.8454 128.086 97.9215 128.086 96.3047C128.086 94.6879 127.809 94.1335 127.209 94.4569C126.608 94.7802 126.331 95.7041 126.377 97.321C126.423 98.9378 126.7 99.4921 127.255 99.1688Z" fill="#FF61CB"/>
<path d="M133.4 89.7905L133.446 96.766L132.06 97.5513V92.0079V92.0541L130.905 93.3014L130.628 92.2389L132.245 90.4835L133.4 89.7905Z" fill="#FF61CB"/>
<path d="M137.65 87.2037C139.267 86.2798 139.914 87.5733 139.914 89.5135C139.992 90.4671 139.821 91.4248 139.416 92.2917C139.01 93.1586 138.386 93.9047 137.604 94.4563C136.034 95.334 135.341 94.133 135.341 92.1928C135.272 91.2337 135.448 90.2729 135.852 89.4003C136.256 88.5277 136.875 87.7719 137.65 87.2037ZM137.65 93.2091C138.205 92.8857 138.482 91.9156 138.482 90.345C138.482 88.7743 138.205 88.1276 137.604 88.451C137.004 88.7743 136.727 89.7444 136.773 91.3613C136.819 92.9781 137.096 93.5324 137.65 93.2091Z" fill="#FF61CB"/>
<path d="M142.822 84.248C144.439 83.2779 145.086 84.6176 145.086 86.5116C145.169 87.4657 145 88.425 144.594 89.2928C144.189 90.1605 143.562 90.9061 142.776 91.4544C141.206 92.3783 140.513 91.1311 140.513 89.1909C140.439 88.2377 140.613 87.2817 141.017 86.4156C141.422 85.5495 142.044 84.8028 142.822 84.248ZM142.822 90.2072C143.377 89.8838 143.654 88.9137 143.654 87.3431C143.654 85.7724 143.377 85.1719 142.776 85.4953C142.176 85.8186 141.945 86.7425 141.945 88.3594C141.945 89.9762 142.268 90.5305 142.822 90.2072Z" fill="#FF61CB"/>
<path d="M147.906 81.2448C149.523 80.3209 150.169 81.6143 150.169 83.5083C150.257 84.463 150.09 85.424 149.684 86.2926C149.278 87.1612 148.648 87.9062 147.86 88.4512C146.335 89.3751 145.596 88.174 145.596 86.1876C145.531 85.2356 145.709 84.2826 146.113 83.4181C146.517 82.5535 147.134 81.8057 147.906 81.2448ZM147.906 87.2039C148.46 86.8806 148.737 85.9567 148.737 84.3398C148.737 82.723 148.46 82.1687 147.906 82.492C147.351 82.8154 147.028 83.7393 147.028 85.3561C147.028 86.973 147.351 87.5273 147.906 87.2039Z" fill="#FF61CB"/>
<path d="M65.169 141.945C66.7859 141.021 67.4326 142.315 67.4326 144.209C67.5208 145.158 67.3582 146.115 66.961 146.982C66.5638 147.85 65.9459 148.598 65.169 149.151C63.5984 150.075 62.8593 148.874 62.8593 146.888C62.7943 145.936 62.9722 144.983 63.3761 144.118C63.7801 143.254 64.397 142.506 65.169 141.945ZM65.169 147.904C65.7234 147.581 66.0005 146.657 66.0005 145.04C66.0005 143.423 65.7234 142.869 65.169 143.192C64.6147 143.516 64.2913 144.486 64.2913 146.056C64.2913 147.627 64.6147 148.227 65.169 147.904Z" fill="#FF61CB"/>
<path d="M70.3438 138.943C71.9607 138.019 72.6074 139.312 72.6074 141.206C72.69 142.162 72.5252 143.123 72.1288 143.997C71.7323 144.871 71.1176 145.628 70.3438 146.195C68.7732 147.073 68.0803 145.872 68.0341 143.885C67.9691 142.933 68.147 141.98 68.551 141.116C68.9549 140.251 69.5718 139.503 70.3438 138.943ZM70.3438 144.948C70.8982 144.625 71.2215 143.654 71.1753 142.084C71.1291 140.513 70.8982 139.866 70.3438 140.19C69.7895 140.513 69.3737 141.483 69.3737 143.192C69.3737 144.902 69.6971 145.364 70.2514 145.04L70.3438 144.948Z" fill="#FF61CB"/>
<path d="M75.5168 135.986C77.1336 135.016 77.7803 136.31 77.7803 138.25C77.8733 139.2 77.7129 140.158 77.3153 141.026C76.9176 141.895 76.2971 142.642 75.5168 143.193C73.9461 144.116 73.2532 142.869 73.207 140.929C73.1331 139.976 73.307 139.02 73.7117 138.154C74.1164 137.288 74.7382 136.541 75.5168 135.986ZM75.5168 141.945C76.0711 141.622 76.3945 140.652 76.3945 139.081C76.3945 137.511 76.0711 136.864 75.5168 137.233C74.9624 137.603 74.6391 138.481 74.6391 140.098C74.6391 141.714 74.9624 142.269 75.5168 141.945Z" fill="#FF61CB"/>
<path d="M81.6599 132.567L81.7061 139.497L80.3202 140.282V134.785H80.274L79.1192 136.078L78.8882 135.016L80.505 133.214L81.6599 132.567Z" fill="#FF61CB"/>
<path d="M85.865 129.981C87.528 129.057 88.1286 130.351 88.1748 132.245C88.2478 133.204 88.0738 134.167 87.6695 135.04C87.2652 135.913 86.644 136.669 85.865 137.234C84.2944 138.111 83.6015 136.91 83.6015 134.924C83.5398 133.977 83.7144 133.03 84.1095 132.167C84.5046 131.304 85.1078 130.553 85.865 129.981ZM85.865 135.94C86.4194 135.663 86.6965 134.693 86.6965 133.076C86.6965 131.459 86.3732 130.905 85.8188 131.228C85.2645 131.552 84.9411 132.522 84.9873 134.092C85.0335 135.663 85.3107 136.264 85.865 135.94Z" fill="#FF61CB"/>
<path d="M96.2594 124.021C97.8763 123.097 98.523 124.345 98.523 126.285C98.6062 127.239 98.4365 128.198 98.031 129.066C97.6255 129.934 96.9986 130.679 96.2132 131.228C94.6426 132.152 93.9497 130.904 93.9497 128.964C93.8758 128.011 94.0497 127.055 94.4544 126.189C94.8591 125.323 95.4809 124.576 96.2594 124.021ZM96.2594 129.981C96.8138 129.657 97.091 128.687 97.091 127.116C97.091 125.546 96.8138 124.899 96.2132 125.269C95.6127 125.638 95.3355 126.516 95.3817 128.133C95.4279 129.75 95.7051 130.304 96.2594 129.981Z" fill="#FF61CB"/>
<path d="M101.433 121.02C103.05 120.096 103.696 121.389 103.696 123.283C103.784 124.238 103.617 125.199 103.211 126.068C102.805 126.936 102.175 127.681 101.386 128.226C99.8159 129.15 99.1229 127.949 99.1229 125.963C99.058 125.01 99.2358 124.058 99.6398 123.193C100.044 122.328 100.661 121.581 101.433 121.02ZM101.433 126.979C101.987 126.655 102.264 125.732 102.264 124.115C102.264 122.498 101.987 121.944 101.386 122.267C100.786 122.59 100.555 123.514 100.555 125.131C100.555 126.748 100.878 127.302 101.433 126.979Z" fill="#FF61CB"/>
<path d="M106.607 118.016C108.224 117.092 108.871 118.386 108.871 120.28C108.957 121.241 108.79 122.208 108.384 123.084C107.979 123.96 107.35 124.713 106.561 125.269C104.99 126.147 104.297 124.946 104.297 122.959C104.232 122.007 104.41 121.054 104.814 120.19C105.218 119.325 105.835 118.577 106.607 118.016ZM106.607 124.022C107.161 123.698 107.439 122.728 107.439 121.158C107.439 119.587 107.161 118.94 106.607 119.264C106.053 119.587 105.729 120.557 105.729 122.174C105.729 123.791 106.053 124.299 106.607 124.022Z" fill="#FF61CB"/>
<path d="M111.781 115.06C113.398 114.09 114.044 115.383 114.044 117.323C114.128 118.278 113.958 119.237 113.553 120.105C113.147 120.972 112.52 121.718 111.735 122.266C110.21 123.19 109.471 121.943 109.471 120.003C109.397 119.05 109.571 118.094 109.976 117.227C110.381 116.361 111.002 115.615 111.781 115.06ZM111.781 121.019C112.335 120.696 112.612 119.726 112.612 118.155C112.612 116.584 112.335 115.938 111.781 116.261C111.227 116.584 110.903 117.554 110.903 119.171C110.903 120.788 111.227 121.342 111.781 121.019Z" fill="#FF61CB"/>
<path d="M117.924 111.641V118.57L116.584 119.355L116.538 113.858L115.383 115.151L115.152 114.089L116.723 112.287L117.924 111.641Z" fill="#FF61CB"/>
<path d="M123.098 108.639V115.568L121.758 116.399L121.712 110.856L120.557 112.15L120.326 111.087L121.943 109.285L123.098 108.639Z" fill="#FF61CB"/>
<path d="M128.273 105.636V112.612L126.933 113.397V107.9H126.887L125.732 109.193L125.501 108.085L127.118 106.329L128.273 105.636Z" fill="#FF61CB"/>
<path d="M132.475 103.095C134.138 102.124 134.738 103.418 134.785 105.358C134.858 106.311 134.685 107.267 134.28 108.133C133.875 108.999 133.253 109.746 132.475 110.301C130.904 111.225 130.211 109.978 130.211 108.037C130.118 107.087 130.279 106.129 130.676 105.261C131.074 104.392 131.694 103.645 132.475 103.095ZM132.475 109.054C133.029 108.73 133.306 107.76 133.306 106.19C133.306 104.619 132.983 103.972 132.429 104.342C131.874 104.711 131.551 105.589 131.551 107.206C131.551 108.823 131.92 109.377 132.475 109.054Z" fill="#FF61CB"/>
<path d="M137.65 100.093C139.313 99.169 139.913 100.462 139.959 102.356C140.038 103.31 139.866 104.268 139.461 105.135C139.056 106.002 138.432 106.748 137.65 107.299C136.079 108.223 135.386 107.022 135.386 105.036C135.324 104.089 135.499 103.141 135.894 102.279C136.289 101.416 136.892 100.665 137.65 100.093ZM137.65 106.052C138.204 105.729 138.481 104.805 138.481 103.188C138.481 101.571 138.204 101.017 137.603 101.34C137.003 101.664 136.726 102.587 136.772 104.204C136.818 105.821 137.095 106.375 137.65 106.052Z" fill="#FF61CB"/>
<path d="M142.869 96.9972C144.486 96.0733 145.132 97.3668 145.132 99.2608C145.219 100.222 145.051 101.189 144.646 102.065C144.24 102.941 143.612 103.694 142.823 104.25C141.252 105.128 140.559 103.926 140.559 101.94C140.494 100.988 140.672 100.035 141.076 99.1705C141.48 98.306 142.097 97.5582 142.869 96.9972ZM142.869 102.956C143.423 102.679 143.7 101.709 143.7 100.092C143.7 98.4755 143.423 97.9211 142.823 98.2445C142.222 98.5678 141.945 99.5379 141.991 101.109C142.037 102.679 142.314 103.28 142.869 102.956Z" fill="#FF61CB"/>
<path d="M147.904 94.1331C149.521 93.163 150.168 94.4565 150.168 96.3967C150.251 97.3509 150.082 98.3101 149.676 99.1779C149.271 100.046 148.644 100.791 147.858 101.34C146.288 102.217 145.595 101.016 145.595 99.076C145.521 98.1229 145.695 97.1668 146.099 96.3007C146.504 95.4346 147.126 94.6879 147.904 94.1331ZM147.904 100.092C148.459 99.7689 148.736 98.7988 148.736 97.2282C148.736 95.6576 148.459 95.0108 147.858 95.3342C147.258 95.6576 146.981 96.6277 147.027 98.2445C147.073 99.8613 147.35 100.416 147.904 100.092Z" fill="#FF61CB"/>
<path d="M65.216 154.833C66.8328 153.863 67.4795 155.156 67.4795 157.096C67.5628 158.051 67.3931 159.01 66.9876 159.878C66.5821 160.745 65.9551 161.491 65.1698 162.039C63.5992 162.963 62.9062 161.716 62.9062 159.776C62.8323 158.823 63.0062 157.867 63.4109 157C63.8156 156.134 64.4375 155.388 65.216 154.833ZM65.216 160.792C65.7703 160.469 66.0475 159.499 66.0475 157.928C66.0475 156.357 65.7703 155.711 65.216 156.034C64.6616 156.357 64.3383 157.327 64.3383 158.944C64.3383 160.561 64.6616 161.115 65.216 160.792Z" fill="#FF61CB"/>
<path d="M70.3898 151.831C72.0066 150.907 72.6534 152.201 72.6534 154.095C72.7414 155.049 72.5739 156.01 72.168 156.879C71.7621 157.748 71.1324 158.493 70.3436 159.038C68.8192 159.962 68.0801 158.714 68.0801 156.774C68.0062 155.821 68.18 154.865 68.5847 153.999C68.9895 153.133 69.6113 152.386 70.3898 151.831ZM70.3898 157.79C70.9442 157.467 71.2213 156.543 71.2213 154.926C71.2213 153.309 70.9442 152.755 70.3898 153.078C69.8355 153.402 69.5121 154.326 69.5121 155.943C69.5121 157.559 69.8355 158.114 70.3898 157.79Z" fill="#FF61CB"/>
<path d="M76.5329 148.413V155.342L75.1933 156.174L75.1471 150.63V150.677L73.9922 151.97L73.7612 150.861L75.3781 149.06L76.5329 148.413Z" fill="#FF61CB"/>
<path d="M80.7368 145.826C82.3537 144.902 83.0004 146.196 83.0004 148.136C83.084 149.085 82.9192 150.04 82.5224 150.907C82.1256 151.773 81.5103 152.522 80.7368 153.079C79.1662 154.003 78.4733 152.756 78.4271 150.815C78.3585 149.856 78.5344 148.895 78.9384 148.023C79.3423 147.15 79.9611 146.394 80.7368 145.826ZM80.7368 151.832C81.2912 151.508 81.6145 150.538 81.5683 148.968C81.5221 147.397 81.2912 146.75 80.7368 147.074C80.1825 147.397 79.8591 148.367 79.8591 149.984C79.8591 151.601 80.1825 152.155 80.7368 151.832Z" fill="#FF61CB"/>
<path d="M85.9108 142.869C87.5276 141.899 88.1744 143.239 88.1744 145.133C88.2579 146.082 88.0932 147.037 87.6964 147.903C87.2996 148.77 86.6842 149.519 85.9108 150.076C84.3402 150.999 83.6473 149.752 83.6011 147.812C83.5272 146.859 83.701 145.903 84.1057 145.037C84.5105 144.171 85.1323 143.424 85.9108 142.869ZM85.9108 148.828C86.4652 148.505 86.7885 147.535 86.7885 145.964C86.7885 144.394 86.4652 143.747 85.9108 144.116C85.3565 144.486 85.0331 145.364 85.0331 146.98C85.0331 148.597 85.3565 149.152 85.9108 148.828Z" fill="#FF61CB"/>
<path d="M91.0845 139.866C92.7014 138.942 93.3481 140.236 93.3481 142.13C93.44 143.087 93.2793 144.051 92.8821 144.927C92.4849 145.802 91.8651 146.558 91.0845 147.119C89.5139 147.997 88.821 146.796 88.821 144.809C88.7374 143.86 88.9021 142.905 89.299 142.038C89.6958 141.172 90.3111 140.423 91.0845 139.866ZM91.0845 145.826C91.6389 145.502 91.9161 144.578 91.9161 142.961C91.9161 141.345 91.5927 140.79 91.0383 141.114C90.484 141.437 90.1606 142.361 90.1606 143.978C90.1606 145.595 90.5302 146.149 91.0845 145.826Z" fill="#FF61CB"/>
<path d="M97.2283 136.448L97.2744 143.423L95.8886 144.209V138.665H95.8424L94.6875 140.005L94.4565 138.896L96.0734 137.141L97.2283 136.448Z" fill="#FF61CB"/>
<path d="M101.709 133.954C103.326 132.984 103.973 134.277 103.973 136.217C104.047 137.171 103.873 138.127 103.468 138.993C103.063 139.859 102.441 140.606 101.663 141.16C100.092 142.084 99.3994 140.837 99.3994 138.897C99.3255 137.944 99.4994 136.988 99.9041 136.122C100.309 135.255 100.931 134.509 101.709 133.954ZM101.709 139.913C102.263 139.59 102.541 138.62 102.541 137.049C102.541 135.478 102.263 134.832 101.663 135.155C101.062 135.478 100.785 136.448 100.831 138.065C100.878 139.682 101.155 140.236 101.709 139.913Z" fill="#FF61CB"/>
<path d="M106.652 130.904C108.269 129.981 108.916 131.274 108.916 133.168C109.004 134.123 108.836 135.084 108.43 135.952C108.024 136.821 107.395 137.566 106.606 138.111C105.035 139.035 104.342 137.788 104.342 135.847C104.273 134.895 104.449 133.94 104.853 133.075C105.258 132.21 105.877 131.462 106.652 130.904ZM106.652 136.864C107.207 136.54 107.484 135.57 107.484 134C107.484 132.429 107.206 131.828 106.606 132.152C106.005 132.475 105.728 133.399 105.774 135.016C105.821 136.633 106.098 137.187 106.652 136.864Z" fill="#FF61CB"/>
<path d="M111.827 127.902C113.444 126.979 114.09 128.272 114.09 130.166C114.177 131.127 114.009 132.094 113.604 132.97C113.198 133.846 112.57 134.599 111.781 135.155C110.21 136.033 109.517 134.832 109.517 132.845C109.452 131.893 109.63 130.94 110.034 130.076C110.438 129.211 111.055 128.463 111.827 127.902ZM111.827 133.862C112.381 133.584 112.658 132.614 112.658 130.998C112.658 129.381 112.381 128.826 111.781 129.15C111.18 129.473 110.903 130.443 110.949 132.014C110.995 133.584 111.272 134.185 111.827 133.862Z" fill="#FF61CB"/>
<path d="M117.97 124.483V131.459L116.63 132.244L116.584 126.701V126.747L115.429 128.04L115.152 126.932L116.769 125.176L117.97 124.483Z" fill="#FF61CB"/>
<path d="M122.174 121.943C123.791 120.973 124.438 122.266 124.438 124.206C124.521 125.16 124.352 126.12 123.946 126.987C123.541 127.855 122.914 128.601 122.128 129.149C120.604 130.073 119.865 128.826 119.865 126.886C119.791 125.932 119.965 124.976 120.369 124.11C120.774 123.244 121.396 122.497 122.174 121.943ZM122.174 127.902C122.729 127.578 123.006 126.608 123.006 125.038C123.006 123.467 122.729 122.82 122.174 123.19C121.62 123.56 121.297 124.437 121.297 126.054C121.297 127.671 121.62 128.225 122.174 127.902Z" fill="#FF61CB"/>
<path d="M127.347 118.94C128.964 118.016 129.611 119.309 129.611 121.203C129.699 122.153 129.536 123.11 129.139 123.977C128.742 124.844 128.124 125.592 127.347 126.146C125.776 127.07 125.083 125.869 125.037 123.882C124.968 122.93 125.144 121.975 125.548 121.11C125.952 120.245 126.572 119.498 127.347 118.94ZM127.347 124.899C127.901 124.575 128.225 123.651 128.178 122.035C128.132 120.418 127.901 119.863 127.347 120.187C126.793 120.51 126.469 121.434 126.469 123.051C126.469 124.668 126.793 125.222 127.347 124.899Z" fill="#FF61CB"/>
<path d="M132.522 115.938C134.139 115.014 134.786 116.307 134.786 118.201C134.868 119.157 134.703 120.118 134.307 120.992C133.911 121.866 133.296 122.623 132.522 123.19C130.951 124.068 130.258 122.867 130.212 120.881C130.147 119.928 130.325 118.975 130.729 118.111C131.133 117.246 131.75 116.499 132.522 115.938ZM132.522 121.943C133.076 121.62 133.4 120.65 133.4 119.033C133.4 117.416 133.076 116.862 132.522 117.185C131.968 117.508 131.644 118.478 131.644 120.049C131.644 121.62 131.968 122.22 132.522 121.943Z" fill="#FF61CB"/>
<path d="M138.666 112.519V119.495L137.327 120.28V114.736L137.28 114.783L136.126 116.076L135.895 114.967L137.511 113.212L138.666 112.519Z" fill="#FF61CB"/>
<path d="M142.869 109.978C144.532 109.008 145.133 110.348 145.179 112.242C145.258 113.195 145.086 114.153 144.681 115.02C144.276 115.887 143.651 116.633 142.869 117.184C141.299 118.108 140.606 116.861 140.606 114.921C140.513 113.97 140.673 113.012 141.071 112.144C141.468 111.276 142.089 110.528 142.869 109.978ZM142.869 115.937C143.377 115.614 143.701 114.644 143.701 113.073C143.701 111.502 143.377 110.902 142.823 111.225C142.269 111.549 141.945 112.473 141.992 114.089C142.038 115.706 142.315 116.261 142.869 115.937Z" fill="#FF61CB"/>
<path d="M147.906 106.976C149.569 106.052 150.169 107.345 150.215 109.239C150.302 110.2 150.134 111.168 149.729 112.043C149.323 112.919 148.695 113.673 147.906 114.228C146.335 115.106 145.642 113.905 145.642 111.919C145.58 110.972 145.755 110.024 146.15 109.162C146.545 108.299 147.148 107.548 147.906 106.976ZM147.906 112.935C148.46 112.658 148.737 111.688 148.737 110.071C148.737 108.454 148.46 107.9 147.859 108.223C147.259 108.546 146.982 109.47 147.028 111.087C147.074 112.704 147.351 113.258 147.906 112.935Z" fill="#FF61CB"/>
<path d="M65.2618 167.676C66.8786 166.752 67.5254 168.045 67.5254 169.939C67.6134 170.894 67.4458 171.855 67.0399 172.724C66.634 173.592 66.0044 174.337 65.2156 174.882C63.645 175.806 62.952 174.605 62.952 172.619C62.8871 171.667 63.0649 170.714 63.4689 169.849C63.8729 168.985 64.4898 168.237 65.2618 167.676ZM65.2618 173.635C65.8161 173.358 66.0933 172.388 66.0933 170.771C66.0933 169.154 65.8161 168.6 65.2156 168.923C64.6151 169.247 64.3379 170.217 64.3841 171.787C64.4303 173.358 64.7075 173.958 65.2618 173.635Z" fill="#FF61CB"/>
<path d="M71.406 164.257V171.233L70.0201 172.018V166.521L68.8653 167.814L68.6343 166.706L70.2049 164.95L71.406 164.257Z" fill="#FF61CB"/>
<path d="M75.6095 161.671C77.2264 160.701 77.8731 162.04 77.8731 163.934C77.9563 164.889 77.7866 165.848 77.3811 166.716C76.9756 167.583 76.3487 168.329 75.5633 168.877C73.9927 169.801 73.2998 168.554 73.2998 166.614C73.2259 165.661 73.3998 164.705 73.8045 163.838C74.2092 162.972 74.831 162.226 75.6095 161.671ZM75.6095 167.63C76.1639 167.307 76.4411 166.337 76.4411 164.766C76.4411 163.195 76.1639 162.549 75.6095 162.872C75.0552 163.195 74.7318 164.165 74.7318 165.782C74.7318 167.399 75.0552 167.953 75.6095 167.63Z" fill="#FF61CB"/>
<path d="M81.7527 158.298V165.228L80.413 166.013L80.3668 160.516L79.2119 161.809L78.981 160.747L80.5516 158.945L81.7527 158.298Z" fill="#FF61CB"/>
<path d="M86.927 155.296V162.271L85.5873 163.057L85.5411 157.513V157.559L84.3862 158.853L84.1553 157.744L85.7721 155.989L86.927 155.296Z" fill="#FF61CB"/>
<path d="M91.1305 152.755C92.7474 151.785 93.3941 153.078 93.3941 155.018C93.4777 155.968 93.313 156.923 92.9161 157.789C92.5193 158.656 91.904 159.404 91.1305 159.961C89.5599 160.839 88.867 159.638 88.8208 157.698C88.7469 156.744 88.9208 155.788 89.3255 154.922C89.7302 154.056 90.352 153.309 91.1305 152.755ZM91.1305 158.714C91.6849 158.391 92.0082 157.42 91.9621 155.85C91.9159 154.279 91.6849 153.632 91.1305 153.956C90.5762 154.279 90.2528 155.249 90.2528 156.866C90.2528 158.483 90.5762 159.037 91.1305 158.714Z" fill="#FF61CB"/>
<path d="M97.2756 149.29L97.3218 156.266L95.936 157.051V151.554H95.8898L94.7349 152.847L94.5039 151.785L96.1207 149.983L97.2756 149.29Z" fill="#FF61CB"/>
<path d="M102.448 146.333V153.309L101.108 154.094V148.551H101.062L99.9073 149.844L99.6763 148.782L101.293 146.98L102.448 146.333Z" fill="#FF61CB"/>
<path d="M106.653 143.747C108.316 142.823 108.916 144.117 108.963 146.011C109.036 146.97 108.862 147.933 108.457 148.806C108.053 149.679 107.432 150.435 106.653 151C105.082 151.878 104.389 150.676 104.389 148.69C104.306 147.741 104.47 146.786 104.867 145.919C105.264 145.053 105.879 144.304 106.653 143.747ZM106.653 149.753C107.207 149.429 107.484 148.459 107.484 146.888C107.484 145.318 107.161 144.671 106.607 144.994C106.052 145.318 105.729 146.288 105.775 147.905C105.821 149.522 106.099 150.076 106.653 149.753Z" fill="#FF61CB"/>
<path d="M112.843 140.329V147.304L111.457 148.089V142.592H111.411L110.256 143.886L110.025 142.777L111.642 141.022L112.843 140.329Z" fill="#FF61CB"/>
<path d="M117.971 137.372L118.017 144.301L116.631 145.086V139.589L115.476 140.882L115.199 139.82L116.816 138.018L117.971 137.372Z" fill="#FF61CB"/>
<path d="M122.22 134.785C123.837 133.861 124.484 135.155 124.484 137.049C124.571 138.01 124.403 138.977 123.997 139.853C123.592 140.729 122.963 141.482 122.174 142.038C120.603 142.916 119.911 141.715 119.911 139.728C119.846 138.776 120.023 137.823 120.427 136.959C120.831 136.094 121.448 135.346 122.22 134.785ZM122.22 140.791C122.775 140.452 123.052 139.482 123.052 137.88C123.052 136.356 122.775 135.709 122.22 136.033C121.666 136.356 121.296 137.326 121.343 138.897C121.389 140.467 121.666 141.068 122.22 140.791Z" fill="#FF61CB"/>
<path d="M128.364 131.366V138.342L127.024 139.127L126.978 133.63L125.823 134.923L125.546 133.815L127.163 132.059L128.364 131.366Z" fill="#FF61CB"/>
<path d="M133.537 128.364V135.339L132.198 136.125L132.151 130.627L130.997 131.921L130.766 130.858L132.336 129.057L133.537 128.364Z" fill="#FF61CB"/>
<path d="M138.711 125.407V132.336L137.371 133.122L137.325 127.625L136.17 128.918L135.939 127.856L137.556 126.054L138.711 125.407Z" fill="#FF61CB"/>
<path d="M142.916 122.82C144.532 121.897 145.179 123.19 145.179 125.084C145.262 126.04 145.097 127.001 144.701 127.875C144.304 128.749 143.689 129.506 142.916 130.073C141.345 130.951 140.652 129.75 140.606 127.763C140.541 126.811 140.719 125.858 141.123 124.994C141.527 124.129 142.144 123.381 142.916 122.82ZM142.916 128.826C143.47 128.502 143.793 127.532 143.793 125.916C143.793 124.299 143.47 123.744 142.916 124.068C142.361 124.391 142.038 125.361 142.038 126.978C142.038 128.595 142.361 129.103 142.916 128.826Z" fill="#FF61CB"/>
<path d="M147.905 120.096C149.522 119.125 150.168 120.419 150.168 122.359C150.22 123.272 150.04 124.183 149.644 125.007C149.248 125.831 148.65 126.541 147.905 127.071C146.334 127.995 145.641 126.748 145.595 124.807C145.561 123.892 145.754 122.983 146.157 122.161C146.56 121.339 147.161 120.629 147.905 120.096ZM147.905 126.055C148.413 125.731 148.736 124.761 148.736 123.191C148.736 121.62 148.413 120.973 147.859 121.297C147.304 121.62 146.981 122.59 146.981 124.207C146.981 125.824 147.304 126.378 147.905 126.055Z" fill="#FF61CB"/>
<path d="M123.098 46.2749V53.2504L121.758 54.0357L121.712 48.4923L120.557 49.7857L120.326 48.7232L121.943 46.9216L123.098 46.2749Z" fill="#FF61CB"/>
<path d="M128.273 43.2729V50.2484L126.933 51.0337V45.5365H126.887L125.732 46.83L125.501 45.7213L127.118 43.9659L128.273 43.2729Z" fill="#FF61CB"/>
<path d="M132.475 40.7313C134.138 39.7612 134.738 41.0546 134.785 42.9948C134.858 43.948 134.685 44.904 134.28 45.7701C133.875 46.6362 133.253 47.3829 132.475 47.9377C130.904 48.8616 130.211 47.6143 130.211 45.6741C130.118 44.7237 130.279 43.7656 130.676 42.8974C131.074 42.0291 131.694 41.2817 132.475 40.7313ZM132.475 46.6904C133.029 46.3671 133.306 45.397 133.306 43.8263C133.306 42.2557 132.983 41.609 132.429 41.9785C131.874 42.3481 131.551 43.2258 131.551 44.8426C131.551 46.4595 131.92 47.0138 132.475 46.6904Z" fill="#FF61CB"/>
<path d="M137.65 37.7296C139.313 36.8057 139.913 38.0992 139.959 39.9932C140.038 40.9469 139.866 41.9045 139.461 42.7714C139.056 43.6383 138.432 44.3845 137.65 44.9361C136.079 45.86 135.386 44.6589 135.386 42.6725C135.324 41.7256 135.499 40.7782 135.894 39.9154C136.289 39.0527 136.892 38.3016 137.65 37.7296ZM137.65 43.6888C138.204 43.3654 138.481 42.4415 138.481 40.8247C138.481 39.2079 138.204 38.6535 137.603 38.9769C137.003 39.3003 136.726 40.2242 136.772 41.841C136.818 43.4578 137.095 44.0122 137.65 43.6888Z" fill="#FF61CB"/>
<path d="M142.869 34.7262C144.486 33.8023 145.132 35.0958 145.132 36.9898C145.219 37.9509 145.051 38.918 144.646 39.7938C144.24 40.6696 143.612 41.4232 142.823 41.9788C141.252 42.8566 140.559 41.6555 140.559 39.6691C140.494 38.717 140.672 37.7641 141.076 36.8995C141.48 36.035 142.097 35.2872 142.869 34.7262ZM142.869 40.6854C143.423 40.4082 143.7 39.4381 143.7 37.8213C143.7 36.2045 143.423 35.6501 142.823 35.9735C142.222 36.2968 141.945 37.2669 141.991 38.8376C142.037 40.4082 142.314 41.0087 142.869 40.6854Z" fill="#FF61CB"/>
<path d="M147.906 31.7698C149.523 30.7997 150.169 32.0932 150.169 34.0334C150.258 34.9833 150.095 35.9398 149.698 36.8072C149.3 37.6746 148.683 38.4225 147.906 38.9763C146.335 39.854 145.642 38.6529 145.642 36.7127C145.563 35.7638 145.73 34.8105 146.126 33.9447C146.523 33.079 147.136 32.3299 147.906 31.7698ZM147.906 37.729C148.46 37.4056 148.737 36.4355 148.737 34.8649C148.737 33.2943 148.46 32.6475 147.86 32.9709C147.259 33.2943 146.982 34.2644 147.028 35.8812C147.074 37.498 147.351 38.0524 147.906 37.729Z" fill="#FF61CB"/>
<path d="M138.666 50.1558V57.1312L137.327 57.9165V52.4193H137.28L136.126 53.7128L135.895 52.6041L137.511 50.8487L138.666 50.1558Z" fill="#FF61CB"/>
<path d="M142.869 47.6147C144.532 46.6446 145.133 47.9843 145.179 49.8783C145.258 50.8319 145.086 51.7896 144.681 52.6565C144.276 53.5234 143.651 54.2695 142.869 54.8211C141.299 55.745 140.606 54.4978 140.606 52.5576C140.513 51.6072 140.673 50.6491 141.071 49.7808C141.468 48.9126 142.089 48.1652 142.869 47.6147ZM142.869 53.5739C143.377 53.2505 143.701 52.2804 143.701 50.7098C143.701 49.1391 143.377 48.5386 142.823 48.862C142.269 49.1853 141.945 50.1092 141.992 51.7261C142.038 53.3429 142.315 53.8972 142.869 53.5739Z" fill="#FF61CB"/>
<path d="M147.906 44.6124C149.569 43.6885 150.169 44.982 150.215 46.876C150.302 47.8372 150.134 48.8042 149.729 49.68C149.323 50.5558 148.695 51.3094 147.906 51.8651C146.335 52.7428 145.642 51.5417 145.642 49.5553C145.58 48.6084 145.755 47.661 146.15 46.7982C146.545 45.9355 147.148 45.1844 147.906 44.6124ZM147.906 50.8026C148.46 50.5254 148.737 49.5553 148.737 47.9385C148.737 46.3217 148.46 45.7673 147.859 46.0907C147.259 46.4141 146.982 47.338 147.028 48.9548C147.074 50.5716 147.351 51.126 147.906 50.8026Z" fill="#FF61CB"/>
<path d="M117.971 75.0083L118.017 81.9376L116.631 82.7229V77.2257L115.476 78.5191L115.199 77.4566L116.816 75.655L117.971 75.0083Z" fill="#FF61CB"/>
<path d="M122.22 72.422C123.837 71.4981 124.484 72.7916 124.484 74.6856C124.571 75.6467 124.403 76.6138 123.997 77.4896C123.592 78.3654 122.963 79.119 122.174 79.6746C120.603 80.5523 119.911 79.3513 119.911 77.3649C119.846 76.4128 120.023 75.4599 120.427 74.5953C120.831 73.7308 121.448 72.983 122.22 72.422ZM122.22 78.4274C122.775 78.0886 123.052 77.1185 123.052 75.5171C123.052 73.9926 122.775 73.3459 122.22 73.6693C121.666 73.9926 121.296 74.9627 121.343 76.5334C121.389 78.104 121.666 78.7045 122.22 78.4274Z" fill="#FF61CB"/>
<path d="M133.537 66.0005V72.9759L132.198 73.7613L132.151 68.264L130.997 69.5575L130.766 68.495L132.336 66.6934L133.537 66.0005Z" fill="#FF61CB"/>
<path d="M138.711 63.0435V69.9727L137.371 70.758L137.325 65.2608L136.17 66.5543L135.939 65.4918L137.556 63.6902L138.711 63.0435Z" fill="#FF61CB"/>
<path d="M142.916 60.4572C144.532 59.5333 145.179 60.8267 145.179 62.7207C145.262 63.6767 145.097 64.6378 144.701 65.5116C144.304 66.3854 143.689 67.1424 142.916 67.7098C141.345 68.5875 140.652 67.3864 140.606 65.4C140.541 64.448 140.719 63.495 141.123 62.6305C141.527 61.7659 142.144 61.0181 142.916 60.4572ZM142.916 66.4625C143.47 66.1392 143.793 65.1691 143.793 63.5522C143.793 61.9354 143.47 61.3811 142.916 61.7044C142.361 62.0278 142.038 62.9979 142.038 64.6147C142.038 66.2316 142.361 66.7397 142.916 66.4625Z" fill="#FF61CB"/>
<path d="M147.906 57.5008C149.523 56.5307 150.17 57.8242 150.17 59.7644C150.254 60.7073 150.09 61.6559 149.692 62.5153C149.295 63.3746 148.679 64.1146 147.906 64.661C146.335 65.5849 145.643 64.3377 145.596 62.3975C145.531 61.4519 145.708 60.5053 146.113 59.648C146.517 58.7907 147.135 58.0514 147.906 57.5008ZM147.906 63.46C148.414 63.1366 148.738 62.1665 148.738 60.5959C148.738 59.0252 148.414 58.3785 147.86 58.7019C147.306 59.0252 146.982 59.9953 146.982 61.6122C146.982 63.229 147.306 63.7833 147.906 63.46Z" fill="#FF61CB"/>
<path opacity="0.6" d="M127.439 12.7379V14.3547L125.776 15.2786V13.5694C125.776 11.9526 125.221 11.3058 123.974 12.0449C123.36 12.4247 122.863 12.9662 122.537 13.61C122.211 14.2538 122.069 14.975 122.126 15.6944V25.2105C122.126 26.8736 122.727 27.5203 123.974 26.7812C124.587 26.3919 125.079 25.8404 125.397 25.188C125.715 24.5356 125.846 23.8079 125.776 23.0856V20.7758L127.439 19.8057V22.0693C127.506 23.3786 127.214 24.6814 126.595 25.8372C125.977 26.9931 125.054 27.9584 123.928 28.629C121.526 30.0148 120.417 28.629 120.417 26.1344V16.8954C120.347 15.5792 120.636 14.2688 121.255 13.1049C121.874 11.941 122.798 10.9677 123.928 10.2895C126.33 8.81128 127.439 9.96616 127.439 12.7379Z" fill="url(#paint1_linear)"/>
<path opacity="0.6" d="M135.801 7.88744V8.34939L134.046 9.2271V8.71896C134.046 7.10213 133.537 6.4554 132.244 7.19452C131.647 7.56332 131.167 8.09236 130.856 8.72128C130.546 9.35021 130.418 10.0537 130.489 10.7515C130.489 14.8167 135.709 12.1836 135.709 17.265C135.777 18.5683 135.486 19.8653 134.867 21.0142C134.247 22.163 133.324 23.1193 132.198 23.7786C129.796 25.1644 128.687 24.0557 128.687 21.3302V20.2677L130.304 19.3438V20.4525C130.304 22.1155 130.904 22.7161 132.152 21.9769C132.759 21.6219 133.257 21.1065 133.591 20.4872C133.925 19.868 134.082 19.1688 134.046 18.4661C134.046 14.401 128.826 17.0341 128.826 11.9526C128.758 10.6547 129.044 9.36275 129.654 8.21529C130.265 7.06783 131.176 6.10813 132.29 5.4391C134.692 4.00706 135.801 5.11574 135.801 7.88744Z" fill="url(#paint2_linear)"/>
<path opacity="0.6" d="M144.115 3.08287V3.54482L142.452 4.60731V3.91439C142.452 2.29756 141.944 1.65083 140.651 2.38995C140.054 2.75875 139.573 3.28779 139.263 3.91671C138.953 4.54564 138.825 5.24914 138.895 5.94697C138.895 10.0121 144.115 7.37902 144.115 12.4605C144.182 13.7698 143.891 15.0726 143.272 16.2284C142.653 17.3843 141.731 18.3496 140.605 19.0202C138.202 20.3598 137.094 19.0202 137.094 16.5256V15.4632L138.711 14.5393V15.6479C138.711 17.311 139.311 17.9115 140.558 17.1724C141.172 16.8041 141.67 16.2714 141.997 15.6346C142.323 14.9978 142.465 14.2824 142.406 13.5692C142.406 9.55019 137.186 12.1833 137.186 7.10185C137.108 5.80238 137.39 4.50652 138.001 3.35717C138.613 2.20782 139.529 1.24965 140.651 0.588338C143.007 -0.797515 144.115 0.357363 144.115 3.08287Z" fill="url(#paint3_linear)"/>
<g opacity="0.6">
<path d="M22.8532 110.856L20.913 117.785L19.7119 118.478L22.0217 110.209L19.8505 104.943L21.1902 104.157L22.9918 108.5L24.7934 102.079L25.9944 101.617L23.8233 109.377L26.1792 114.967L24.7934 115.799L22.8532 110.856Z" fill="url(#paint4_linear)"/>
<path d="M31.5381 111.734L30.2909 112.473L28.3507 102.864V113.582L27.1958 114.275V100.786L28.9974 99.7231L30.9376 109.378L32.7854 97.5519L34.587 96.5356V109.978L33.3859 110.856V99.8617L31.5381 111.734Z" fill="url(#paint5_linear)"/>
<path d="M35.9253 109.193V95.7499L37.034 95.0107V107.114L40.36 105.174V106.56L35.9253 109.193Z" fill="url(#paint6_linear)"/>
</g>
<path opacity="0.6" d="M33.8469 58.4242V66.5545L32.1377 67.5708V49.5085L33.8469 48.4923V56.6226L37.7273 54.4052V46.1825L39.4365 45.2124V63.2285L37.7273 64.2448V56.2068L33.8469 58.4242Z" fill="url(#paint7_linear)"/>
<path opacity="0.6" d="M43.5013 61.0121V44.7514L40.6372 46.4145V44.6128L48.167 40.2705V42.1183L45.2567 43.7813V60.042L43.5013 61.0121Z" fill="url(#paint8_linear)"/>
<path opacity="0.6" d="M55.143 54.2669L53.4338 55.237L50.8931 42.3485V56.7614L49.3687 57.6391V39.5768L51.817 38.191L54.4039 51.1256L56.8523 35.2807L59.3006 33.8486V51.9109L57.6376 52.881V38.3296L55.143 54.2669Z" fill="url(#paint9_linear)"/>
<path opacity="0.6" d="M61.0547 50.8026V32.8327L62.8101 31.8164V48.0309L67.4296 45.444V47.2918L61.0547 50.8026Z" fill="url(#paint10_linear)"/>
<path opacity="0.6" d="M69.9253 105.405L64.7515 106.237V104.851L70.1563 99.2148V100.324L66.0449 104.943L70.1563 104.527L69.9253 105.405Z" fill="url(#paint11_linear)"/>
<path opacity="0.6" d="M76.9016 91.2695L72.2821 108.085L71.0811 108.777L75.7006 91.9625L76.9016 91.2695Z" fill="url(#paint12_linear)"/>
<path opacity="0.6" d="M77.8714 99.6773L81.9828 95.335L77.8714 95.7507V94.5958L83.23 94.0415V95.1502L77.8252 100.832L77.8714 99.6773Z" fill="url(#paint13_linear)"/>
<g opacity="0.1">
<path opacity="0.1" d="M183.197 182.828C192.436 188.279 192.714 197.149 183.197 202.6C177.909 205.286 172.06 206.686 166.128 206.686C160.196 206.686 154.348 205.286 149.059 202.6C139.589 197.149 139.543 188.279 149.059 182.828C154.348 180.142 160.196 178.742 166.128 178.742C172.06 178.742 177.909 180.142 183.197 182.828Z" fill="black"/>
</g>
<path d="M185.877 99.8158C185.877 99.8158 186.108 95.4272 179.872 94.9191C175.738 94.5869 171.588 94.5098 167.445 94.6881L158.622 83.4165C158.622 83.4165 155.896 83.4165 155.157 85.3567C155.157 85.3567 160.562 98.2913 165.32 100.924C165.32 100.924 186.708 109.563 185.877 99.8158Z" fill="#CADFE8"/>
<path d="M155.295 85.1714C154.103 84.2556 153.072 83.147 152.246 81.8915C151.829 81.0469 151.654 80.1039 151.738 79.166C151.738 78.7964 152.708 80.1823 152.985 80.6442C153.262 81.1062 154.463 81.6143 153.77 78.3345C153.077 75.0546 153.77 75.7938 153.77 75.9323C156.033 78.0397 157.542 80.8308 158.067 83.8779C157.023 83.9818 156.045 84.438 155.295 85.1714Z" fill="#EFB185"/>
<path d="M165.32 100.924C160.701 98.2909 155.157 85.3562 155.157 85.3562C155.348 84.8888 155.689 84.4986 156.127 84.2476C157.513 86.7421 161.578 94.0409 164.304 98.1061C167.63 102.726 185.692 101.848 185.785 101.709C183.937 108.454 165.32 100.924 165.32 100.924Z" fill="#AFCED8"/>
<path d="M175.298 184.444C175.298 184.444 172.803 184.814 173.404 186.246C174.004 187.678 176.868 189.849 177.238 190.865C177.608 191.882 179.964 195.023 180.703 194.7C181.442 194.376 183.428 194.7 183.197 191.143C182.881 189.274 181.916 187.577 180.47 186.352C179.025 185.126 177.193 184.451 175.298 184.444Z" fill="#111114"/>
<path d="M170.538 198.025C170.538 198.025 171.739 201.536 168.736 202.368C165.734 203.199 166.611 201.305 160.052 202.968C153.492 204.631 152.753 201.259 152.892 200.474C153.03 199.688 157.511 198.395 158.851 198.025L163.008 196.963H171L170.538 198.025Z" fill="#111114"/>
<path d="M182.965 135.755V159.592C182.965 161.994 185.691 180.98 184.074 189.295C183.516 189.91 182.834 190.402 182.075 190.738C181.315 191.074 180.493 191.248 179.662 191.248C178.832 191.248 178.01 191.074 177.25 190.738C176.49 190.402 175.809 189.91 175.251 189.295C175.251 189.295 173.957 165.505 172.756 160.146C171.985 152.982 171.723 145.773 171.971 138.573L182.965 135.755Z" fill="#511DD8"/>
<path d="M174.743 138.804C174.743 138.804 173.68 152.663 172.572 166.521C172.572 166.521 171.925 193.73 171.278 197.657C171.278 197.657 162.501 199.828 161.623 195.717C161.623 195.717 161.623 171.741 161.623 166.752C160.722 157.169 160.908 147.514 162.178 137.973C164.118 129.75 174.743 138.804 174.743 138.804Z" fill="#511DD8"/>
<path d="M171.277 197.472C171.924 193.546 172.571 166.337 172.571 166.337C173.31 157.098 174.188 146.288 174.557 141.207L168.598 142.361C166.325 151.291 165.345 160.501 165.688 169.709C166.15 181.627 166.381 193.361 166.427 198.027C168.06 198.025 169.687 197.839 171.277 197.472Z" fill="#632BEE"/>
<path d="M184.075 189.387C185.691 181.072 182.966 162.086 182.966 159.684V135.893L178.346 139.542C177.523 147.528 177.523 155.578 178.346 163.564C179.686 171.509 178.808 186.939 179.455 191.281C181.165 191.193 182.795 190.525 184.075 189.387Z" fill="#632BEE"/>
<path d="M184.26 96.9975C184.26 96.9975 188.88 99.261 186.2 106.929C184.124 111.912 182.711 117.146 181.997 122.497C182.216 127.663 182.709 132.813 183.475 137.926C183.475 137.926 183.798 141.206 171.51 142.869C171.51 142.869 160.423 144.163 162.271 136.356C163.417 129.924 163.417 123.34 162.271 116.908C161.428 114.437 161.512 111.745 162.506 109.331C163.5 106.918 165.338 104.948 167.676 103.788C175.622 99.5844 179.41 96.5355 184.26 96.9975Z" fill="#CADFE8"/>
<path d="M178.9 93.0716C178.646 95.286 178.964 97.5287 179.824 99.5851C181.071 101.849 171.601 104.205 171.371 101.849C171.883 100.599 172.116 99.253 172.052 97.9042C171.988 96.5553 171.629 95.2369 171.001 94.0417C169.661 91.9167 178.9 93.0716 178.9 93.0716Z" fill="#EFB185"/>
<path d="M179.732 99.7234C178.93 97.8946 178.612 95.8902 178.808 93.9028L171.879 97.3213C172.156 97.3213 176.822 98.5685 177.838 101.941C179.224 101.617 180.24 100.555 179.732 99.7234Z" fill="#DD9569"/>
<path d="M168.923 82.4009C168.072 84.544 167.679 86.8413 167.768 89.1454C168.045 92.5638 167.768 93.2567 167.768 94.735C167.767 95.5424 168.045 96.3255 168.554 96.9523C169.442 97.5608 170.482 97.9128 171.557 97.9699C172.633 98.0269 173.703 97.7868 174.651 97.2757C176.668 96.4644 178.333 94.9683 179.356 93.0504C180.378 91.1325 180.691 88.9156 180.241 86.7894C179.97 85.624 179.419 84.5424 178.635 83.6386C177.851 82.7348 176.858 82.0363 175.742 81.6037C174.626 81.1712 173.422 81.0177 172.234 81.1566C171.045 81.2955 169.909 81.7227 168.923 82.4009Z" fill="#EFB185"/>
<path d="M180.241 91.5001C178.831 88.4112 177.195 85.4312 175.344 82.5844C174.582 81.9332 173.744 81.3749 172.85 80.9214C171.436 81.0704 170.084 81.5793 168.923 82.3996C168.923 82.3996 168.554 83.3697 168.184 84.7094C169.016 85.6795 170.725 86.742 171.002 87.5273C171.503 89.5127 171.407 91.6019 170.725 93.5326C170.17 94.7799 172.434 96.6277 171.926 97.7364C172.858 97.668 173.776 97.4657 174.651 97.1359C175.911 96.615 177.054 95.8483 178.014 94.8807C178.973 93.913 179.731 92.7637 180.241 91.5001Z" fill="#E6A376"/>
<path d="M167.907 80.8757C167.809 81.813 168 82.7578 168.454 83.5835C168.908 84.4092 169.604 85.0763 170.448 85.4952C172.296 86.4191 172.157 89.4218 172.065 90.1148C171.781 91.2162 171.641 92.3497 171.649 93.487C172.065 94.1337 173.543 92.1935 174.236 92.2859C175.991 92.6555 175.298 94.2723 173.681 95.9815C172.065 97.6908 176.453 98.5685 178.532 97.044C179.641 96.2587 180.01 95.7968 181.442 92.9327C182.105 91.9936 182.562 90.9254 182.785 89.7977C183.007 88.6699 182.989 87.508 182.732 86.3877C182.474 85.2675 181.984 84.214 181.292 83.2961C180.6 82.3781 179.723 81.6164 178.717 81.0605C173.774 78.2426 171.002 82.0768 167.907 80.8757Z" fill="#221101"/>
<path d="M178.53 96.9972C179.639 96.2118 180.008 95.7499 181.44 92.8858C182.103 91.9468 182.561 90.8785 182.783 89.7508C183.005 88.6231 182.987 87.4611 182.73 86.3409C182.472 85.2206 181.982 84.1671 181.29 83.2492C180.598 82.3313 179.721 81.5695 178.715 81.0137C173.772 78.3343 170.954 82.1685 167.905 81.0137C167.849 81.4275 167.849 81.8471 167.905 82.2609C169.476 82.5381 173.726 83.3696 174.834 85.2174C175.943 87.0652 177.698 86.7418 177.606 89.5597C177.514 92.3776 178.207 95.7961 173.633 97.3667C174.402 97.7717 175.269 97.9518 176.135 97.8865C177.001 97.8211 177.831 97.5129 178.53 96.9972Z" fill="#341C09"/>
<path d="M171.879 100.6L168.784 103.187C168.784 103.187 178.392 105.913 181.21 101.247C181.401 100.573 181.325 99.8519 180.998 99.2326C180.671 98.6134 180.119 98.1437 179.455 97.9209C179.455 97.9209 179.131 101.617 171.879 100.6Z" fill="#DEF0F9"/>
<path d="M162.363 136.217C163.509 129.785 163.509 123.201 162.363 116.769C161.534 114.339 161.605 111.692 162.563 109.309C163.521 106.927 165.303 104.968 167.583 103.788C169.463 104.684 170.933 106.26 171.696 108.198C172.46 110.136 172.459 112.291 171.695 114.228C169.397 123.566 168.081 133.119 167.768 142.731C164.904 142.361 161.162 141.021 162.363 136.217Z" fill="#AFCED8"/>
<path d="M173.173 106.836C173.173 106.836 172.849 102.91 167.213 103.187C163.466 103.406 159.733 103.838 156.034 104.48L146.795 95.2412C146.795 95.2412 144.393 95.7494 143.931 97.3662C143.931 97.3662 150.306 108.314 154.879 110.116C154.879 110.301 175.067 115.475 173.173 106.836Z" fill="#CADFE8"/>
<path d="M146.425 95.7496C146.276 94.4031 145.901 93.0912 145.316 91.8692C144.845 91.173 144.211 90.6021 143.469 90.2062C143.145 90.2062 143.792 91.4073 144.023 91.8692C144.254 92.3312 144.023 93.4399 141.852 91.4535C139.681 89.4671 139.958 90.1138 139.912 90.391C140.574 93.1013 142.039 95.5486 144.115 97.4126C144.66 96.5981 145.48 96.0075 146.425 95.7496Z" fill="#EFB185"/>
<path d="M154.879 110.301C150.26 108.499 143.931 97.5511 143.931 97.5511C144.066 97.1181 144.322 96.7331 144.67 96.4424C146.195 98.5212 150.722 104.573 153.632 107.76C156.542 110.948 173.219 108.545 173.265 108.407C172.434 114.828 154.879 110.301 154.879 110.301Z" fill="#AFCED8"/>
<defs>
<linearGradient id="paint0_linear" x1="20.8179" y1="150.622" x2="193.678" y2="149.838" gradientUnits="userSpaceOnUse">
<stop stop-color="#FFF2C9"/>
<stop offset="1" stop-color="#FFB7BB"/>
</linearGradient>
<linearGradient id="paint1_linear" x1="503.034" y1="472.244" x2="-12.726" y2="340.731" gradientUnits="userSpaceOnUse">
<stop stop-color="#FFF2C9"/>
<stop offset="1" stop-color="#FFB7BB"/>
</linearGradient>
<linearGradient id="paint2_linear" x1="523.018" y1="437.76" x2="2.54573" y2="303.843" gradientUnits="userSpaceOnUse">
<stop stop-color="#FFF2C9"/>
<stop offset="1" stop-color="#FFB7BB"/>
</linearGradient>
<linearGradient id="paint3_linear" x1="534.488" y1="402.521" x2="19.3924" y2="271.437" gradientUnits="userSpaceOnUse">
<stop stop-color="#FFF2C9"/>
<stop offset="1" stop-color="#FFB7BB"/>
</linearGradient>
<linearGradient id="paint4_linear" x1="193.683" y1="765.443" x2="-156.648" y2="670.383" gradientUnits="userSpaceOnUse">
<stop stop-color="#FFF2C9"/>
<stop offset="1" stop-color="#FFB7BB"/>
</linearGradient>
<linearGradient id="paint5_linear" x1="233.78" y1="768.309" x2="-161.59" y2="651.781" gradientUnits="userSpaceOnUse">
<stop stop-color="#FFF2C9"/>
<stop offset="1" stop-color="#FFB7BB"/>
</linearGradient>
<linearGradient id="paint6_linear" x1="163.202" y1="617.188" x2="-82.6793" y2="562.795" gradientUnits="userSpaceOnUse">
<stop stop-color="#FFF2C9"/>
<stop offset="1" stop-color="#FFB7BB"/>
</linearGradient>
<linearGradient id="paint7_linear" x1="365.986" y1="919.651" x2="-174.436" y2="794.854" gradientUnits="userSpaceOnUse">
<stop stop-color="#FFF2C9"/>
<stop offset="1" stop-color="#FFB7BB"/>
</linearGradient>
<linearGradient id="paint8_linear" x1="395.065" y1="812.895" x2="-155.987" y2="671.372" gradientUnits="userSpaceOnUse">
<stop stop-color="#FFF2C9"/>
<stop offset="1" stop-color="#FFB7BB"/>
</linearGradient>
<linearGradient id="paint9_linear" x1="527.79" y1="882.693" x2="-184.771" y2="672.204" gradientUnits="userSpaceOnUse">
<stop stop-color="#FFF2C9"/>
<stop offset="1" stop-color="#FFB7BB"/>
</linearGradient>
<linearGradient id="paint10_linear" x1="374.51" y1="682.473" x2="-96.1959" y2="570.642" gradientUnits="userSpaceOnUse">
<stop stop-color="#FFF2C9"/>
<stop offset="1" stop-color="#FFB7BB"/>
</linearGradient>
<linearGradient id="paint11_linear" x1="171.173" y1="280.795" x2="-82.221" y2="142.804" gradientUnits="userSpaceOnUse">
<stop stop-color="#FFF2C9"/>
<stop offset="1" stop-color="#FFB7BB"/>
</linearGradient>
<linearGradient id="paint12_linear" x1="189.995" y1="525.466" x2="-145.065" y2="446.675" gradientUnits="userSpaceOnUse">
<stop stop-color="#FFF2C9"/>
<stop offset="1" stop-color="#FFB7BB"/>
</linearGradient>
<linearGradient id="paint13_linear" x1="192.245" y1="255.32" x2="-57.0179" y2="114.955" gradientUnits="userSpaceOnUse">
<stop stop-color="#FFF2C9"/>
<stop offset="1" stop-color="#FFB7BB"/>
</linearGradient>
</defs>
</svg>
