<svg width="214" height="226" viewBox="0 0 214 226" fill="none" xmlns="http://www.w3.org/2000/svg">
<g opacity="0.4">
<path opacity="0.8" d="M23.5729 96.1441C25.6714 94.8752 26.5499 96.5834 26.5499 99.1212C26.6634 100.374 26.4432 101.634 25.9117 102.774C25.3803 103.914 24.5565 104.894 23.5241 105.612C21.4743 106.832 20.547 105.222 20.547 102.635C20.4435 101.383 20.6682 100.126 21.1988 98.9882C21.7295 97.8499 22.5477 96.8696 23.5729 96.1441ZM23.5729 104.002C24.3049 103.562 24.6954 102.293 24.6954 100.195C24.6954 98.0963 24.4025 97.1202 23.5241 97.7546C22.6456 98.3891 22.4016 99.414 22.4016 101.561C22.4016 103.709 22.8408 104.392 23.5729 104.002Z" fill="#FFD2CD"/>
<path opacity="0.8" d="M30.356 92.2398C32.5034 91.0197 33.3331 92.7278 33.3819 95.2168C33.4843 96.4753 33.2595 97.7389 32.7293 98.8848C32.1991 100.031 31.3816 101.02 30.356 101.757C28.3063 102.928 27.379 101.317 27.3302 98.7307C27.2411 97.4808 27.4722 96.2287 28.0016 95.093C28.5311 93.9572 29.3414 92.9752 30.356 92.2398ZM30.356 100.097C31.0881 99.658 31.4297 98.4379 31.4297 96.3393C31.4297 94.2407 31.0393 93.4599 30.3072 93.8503C29.5752 94.2407 29.2823 95.5096 29.2823 97.6082C29.2823 99.7068 29.7216 100.488 30.4536 100.048L30.356 100.097Z" fill="#FFD2CD"/>
<path opacity="0.8" d="M38.4572 87.7007V96.8271L36.7002 97.9007L36.6514 90.6289L35.1385 92.3371L34.7969 90.9218L36.8955 88.5792L38.4572 87.7007Z" fill="#FFD2CD"/>
<path opacity="0.8" d="M45.2917 83.7471V92.9222L43.4859 93.9471V86.6753L43.4371 86.7241L41.9242 88.4323L41.6313 86.9681L43.7299 84.6255L45.2917 83.7471Z" fill="#FFD2CD"/>
<path opacity="0.8" d="M50.8063 80.3794C52.9537 79.1593 53.7833 80.8675 53.8322 83.3565C53.9346 84.6149 53.7098 85.8785 53.1796 87.0244C52.6494 88.1703 51.8318 89.1596 50.8063 89.8962C48.7077 91.0675 47.8292 89.5058 47.7804 86.9192C47.6875 85.6618 47.9165 84.4015 48.446 83.2572C48.9754 82.1129 49.7878 81.1225 50.8063 80.3794ZM50.8063 88.2369C51.4896 87.8464 51.88 86.5775 51.88 84.479C51.88 82.3804 51.4896 81.5995 50.7575 82.0388C50.0254 82.478 49.5862 83.6981 49.635 85.7967C49.6838 87.8953 50.0742 88.6761 50.8063 88.2369Z" fill="#FFD2CD"/>
<path opacity="0.8" d="M57.6392 76.4761C59.7866 75.2072 60.6163 76.9154 60.6163 79.4532C60.7297 80.7059 60.5096 81.9664 59.9781 83.1064C59.4466 84.2465 58.6228 85.2256 57.5904 85.9441C55.5407 87.1642 54.6134 85.5537 54.6134 82.9671C54.5243 81.7171 54.7554 80.4651 55.2848 79.3293C55.8143 78.1936 56.6246 77.2116 57.6392 76.4761ZM57.6392 84.3336C58.3713 83.8944 58.7617 82.6255 58.7617 80.5269C58.7617 78.4283 58.3713 77.6474 57.6392 78.0867C56.9072 78.5259 56.4679 79.746 56.4679 81.8934C56.4679 84.0408 56.9072 84.724 57.6392 84.3336Z" fill="#FFD2CD"/>
<path opacity="0.8" d="M64.4699 72.7183C66.5685 71.4982 67.447 73.2063 67.447 75.6953C67.5592 76.9549 67.3388 78.2218 66.8078 79.3695C66.2768 80.5171 65.4538 81.5053 64.4211 82.2351C62.3714 83.4064 61.4441 81.7958 61.4441 79.2092C61.3306 77.9565 61.5508 76.6961 62.0823 75.556C62.6137 74.4159 63.4375 73.4369 64.4699 72.7183ZM64.4699 80.5757C65.202 80.1365 65.5924 78.9164 65.5436 76.8178C65.4948 74.7193 65.202 73.9384 64.4211 74.3288C63.6403 74.7192 63.2986 76.037 63.2986 78.1355C63.2986 80.2341 63.7379 81.015 64.4699 80.5757Z" fill="#FFD2CD"/>
<path opacity="0.8" d="M72.5246 68.0327L72.5734 77.1591L70.7676 78.2328L70.7188 70.961L69.2059 72.6691L68.8643 71.2538L71.0116 68.9112L72.5246 68.0327Z" fill="#FFD2CD"/>
<path opacity="0.8" d="M78.0871 64.6646C80.2344 63.4445 81.0641 65.1039 81.0641 67.6417C81.1829 68.8899 80.9701 70.1473 80.4474 71.287C79.9247 72.4267 79.1105 73.4083 78.0871 74.1326C76.0373 75.3527 75.11 73.7422 75.11 71.1556C75.0154 69.91 75.239 68.6608 75.7598 67.5254C76.2806 66.39 77.0814 65.4056 78.0871 64.6646ZM78.0871 72.7173C78.8191 72.2781 79.2096 71.0092 79.2096 68.9106C79.2096 66.812 78.8191 66.0311 78.0871 66.4704C77.355 66.9096 76.9158 68.1297 76.9158 70.2771C76.9158 72.4245 77.355 73.1077 78.0871 72.7173Z" fill="#FFD2CD"/>
<path opacity="0.8" d="M84.8702 60.7114C87.0176 59.4913 87.8961 61.1995 87.8961 63.6885C88.0083 64.948 87.7879 66.215 87.2569 67.3627C86.7259 68.5103 85.9029 69.4984 84.8702 70.2282C82.8204 71.3995 81.8931 69.789 81.8443 67.2024C81.7552 65.9524 81.9863 64.7004 82.5158 63.5646C83.0452 62.4289 83.8556 61.4469 84.8702 60.7114ZM84.8702 68.5689C85.6023 68.1297 85.9927 66.9096 85.9439 64.811C85.8951 62.7124 85.5535 61.9315 84.8214 62.3708C84.0893 62.81 83.6501 64.0301 83.6989 66.1287C83.7477 68.2273 84.1381 69.0081 84.8702 68.5689Z" fill="#FFD2CD"/>
<path opacity="0.8" d="M92.9733 56.2222V65.3973L91.2164 66.4222L91.1675 59.1504L89.6546 60.8586L89.313 59.4432L91.4116 57.1006L92.9733 56.2222Z" fill="#FFD2CD"/>
<path opacity="0.8" d="M98.5353 52.8545C100.634 51.6344 101.512 53.3426 101.512 55.8316C101.625 57.0911 101.404 58.3581 100.873 59.5057C100.342 60.6534 99.5192 61.6415 98.4865 62.3713C96.4367 63.5426 95.5094 61.9321 95.5094 59.3455C95.406 58.0938 95.6306 56.8369 96.1612 55.6986C96.6919 54.5603 97.5101 53.58 98.5353 52.8545ZM98.5353 60.712C99.2673 60.2727 99.6578 59.0526 99.6578 56.9541C99.6578 54.8555 99.2673 54.0258 98.4865 54.465C97.7056 54.9043 97.608 56.1732 97.608 58.0766C97.608 59.9799 98.0472 60.956 98.7793 60.5168L98.5353 60.712Z" fill="#FFD2CD"/>
<path opacity="0.8" d="M105.32 48.9009C107.468 47.6808 108.298 49.3889 108.346 51.8779C108.459 53.1375 108.238 54.4045 107.707 55.5521C107.176 56.6998 106.353 57.6879 105.32 58.4177C103.222 59.589 102.343 58.0273 102.295 55.4407C102.202 54.1833 102.431 52.923 102.96 51.7787C103.49 50.6344 104.302 49.644 105.32 48.9009ZM105.32 56.7584C106.053 56.3679 106.394 55.099 106.394 53.0004C106.394 50.9019 106.004 50.121 105.272 50.5602C104.54 50.9995 104.1 52.2196 104.149 54.3182C104.198 56.4167 104.588 57.1976 105.32 56.7584Z" fill="#FFD2CD"/>
<path opacity="0.8" d="M112.25 44.9976C114.397 43.7287 115.227 45.4369 115.227 47.9747C115.345 49.2229 115.133 50.4803 114.61 51.62C114.087 52.7597 113.273 53.7413 112.25 54.4656C110.2 55.6857 109.273 54.0752 109.273 51.4886C109.178 50.243 109.402 48.9938 109.922 47.8584C110.443 46.723 111.244 45.7386 112.25 44.9976ZM112.25 52.8551C112.982 52.4159 113.372 51.1469 113.372 49.0484C113.372 46.9498 112.982 46.1689 112.25 46.6082C111.518 47.0474 111.078 48.2675 111.078 50.4149C111.078 52.5623 111.518 53.2455 112.25 52.8551Z" fill="#FFD2CD"/>
<path opacity="0.8" d="M120.205 40.4585L120.254 49.6337L118.448 50.6586V43.4355H118.4L116.887 45.1437L116.594 43.7284L118.692 41.3858L120.205 40.4585Z" fill="#FFD2CD"/>
<path opacity="0.8" d="M127.038 36.5542L127.087 45.6806L125.281 46.7543L125.232 39.4824L123.72 41.1906L123.378 39.7753L125.525 37.4327L127.038 36.5542Z" fill="#FFD2CD"/>
<path opacity="0.8" d="M132.602 33.1861C134.749 31.966 135.579 33.6741 135.579 36.1631C135.686 37.4221 135.463 38.6874 134.933 39.8341C134.402 40.9809 133.582 41.9696 132.553 42.7029C130.503 43.8742 129.576 42.2636 129.576 39.677C129.487 38.4271 129.718 37.175 130.247 36.0393C130.777 34.9035 131.587 33.9215 132.602 33.1861ZM132.602 41.0435C133.334 40.6043 133.724 39.3354 133.724 37.2368C133.724 35.1382 133.334 34.3574 132.602 34.7966C131.87 35.2358 131.43 36.5047 131.43 38.6033C131.43 40.7019 131.87 41.434 132.602 41.0435Z" fill="#FFD2CD"/>
<path opacity="0.8" d="M23.6207 113.079C25.7193 111.81 26.5978 113.518 26.5978 116.056C26.7112 117.308 26.491 118.569 25.9596 119.709C25.4281 120.849 24.6043 121.828 23.5719 122.547C21.5221 123.767 20.5949 122.156 20.5949 119.57C20.4914 118.318 20.7161 117.061 21.2467 115.923C21.7773 114.784 22.5956 113.804 23.6207 113.079ZM23.6207 120.936C24.3528 120.497 24.7432 119.228 24.7432 117.129C24.7432 115.031 24.3528 114.25 23.5719 114.689C22.7911 115.128 22.4494 116.349 22.4494 118.496C22.4494 120.643 22.8887 121.327 23.6207 120.936Z" fill="#FFD2CD"/>
<path opacity="0.8" d="M30.4063 109.126C32.5537 107.906 33.3834 109.614 33.4322 112.103C33.5444 113.363 33.324 114.63 32.793 115.777C32.262 116.925 31.439 117.913 30.4063 118.643C28.3566 119.814 27.4293 118.204 27.3805 115.617C27.2914 114.367 27.5225 113.115 28.0519 111.979C28.5814 110.843 29.3917 109.861 30.4063 109.126ZM30.4063 116.983C31.1384 116.544 31.48 115.324 31.48 113.226C31.48 111.127 31.0896 110.346 30.3575 110.737C29.6255 111.127 29.1862 112.445 29.235 114.543C29.2838 116.642 29.6743 117.423 30.4063 116.983Z" fill="#FFD2CD"/>
<path opacity="0.8" d="M37.2374 105.172C39.3848 103.952 40.2145 105.66 40.2145 108.149C40.3317 109.41 40.1136 110.678 39.5822 111.827C39.0507 112.975 38.225 113.963 37.1886 114.689C35.1388 115.86 34.1628 114.299 34.1628 111.761C34.0667 110.491 34.2991 109.218 34.8376 108.064C35.3761 106.91 36.2025 105.914 37.2374 105.172ZM37.2374 113.03C37.9695 112.639 38.3599 111.371 38.3599 109.272C38.3599 107.173 37.9695 106.392 37.2374 106.832C36.5053 107.271 36.0661 108.491 36.0661 110.59C36.0661 112.688 36.5053 113.469 37.2374 113.03Z" fill="#FFD2CD"/>
<path opacity="0.8" d="M45.339 100.682V109.857L43.5333 110.882V103.61L43.4845 103.659L41.9715 105.319L41.6787 103.903L43.7773 101.561L45.339 100.682Z" fill="#FFD2CD"/>
<path opacity="0.8" d="M50.8534 97.1201C53.0008 95.9 53.8305 97.6082 53.8305 100.097C53.9984 101.392 53.8099 102.708 53.2853 103.903C52.7607 105.098 51.9199 106.128 50.8534 106.881C48.7548 108.052 47.8764 106.442 47.8276 103.855C47.7 102.566 47.9122 101.266 48.4431 100.084C48.9739 98.9028 49.8049 97.8808 50.8534 97.1201ZM50.8534 104.978C51.5367 104.538 51.9271 103.318 51.9271 101.22C51.9271 99.1211 51.5367 98.3402 50.8046 98.7795C50.0726 99.2187 49.6333 100.439 49.6821 102.537C49.7309 104.636 50.1214 105.417 50.8534 104.978Z" fill="#FFD2CD"/>
<path opacity="0.8" d="M57.6871 93.4107C59.8345 92.1418 60.6641 93.85 60.6641 96.3878C60.7776 97.6405 60.5574 98.9009 60.0259 100.041C59.4945 101.181 58.6707 102.16 57.6383 102.879C55.5885 104.099 54.6612 102.488 54.6612 99.9017C54.5721 98.6517 54.8032 97.3997 55.3327 96.2639C55.8621 95.1281 56.6725 94.1461 57.6871 93.4107ZM57.6871 101.219C58.4192 100.829 58.8096 99.56 58.8096 97.4615C58.8096 95.3629 58.4192 94.582 57.6871 95.0212C56.955 95.4605 56.5158 96.6806 56.5158 98.828C56.5158 100.975 56.955 101.659 57.6871 101.219Z" fill="#FFD2CD"/>
<path opacity="0.8" d="M64.4717 89.4575C66.6191 88.2374 67.4975 89.9456 67.4975 92.4346C67.6098 93.6941 67.3894 94.9611 66.8584 96.1087C66.3274 97.2564 65.5044 98.2445 64.4717 98.9743C62.4219 100.146 61.4946 98.5351 61.4946 95.9485C61.3858 94.7013 61.603 93.4473 62.1249 92.3094C62.6468 91.1715 63.4555 90.1887 64.4717 89.4575ZM64.4717 97.315C65.2037 96.8758 65.5942 95.6069 65.5454 93.5571C65.4966 91.5073 65.2037 90.6288 64.4229 91.0681C63.642 91.5073 63.3004 92.7762 63.3004 94.8748C63.3004 96.9734 63.7396 97.7542 64.4717 97.315Z" fill="#FFD2CD"/>
<path opacity="0.8" d="M72.5724 84.9673L72.6212 94.0936L70.8155 95.1673L70.7667 87.8955L69.2537 89.6037L68.9121 88.1884L71.0107 85.8458L72.5724 84.9673Z" fill="#FFD2CD"/>
<path opacity="0.8" d="M79.4044 81.0142V90.1893L77.5987 91.2142V83.9424L77.5499 83.9912L76.037 85.6505L75.7441 84.2352L77.8427 81.8926L79.4044 81.0142Z" fill="#FFD2CD"/>
<path opacity="0.8" d="M86.1886 77.0615L86.2374 86.2367L84.4317 87.2616V80.0386H84.3829L82.8699 81.7467L82.5283 80.3314L84.6757 77.9888L86.1886 77.0615Z" fill="#FFD2CD"/>
<path opacity="0.8" d="M91.7525 73.6939C93.8999 72.4738 94.7295 74.1819 94.7295 76.6709C94.8468 77.931 94.6286 79.1997 94.0972 80.3482C93.5658 81.4968 92.74 82.4843 91.7037 83.2107C89.6539 84.382 88.7266 82.8202 88.7266 80.2336C88.6428 78.9773 88.876 77.7202 89.4047 76.5775C89.9334 75.4348 90.7407 74.4432 91.7525 73.6939ZM91.7525 81.5513C92.4845 81.1609 92.875 79.892 92.875 77.7934C92.875 75.6948 92.4845 74.914 91.7525 75.3532C91.0204 75.7924 90.5812 77.0125 90.63 79.1599C90.6788 81.3073 91.0204 81.9906 91.7525 81.5513Z" fill="#FFD2CD"/>
<path opacity="0.8" d="M98.5856 69.7896C100.733 68.5695 101.563 70.2776 101.563 72.7666C101.67 74.0256 101.447 75.2909 100.917 76.4376C100.386 77.5844 99.5658 78.5731 98.5368 79.3064C96.487 80.4777 95.5597 78.8671 95.5597 76.2805C95.4562 75.0289 95.6809 73.7719 96.2115 72.6336C96.7422 71.4953 97.5604 70.5151 98.5856 69.7896ZM98.5856 77.647C99.3176 77.2078 99.7081 75.9389 99.7081 73.8403C99.7081 71.7417 99.3176 70.9609 98.5368 71.4001C97.7559 71.8393 97.4143 73.1083 97.4143 75.2068C97.4143 77.3054 97.8535 78.0375 98.5856 77.647Z" fill="#FFD2CD"/>
<path opacity="0.8" d="M105.368 65.836C107.515 64.6159 108.345 66.324 108.394 68.813C108.496 70.0715 108.271 71.335 107.741 72.481C107.211 73.6269 106.393 74.6162 105.368 75.3528C103.269 76.5241 102.391 74.9135 102.342 72.3757C102.249 71.1183 102.478 69.858 103.008 68.7138C103.537 67.5695 104.349 66.5791 105.368 65.836ZM105.368 73.6934C106.1 73.303 106.442 72.0341 106.442 69.9355C106.442 67.8369 106.051 67.0561 105.319 67.4953C104.587 67.9345 104.148 69.1546 104.197 71.2532C104.245 73.3518 104.636 74.1327 105.368 73.6934Z" fill="#FFD2CD"/>
<path opacity="0.8" d="M113.469 61.3457V70.5209L111.712 71.5458L111.664 64.274V64.3228L110.102 65.9821L109.809 64.5668L111.908 62.2242L113.469 61.3457Z" fill="#FFD2CD"/>
<path opacity="0.8" d="M119.034 58.0767C121.132 56.8566 122.011 58.5647 122.011 61.0537C122.123 62.3133 121.903 63.5802 121.372 64.7279C120.841 65.8755 120.018 66.8637 118.985 67.5935C116.935 68.7648 116.008 67.1542 116.008 64.5676C115.895 63.3149 116.115 62.0545 116.646 60.9144C117.178 59.7743 118.001 58.7953 119.034 58.0767ZM119.034 65.9341C119.766 65.4949 120.156 64.2748 120.156 62.1762C120.156 60.0776 119.766 59.2968 118.985 59.6872C118.204 60.0776 117.863 61.3954 117.863 63.4939C117.863 65.5925 118.302 66.3734 119.034 65.9341Z" fill="#FFD2CD"/>
<path opacity="0.8" d="M125.817 54.0259C127.964 52.8058 128.794 54.5139 128.794 57.0029C128.921 58.259 128.713 59.5265 128.19 60.6756C127.667 61.8247 126.848 62.8141 125.817 63.5427C123.718 64.714 122.84 63.1523 122.791 60.5657C122.698 59.3083 122.927 58.048 123.456 56.9037C123.986 55.7594 124.798 54.769 125.817 54.0259ZM125.817 61.8834C126.549 61.4929 126.939 60.224 126.939 58.1254C126.939 56.0269 126.549 55.246 125.817 55.6852C125.084 56.1245 124.645 57.3446 124.694 59.4432C124.743 61.5417 125.133 62.3226 125.817 61.8834Z" fill="#FFD2CD"/>
<path opacity="0.8" d="M132.649 50.1207C134.797 48.8518 135.627 50.5599 135.627 53.0977C135.74 54.3505 135.52 55.6109 134.988 56.751C134.457 57.891 133.633 58.8701 132.601 59.5887C130.551 60.8088 129.624 59.1982 129.624 56.6116C129.535 55.3617 129.766 54.1096 130.295 52.9739C130.825 51.8381 131.635 50.8561 132.649 50.1207ZM132.649 57.9781C133.382 57.5389 133.772 56.27 133.772 54.1714C133.772 52.0728 133.382 51.292 132.649 51.7312C131.917 52.1704 131.478 53.3905 131.478 55.5379C131.478 57.6853 131.917 58.3686 132.649 57.9781Z" fill="#FFD2CD"/>
<path opacity="0.8" d="M23.6705 130.014C25.7691 128.745 26.6476 130.453 26.6476 132.991C26.761 134.244 26.5408 135.504 26.0094 136.644C25.4779 137.784 24.6541 138.763 23.6217 139.482C21.572 140.702 20.6447 139.091 20.6447 136.505C20.5412 135.253 20.7659 133.996 21.2965 132.858C21.8271 131.72 22.6454 130.739 23.6705 130.014ZM23.6705 137.822C24.4026 137.432 24.793 136.163 24.793 134.064C24.793 131.966 24.4026 131.283 23.6217 131.624C22.8409 131.966 22.4992 133.284 22.4992 135.431C22.4992 137.578 22.9385 138.262 23.6705 137.822Z" fill="#FFD2CD"/>
<path opacity="0.8" d="M30.4542 126.061C32.6016 124.841 33.4312 126.5 33.48 129.038C33.5825 130.296 33.3577 131.56 32.8275 132.706C32.2973 133.852 31.4797 134.841 30.4542 135.577C28.4044 136.749 27.4771 135.138 27.4283 132.552C27.3392 131.302 27.5703 130.05 28.0998 128.914C28.6292 127.778 29.4396 126.796 30.4542 126.061ZM30.4542 133.918C31.1862 133.479 31.5279 132.21 31.5279 130.16C31.5279 128.11 31.1374 127.232 30.4054 127.671C29.6733 128.11 29.2829 129.379 29.2829 131.283C29.2829 133.186 29.7221 134.113 30.4542 133.723V133.918Z" fill="#FFD2CD"/>
<path opacity="0.8" d="M37.2875 122.107C39.4348 120.887 40.2645 122.595 40.2645 125.084C40.3767 126.344 40.1563 127.611 39.6253 128.759C39.0943 129.906 38.2713 130.894 37.2387 131.624C35.1889 132.796 34.164 131.283 34.164 128.647C34.0819 127.381 34.3259 126.115 34.8727 124.97C35.4196 123.825 36.251 122.839 37.2875 122.107ZM37.2875 129.965C38.0195 129.574 38.41 128.306 38.41 126.207C38.41 124.108 38.0195 123.328 37.2875 123.767C36.5554 124.206 36.1162 125.426 36.165 127.525C36.2138 129.623 36.5554 130.404 37.2875 129.965Z" fill="#FFD2CD"/>
<path opacity="0.8" d="M45.3893 117.617V126.792L43.5836 127.817V120.545L43.5348 120.594L42.0218 122.302L41.729 120.838L43.8276 118.496L45.3893 117.617Z" fill="#FFD2CD"/>
<path opacity="0.8" d="M50.9024 114.251C53.0498 113.03 53.8795 114.739 53.8795 117.228C54.0021 118.483 53.7914 119.749 53.2687 120.897C52.746 122.045 51.9298 123.035 50.9024 123.767C48.8038 124.939 47.9254 123.328 47.8766 120.741C47.7875 119.492 48.0185 118.239 48.548 117.104C49.0775 115.968 49.8878 114.986 50.9024 114.251ZM50.9024 122.108C51.6345 121.669 52.0249 120.449 52.0249 118.35C52.0249 116.251 51.6345 115.471 50.9024 115.861C50.1704 116.251 49.7311 117.569 49.7799 119.668C49.8287 121.766 50.2192 122.547 50.9024 122.108Z" fill="#FFD2CD"/>
<path opacity="0.8" d="M57.7349 110.297C59.8823 109.077 60.7119 110.785 60.7119 113.323C60.8254 114.575 60.6052 115.836 60.0737 116.976C59.5423 118.116 58.7185 119.095 57.6861 119.814C55.6363 121.034 54.709 119.423 54.709 116.837C54.6253 115.58 54.8584 114.323 55.3871 113.18C55.9158 112.038 56.7231 111.046 57.7349 110.297ZM57.7349 118.154C58.467 117.764 58.8574 116.495 58.8574 114.396C58.8574 112.298 58.5646 111.761 57.7349 111.761C56.9052 111.761 56.5636 113.42 56.5636 115.519C56.5636 117.617 57.0028 118.398 57.7349 117.959V118.154Z" fill="#FFD2CD"/>
<path opacity="0.8" d="M64.5692 106.392C66.6678 105.172 67.5463 106.831 67.5463 109.369C67.6536 110.628 67.431 111.893 66.9004 113.04C66.3698 114.187 65.5495 115.176 64.5204 115.909C62.4707 117.08 61.5434 115.47 61.4946 112.883C61.4013 111.628 61.6357 110.369 62.1746 109.232C62.7136 108.094 63.5387 107.115 64.5692 106.392ZM64.5692 114.25C65.3013 113.81 65.6917 112.541 65.6429 110.443C65.5941 108.344 65.3013 107.563 64.5204 108.003C63.7396 108.442 63.4467 109.711 63.4467 111.761C63.4467 113.81 63.886 114.591 64.618 114.201L64.5692 114.25Z" fill="#FFD2CD"/>
<path opacity="0.8" d="M71.3513 102.439C73.4987 101.219 74.3284 102.927 74.3284 105.416C74.4161 106.64 74.1885 107.866 73.6673 108.977C73.146 110.087 72.3487 111.046 71.3513 111.761C69.2527 112.932 68.3254 111.321 68.3254 108.735C68.2741 107.518 68.5233 106.306 69.051 105.208C69.5787 104.11 70.3688 103.159 71.3513 102.439ZM71.3513 110.296C72.0834 109.906 72.4738 108.637 72.4738 106.539C72.4738 104.44 72.0834 103.659 71.3513 104.098C70.6192 104.538 70.18 105.758 70.2288 107.856C70.2776 109.955 70.6192 110.736 71.3513 110.296Z" fill="#FFD2CD"/>
<path opacity="0.8" d="M78.0871 98.5357C80.2344 97.2668 81.0641 98.9749 81.0641 101.513C81.1829 102.761 80.9701 104.018 80.4474 105.158C79.9247 106.298 79.1105 107.279 78.0871 108.004C76.0373 109.224 75.11 107.613 75.11 105.027C75.0154 103.781 75.239 102.532 75.7598 101.396C76.2806 100.261 77.0814 99.2767 78.0871 98.5357ZM78.0871 106.393C78.8191 105.954 79.2096 104.685 79.2096 102.586C79.2096 100.488 78.8191 99.707 78.0383 100.146C77.2574 100.585 76.9158 101.806 76.9158 103.953C76.9158 106.1 77.355 106.784 78.0871 106.393Z" fill="#FFD2CD"/>
<path opacity="0.8" d="M84.9679 94.5821C87.1152 93.362 87.9937 95.0213 87.9937 97.5592C88.1059 98.8187 87.8855 100.086 87.3545 101.233C86.8235 102.381 86.0005 103.369 84.9679 104.099C82.9181 105.27 81.9908 103.66 81.942 101.073C81.8529 99.8231 82.084 98.5711 82.6134 97.4353C83.1429 96.2995 83.9532 95.3175 84.9679 94.5821ZM84.9679 102.44C85.6999 102 86.0415 100.78 86.0415 98.6816C86.0415 96.5831 85.6511 95.8022 84.919 96.1926C84.187 96.5831 83.7477 97.9008 83.7966 99.9994C83.8454 102.098 84.2358 102.879 84.9679 102.44Z" fill="#FFD2CD"/>
<path opacity="0.8" d="M93.071 90.0918V99.2182L91.314 100.292L91.2652 93.02L89.7523 94.7282L89.4106 93.3129L91.5092 90.9703L93.071 90.0918Z" fill="#FFD2CD"/>
<path opacity="0.8" d="M99.8542 86.1387L99.903 95.3138L98.0972 96.3387V89.0669L98.0484 89.1157L96.5355 90.7751L96.2427 89.3597L98.3413 87.0171L99.8542 86.1387Z" fill="#FFD2CD"/>
<path opacity="0.8" d="M106.688 82.1851L106.736 91.3602L104.931 92.4339L104.882 85.1621L103.369 86.8702L103.027 85.4549L105.175 83.1123L106.688 82.1851Z" fill="#FFD2CD"/>
<path opacity="0.8" d="M112.25 78.8183C114.397 77.5982 115.227 79.3063 115.227 81.8442C115.346 83.0924 115.133 84.3498 114.61 85.4895C114.088 86.6292 113.273 87.6108 112.25 88.3351C110.2 89.5552 109.273 87.9447 109.273 85.358C109.184 84.1061 109.409 82.8517 109.929 81.7094C110.449 80.567 111.247 79.5731 112.25 78.8183ZM112.25 86.6758C112.982 86.2853 113.373 85.0164 113.373 82.9178C113.373 80.8193 112.982 80.0384 112.25 80.4776C111.518 80.9169 111.079 82.137 111.079 84.2844C111.079 86.4317 111.518 87.115 112.25 86.6758Z" fill="#FFD2CD"/>
<path opacity="0.8" d="M119.081 74.9141C121.18 73.694 122.058 75.3534 122.058 77.8912C122.171 79.1507 121.95 80.4177 121.419 81.5653C120.888 82.713 120.065 83.7011 119.032 84.4309C116.983 85.6022 116.055 83.9917 116.055 81.4051C115.942 80.1524 116.162 78.8919 116.694 77.7518C117.225 76.6118 118.049 75.6327 119.081 74.9141ZM119.081 82.7716C119.813 82.3324 120.204 81.0635 120.204 79.0137C120.204 76.9639 119.813 76.0854 119.032 76.5247C118.252 76.9639 117.91 78.2328 117.91 80.3314C117.91 82.43 118.349 83.162 119.081 82.7716Z" fill="#FFD2CD"/>
<path opacity="0.8" d="M125.866 70.961C128.014 69.7409 128.843 71.449 128.843 73.938C128.951 75.192 128.734 76.4527 128.212 77.5983C127.691 78.7438 126.883 79.7356 125.866 80.4778C123.768 81.6491 122.889 80.0873 122.841 77.5007C122.748 76.2433 122.977 74.983 123.506 73.8388C124.035 72.6945 124.848 71.7041 125.866 70.961ZM125.866 78.8184C126.598 78.428 126.989 77.1591 126.989 75.0605C126.989 72.9619 126.598 72.1811 125.866 72.6203C125.134 73.0595 124.695 74.2796 124.744 76.3782C124.793 78.4768 125.183 79.2577 125.866 78.8184Z" fill="#FFD2CD"/>
<path opacity="0.8" d="M132.699 67.0557C134.847 65.7868 135.676 67.495 135.676 70.0328C135.79 71.2855 135.57 72.546 135.038 73.686C134.507 74.8261 133.683 75.8052 132.65 76.5237C130.601 77.7438 129.673 76.1333 129.673 73.5467C129.584 72.2967 129.815 71.0447 130.345 69.9089C130.874 68.7732 131.685 67.7912 132.699 67.0557ZM132.699 74.9132C133.431 74.474 133.822 73.205 133.822 71.1065C133.822 69.0079 133.431 68.227 132.699 68.6663C131.967 69.1055 131.772 70.3256 131.772 72.717C131.772 75.1084 132.211 75.5476 132.943 75.1572L132.699 74.9132Z" fill="#FFD2CD"/>
<path opacity="0.8" d="M23.7201 146.9C25.8187 145.68 26.6971 147.388 26.6971 149.926C26.8106 151.178 26.5904 152.439 26.0589 153.579C25.5275 154.719 24.7037 155.698 23.6713 156.417C21.6215 157.637 20.6942 156.026 20.6942 153.44C20.5869 152.181 20.8096 150.915 21.3402 149.769C21.8708 148.622 22.691 147.633 23.7201 146.9ZM23.7201 154.757C24.4522 154.367 24.8426 153.098 24.8426 150.999C24.8426 148.901 24.4522 148.12 23.6713 148.559C22.8904 148.998 22.5488 150.219 22.5488 152.317C22.5488 154.416 22.988 155.197 23.7201 154.757Z" fill="#FFD2CD"/>
<path opacity="0.8" d="M30.504 142.996C32.6514 141.776 33.481 143.435 33.5298 145.973C33.6323 147.231 33.4075 148.495 32.8773 149.641C32.3471 150.787 31.5295 151.776 30.504 152.512C28.4542 153.684 27.5269 152.073 27.4781 149.487C27.389 148.237 27.6201 146.985 28.1496 145.849C28.679 144.713 29.4894 143.731 30.504 142.996ZM30.504 150.853C31.236 150.414 31.5777 149.145 31.5777 147.046C31.5777 144.948 31.1872 144.167 30.4552 144.606C29.7231 145.045 29.2839 146.314 29.3327 148.413C29.3815 150.512 29.7719 151.244 30.504 150.853Z" fill="#FFD2CD"/>
<path opacity="0.8" d="M38.6046 138.505L38.6534 147.632L36.8477 148.705L36.7989 141.434L35.2372 143.142L34.9443 141.726L37.0429 139.384L38.6046 138.505Z" fill="#FFD2CD"/>
<path opacity="0.8" d="M44.1693 135.138C46.2679 133.869 47.1464 135.577 47.1464 138.115C47.2391 139.386 46.9891 140.659 46.4226 141.801C45.856 142.942 44.9937 143.911 43.9253 144.606C41.8756 145.826 40.9483 144.216 40.9483 141.629C40.8659 140.359 41.1203 139.09 41.686 137.951C42.2516 136.811 43.1083 135.841 44.1693 135.138ZM44.1693 142.996C44.9014 142.556 45.2918 141.288 45.243 139.189C45.1942 137.09 44.9014 136.163 43.9253 136.749C42.9492 137.334 42.8028 138.408 42.8028 140.556C42.8028 142.703 43.2421 143.386 43.9741 142.996H44.1693Z" fill="#FFD2CD"/>
<path opacity="0.8" d="M50.9527 131.283C53.1001 130.063 53.9298 131.771 53.9298 134.26C54.0523 135.516 53.8417 136.782 53.319 137.93C52.7963 139.078 51.9801 140.068 50.9527 140.8C48.8541 141.971 47.9757 140.361 47.9269 137.774C47.8377 136.524 48.0688 135.272 48.5983 134.136C49.1278 133.001 49.9381 132.019 50.9527 131.283ZM50.9527 139.141C51.6848 138.701 52.0752 137.481 52.0752 135.383C52.0752 133.284 51.6848 132.503 50.9527 132.894C50.2207 133.284 49.7814 134.602 49.8302 136.7C49.879 138.799 50.2695 139.58 50.9527 139.141Z" fill="#FFD2CD"/>
<path opacity="0.8" d="M57.7838 127.232C59.9312 126.012 60.7609 127.72 60.7609 130.209C60.8782 131.469 60.66 132.738 60.1286 133.886C59.5972 135.035 58.7714 136.022 57.735 136.749C55.6853 137.969 54.758 136.358 54.758 133.772C54.665 132.514 54.8941 131.254 55.4235 130.11C55.9529 128.965 56.7653 127.975 57.7838 127.232ZM57.7838 135.089C58.5159 134.699 58.9063 133.43 58.9063 131.331C58.9063 129.233 58.5159 128.452 57.7838 128.891C57.0518 129.331 56.6125 130.551 56.6125 132.649C56.6125 134.748 57.0518 135.529 57.7838 135.089Z" fill="#FFD2CD"/>
<path opacity="0.8" d="M65.838 122.742L65.8868 131.917L64.0811 132.942V125.67L64.0323 125.719L62.5194 127.427L62.1777 125.963L64.3251 123.62L65.838 122.742Z" fill="#FFD2CD"/>
<path opacity="0.8" d="M71.4021 119.374C73.5495 118.154 74.3792 119.862 74.3792 122.351C74.487 123.605 74.2697 124.866 73.7482 126.011C73.2267 127.157 72.4187 128.149 71.4021 128.891C69.3036 130.062 68.3763 128.452 68.3763 125.865C68.2918 124.616 68.525 123.365 69.054 122.23C69.5831 121.095 70.3909 120.113 71.4021 119.374ZM71.4021 127.232C72.1342 126.792 72.5246 125.572 72.5246 123.474C72.5246 121.375 72.1342 120.594 71.4021 120.985C70.6701 121.375 70.2308 122.693 70.2796 124.791C70.3284 126.89 70.7189 127.671 71.4021 127.232Z" fill="#FFD2CD"/>
<path opacity="0.8" d="M78.0883 115.421C80.1869 114.201 81.0653 115.909 81.0653 118.447C81.1841 119.695 80.9713 120.953 80.4486 122.093C79.9259 123.232 79.1117 124.214 78.0883 124.938C76.0385 126.158 75.1112 124.548 75.1112 121.961C75.0081 120.708 75.2276 119.448 75.7487 118.304C76.2698 117.159 77.0752 116.167 78.0883 115.421ZM78.0883 123.279C78.8203 122.888 79.2108 121.619 79.2108 119.521C79.2108 117.422 78.8203 116.641 78.0395 117.081C77.2586 117.52 76.917 118.74 76.917 120.887C76.917 123.035 77.3562 123.718 78.0883 123.279Z" fill="#FFD2CD"/>
<path opacity="0.8" d="M85.0177 111.761C87.165 110.541 87.9947 112.249 88.0435 114.738C88.146 115.997 87.9211 117.26 87.3909 118.406C86.8607 119.552 86.0432 120.541 85.0177 121.278C82.9679 122.449 82.0406 120.839 81.9918 118.252C81.9027 117.002 82.1338 115.75 82.6632 114.614C83.1927 113.479 84.003 112.497 85.0177 111.761ZM85.0177 119.619C85.7497 119.179 86.0914 117.911 86.0914 115.861C86.0914 113.811 85.7009 112.933 84.9689 113.372C84.2368 113.811 83.7976 115.08 83.8464 117.179C83.8952 119.277 84.2856 120.009 85.0177 119.619Z" fill="#FFD2CD"/>
<path opacity="0.8" d="M93.1188 107.027L93.1676 116.153L91.3619 117.227L91.313 109.955L89.7513 111.663L89.4585 110.248L91.5571 107.905L93.1188 107.027Z" fill="#FFD2CD"/>
<path opacity="0.8" d="M98.6832 103.659C100.782 102.39 101.66 104.098 101.66 106.636C101.768 107.895 101.545 109.16 101.014 110.307C100.484 111.454 99.6635 112.442 98.6344 113.176C96.5846 114.347 95.6574 112.736 95.6574 110.15C95.5539 108.898 95.7786 107.641 96.3092 106.503C96.8398 105.365 97.6581 104.384 98.6832 103.659ZM98.6832 111.516C99.4153 111.077 99.8057 109.808 99.8057 107.709C99.8057 105.611 99.4153 104.83 98.6344 105.269C97.8535 105.709 97.6095 106.88 97.6095 109.076C97.6095 111.272 98.0488 111.907 98.7808 111.516H98.6832Z" fill="#FFD2CD"/>
<path opacity="0.8" d="M105.466 99.7056C107.614 98.4855 108.443 100.194 108.492 102.683C108.595 103.941 108.37 105.205 107.84 106.351C107.309 107.496 106.492 108.486 105.466 109.222C103.368 110.394 102.489 108.783 102.441 106.197C102.351 104.947 102.583 103.695 103.112 102.559C103.641 101.423 104.452 100.441 105.466 99.7056ZM105.466 107.563C106.15 107.124 106.54 105.904 106.54 103.805C106.54 101.707 106.15 100.926 105.418 101.316C104.686 101.707 104.246 103.024 104.295 105.123C104.344 107.221 104.734 108.002 105.466 107.563Z" fill="#FFD2CD"/>
<path opacity="0.8" d="M112.25 95.7534C114.397 94.5333 115.227 96.2415 115.227 98.7305C115.35 99.9861 115.139 101.252 114.616 102.4C114.094 103.548 113.277 104.538 112.25 105.27C110.2 106.49 109.273 104.88 109.273 102.293C109.184 101.041 109.409 99.7868 109.929 98.6445C110.449 97.5022 111.247 96.5082 112.25 95.7534ZM112.25 103.611C112.982 103.22 113.373 101.952 113.373 99.853C113.373 97.7544 112.982 96.9735 112.25 97.4128C111.518 97.852 111.079 99.0721 111.079 101.171C111.079 103.269 111.518 104.05 112.25 103.611Z" fill="#FFD2CD"/>
<path opacity="0.8" d="M120.352 91.2632L120.401 100.438L118.595 101.463V94.1914L118.546 94.2402L117.033 95.9484L116.691 94.4843L118.839 92.1417L120.352 91.2632Z" fill="#FFD2CD"/>
<path opacity="0.8" d="M125.916 87.8955C128.063 86.6754 128.893 88.3836 128.893 90.8726C129.015 92.1281 128.805 93.3938 128.282 94.542C127.759 95.6902 126.943 96.6802 125.916 97.4123C123.817 98.6324 122.89 97.0219 122.89 94.3865C122.805 93.1371 123.039 91.8866 123.568 90.7517C124.097 89.6167 124.905 88.6341 125.916 87.8955ZM125.916 95.753C126.648 95.3626 127.038 94.0937 127.038 91.9951C127.038 89.8965 126.648 89.1156 125.916 89.5549C125.184 89.9941 124.745 91.2142 124.793 93.3128C124.842 95.4114 125.233 96.1922 125.916 95.753Z" fill="#FFD2CD"/>
<path opacity="0.8" d="M132.747 83.9923C134.895 82.7233 135.724 84.4315 135.724 86.9693C135.838 88.222 135.617 89.4825 135.086 90.6226C134.555 91.7626 133.731 92.7417 132.698 93.4603C130.649 94.6804 129.721 93.0698 129.721 90.4832C129.632 89.2333 129.863 87.9812 130.393 86.8455C130.922 85.7097 131.733 84.7277 132.747 83.9923ZM132.747 91.8497C133.479 91.4105 133.87 90.1416 133.87 88.043C133.87 85.9444 133.479 85.1636 132.747 85.6028C132.015 86.042 131.771 87.3597 131.771 89.4095C131.771 91.4593 132.21 92.2402 132.942 91.8497H132.747Z" fill="#FFD2CD"/>
<path opacity="0.8" d="M23.7677 163.835C25.8663 162.615 26.7448 164.323 26.7448 166.812C26.857 168.072 26.6366 169.339 26.1056 170.486C25.5746 171.634 24.7516 172.622 23.7189 173.352C21.6692 174.523 20.7419 172.961 20.7419 170.375C20.6297 169.115 20.8501 167.848 21.3811 166.701C21.9121 165.553 22.7351 164.565 23.7677 163.835ZM23.7677 171.692C24.4998 171.302 24.8902 170.033 24.8902 167.935C24.8902 165.836 24.4022 165.055 23.7189 165.446C23.0357 165.836 22.5964 167.105 22.5964 169.203C22.5964 171.302 23.0357 172.083 23.7677 171.644V171.692Z" fill="#FFD2CD"/>
<path opacity="0.8" d="M31.8215 159.345L31.8703 168.52L30.0645 169.545V162.273L30.0157 162.322L28.5028 163.981L28.21 162.566L30.3085 160.223L31.8215 159.345Z" fill="#FFD2CD"/>
<path opacity="0.8" d="M37.3856 155.977C39.533 154.757 40.3626 156.465 40.3626 158.954C40.4661 160.206 40.2414 161.463 39.7108 162.601C39.1802 163.739 38.3619 164.72 37.3368 165.445C35.287 166.616 34.3597 165.006 34.3597 162.419C34.2791 161.177 34.5143 159.935 35.0434 158.809C35.5725 157.682 36.3783 156.708 37.3856 155.977ZM37.3856 163.835C38.1176 163.395 38.5081 162.175 38.5081 160.077C38.5081 157.978 38.1176 157.197 37.3856 157.588C36.6535 157.978 36.2143 159.296 36.2143 161.394C36.2143 163.493 36.6535 164.274 37.3856 163.835Z" fill="#FFD2CD"/>
<path opacity="0.8" d="M45.487 151.488V160.663L43.6812 161.688V154.416H43.6324L42.1195 156.124L41.8267 154.709L43.9252 152.366L45.487 151.488Z" fill="#FFD2CD"/>
<path opacity="0.8" d="M52.2692 147.535L52.318 156.71L50.5122 157.735L50.4634 150.463V150.512L48.9505 152.22L48.6089 150.756L50.7075 148.413L52.2692 147.535Z" fill="#FFD2CD"/>
<path opacity="0.8" d="M57.8341 144.167C59.9815 142.947 60.8112 144.655 60.8112 147.144C60.9234 148.404 60.703 149.671 60.172 150.818C59.641 151.966 58.818 152.954 57.7853 153.684C55.7356 154.855 54.8083 153.293 54.8083 150.707C54.7153 149.449 54.9444 148.189 55.4738 147.045C56.0032 145.901 56.8156 144.91 57.8341 144.167ZM57.8341 152.024C58.5662 151.634 58.9566 150.365 58.9566 148.267C58.9566 146.168 58.5662 145.387 57.8341 145.826C57.1021 146.266 56.6628 147.486 56.6628 149.584C56.6628 151.683 57.1021 152.464 57.8341 152.024Z" fill="#FFD2CD"/>
<path opacity="0.8" d="M65.9357 139.677V148.852L64.1299 149.877V142.605H64.0811L62.5682 144.362L62.2754 142.898L64.374 140.555L65.9357 139.677Z" fill="#FFD2CD"/>
<path opacity="0.8" d="M72.7174 135.723V144.898L70.9605 145.923L70.9117 138.7L69.3988 140.408L69.0571 138.993L71.1557 136.65L72.7174 135.723Z" fill="#FFD2CD"/>
<path opacity="0.8" d="M78.0883 132.357C80.1869 131.137 81.0653 132.845 81.0653 135.334C81.1879 136.59 80.9772 137.855 80.4546 139.003C79.9319 140.152 79.1157 141.142 78.0883 141.874C76.0385 143.094 75.1112 141.483 75.1112 138.897C75.0081 137.643 75.2276 136.384 75.7487 135.239C76.2698 134.095 77.0752 133.102 78.0883 132.357ZM78.0883 140.214C78.8203 139.824 79.2108 138.555 79.2108 136.456C79.2108 134.358 78.8203 133.577 78.0395 134.016C77.2586 134.456 76.917 135.676 76.917 137.774C76.917 139.873 77.3562 140.654 78.0883 140.214Z" fill="#FFD2CD"/>
<path opacity="0.8" d="M86.3829 127.866V137.041L84.5772 138.066L84.5284 130.794V130.843L83.0155 132.551L82.6738 131.087L84.8212 128.745L86.3829 127.866Z" fill="#FFD2CD"/>
<path opacity="0.8" d="M93.1686 123.962V133.088L91.4117 134.162L91.3629 126.89L89.8499 128.598L89.5083 127.183L91.6069 124.84L93.1686 123.962Z" fill="#FFD2CD"/>
<path opacity="0.8" d="M98.7306 120.595C100.829 119.326 101.708 121.035 101.708 123.572C101.821 124.825 101.601 126.086 101.069 127.226C100.538 128.366 99.7142 129.345 98.6818 130.063C96.632 131.283 95.7047 129.673 95.7047 127.086C95.6013 125.835 95.8259 124.578 96.3566 123.439C96.8872 122.301 97.7054 121.321 98.7306 120.595ZM98.7306 128.453C99.4626 128.014 99.8531 126.745 99.8531 124.646C99.8531 122.547 99.4626 121.767 98.6818 122.206C97.9009 122.645 97.5593 123.865 97.5593 126.013C97.5593 128.16 97.9985 128.843 98.7306 128.453Z" fill="#FFD2CD"/>
<path opacity="0.8" d="M106.783 116.056L106.832 125.231L105.026 126.256V118.984L104.977 119.033L103.464 120.741L103.123 119.326L105.27 116.983L106.783 116.056Z" fill="#FFD2CD"/>
<path opacity="0.8" d="M113.617 112.151V121.278L111.812 122.351V115.08L110.25 116.788L109.957 115.372L112.056 113.03L113.617 112.151Z" fill="#FFD2CD"/>
<path opacity="0.8" d="M120.401 108.198L120.449 117.373L118.644 118.398V111.126L118.595 111.175L117.082 112.883L116.789 111.419L118.888 109.077L120.401 108.198Z" fill="#FFD2CD"/>
<path opacity="0.8" d="M125.965 104.831C128.112 103.61 128.942 105.319 128.942 107.808C129.065 109.063 128.854 110.329 128.331 111.477C127.809 112.625 126.992 113.615 125.965 114.347C123.866 115.519 122.988 113.908 122.939 111.322C122.85 110.072 123.081 108.82 123.611 107.684C124.14 106.548 124.95 105.566 125.965 104.831ZM125.965 112.688C126.697 112.298 127.087 111.029 127.087 108.93C127.087 106.832 126.697 106.051 125.965 106.49C125.233 106.929 124.794 108.149 124.842 110.248C124.891 112.346 125.282 113.127 125.965 112.688Z" fill="#FFD2CD"/>
<path opacity="0.8" d="M132.796 100.878C134.943 99.6578 135.773 101.366 135.773 103.904C135.887 105.156 135.666 106.417 135.135 107.557C134.603 108.697 133.78 109.676 132.747 110.395C130.697 111.615 129.77 110.004 129.77 107.418C129.673 106.16 129.899 104.898 130.429 103.753C130.959 102.608 131.774 101.618 132.796 100.878ZM132.796 108.735C133.528 108.345 133.919 107.076 133.919 104.977C133.919 102.879 133.528 102.098 132.747 102.537C131.966 102.976 131.625 104.197 131.625 106.344C131.625 108.491 132.064 109.175 132.796 108.735Z" fill="#FFD2CD"/>
</g>
<path d="M3.12346 201.56L0.195216 199.852L0 127.573L2.92825 129.233L3.12346 201.56Z" fill="url(#paint0_linear)"/>
<path d="M145.143 110.053L144.314 109.663H143.972H143.533H142.85H142.508H140.995H138.799H137.237H136.261H136.017H135.431L133.138 110.151H132.406H131.869L129.965 110.736L128.794 111.078L124.89 112.493L120.79 114.153L113.567 117.032H113.128L110.444 118.057L109.37 118.496L107.613 119.179L106.393 119.619L104.978 120.107L103.758 120.497L102.489 120.936L101.366 121.278L100.195 121.62H99.8532C98.473 121.996 97.0714 122.289 95.6561 122.498H95.2168L92.2886 122.742H91.9958C90.9709 122.742 89.8972 122.742 88.8235 122.742H87.8474C86.4809 122.742 85.0656 122.449 83.6014 122.205H82.479C81.4894 122.019 80.5116 121.774 79.5507 121.473H78.8675L76.3784 120.692L73.6454 119.619L71.3028 118.74H70.766L68.3258 117.52H68.0329H67.6913L65.6415 117.032H65.2511L63.4454 116.642H62.8597H60.6635H59.6874H58.5649L56.6128 117.081H56.1247C55.0599 117.366 54.0163 117.725 53.0013 118.155H52.6596L51.3907 118.691L50.5123 119.131L47.6816 120.595C46.1687 121.473 44.5582 122.498 42.8012 123.718C41.896 124.393 40.9507 125.012 39.9706 125.573C38.9647 126.161 37.9213 126.683 36.8471 127.134C36.0052 127.471 35.1409 127.748 34.2605 127.964H33.7724L31.8203 128.257H31.3322C30.6662 128.307 29.9973 128.307 29.3313 128.257H28.7944H27.3791H26.6959L25.7686 127.964L24.4021 127.427L23.6212 127.134L21.2786 126.061C20.5368 125.67 19.7706 125.328 18.9848 125.036H18.6432H18.2527L16.691 124.499H16.1542H15.7149H14.9341H14.3972H13.4211H9.76082L8.54072 124.792H8.10148L5.61247 125.67C4.35885 125.817 3.11866 126.062 1.90336 126.402L0 127.574L2.92825 129.233L4.88041 128.062C5.90702 127.452 6.966 126.898 8.05268 126.402C8.9293 126.043 9.82547 125.734 10.7369 125.475H11.1761C11.83 125.294 12.5003 125.18 13.1771 125.134H13.6652C14.3638 125.085 15.0651 125.085 15.7637 125.134H16.1542L17.6671 125.378H18.448L19.424 125.67L20.9858 126.402L21.7178 126.695L24.0116 127.769L26.3542 128.794L26.7935 129.038H27.1351L28.648 129.575H29.2337H29.6241H30.3074H30.9906H31.7227H32.5035C32.9916 129.575 33.4796 129.575 33.9677 129.575H34.6509H35.5294H36.6031H37.0423C37.8585 129.356 38.6577 129.079 39.4337 128.745C40.5031 128.301 41.5459 127.796 42.5572 127.232L45.3878 125.378C47.1448 124.157 48.7553 123.133 50.2682 122.254C51.7812 121.376 52.1716 121.18 53.0989 120.741L53.8797 120.4L55.5879 119.667C56.6029 119.238 57.6466 118.879 58.7113 118.594H59.297L61.2004 118.203H62.4693H63.4454H65.5927H66.2272H67.6913H68.277C68.9704 118.32 69.6552 118.483 70.3267 118.691H70.9612L73.3526 119.521H73.9382L76.0856 120.351L78.9651 121.473L81.5029 122.303H81.8933H82.1861C83.147 122.604 84.1248 122.849 85.1144 123.035H85.9441H86.2369C87.701 123.279 89.1163 123.425 90.4828 123.523H91.0197C92.0934 123.523 93.1671 123.523 94.1919 123.523C95.2168 123.523 96.1929 123.523 97.2178 123.23H97.657C99.2602 123.42 100.874 123.502 102.489 123.474H102.83L103.855 123.181L105.173 122.791L106.198 122.449L107.613 121.961L108.638 121.571L110.297 120.985L111.273 120.595L113.177 119.911L114.104 119.521L116.3 118.643H116.642L127.525 114.299C128.892 113.762 130.209 113.274 131.478 112.884L132.601 112.542L134.992 111.81H135.773L138.116 111.273H138.604H139.921H141.434H143.533H145.29H145.583C145.981 111.336 146.373 111.434 146.754 111.566H147.047L148.169 112.103L145.143 110.053Z" fill="url(#paint1_linear)"/>
<g opacity="0.4">
<path opacity="0.4" d="M4.88097 128.062C7.69859 126.142 11.0177 125.09 14.4271 125.038C17.8364 124.986 21.1861 125.936 24.061 127.769C26.8523 129.6 30.1177 130.575 33.4558 130.575C36.7939 130.575 40.0593 129.6 42.8506 127.769L45.6812 125.915C47.4382 124.695 49.0487 123.67 50.5616 122.791C67.3014 113.03 73.3043 121.815 85.5054 124.109C98.7801 126.598 104.637 123.23 127.477 114.348C150.317 105.466 151.001 115.861 151.049 116.398L3.12402 201.561V129.233L4.88097 128.062Z" fill="url(#paint2_linear)"/>
</g>
<path d="M116.542 178.281L109.368 174.133L177.059 135.041L184.234 139.189L116.542 178.281Z" fill="#BFD4DB"/>
<path d="M116.543 186.822V178.281L109.369 174.133V182.674C109.295 183.357 109.406 184.048 109.689 184.674C109.972 185.301 110.418 185.84 110.979 186.236L118.154 190.385C117.592 189.988 117.146 189.449 116.863 188.823C116.58 188.196 116.469 187.505 116.543 186.822Z" fill="#C0C0F6"/>
<path d="M116.543 186.822V178.282L184.235 139.238V147.779C184.157 149.733 183.612 151.639 182.643 153.338C181.675 155.037 180.313 156.478 178.671 157.54L122.01 189.848C119.081 191.752 116.592 190.336 116.543 186.822Z" fill="#E3E3FC"/>
<path d="M116.543 178.281L109.369 174.133L109.027 59.4429L116.202 63.5912L116.543 178.281Z" fill="url(#paint3_linear)"/>
<path d="M116.202 63.5915L109.027 59.4432L176.767 20.3511L183.942 24.5482L116.202 63.5915Z" fill="#35C2DA"/>
<path d="M183.943 24.5483L184.236 139.189L116.544 178.281L116.203 63.5916L183.943 24.5483Z" fill="url(#paint4_linear)"/>
<path d="M163.98 32.4548L156.854 28.2576L157.294 27.916L164.419 32.0644C164.308 32.2297 164.157 32.3641 163.98 32.4548Z" fill="#B2C5CC"/>
<path d="M164.418 32.0644L157.293 27.916L164.467 32.0644H164.418Z" fill="#ADC0C7"/>
<path d="M164.615 31.9174L157.44 27.769L164.615 31.9662V31.9174Z" fill="#A9BBC2"/>
<path d="M164.713 31.8197L157.539 27.6226L164.713 31.7709V31.8197Z" fill="#A4B6BD"/>
<path d="M164.81 31.6733L157.636 27.5249L164.81 31.7221V31.6733Z" fill="#A0B1B8"/>
<path d="M164.858 31.5756L157.684 27.3784L164.858 31.5268V31.5756Z" fill="#9BACB3"/>
<path d="M164.955 31.4286L157.781 27.2803L164.955 31.4286Z" fill="#97A7AD"/>
<path d="M165.006 31.3315L157.832 27.1831L165.006 31.3803V31.3315Z" fill="#93A2A8"/>
<path d="M165.053 31.2338L157.879 27.0366L165.004 31.185L165.053 31.2338Z" fill="#8E9DA3"/>
<path d="M165.102 31.0873L157.977 26.939L165.102 31.1361V31.0873Z" fill="#8A999E"/>
<path d="M165.152 30.9906L158.027 26.7935L165.201 30.9418L165.152 30.9906Z" fill="#859499"/>
<path d="M165.201 30.8437L158.027 26.6953L165.201 30.8437Z" fill="#818F94"/>
<path d="M165.249 30.6977L158.075 26.5493L165.249 30.6977Z" fill="#7C8A8F"/>
<path d="M165.296 30.5507L158.122 26.4023L165.247 30.5507H165.296Z" fill="#78858A"/>
<path d="M165.297 30.3558L158.172 26.2075V25.9146C158.189 25.7538 158.162 25.5912 158.093 25.4448C158.024 25.2984 157.916 25.1739 157.781 25.085L164.955 29.2333C165.095 29.3301 165.205 29.4631 165.273 29.618C165.342 29.7729 165.367 29.9437 165.346 30.1118C165.365 30.192 165.365 30.2755 165.346 30.3558H165.297Z" fill="#738085"/>
<path d="M163.981 29.331L156.807 25.1826L163.981 29.331Z" fill="#32B5CA"/>
<path d="M164.176 29.2333L157.002 25.085L164.127 29.2333H164.176Z" fill="#30B0C5"/>
<path d="M164.323 29.184L157.197 25.0356L164.371 29.184H164.323Z" fill="#2FACC0"/>
<path d="M164.469 29.1352L157.295 24.9868L164.469 29.1352Z" fill="#2EA7BB"/>
<path d="M164.567 29.1352L157.393 24.9868L164.567 29.1352Z" fill="#2DA3B6"/>
<path d="M164.665 29.1352L157.491 24.9868L164.665 29.1352Z" fill="#2B9EB1"/>
<path d="M164.712 29.1352L157.538 24.9868L164.712 29.184V29.1352Z" fill="#2A9AAC"/>
<path d="M164.81 29.184L157.636 24.9868L164.761 29.1352L164.81 29.184Z" fill="#2995A7"/>
<path d="M164.859 29.184L157.733 25.0356L164.908 29.184H164.859Z" fill="#2891A2"/>
<path d="M164.958 29.2333L157.784 25.085L164.958 29.2333Z" fill="#268C9D"/>
<path d="M134.795 49.2924L127.67 45.144L156.855 28.2578L163.98 32.455L134.795 49.2924Z" fill="#BFD4DB"/>
<path d="M133.82 49.3896L126.695 45.2412L133.869 49.3896H133.82Z" fill="#8A999E"/>
<path d="M133.869 49.3901L126.89 45.2417L134.064 49.4389L133.869 49.3901Z" fill="#8E9DA3"/>
<path d="M133.918 49.4389L126.89 45.2417L134.064 49.3901L133.918 49.4389Z" fill="#93A2A8"/>
<path d="M134.016 49.4389L126.89 45.2905L134.064 49.4389H134.016Z" fill="#97A7AD"/>
<path d="M134.064 49.4389L126.89 45.2905L134.064 49.4877V49.4389Z" fill="#9BACB3"/>
<path d="M134.162 49.4877L126.89 45.2905L134.016 49.4877H134.162Z" fill="#A0B1B8"/>
<path d="M134.211 49.4877L126.89 45.2905L134.064 49.4389L134.211 49.4877Z" fill="#A4B6BD"/>
<path d="M134.358 49.4389L127.184 45.2905L134.358 49.4389Z" fill="#A9BBC2"/>
<path d="M134.455 49.4389L127.281 45.2905L134.407 49.4389H134.455Z" fill="#ADC0C7"/>
<path d="M134.602 49.3901L127.477 45.2417L134.602 49.3901Z" fill="#B2C5CC"/>
<path d="M134.796 46.1684L127.622 42.02L156.807 25.1826L163.981 29.331L134.796 46.1684Z" fill="#35C2DA"/>
<path d="M133.82 49.3885L126.89 45.2401C126.758 45.1368 126.653 45.0027 126.585 44.8495C126.517 44.6964 126.488 44.5289 126.5 44.3617V44.0688L133.674 48.2172C133.674 48.2172 133.674 48.2172 133.674 48.51C133.666 48.6767 133.697 48.8429 133.765 48.9954C133.833 49.1479 133.935 49.2825 134.064 49.3885H133.82Z" fill="#207684"/>
<path d="M133.478 48.3149L126.304 44.1665L133.43 48.3637L133.478 48.3149Z" fill="#217A89"/>
<path d="M133.477 48.3148L126.352 44.1177L133.477 48.3148Z" fill="#237F8E"/>
<path d="M133.527 47.925L126.402 43.7279V43.4351L133.576 47.6322L133.527 47.925Z" fill="#248393"/>
<path d="M133.576 47.7786L126.402 43.4351L133.576 47.5834V47.7786Z" fill="#258898"/>
<path d="M133.624 47.6322L126.45 43.4351L133.624 47.6322Z" fill="#268C9D"/>
<path d="M133.674 47.5346L126.5 43.4351L133.674 47.5834V47.5346Z" fill="#2891A2"/>
<path d="M133.722 47.3882L126.547 43.4351L133.673 47.5834L133.722 47.3882Z" fill="#2995A7"/>
<path d="M133.772 47.2904L126.891 43.1421L134.065 47.3392L133.772 47.2904Z" fill="#2A9AAC"/>
<path d="M133.87 47.1923L126.891 42.9951L134.065 47.1435L133.87 47.1923Z" fill="#2B9EB1"/>
<path d="M133.918 47.0458L126.891 42.8975L134.065 47.0458H133.918Z" fill="#2DA3B6"/>
<path d="M134.016 46.9482L126.891 42.7998L134.016 46.9482Z" fill="#2EA7BB"/>
<path d="M134.065 46.8017L126.891 42.6533L134.065 46.8505V46.8017Z" fill="#2FACC0"/>
<path d="M134.211 46.705L126.891 42.5078L134.065 46.6562L134.211 46.705Z" fill="#30B0C5"/>
<path d="M134.358 46.5095L127.184 42.3612L127.623 42.0195L134.797 46.1679L134.358 46.5095Z" fill="#32B5CA"/>
<path d="M163.981 29.3305C164.713 28.8913 165.347 29.3305 165.347 30.1114C165.321 30.5821 165.184 31.04 164.946 31.4473C164.708 31.8546 164.378 32.1996 163.981 32.454L134.698 49.2914C133.966 49.7306 133.332 49.2914 133.332 48.5105C133.361 48.0406 133.5 47.5842 133.738 47.1775C133.975 46.7709 134.304 46.4252 134.698 46.1679L163.981 29.3305Z" fill="#C0C0F6"/>
<path d="M178.329 16.3974C181.403 14.6405 183.892 16.0558 183.892 19.5697V24.4501L116.152 63.4934V58.613C116.244 56.668 116.791 54.7717 117.748 53.0764C118.706 51.3812 120.048 49.9343 121.667 48.8522L178.329 16.3974ZM163.98 32.454C164.377 32.1996 164.708 31.8546 164.946 31.4473C165.183 31.0401 165.321 30.5822 165.347 30.1114C165.347 29.2329 164.712 28.8913 163.98 29.3305L134.698 46.168C134.304 46.4252 133.975 46.7709 133.738 47.1776C133.5 47.5843 133.361 48.0407 133.331 48.5106C133.331 49.389 133.966 49.7307 134.698 49.2914L163.98 32.454Z" fill="#E3E3FC"/>
<path d="M179.256 15.9584H179.646H181.501H181.842H182.184L175.01 11.8101H174.717H172.374H171.984L171.252 12.2005L114.59 44.8993L113.712 45.4849L112.931 46.1682L112.248 46.8514V47.1442V47.4371L111.955 47.9251V48.2667C111.955 48.2667 111.955 48.5108 111.955 48.6572V49.1452V49.438V49.6821C111.95 49.7633 111.95 49.8448 111.955 49.9261C111.955 49.9261 111.955 49.9261 111.955 50.1701C111.955 50.4141 111.955 50.1701 111.955 50.4629V50.7557C111.955 50.7557 111.955 51.0486 111.955 51.195V51.439C111.931 51.7639 111.931 52.0902 111.955 52.4151V57.2955L119.08 61.4438V56.5634C119.056 56.2385 119.056 55.9123 119.08 55.5873C119.08 55.5873 119.08 55.5874 119.08 55.3433C119.08 55.0993 119.08 55.0505 119.08 54.9041V54.6113C119.08 54.6113 119.08 54.6113 119.08 54.3184V53.928V53.684V53.2448L119.324 52.6591C119.324 52.6591 119.324 52.3175 119.324 52.1711C119.324 52.1711 119.324 51.8294 119.568 51.683L119.959 51.0974C120.029 50.9606 120.111 50.83 120.203 50.7069L120.447 50.4141V50.1213L120.789 49.7309C121.025 49.4777 121.287 49.2489 121.569 49.0476L122.399 48.4619L179.012 15.812L179.695 15.4704L179.256 15.9584Z" fill="#C0C0F6"/>
<path d="M210.298 1.26852C212.299 0.0972185 213.91 1.26852 213.958 3.36709V48.9501L202.001 44.753L156.858 70.8144C154.857 71.9857 153.246 71.0584 153.246 68.7646V38.5549C153.309 37.2951 153.67 36.0682 154.297 34.9741C154.925 33.88 155.802 32.9497 156.858 32.2591L210.298 1.26852Z" fill="#E9F0F4"/>
<path d="M151 36.9935V36.6519V36.115C151 35.9201 151 35.9201 151 35.7256L151 35.7246L151.293 35.2854C151.284 35.1717 151.284 35.0574 151.293 34.9437L208.101 0H210.151H210.444C211.078 0.390433 211.713 0.780866 212.396 1.12249H211.859H211.225H210.541L209.809 1.46412L156.125 32.3571L155.393 32.8452L154.71 33.4308C154.297 33.9053 153.921 34.4112 153.587 34.9437C153.403 35.1988 153.255 35.478 153.148 35.7734C153.013 36.0742 152.898 36.3841 152.806 36.7007C152.614 37.2834 152.515 37.8928 152.513 38.5064V68.8138C152.513 69.1066 152.513 69.3506 152.513 69.5947C152.513 69.8387 152.513 70.0339 152.757 70.2291C152.81 70.3754 152.893 70.5086 153.001 70.6196L153.441 70.9612L151.244 69.6923C151.093 69.6054 150.96 69.4893 150.854 69.3506V68.5698V36.9935H151Z" fill="#C0C0F6"/>
<g opacity="0.5">
<g opacity="0.14">
<path opacity="0.14" d="M211.224 111.762L206.002 114.836C205.838 114.93 205.653 114.98 205.465 114.98C205.276 114.98 205.091 114.93 204.928 114.836L199.657 111.762C199.494 111.674 199.358 111.544 199.262 111.385C199.167 111.226 199.117 111.044 199.117 110.859C199.117 110.673 199.167 110.492 199.262 110.333C199.358 110.174 199.494 110.043 199.657 109.956L204.977 106.881C205.14 106.787 205.325 106.737 205.514 106.737C205.702 106.737 205.887 106.787 206.05 106.881L211.321 109.956C211.467 110.061 211.585 110.201 211.663 110.364C211.74 110.526 211.776 110.706 211.766 110.885C211.757 111.065 211.702 111.24 211.607 111.393C211.512 111.546 211.38 111.673 211.224 111.762Z" fill="#FFDF75"/>
</g>
<g opacity="0.29">
<path opacity="0.29" d="M211.224 107.417L206.002 110.492C205.838 110.586 205.653 110.636 205.465 110.636C205.276 110.636 205.091 110.586 204.928 110.492L199.657 107.417C199.494 107.33 199.358 107.199 199.262 107.04C199.167 106.881 199.117 106.7 199.117 106.514C199.117 106.329 199.167 106.147 199.262 105.988C199.358 105.829 199.494 105.699 199.657 105.612L204.977 102.537C205.14 102.443 205.325 102.393 205.514 102.393C205.702 102.393 205.887 102.443 206.05 102.537L211.321 105.612C211.467 105.717 211.585 105.857 211.663 106.019C211.74 106.182 211.776 106.361 211.766 106.541C211.757 106.721 211.702 106.896 211.607 107.049C211.512 107.202 211.38 107.329 211.224 107.417Z" fill="#FFDF75"/>
</g>
<g opacity="0.43">
<path opacity="0.43" d="M211.224 102.928L206.002 105.954C205.838 106.048 205.653 106.098 205.465 106.098C205.276 106.098 205.091 106.048 204.928 105.954L199.657 102.879C199.494 102.792 199.358 102.662 199.262 102.503C199.167 102.344 199.117 102.162 199.117 101.977C199.117 101.791 199.167 101.61 199.262 101.451C199.358 101.292 199.494 101.161 199.657 101.074L204.977 97.999C205.146 97.9265 205.329 97.8892 205.514 97.8892C205.698 97.8892 205.881 97.9265 206.05 97.999L211.321 101.074C211.479 101.177 211.606 101.319 211.692 101.487C211.777 101.654 211.816 101.841 211.806 102.029C211.796 102.217 211.737 102.399 211.635 102.557C211.533 102.714 211.391 102.843 211.224 102.928Z" fill="#FFDF75"/>
</g>
<g opacity="0.57">
<path opacity="0.57" d="M211.223 98.3895L206.001 101.415C205.838 101.51 205.653 101.559 205.465 101.559C205.276 101.559 205.091 101.51 204.928 101.415L199.657 98.3895C199.495 98.2949 199.36 98.1595 199.267 97.9968C199.174 97.8342 199.125 97.6498 199.125 97.4622C199.125 97.2746 199.174 97.0903 199.267 96.9276C199.36 96.7649 199.495 96.6295 199.657 96.5349L204.977 93.5091C205.14 93.4148 205.325 93.3652 205.513 93.3652C205.702 93.3652 205.887 93.4148 206.05 93.5091L211.321 96.5349C211.479 96.6378 211.606 96.7801 211.691 96.9478C211.776 97.1155 211.816 97.3025 211.806 97.4903C211.796 97.6781 211.737 97.86 211.635 98.0178C211.533 98.1756 211.391 98.3038 211.223 98.3895Z" fill="#FFDF75"/>
</g>
<g opacity="0.71">
<path opacity="0.71" d="M211.225 93.8509L206.002 97.1208C205.845 97.2062 205.669 97.251 205.49 97.251C205.311 97.251 205.135 97.2062 204.978 97.1208L199.707 94.0949C199.545 94.0004 199.41 93.865 199.317 93.7023C199.223 93.5396 199.174 93.3553 199.174 93.1677C199.174 92.9801 199.223 92.7957 199.317 92.633C199.41 92.4703 199.545 92.335 199.707 92.2404L204.978 88.9705C205.141 88.8763 205.326 88.8267 205.514 88.8267C205.703 88.8267 205.888 88.8763 206.051 88.9705L211.322 91.9964C211.48 92.0992 211.607 92.2415 211.692 92.4092C211.777 92.5769 211.817 92.764 211.807 92.9517C211.797 93.1395 211.738 93.3214 211.636 93.4792C211.534 93.637 211.392 93.7652 211.225 93.8509Z" fill="#FFDF75"/>
</g>
<g opacity="0.86">
<path opacity="0.86" d="M211.225 89.3114L206.002 92.2396C205.845 92.325 205.669 92.3698 205.49 92.3698C205.311 92.3698 205.135 92.325 204.978 92.2396L199.707 89.2138C199.545 89.1192 199.41 88.9838 199.317 88.8211C199.223 88.6584 199.174 88.4741 199.174 88.2865C199.174 88.0989 199.223 87.9145 199.317 87.7519C199.41 87.5892 199.545 87.4538 199.707 87.3592L204.978 84.431C205.141 84.3367 205.326 84.2871 205.514 84.2871C205.703 84.2871 205.888 84.3367 206.051 84.431L211.322 87.4568C211.48 87.5596 211.607 87.702 211.692 87.8697C211.777 88.0373 211.817 88.2244 211.807 88.4122C211.797 88.6 211.738 88.7819 211.636 88.9397C211.534 89.0975 211.392 89.2256 211.225 89.3114Z" fill="#FFDF75"/>
</g>
<path opacity="0.5" d="M211.223 84.7728L206.001 87.7987C205.838 87.8929 205.653 87.9425 205.465 87.9425C205.276 87.9425 205.091 87.8929 204.928 87.7987L199.657 84.7728C199.495 84.6782 199.36 84.5428 199.267 84.3801C199.174 84.2175 199.125 84.0331 199.125 83.8455C199.125 83.6579 199.174 83.4736 199.267 83.3109C199.36 83.1482 199.495 83.0128 199.657 82.9182L204.977 79.8924C205.14 79.7981 205.325 79.7485 205.513 79.7485C205.702 79.7485 205.887 79.7981 206.05 79.8924L211.321 82.9182C211.479 83.0211 211.606 83.1634 211.691 83.3311C211.776 83.4988 211.816 83.6858 211.806 83.8736C211.796 84.0614 211.737 84.2433 211.635 84.4011C211.533 84.5589 211.391 84.6871 211.223 84.7728Z" fill="#FFDF75"/>
</g>
<path d="M211.223 84.7728L206.001 87.7987C205.838 87.8929 205.653 87.9425 205.465 87.9425C205.276 87.9425 205.091 87.8929 204.928 87.7987L199.657 84.7728C199.495 84.6782 199.36 84.5428 199.267 84.3801C199.174 84.2175 199.125 84.0331 199.125 83.8455C199.125 83.6579 199.174 83.4736 199.267 83.3109C199.36 83.1482 199.495 83.0128 199.657 82.9182L204.977 79.8924C205.14 79.7981 205.325 79.7485 205.513 79.7485C205.702 79.7485 205.887 79.7981 206.05 79.8924L211.321 82.9182C211.479 83.0211 211.606 83.1634 211.691 83.3311C211.776 83.4988 211.816 83.6858 211.806 83.8736C211.796 84.0614 211.737 84.2433 211.635 84.4011C211.533 84.5589 211.391 84.6871 211.223 84.7728Z" fill="#F5E981"/>
<g opacity="0.7">
<g opacity="0.7">
<g opacity="0.14">
<path opacity="0.14" d="M17.4215 91.0195L13.4684 93.4109C13.3386 93.4719 13.1969 93.5034 13.0535 93.5034C12.9101 93.5034 12.7685 93.4719 12.6387 93.4109L8.53915 91.1171C8.418 91.043 8.31792 90.939 8.24848 90.8151C8.17904 90.6912 8.14258 90.5515 8.14258 90.4095C8.14258 90.2674 8.17904 90.1278 8.24848 90.0039C8.31792 89.8799 8.418 89.7759 8.53915 89.7018L12.4923 87.3592C12.6184 87.2864 12.7615 87.248 12.9071 87.248C13.0528 87.248 13.1958 87.2864 13.322 87.3592L17.3727 89.6042C17.4965 89.6741 17.6003 89.7746 17.6741 89.8961C17.7479 90.0176 17.7892 90.1561 17.7941 90.2982C17.799 90.4402 17.7673 90.5812 17.7021 90.7075C17.6368 90.8338 17.5402 90.9413 17.4215 91.0195Z" fill="#A8FEFD"/>
</g>
<g opacity="0.29">
<path opacity="0.29" d="M17.3253 84.382L13.3722 86.7734C13.2501 86.8573 13.1055 86.9023 12.9574 86.9023C12.8092 86.9023 12.6646 86.8573 12.5425 86.7734L8.49179 84.4796C8.37064 84.4054 8.27056 84.3014 8.20112 84.1775C8.13168 84.0536 8.09521 83.914 8.09521 83.7719C8.09521 83.6299 8.13168 83.4902 8.20112 83.3663C8.27056 83.2424 8.37064 83.1384 8.49179 83.0643L12.4937 80.6729C12.6106 80.5992 12.746 80.5601 12.8842 80.5601C13.0223 80.5601 13.1577 80.5992 13.2746 80.6729L17.3741 82.9179C17.5046 82.9929 17.6122 83.1021 17.6853 83.2336C17.7585 83.3652 17.7945 83.5141 17.7895 83.6646C17.7845 83.815 17.7386 83.9613 17.6569 84.0876C17.5751 84.214 17.4605 84.3157 17.3253 84.382Z" fill="#A7FDFC"/>
</g>
<g opacity="0.43">
<path opacity="0.43" d="M17.2765 77.5986L13.2745 79.99C13.1484 80.0628 13.0053 80.1011 12.8597 80.1011C12.7141 80.1011 12.571 80.0628 12.4449 79.99L8.39413 77.6962C8.27299 77.6221 8.1729 77.518 8.10346 77.3941C8.03402 77.2702 7.99756 77.1306 7.99756 76.9885C7.99756 76.8465 8.03402 76.7068 8.10346 76.5829C8.1729 76.459 8.27299 76.355 8.39413 76.2809L12.3961 73.8895C12.5222 73.8167 12.6653 73.7783 12.8109 73.7783C12.9565 73.7783 13.0996 73.8167 13.2257 73.8895L17.2765 76.1833C17.3976 76.2574 17.4977 76.3614 17.5672 76.4853C17.6366 76.6092 17.6731 76.7489 17.6731 76.8909C17.6731 77.033 17.6366 77.1726 17.5672 77.2965C17.4977 77.4204 17.3976 77.5244 17.2765 77.5986Z" fill="#A6FCFB"/>
</g>
<g opacity="0.57">
<path opacity="0.57" d="M17.1788 71.1572L13.2257 73.5486C13.0996 73.6214 12.9565 73.6597 12.8109 73.6597C12.6652 73.6597 12.5222 73.6214 12.396 73.5486L8.29648 71.2548C8.17533 71.1806 8.07524 71.0766 8.00581 70.9527C7.93637 70.8288 7.8999 70.6892 7.8999 70.5471C7.8999 70.4051 7.93637 70.2654 8.00581 70.1415C8.07524 70.0176 8.17533 69.9136 8.29648 69.8395L12.2496 67.4481C12.3757 67.3752 12.5188 67.3369 12.6644 67.3369C12.8101 67.3369 12.9532 67.3752 13.0793 67.4481L17.1788 69.7419C17.3 69.816 17.4001 69.92 17.4695 70.0439C17.5389 70.1678 17.5754 70.3075 17.5754 70.4495C17.5754 70.5916 17.5389 70.7312 17.4695 70.8551C17.4001 70.979 17.3 71.083 17.1788 71.1572Z" fill="#A4FAF9"/>
</g>
<g opacity="0.71">
<path opacity="0.71" d="M17.1285 64.5197L13.1266 66.9111C13.0005 66.9839 12.8574 67.0223 12.7118 67.0223C12.5661 67.0223 12.4231 66.9839 12.2969 66.9111L8.24619 64.6661C8.12504 64.592 8.02495 64.488 7.95551 64.3641C7.88607 64.2401 7.84961 64.1005 7.84961 63.9585C7.84961 63.8164 7.88607 63.6768 7.95551 63.5529C8.02495 63.4289 8.12504 63.3249 8.24619 63.2508L12.2481 60.8594C12.365 60.7857 12.5004 60.7466 12.6386 60.7466C12.7767 60.7466 12.9121 60.7857 13.029 60.8594L17.0797 62.958C17.2425 63.0105 17.3851 63.1121 17.488 63.2488C17.5908 63.3855 17.6489 63.5507 17.6542 63.7216C17.6596 63.8926 17.6119 64.0611 17.5178 64.204C17.4237 64.3468 17.2877 64.4571 17.1285 64.5197Z" fill="#A3F9F8"/>
</g>
<g opacity="0.86">
<path opacity="0.86" d="M17.0309 58.077L13.0289 60.4684C12.9121 60.5421 12.7767 60.5812 12.6385 60.5812C12.5003 60.5812 12.365 60.5421 12.2481 60.4684L8.14853 58.077C8.02738 58.0029 7.92729 57.8988 7.85786 57.7749C7.78842 57.651 7.75195 57.5114 7.75195 57.3693C7.75195 57.2273 7.78842 57.0876 7.85786 56.9637C7.92729 56.8398 8.02738 56.7358 8.14853 56.6617L12.1017 54.2703C12.2315 54.2093 12.3731 54.1777 12.5165 54.1777C12.6599 54.1777 12.8015 54.2093 12.9313 54.2703L16.9821 56.5641C17.13 56.6249 17.2572 56.7271 17.3484 56.8585C17.4396 56.9899 17.4909 57.1449 17.496 57.3047C17.5012 57.4646 17.46 57.6225 17.3775 57.7596C17.295 57.8966 17.1746 58.0068 17.0309 58.077Z" fill="#A2F8F7"/>
</g>
<path opacity="0.7" d="M16.9342 51.2446L12.9811 53.636C12.8513 53.6969 12.7097 53.7285 12.5663 53.7285C12.4229 53.7285 12.2812 53.6969 12.1514 53.636L8.10068 51.3422C7.97953 51.268 7.87944 51.164 7.81 51.0401C7.74057 50.9162 7.7041 50.7766 7.7041 50.6345C7.7041 50.4925 7.74057 50.3528 7.81 50.2289C7.87944 50.105 7.97953 50.001 8.10068 49.9269L12.0538 47.5355C12.1799 47.4627 12.323 47.4243 12.4686 47.4243C12.6143 47.4243 12.7574 47.4627 12.8835 47.5355L16.983 49.7805C17.1135 49.8555 17.2211 49.9647 17.2942 50.0962C17.3674 50.2278 17.4034 50.3767 17.3984 50.5272C17.3934 50.6776 17.3475 50.8239 17.2658 50.9502C17.184 51.0766 17.0694 51.1784 16.9342 51.2446Z" fill="#A1F7F6"/>
</g>
</g>
<g opacity="0.8">
<path opacity="0.8" d="M16.9357 51.2446L12.9825 53.636C12.8527 53.6969 12.7111 53.7285 12.5677 53.7285C12.4243 53.7285 12.2827 53.6969 12.1529 53.636L8.05331 51.3422C7.93217 51.268 7.83208 51.164 7.76264 51.0401C7.6932 50.9162 7.65674 50.7766 7.65674 50.6345C7.65674 50.4925 7.6932 50.3528 7.76264 50.2289C7.83208 50.105 7.93217 50.001 8.05331 49.9269L12.0064 47.5355C12.1326 47.4627 12.2756 47.4243 12.4213 47.4243C12.5669 47.4243 12.71 47.4627 12.8361 47.5355L16.9357 49.7805C17.0683 49.8512 17.1793 49.9567 17.2567 50.0857C17.334 50.2146 17.3749 50.3621 17.3749 50.5125C17.3749 50.6629 17.334 50.8104 17.2567 50.9394C17.1793 51.0683 17.0683 51.1738 16.9357 51.2446Z" fill="#A2F8F7"/>
</g>
<path d="M159.004 39.9216L161.64 37.3838V38.5551L160.322 39.6288L161.64 39.336V40.7025L159.004 41.0929V39.9216Z" fill="#632BEE"/>
<path d="M161.885 36.0664C162.496 35.5337 163.168 35.075 163.886 34.6999C164.911 34.0654 165.448 34.6999 165.448 35.4319V35.8224C165.504 36.3458 165.392 36.8735 165.129 37.3295C164.866 37.7855 164.465 38.1463 163.984 38.3602V38.9946L162.959 39.5803V37.8233L163.593 37.4329C163.756 37.3644 163.894 37.2487 163.99 37.1007C164.085 36.9527 164.134 36.7794 164.13 36.6032C164.13 36.2616 164.13 36.2128 163.496 36.6032L161.885 37.5305V36.0664ZM162.91 40.0683C162.888 40.0226 162.877 39.9725 162.877 39.9219C162.877 39.8713 162.888 39.8212 162.91 39.7755L163.691 39.3362V40.2635C163.713 40.3093 163.724 40.3593 163.724 40.4099C163.724 40.4606 163.713 40.5106 163.691 40.5563L162.91 40.9956V40.0683Z" fill="#632BEE"/>
<path d="M165.934 35.237L167.105 34.5538V34.8466C167.336 34.4547 167.653 34.1208 168.033 33.8705C168.862 33.3825 169.253 33.8705 169.253 35.3346C169.253 36.7988 169.253 37.6772 168.033 38.2629C167.755 38.4412 167.435 38.5423 167.105 38.5557V40.8983L165.934 41.6792V35.237ZM167.789 37.3844C167.789 37.3844 168.081 37.0916 168.081 36.2131C168.081 35.3346 168.081 35.2858 167.789 35.3834C167.595 35.491 167.428 35.6412 167.301 35.8227V37.5308C167.301 37.5308 167.496 37.482 167.691 37.3844H167.789Z" fill="#632BEE"/>
<path d="M169.742 30.9415L171.109 30.1606V32.6009C171.338 32.1505 171.694 31.7772 172.134 31.5272C173.11 30.9903 173.207 31.5272 173.207 32.5032V35.2851L171.841 36.0659V33.2841C171.841 32.9425 171.841 32.8937 171.597 32.9913C171.371 33.1236 171.198 33.3308 171.109 33.5769V36.4564L169.742 37.2372V30.9415Z" fill="#632BEE"/>
<path d="M173.645 30.7463L174.768 30.0631V30.3559C174.998 29.964 175.316 29.6301 175.695 29.3798C176.525 28.8918 176.915 29.3798 176.915 30.8439C176.915 32.308 176.915 33.1865 175.695 33.7722C175.418 33.9505 175.098 34.0516 174.768 34.065V36.4076L173.45 37.1885L173.645 30.7463ZM175.451 32.8937C175.451 32.8937 175.695 32.6009 175.695 31.7224C175.695 30.8439 175.695 30.7951 175.402 30.8927C175.209 31.0003 175.042 31.1505 174.914 31.332V33.0401C174.974 33.0852 175.042 33.1174 175.115 33.1345C175.188 33.1517 175.264 33.1534 175.337 33.1396C175.411 33.1258 175.48 33.0968 175.542 33.0545C175.604 33.0121 175.656 32.9574 175.695 32.8937H175.451Z" fill="#632BEE"/>
<path d="M180.87 26.5494C182.09 25.8173 182.529 25.7197 182.529 27.135C182.547 27.5082 182.455 27.8784 182.264 28.1995C182.073 28.5206 181.792 28.7784 181.456 28.9408L180.577 29.4288C180.577 30.0145 180.919 29.7216 181.407 29.4288L182.481 28.7944V29.8193C181.861 30.3766 181.172 30.8523 180.431 31.2346C179.504 31.7714 179.211 31.2346 179.211 29.7216C179.079 29.0827 179.173 28.4179 179.475 27.8399C179.778 27.2618 180.27 26.806 180.87 26.5494ZM180.87 28.2087C180.943 28.1726 181.004 28.117 181.047 28.048C181.09 27.9791 181.114 27.8996 181.114 27.8183C181.114 27.5255 181.114 27.4279 180.87 27.8183C180.626 28.2087 180.48 27.8183 180.48 28.6968L180.87 28.2087Z" fill="#632BEE"/>
<path d="M184.09 24.6456C184.64 24.2894 185.253 24.041 185.896 23.9136V24.792L184.871 25.3777C184.383 25.3777 184.237 25.7193 184.237 26.7442C184.237 27.7691 184.237 27.6715 184.871 27.4275L185.945 26.6954V27.6227C185.444 28.2197 184.809 28.6882 184.09 28.9892C183.407 29.3796 182.87 28.9892 182.87 27.5251C182.87 26.061 183.407 25.0361 184.09 24.6456Z" fill="#632BEE"/>
<path d="M186.335 21.3761L187.701 20.5952V23.0354C187.918 22.5759 188.277 22.1991 188.726 21.9617C189.702 21.3761 189.8 21.9617 189.8 22.9378V25.6708L188.434 26.4517V23.9139C188.434 23.5723 188.434 23.5723 188.434 23.9139C188.317 23.9738 188.214 24.0565 188.13 24.1571C188.046 24.2577 187.983 24.3742 187.945 24.4995V27.379L186.579 28.1599L186.335 21.3761Z" fill="#632BEE"/>
<path d="M191.899 20.1564C193.216 19.3755 193.656 19.6683 193.656 21.3765C193.734 22.0164 193.605 22.6645 193.289 23.2263C192.973 23.7881 192.486 24.2344 191.899 24.5C190.63 25.232 190.19 24.8904 190.19 23.3775C190.094 22.7286 190.208 22.0659 190.516 21.4864C190.823 20.9069 191.307 20.4408 191.899 20.1564ZM191.899 23.3287C192.289 23.3287 192.289 23.0358 192.289 22.1574C192.289 21.2789 192.289 21.0837 191.899 21.2789C191.508 21.4741 191.508 21.6693 191.508 22.5966C191.508 23.5239 191.557 23.5239 191.899 23.3287Z" fill="#632BEE"/>
<path d="M195.803 16.3004L197.169 15.5195V17.1789L195.949 17.9109V16.8372L195.803 16.3004Z" fill="#632BEE"/>
<path d="M197.559 17.6677L200.097 15.1299V16.4964L198.779 17.5701L200.097 17.2773V18.6438L197.559 19.0342V17.6677Z" fill="#632BEE"/>
<path d="M200.634 15.1291L201.757 14.4947V14.7875C201.94 14.3784 202.248 14.0371 202.635 13.8114C203.465 13.3234 203.855 13.8114 203.855 15.2756C203.855 16.7397 203.855 17.6182 202.635 18.2038C202.332 18.2919 202.011 18.2919 201.708 18.2038V20.5952L200.39 21.3761L200.634 15.1291ZM202.44 17.3253C202.44 17.3253 202.733 17.0325 202.733 16.1052C202.733 15.1779 202.733 15.2268 202.44 15.3244C202.341 15.3636 202.25 15.4229 202.175 15.4984C202.099 15.574 202.04 15.6642 202.001 15.7636V17.4717C202.001 17.4717 202.245 17.4229 202.44 17.3253Z" fill="#632BEE"/>
<path d="M204.491 14.7878L205.76 13.6165L204.491 14.1533V12.6404L207.078 12.2012V13.5677L204.491 16.1543V14.7878Z" fill="#632BEE"/>
<path d="M157.248 60.2737L159.883 57.7358V59.1024L158.615 60.176L159.883 59.8832V61.2497L157.248 61.6402V60.2737Z" fill="#632BEE"/>
<path d="M162.129 54.8072L163.495 53.9775L161.543 61.8838L160.177 62.7135L162.129 54.8072Z" fill="#632BEE"/>
<path d="M163.837 55.7346L164.959 55.0513L165.203 55.3442C165.402 54.9446 165.705 54.6071 166.082 54.3681C166.912 53.88 167.302 54.3681 167.302 55.8322C167.302 57.2963 167.302 58.1748 166.082 58.7604C165.808 58.9458 165.486 59.0476 165.155 59.0533V61.3959L163.837 62.1767V55.7346ZM165.643 57.9308C165.643 57.9308 165.935 57.638 165.935 56.7107C165.935 55.7834 165.935 55.7834 165.643 55.881C165.45 55.9726 165.295 56.1277 165.203 56.3202V58.0772C165.203 58.0772 165.447 58.0772 165.643 58.0772V57.9308Z" fill="#632BEE"/>
<path d="M167.693 55.3444L168.962 54.1731L167.693 54.6123V53.197L170.279 52.709V54.0755L167.693 56.7109V55.3444Z" fill="#632BEE"/>
<path d="M170.814 50.1227L172.181 49.3418V49.8786V51.0011L170.814 51.7332V50.1227Z" fill="#632BEE"/>
<path d="M172.622 50.8541C172.6 50.8084 172.589 50.7584 172.589 50.7077C172.589 50.6571 172.6 50.6071 172.622 50.5613L173.403 50.1221V51.0494C173.424 51.0951 173.436 51.1451 173.436 51.1958C173.436 51.2464 173.424 51.2964 173.403 51.3422L172.622 51.7814V50.8541ZM172.622 53.8312C172.599 53.7771 172.587 53.719 172.587 53.6604C172.587 53.6017 172.599 53.5436 172.622 53.4896L173.403 53.0503V54.2216C173.403 55.2465 172.28 55.4905 172.28 55.4905V55.0025C172.524 55.0025 172.524 54.7585 172.524 54.6609L172.622 53.8312Z" fill="#632BEE"/>
<path d="M175.695 47.3403C176.276 46.7922 176.933 46.3318 177.647 45.9738C178.721 45.3393 179.258 45.9738 179.258 46.7058V47.0963C179.292 47.6167 179.171 48.1356 178.911 48.5874C178.65 49.0392 178.261 49.4034 177.793 49.6341V50.2685L176.769 50.8542V49.0484L177.403 48.7068C177.56 48.6228 177.69 48.4952 177.776 48.3394C177.863 48.1836 177.903 48.0062 177.891 47.8283C177.891 47.4379 177.891 47.4379 177.305 47.8283L175.695 48.3164V47.3403ZM176.671 51.3422C176.649 51.2965 176.638 51.2465 176.638 51.1958C176.638 51.1452 176.649 51.0952 176.671 51.0494L177.452 50.5614V51.4886C177.473 51.5344 177.485 51.5844 177.485 51.6351C177.485 51.6857 177.473 51.7357 177.452 51.7815L176.671 52.2207V51.3422Z" fill="#632BEE"/>
<path d="M179.796 48.3156L181.114 47.1444L179.796 47.5348V46.2171L182.431 45.7778V47.1444L179.796 49.731V48.3156Z" fill="#632BEE"/>
<g opacity="0.14">
<path opacity="0.94" d="M112.493 74.4264C132.796 84.9681 132.698 101.854 112.493 112.25C101.068 117.448 88.6621 120.138 76.11 120.138C63.5578 120.138 51.1515 117.448 39.7265 112.25C19.8144 102.001 19.5216 84.8705 39.6777 74.4264C51.1276 69.2879 63.5355 66.6313 76.0856 66.6313C88.6356 66.6313 101.044 69.2879 112.493 74.4264Z" fill="#E1D8CF"/>
</g>
<g opacity="0.29">
<path opacity="0.89" d="M110.199 95.2657C129.086 105.026 129.037 120.741 110.443 130.453C99.8033 135.28 88.2554 137.776 76.5726 137.776C64.8898 137.776 53.3419 135.28 42.7026 130.453C23.9618 120.693 23.8642 104.978 42.4586 95.2657C53.1046 90.4641 64.6499 87.981 76.3286 87.981C88.0074 87.981 99.5526 90.4641 110.199 95.2657Z" fill="#E6D4C1"/>
</g>
<g opacity="0.43">
<path opacity="0.83" d="M107.955 116.056C125.427 125.134 125.378 139.677 107.955 148.657C98.1121 153.119 87.4297 155.427 76.6227 155.427C65.8158 155.427 55.1334 153.119 45.2905 148.657C27.9162 139.677 27.8186 125.036 45.0465 116.056C54.931 111.589 65.6537 109.279 76.5007 109.279C87.3478 109.279 98.0704 111.589 107.955 116.056Z" fill="#EBD0B4"/>
</g>
<g opacity="0.57">
<path opacity="0.77" d="M105.662 136.895C121.767 145.24 121.67 158.564 105.662 166.861C96.6048 170.95 86.7809 173.065 76.8432 173.065C66.9056 173.065 57.0817 170.95 48.0244 166.861C32.1143 158.564 32.0167 145.143 48.0244 136.895C57.085 132.818 66.9076 130.709 76.8432 130.709C86.7789 130.709 96.6015 132.818 105.662 136.895Z" fill="#F0CDA7"/>
</g>
<g opacity="0.71">
<path opacity="0.71" d="M103.416 157.685C118.057 165.299 118.057 177.5 103.416 185.016C95.1631 188.772 86.2014 190.715 77.1345 190.715C68.0676 190.715 59.106 188.772 50.8535 185.016C36.2122 177.5 36.2122 165.494 50.8535 157.685C59.1184 153.976 68.0751 152.058 77.1345 152.058C86.1939 152.058 95.1506 153.976 103.416 157.685Z" fill="#F5C99A"/>
</g>
<g opacity="0.86">
<path opacity="0.66" d="M101.121 178.525C114.396 185.407 114.347 196.436 101.121 203.22C93.6524 206.597 85.5499 208.344 77.3533 208.344C69.1568 208.344 61.0543 206.597 53.5857 203.22C40.4574 196.436 40.4086 185.309 53.5857 178.525C61.0543 175.148 69.1568 173.401 77.3533 173.401C85.5499 173.401 93.6524 175.148 101.121 178.525Z" fill="#FAC58C"/>
</g>
<path opacity="0.6" d="M98.8764 199.316C110.687 205.466 110.638 215.324 98.8764 221.425C92.2051 224.44 84.9679 226 77.6466 226C70.3253 226 63.0881 224.44 56.4168 221.425C44.655 215.324 44.6062 205.417 56.4168 199.316C63.0962 196.331 70.3303 194.788 77.6466 194.788C84.9629 194.788 92.1969 196.331 98.8764 199.316Z" fill="#FFC17F"/>
<path d="M98.9262 199.316C110.737 205.466 110.688 215.324 98.9262 221.425C92.2549 224.44 85.0177 226 77.6964 226C70.3751 226 63.1379 224.44 56.4666 221.425C44.7048 215.324 44.656 205.417 56.4666 199.316C63.146 196.331 70.3801 194.788 77.6964 194.788C85.0127 194.788 92.2467 196.331 98.9262 199.316Z" fill="url(#paint5_linear)"/>
<path d="M64.4694 106.247C67.4464 106.247 69.3498 116.007 72.3756 123.474L86.5776 117.228C87.4469 116.215 88.2151 115.12 88.8714 113.958C89.5059 112.64 90.1403 112.542 90.4332 112.591C90.726 112.64 90.4332 113.47 90.4332 114.055C90.4332 114.641 89.4083 115.812 90.1403 115.666C90.8724 115.519 94.4351 113.47 95.3624 114.153C96.2897 114.836 96.4849 114.153 94.2887 116.739C92.6728 118.301 90.7189 119.47 88.5786 120.156C83.7474 124.522 78.2218 128.052 72.2292 130.6C71.4945 130.801 70.719 130.801 69.9842 130.6C65.0478 125.524 62.1177 118.832 61.7363 111.761C61.0531 106.881 64.4694 106.247 64.4694 106.247Z" fill="#EFB185"/>
<path d="M65.5918 105.758C64.0789 105.27 61.1506 105.758 61.1506 110.346C60.8647 113.824 61.4694 117.317 62.9076 120.497C63.6885 122.4 69.3497 121.522 70.8627 118.447C71.6923 116.641 68.6665 106.88 65.5918 105.758Z" fill="#DEF0F9"/>
<path d="M77.1597 108.443L80.2831 110.98C80.2831 110.98 70.5223 113.957 67.7405 109.272C67.5494 108.599 67.6191 107.878 67.9357 107.254C68.2523 106.63 68.7925 106.148 69.4486 105.905C69.4486 105.905 69.8878 109.712 77.1597 108.443Z" fill="#DEF0F9"/>
<path d="M75.7453 200.097C75.7453 200.097 78.5271 200.487 77.8439 202.098C77.1606 203.708 73.9883 206.148 73.5491 206.978C73.1099 207.808 70.5233 211.858 69.6448 211.273C68.7663 210.687 66.6189 211.273 66.8629 207.32C67.2889 205.279 68.4043 203.447 70.0219 202.131C71.6394 200.816 73.6604 200.098 75.7453 200.097Z" fill="#111114"/>
<path d="M81.0629 215.274C81.0629 215.274 79.6963 219.276 83.0638 220.155C86.4313 221.033 85.4552 218.935 92.8246 220.789C100.194 222.644 101.024 218.886 100.877 218.007C100.731 217.129 95.9969 215.665 94.1912 215.226L89.506 214.25H80.77L81.0629 215.274Z" fill="#111114"/>
<path d="M67.2041 145.583C67.2041 145.583 67.2041 169.595 67.2041 172.279C67.2041 174.963 64.1782 196.242 65.984 205.514C66.6016 206.195 67.3549 206.74 68.1954 207.112C69.0359 207.484 69.9451 207.677 70.8644 207.677C71.7837 207.677 72.6929 207.484 73.5334 207.112C74.3739 206.74 75.1272 206.195 75.7448 205.514C75.7448 205.514 77.2089 178.916 78.5754 172.913C79.4376 164.81 79.7312 156.656 79.4539 148.511L67.2041 145.583Z" fill="#09294F"/>
<path d="M76.3779 148.998C76.3779 148.998 77.5492 164.469 78.7693 179.843C78.7693 179.843 79.5502 210.296 80.2823 214.689C80.2823 214.689 90.0431 217.129 91.068 212.492C91.068 212.492 90.8239 185.699 91.068 180.087C91.7688 169.98 91.2939 159.825 89.6527 149.828C87.4565 141.043 76.3779 148.998 76.3779 148.998Z" fill="#09294F"/>
<path d="M80.2839 214.689C79.5518 210.297 78.771 179.843 78.771 179.843C77.9413 169.496 77.1604 159.101 76.7212 153.44L82.7729 154.904C85.7678 164.176 87.0253 173.921 86.482 183.65C85.9452 196.973 85.7499 210.053 85.6523 215.324C83.8443 215.322 82.0426 215.109 80.2839 214.689Z" fill="#16365C"/>
<path d="M65.9337 205.514C64.1279 196.241 67.1538 174.962 67.1538 172.278C67.1538 169.594 67.1538 147.876 67.1538 145.777L72.4246 149.828C73.3206 158.769 73.3206 167.778 72.4246 176.719C70.8629 185.602 71.839 202.927 71.1069 207.856C69.1606 207.708 67.3288 206.879 65.9337 205.514Z" fill="#16365C"/>
<path d="M64.6166 104.928C64.6166 104.928 60.1267 107.271 62.8597 114.982C65.069 119.925 66.5959 125.146 67.3985 130.501C67.1598 135.406 66.6547 140.293 65.8856 145.143C65.8856 145.143 65.2511 151.536 79.8923 154.903C79.8923 154.903 91.8982 155.831 89.6532 148.022C87.8066 140.265 86.8407 132.325 86.7737 124.352C87.5679 121.85 87.4267 119.145 86.3764 116.739C85.3262 114.334 83.4383 112.391 81.0636 111.273C73.4502 107.466 69.4483 104.538 64.6166 104.928Z" fill="#DEF0F9"/>
<path d="M86.8716 124.499C86.9385 132.472 87.9044 140.412 89.751 148.169C91.2639 153.586 85.9443 154.806 82.528 155.001C81.3567 151.536 83.0649 145.24 80.3806 137.529C77.5775 130.923 77.079 123.565 78.9653 116.641C79.2187 115.619 79.7725 114.696 80.5554 113.991C81.3383 113.287 82.3144 112.833 83.3577 112.688C85.0314 114.099 86.2558 115.97 86.8801 118.068C87.5045 120.167 87.5015 122.402 86.8716 124.499Z" fill="#C1DBE5"/>
<path d="M65.8843 145.143C66.6535 140.294 67.1585 135.406 67.3972 130.502C66.5391 125.159 65.0143 119.945 62.8584 114.982C60.3206 107.662 62.8584 105.71 64.6154 104.929C65.4939 108.687 78.671 109.809 78.427 112.591C78.1829 115.373 74.669 118.155 74.5714 123.181C74.4962 128.645 75.053 134.098 76.2308 139.433C76.9972 144.284 76.9972 149.224 76.2308 154.074C65.3475 150.365 65.8843 145.143 65.8843 145.143Z" fill="#F3FCFF"/>
<path d="M69.9362 100.975C70.2314 103.202 69.9629 105.468 69.1553 107.564C67.9352 109.906 77.5008 111.81 77.6961 109.662C77.2043 108.433 76.9846 107.111 77.0519 105.789C77.1193 104.466 77.4723 103.173 78.0865 102C79.209 99.6576 69.9362 100.975 69.9362 100.975Z" fill="#EFB185"/>
<path d="M69.2037 107.71C69.9623 105.857 70.2474 103.844 70.0333 101.854L77.0611 105.123C77.0611 105.123 72.1807 106.49 71.2046 110.004C69.7405 109.369 68.7644 108.588 69.2037 107.71Z" fill="#DD9569"/>
<path d="M79.7449 90.0436C80.6417 92.2085 81.09 94.5329 81.0626 96.8761C80.8186 100.244 81.3554 100.927 81.0626 102.44C81.0849 103.25 80.8262 104.043 80.3305 104.685C79.3057 105.758 77.1583 106.149 74.1812 105.124C72.1161 104.373 70.3892 102.906 69.3144 100.989C68.2397 99.0724 67.8885 96.8336 68.3247 94.68C68.5724 93.4871 69.11 92.3735 69.8901 91.4377C70.6702 90.5019 71.6688 89.7727 72.7976 89.3144C73.9265 88.8561 75.1508 88.6829 76.3625 88.8101C77.5741 88.9372 78.7358 89.3609 79.7449 90.0436Z" fill="#EFB185"/>
<path d="M79.9896 89.2626C80.1305 90.0167 80.0432 90.7957 79.7389 91.4999C79.4346 92.2041 78.9272 92.8016 78.2815 93.2158C76.5245 94.2895 76.6709 97.1689 76.7685 97.7546C77.061 98.871 77.2247 100.017 77.2566 101.171C76.8174 101.757 75.3044 99.8531 74.6212 99.9996C72.8642 100.39 73.5963 102.001 75.2556 103.709C76.915 105.417 72.5226 106.344 70.3752 104.88C69.2527 104.099 68.8623 103.611 67.3494 100.78C66.6744 99.843 66.2026 98.775 65.9642 97.6447C65.7259 96.5144 65.7261 95.3468 65.965 94.2167C66.2039 93.0865 66.6762 92.0187 67.3516 91.0816C68.027 90.1445 68.8906 89.3587 69.8872 88.7746C71.4295 87.8446 73.2137 87.3944 75.0127 87.4813C76.8116 87.5682 78.5441 88.1883 79.9896 89.2626Z" fill="#221101"/>
<path d="M70.3743 104.88C68.8225 103.994 67.605 102.622 66.9092 100.976C64.7131 96.8274 64.1762 89.7996 69.8375 87.8963C71.5044 87.233 73.3141 87.0103 75.0921 87.2496C76.8702 87.489 78.5565 88.1823 79.9887 89.2628C80.0525 89.6342 80.0525 90.0138 79.9887 90.3853C78.427 90.6781 75.1083 91.0197 73.8394 92.8743C72.5705 94.7288 71.0088 94.4848 71.1552 97.3154C71.3016 100.146 70.6672 103.611 75.3036 105.075C74.5487 105.516 73.6837 105.731 72.8105 105.697C71.9372 105.662 71.092 105.379 70.3743 104.88Z" fill="#341C09"/>
<path opacity="0.1" d="M152.709 88.8231C151.928 88.4327 151.196 87.9934 150.464 87.5542H150.171H148.561H148.268L93.1681 119.423L92.9241 119.765L92.6801 120.204V120.448V138.115V138.408V153.489L94.9251 154.806L107.077 136.456L153.246 109.809C154.326 109.117 155.223 108.175 155.861 107.061C156.498 105.948 156.857 104.697 156.906 103.416V91.2145C156.985 90.6972 156.906 90.168 156.678 89.6968C156.45 89.2257 156.085 88.8348 155.63 88.5757C155.175 88.3166 154.653 88.2015 154.131 88.2457C153.61 88.2899 153.114 88.4912 152.709 88.8231ZM152.172 88.8231H152.465H152.172ZM95.3643 120.692L94.6322 121.18L95.3643 120.692ZM93.3145 122.644L93.9002 121.863C93.5969 122.2 93.3196 122.559 93.0705 122.937L93.3145 122.644ZM92.7289 123.474C92.6383 123.649 92.5569 123.828 92.4849 124.011C92.5569 123.828 92.6383 123.649 92.7289 123.474Z" fill="black"/>
<path d="M151.879 82.1375C154.075 80.8686 155.832 81.8935 155.832 84.4313V97.5596C155.756 98.9289 155.358 100.261 154.671 101.448C153.985 102.635 153.028 103.644 151.879 104.392L102.733 132.747L89.8002 152.269V136.164C89.7736 136.018 89.7736 135.87 89.8002 135.724V122.645C89.8766 121.276 90.2743 119.944 90.961 118.757C91.6478 117.57 92.6044 116.561 93.7533 115.812L151.879 82.1375Z" fill="#E9F0F4"/>
<path d="M87.262 121.084V120.498V120.108C87.239 120.028 87.239 119.943 87.262 119.864V119.62V119.376L87.5549 118.888L87.7989 118.546L146.364 84.8711H148.462H148.755L151.098 86.2864C150.932 86.1479 150.728 86.0629 150.512 86.0424H149.829H149.097L148.316 86.384L89.9951 120.059C89.7164 120.209 89.4546 120.389 89.2142 120.596L88.4822 121.23L87.7989 122.011C87.6023 122.293 87.4231 122.586 87.262 122.889C87.0866 123.184 86.9396 123.494 86.8228 123.817C86.6718 124.133 86.5414 124.459 86.4324 124.793C86.2434 125.427 86.1448 126.084 86.1396 126.745V139.873C86.113 140.019 86.113 140.167 86.1396 140.313V156.418L87.4085 150.805V134.7V134.31V121.084H87.262Z" fill="#C0C0F6"/>
<path d="M103.368 118.203L104.832 117.325V119.863L106.15 119.131V116.642L107.614 115.812V122.205L106.15 123.035V120.692L104.832 121.424V123.767L103.368 124.597V118.203Z" fill="#632BEE"/>
<path d="M109.81 116.202C111.128 115.422 111.664 115.324 111.664 116.837C111.673 117.246 111.563 117.648 111.346 117.995C111.129 118.342 110.816 118.618 110.444 118.789L109.517 119.326C109.517 119.96 109.859 119.619 110.444 119.326C110.844 119.123 111.22 118.877 111.567 118.594V119.716C110.897 120.292 110.16 120.784 109.371 121.18C108.346 121.766 108.053 121.18 108.053 119.57C107.926 118.893 108.031 118.193 108.349 117.582C108.668 116.972 109.182 116.486 109.81 116.202ZM109.81 118.008C109.84 117.947 109.856 117.881 109.856 117.813C109.856 117.745 109.84 117.678 109.81 117.618C109.81 117.276 109.81 117.13 109.566 117.325C109.322 117.52 109.175 117.618 109.175 118.252L109.81 118.008Z" fill="#632BEE"/>
<path d="M112.249 112.737L113.713 111.907V116.788C113.713 117.373 113.713 117.422 114.006 117.422H114.348V118.398L113.323 118.984C112.591 119.423 112.249 118.984 112.249 117.959V112.737Z" fill="#632BEE"/>
<path d="M114.494 111.322L115.958 110.492V115.373C115.958 115.958 115.958 116.007 116.251 116.007H116.642V116.983L115.568 117.569C114.885 118.008 114.494 117.569 114.494 116.544V111.322Z" fill="#632BEE"/>
<path d="M118.643 111.078C120.058 110.297 120.546 110.59 120.546 112.444C120.637 113.136 120.5 113.838 120.156 114.446C119.813 115.053 119.282 115.532 118.643 115.812C117.228 116.593 116.788 116.251 116.788 114.592C116.685 113.885 116.809 113.164 117.142 112.532C117.476 111.9 118.001 111.391 118.643 111.078ZM118.643 114.543C119.082 114.299 119.082 114.25 119.082 113.274C119.082 112.298 119.082 112.103 118.643 112.347C118.204 112.591 118.253 112.737 118.253 113.762C118.253 114.787 118.253 114.787 118.643 114.543Z" fill="#632BEE"/>
<path d="M120.889 113.274C120.889 113.274 120.889 112.982 120.889 112.933L121.718 112.445V113.763C121.718 114.836 120.547 115.129 120.547 115.129V114.69C120.791 114.69 120.791 114.446 120.791 114.348L120.889 113.274Z" fill="#632BEE"/>
<path d="M125.963 106.88L126.451 109.369L126.89 106.294L128.306 105.513V106.636L128.794 108.1L129.233 105.074L130.795 104.147L129.672 109.418L128.013 110.394L127.623 109.418L127.33 110.784L125.67 111.76L124.548 107.758L125.963 106.88Z" fill="#632BEE"/>
<path d="M132.455 103.122C133.87 102.293 134.358 102.586 134.358 104.44C134.449 105.132 134.312 105.834 133.968 106.441C133.625 107.049 133.094 107.528 132.455 107.808C131.04 108.637 130.6 108.247 130.6 106.636C130.497 105.93 130.621 105.208 130.954 104.577C131.288 103.945 131.813 103.436 132.455 103.122ZM132.455 106.588C132.894 106.344 132.894 106.246 132.894 105.27C132.894 104.294 132.894 104.099 132.455 104.343C132.016 104.587 132.065 104.782 132.065 105.758C132.065 106.734 132.065 106.88 132.455 106.588Z" fill="#632BEE"/>
<path d="M134.798 102L136.116 101.268V101.707C136.304 101.262 136.607 100.874 136.994 100.584H137.336V102L136.75 102.341C136.458 102.341 136.116 102.732 136.116 103.22V105.709L134.652 106.587L134.798 102Z" fill="#632BEE"/>
<path d="M137.921 97.8028L139.386 96.9731V101.854C139.386 102.439 139.386 102.488 139.63 102.537H140.02V103.513L138.995 104.099C138.263 104.538 137.921 104.343 137.921 103.074V97.8028Z" fill="#632BEE"/>
<path d="M141.533 97.9001C141.842 97.7063 142.194 97.5891 142.558 97.5585V95.1671L144.022 94.3374V101.17L142.753 101.902V101.609C142.516 102.042 142.16 102.397 141.728 102.634C140.849 103.171 140.459 102.634 140.459 101.024C140.459 99.413 140.361 98.5346 141.533 97.9001ZM142.07 100.975C142.267 100.851 142.433 100.684 142.558 100.487V98.681C142.558 98.681 142.216 98.681 142.07 98.681C141.923 98.681 141.728 98.9738 141.728 99.9499C141.728 100.926 141.533 101.121 141.972 100.975H142.07Z" fill="#632BEE"/>
<path d="M145.877 93.6548V98.5352L144.803 99.1696V94.5821L145.877 93.6548ZM144.559 99.5601C144.534 99.5156 144.52 99.4651 144.52 99.4137C144.52 99.3623 144.534 99.3118 144.559 99.2673L145.438 98.7304V99.7553C145.459 99.8011 145.471 99.8511 145.471 99.9017C145.471 99.9523 145.459 100.002 145.438 100.048L144.559 100.536V99.5601Z" fill="#632BEE"/>
<path d="M82.9674 113.323C85.9444 113.323 87.8478 122.84 90.9224 130.551L105.076 124.304C105.944 123.291 106.712 122.196 107.369 121.034C108.004 119.717 108.638 119.57 108.931 119.619C109.224 119.668 108.931 120.546 108.931 121.132C108.931 121.718 107.906 122.84 108.687 122.694C109.468 122.547 112.933 120.546 113.86 121.23C114.788 121.913 114.983 121.23 112.787 123.816C111.166 125.36 109.212 126.512 107.077 127.184C102.26 131.545 96.7513 135.075 90.776 137.628C90.0438 137.847 89.2632 137.847 88.531 137.628C83.6446 132.582 80.7347 125.948 80.3319 118.936C79.3559 113.714 82.9674 113.323 82.9674 113.323Z" fill="#EFB185"/>
<path d="M83.9433 112.786C82.3816 112.347 79.4534 112.786 79.4534 117.422C79.176 120.9 79.7803 124.391 81.2103 127.574C81.9912 129.477 87.6525 128.598 89.1654 125.524C90.0439 123.718 86.9692 113.713 83.9433 112.786Z" fill="#DEF0F9"/>
<defs>
<linearGradient id="paint0_linear" x1="1.95217" y1="94.0448" x2="1.26891" y2="219.179" gradientUnits="userSpaceOnUse">
<stop stop-color="#FADD8D"/>
<stop offset="0.39" stop-color="#F4A3A8"/>
<stop offset="1" stop-color="#EA3FD6"/>
</linearGradient>
<linearGradient id="paint1_linear" x1="0" y1="599.898" x2="4495.46" y2="599.898" gradientUnits="userSpaceOnUse">
<stop stop-color="#FADD8D"/>
<stop offset="0.39" stop-color="#F4A3A8"/>
<stop offset="1" stop-color="#EA3FD6"/>
</linearGradient>
<linearGradient id="paint2_linear" x1="91.8792" y1="3022.38" x2="4579.93" y2="3022.38" gradientUnits="userSpaceOnUse">
<stop stop-color="#FADD8D"/>
<stop offset="0.39" stop-color="#F4A3A8"/>
<stop offset="1" stop-color="#EA3FD6"/>
</linearGradient>
<linearGradient id="paint3_linear" x1="116.543" y1="67.7396" x2="109.076" y2="170.033" gradientUnits="userSpaceOnUse">
<stop stop-color="#FFFFC2"/>
<stop offset="1" stop-color="#FFB7BB"/>
</linearGradient>
<linearGradient id="paint4_linear" x1="175.939" y1="37.1886" x2="122.401" y2="170.961" gradientUnits="userSpaceOnUse">
<stop stop-color="#FFF2C9"/>
<stop offset="1" stop-color="#FFB7BB"/>
</linearGradient>
<linearGradient id="paint5_linear" x1="635.785" y1="1543.49" x2="1376.1" y2="1543.49" gradientUnits="userSpaceOnUse">
<stop stop-color="#FFF2C9"/>
<stop offset="1" stop-color="#FFB7BB"/>
</linearGradient>
</defs>
</svg>
