<svg width="290" height="226" viewBox="0 0 290 226" fill="none" xmlns="http://www.w3.org/2000/svg">
<g opacity="0.1">
<path opacity="0.1" d="M229.891 169.641C239.201 174.996 239.251 183.756 229.891 189.161C224.667 191.824 218.887 193.213 213.023 193.213C207.16 193.213 201.379 191.824 196.155 189.161C186.846 183.756 186.796 174.996 196.155 169.641C201.379 166.978 207.16 165.589 213.023 165.589C218.887 165.589 224.667 166.978 229.891 169.641Z" fill="black"/>
</g>
<g opacity="0.1">
<path opacity="0.1" d="M254.118 125.594C256.921 127.195 256.971 129.848 254.118 131.45L248.562 134.703L145.604 195.217L136.995 200.222C135.443 201.009 133.729 201.419 131.989 201.419C130.25 201.419 128.535 201.009 126.984 200.222L66.9208 165.686C64.1179 164.084 64.0678 161.431 66.9208 159.83L183.794 91.1075C185.348 90.3319 187.062 89.9282 188.799 89.9282C190.536 89.9282 192.25 90.3319 193.804 91.1075L254.118 125.594Z" fill="black"/>
</g>
<path d="M256.319 106.575C256.367 106.823 256.367 107.077 256.319 107.325C256.222 107.552 256.105 107.77 255.969 107.976C255.813 108.215 255.628 108.434 255.418 108.627L254.918 108.977L254.467 109.328L248.912 112.531V121.891L254.467 118.687H254.818L255.318 118.287C255.493 118.163 255.645 118.011 255.769 117.837C255.769 117.837 255.769 117.586 255.769 117.436C255.793 117.287 255.793 117.135 255.769 116.986V106.625L256.319 106.575Z" fill="#747BE3"/>
<path d="M66.6208 143.012C66.0344 142.758 65.5286 142.349 65.1581 141.829C64.7875 141.308 64.5664 140.696 64.5186 140.059V149.419C64.5717 150.055 64.7949 150.664 65.1648 151.184C65.5347 151.703 66.0376 152.114 66.6208 152.372L126.684 187.059V177.699L66.6208 143.012Z" fill="#626BDC"/>
<path d="M136.844 177.699L135.442 178.35H134.892H134.191H133.29H132.089H130.888H129.736L128.735 178.049L127.634 177.499V186.859C127.964 187.066 128.317 187.234 128.685 187.359H129.336H129.686H130.087H130.788H132.94H133.741H134.041H134.642H134.892H135.593H135.993C136.478 187.182 136.947 186.965 137.395 186.709L146.004 181.703V172.694L136.844 177.699Z" fill="#747BE3"/>
<path d="M254.167 103.621C257.02 105.273 257.02 107.876 254.167 109.528L248.611 112.731L145.403 172.794L136.794 177.799C135.244 178.59 133.529 179.003 131.789 179.003C130.049 179.003 128.333 178.59 126.783 177.799L66.7201 143.113C63.9172 141.511 63.8671 138.858 66.7201 137.257L183.943 68.9348C185.501 68.1704 187.213 67.7729 188.949 67.7729C190.684 67.7729 192.396 68.1704 193.954 68.9348L254.167 103.621Z" fill="#C0C0F6"/>
<path d="M248.662 112.731L145.453 172.694L75.1792 132.151L178.388 72.188L248.662 112.731Z" fill="url(#paint0_linear)"/>
<path d="M230.843 95.1124C231.594 95.5129 231.594 96.4138 230.493 97.0144C230.139 97.2598 229.728 97.4115 229.299 97.4553C228.87 97.499 228.437 97.4335 228.041 97.2647L206.167 85.1019C205.417 84.7015 206.167 83.6504 207.118 83.1999C207.542 83.0029 208.003 82.9009 208.47 82.9009C208.937 82.9009 209.398 83.0029 209.821 83.1999L230.843 95.1124Z" fill="#FAFAFF"/>
<path d="M230.243 95.8132C230.994 96.2637 230.994 96.9645 230.243 97.3649C229.828 97.5883 229.364 97.7052 228.892 97.7052C228.42 97.7052 227.956 97.5883 227.541 97.3649L206.468 85.102C205.718 84.6515 205.718 83.9508 206.468 83.5503C206.884 83.3269 207.348 83.21 207.82 83.21C208.291 83.21 208.756 83.3269 209.171 83.5503L230.243 95.8132Z" fill="#E0E0FA"/>
<path d="M248.663 112.731L248.613 122.091L145.404 182.054L145.454 172.694L248.663 112.731Z" fill="url(#paint1_linear)"/>
<path d="M204.115 116.635V119.188L203.415 119.488V116.885C203.641 116.734 203.897 116.632 204.165 116.585L204.115 116.635Z" fill="#B8387B"/>
<path d="M222.734 20.0337L212.723 25.9399C212.417 26.1361 212.061 26.2404 211.697 26.2404C211.334 26.2404 210.977 26.1361 210.671 25.9399L200.21 20.0337C199.886 19.8572 199.616 19.5967 199.428 19.2796C199.24 18.9625 199.14 18.6005 199.14 18.2318C199.14 17.863 199.24 17.501 199.428 17.1839C199.616 16.8668 199.886 16.6064 200.21 16.4299L210.221 10.5237C210.527 10.3274 210.883 10.2231 211.247 10.2231C211.611 10.2231 211.967 10.3274 212.273 10.5237L222.734 16.58C223.023 16.7658 223.261 17.0213 223.426 17.323C223.591 17.6247 223.677 17.963 223.677 18.3068C223.677 18.6507 223.591 18.989 223.426 19.2907C223.261 19.5924 223.023 19.8479 222.734 20.0337Z" fill="#FDCDE7"/>
<g opacity="0.86">
<path opacity="0.86" d="M222.734 26.4405L212.723 32.3467C212.417 32.5429 212.061 32.6472 211.697 32.6472C211.334 32.6472 210.977 32.5429 210.671 32.3467L200.21 26.4405C199.886 26.264 199.616 26.0035 199.428 25.6864C199.24 25.3694 199.14 25.0074 199.14 24.6386C199.14 24.2698 199.24 23.9079 199.428 23.5908C199.616 23.2737 199.886 23.0132 200.21 22.8367L210.221 16.8804C210.536 16.7096 210.888 16.6201 211.247 16.6201C211.605 16.6201 211.958 16.7096 212.273 16.8804L222.734 22.8367C223.058 23.0132 223.328 23.2737 223.516 23.5908C223.705 23.9079 223.804 24.2698 223.804 24.6386C223.804 25.0074 223.705 25.3694 223.516 25.6864C223.328 26.0035 223.058 26.264 222.734 26.4405Z" fill="#FDCDE7"/>
</g>
<g opacity="0.71">
<path opacity="0.71" d="M222.734 32.6973L212.723 38.6536C212.408 38.8245 212.056 38.9139 211.697 38.9139C211.339 38.9139 210.986 38.8245 210.671 38.6536L200.21 32.6973C199.886 32.5209 199.616 32.2604 199.428 31.9433C199.24 31.6262 199.14 31.2642 199.14 30.8954C199.14 30.5267 199.24 30.1647 199.428 29.8476C199.616 29.5305 199.886 29.27 200.21 29.0936L210.221 23.1373C210.536 22.9664 210.888 22.877 211.247 22.877C211.605 22.877 211.958 22.9664 212.273 23.1373L222.734 29.0936C223.058 29.27 223.328 29.5305 223.516 29.8476C223.705 30.1647 223.804 30.5267 223.804 30.8954C223.804 31.2642 223.705 31.6262 223.516 31.9433C223.328 32.2604 223.058 32.5209 222.734 32.6973Z" fill="#FDCDE7"/>
</g>
<g opacity="0.57">
<path opacity="0.57" d="M222.734 38.9537L212.523 45.0601C212.208 45.231 211.855 45.3204 211.497 45.3204C211.139 45.3204 210.786 45.231 210.471 45.0601L200.21 38.9537C199.886 38.7772 199.616 38.5167 199.428 38.1996C199.24 37.8825 199.14 37.5206 199.14 37.1518C199.14 36.783 199.24 36.421 199.428 36.104C199.616 35.7869 199.886 35.5264 200.21 35.3499L210.221 29.3936C210.536 29.2228 210.888 29.1333 211.247 29.1333C211.605 29.1333 211.958 29.2228 212.273 29.3936L222.734 35.3499C223.058 35.5264 223.328 35.7869 223.516 36.104C223.705 36.421 223.804 36.783 223.804 37.1518C223.804 37.5206 223.705 37.8825 223.516 38.1996C223.328 38.5167 223.058 38.7772 222.734 38.9537Z" fill="#FDCDE7"/>
</g>
<g opacity="0.43">
<path opacity="0.43" d="M222.734 45.0595L212.723 51.0158C212.408 51.1866 212.056 51.2761 211.697 51.2761C211.339 51.2761 210.986 51.1866 210.671 51.0158L200.21 45.0595C199.886 44.883 199.616 44.6226 199.428 44.3055C199.24 43.9884 199.14 43.6264 199.14 43.2576C199.14 42.8889 199.24 42.5269 199.428 42.2098C199.616 41.8927 199.886 41.6322 200.21 41.4557L210.221 35.5495C210.531 35.3644 210.886 35.2666 211.247 35.2666C211.608 35.2666 211.963 35.3644 212.273 35.5495L222.734 41.6059C223.023 41.7917 223.261 42.0471 223.426 42.3489C223.591 42.6506 223.677 42.9889 223.677 43.3327C223.677 43.6765 223.591 44.0148 223.426 44.3166C223.261 44.6183 223.023 44.8738 222.734 45.0595Z" fill="#FDCDE7"/>
</g>
<g opacity="0.29">
<path opacity="0.29" d="M222.734 51.4668L212.723 57.423C212.408 57.5939 212.056 57.6834 211.697 57.6834C211.339 57.6834 210.986 57.5939 210.671 57.423L200.21 51.4668C199.886 51.2903 199.616 51.0298 199.428 50.7127C199.24 50.3956 199.14 50.0337 199.14 49.6649C199.14 49.2961 199.24 48.9341 199.428 48.617C199.616 48.3 199.886 48.0395 200.21 47.863L210.221 41.9568C210.527 41.7605 210.883 41.6562 211.247 41.6563C211.611 41.6562 211.967 41.7605 212.273 41.9568L222.734 47.863C223.058 48.0395 223.328 48.3 223.516 48.617C223.705 48.9341 223.804 49.2961 223.804 49.6649C223.804 50.0337 223.705 50.3956 223.516 50.7127C223.328 51.0298 223.058 51.2903 222.734 51.4668Z" fill="#FDCDE7"/>
</g>
<g opacity="0.14">
<path opacity="0.14" d="M222.734 57.7737L212.723 63.6799C212.417 63.8761 212.061 63.9804 211.697 63.9804C211.334 63.9804 210.977 63.8761 210.671 63.6799L200.21 57.7236C199.886 57.5471 199.616 57.2866 199.428 56.9695C199.24 56.6525 199.14 56.2905 199.14 55.9217C199.14 55.5529 199.24 55.191 199.428 54.8739C199.616 54.5568 199.886 54.2963 200.21 54.1198L210.221 48.2136C210.527 48.0174 210.883 47.9131 211.247 47.9131C211.611 47.9131 211.967 48.0174 212.273 48.2136L222.584 54.1699C222.915 54.3324 223.197 54.5815 223.399 54.8908C223.601 55.2 223.715 55.5581 223.731 55.9271C223.746 56.2961 223.662 56.6624 223.486 56.9874C223.311 57.3124 223.051 57.5841 222.734 57.7737Z" fill="#FDCDE7"/>
</g>
<path d="M222.734 20.0337L212.723 25.9399C212.417 26.1361 212.061 26.2404 211.697 26.2404C211.334 26.2404 210.977 26.1361 210.671 25.9399L200.21 20.0337C199.886 19.8572 199.616 19.5967 199.428 19.2796C199.24 18.9625 199.14 18.6005 199.14 18.2318C199.14 17.863 199.24 17.501 199.428 17.1839C199.616 16.8668 199.886 16.6064 200.21 16.4299L210.221 10.5237C210.527 10.3274 210.883 10.2231 211.247 10.2231C211.611 10.2231 211.967 10.3274 212.273 10.5237L222.734 16.58C223.023 16.7658 223.261 17.0213 223.426 17.323C223.591 17.6247 223.677 17.963 223.677 18.3068C223.677 18.6507 223.591 18.989 223.426 19.2907C223.261 19.5924 223.023 19.8479 222.734 20.0337Z" fill="#FDCDE7"/>
<g opacity="0.1">
<path opacity="0.1" d="M222.734 63.3789L212.723 69.3351C212.417 69.5314 212.061 69.6357 211.697 69.6357C211.334 69.6357 210.977 69.5314 210.671 69.3351L200.21 63.3789C199.886 63.2024 199.616 62.9419 199.428 62.6248C199.24 62.3077 199.14 61.9458 199.14 61.577C199.14 61.2082 199.24 60.8462 199.428 60.5291C199.616 60.2121 199.886 59.9516 200.21 59.7751L210.221 53.8689C210.527 53.6727 210.883 53.5684 211.247 53.5684C211.611 53.5684 211.967 53.6727 212.273 53.8689L222.584 59.7751C222.915 59.9377 223.197 60.1867 223.399 60.496C223.601 60.8053 223.715 61.1633 223.731 61.5323C223.746 61.9013 223.662 62.2677 223.486 62.5927C223.311 62.9177 223.051 63.1893 222.734 63.3789Z" fill="black"/>
</g>
<g opacity="0.1">
<path opacity="0.1" d="M288.904 100.118L278.894 106.074C278.57 106.245 278.209 106.335 277.843 106.335C277.476 106.335 277.116 106.245 276.792 106.074L266.281 100.118C265.957 99.9417 265.686 99.6812 265.498 99.3641C265.31 99.0471 265.21 98.6851 265.21 98.3163C265.21 97.9475 265.31 97.5856 265.498 97.2685C265.686 96.9514 265.957 96.6909 266.281 96.5144L276.291 90.5582C276.615 90.3872 276.976 90.2979 277.342 90.2979C277.708 90.2979 278.069 90.3872 278.393 90.5582L288.704 96.5144C289.026 96.6833 289.299 96.9329 289.496 97.2388C289.692 97.5447 289.806 97.8964 289.827 98.2595C289.847 98.6226 289.772 98.9848 289.611 99.3106C289.449 99.6364 289.206 99.9146 288.904 100.118Z" fill="black"/>
</g>
<path d="M288.904 47.3623L278.894 53.3186C278.578 53.5135 278.214 53.6167 277.843 53.6167C277.471 53.6167 277.108 53.5135 276.792 53.3186L266.281 47.3623C265.957 47.1858 265.686 46.9253 265.498 46.6083C265.31 46.2912 265.21 45.9292 265.21 45.5604C265.21 45.1916 265.31 44.8297 265.498 44.5126C265.686 44.1955 265.957 43.935 266.281 43.7585L276.291 37.8523C276.607 37.6574 276.971 37.5542 277.342 37.5542C277.713 37.5542 278.077 37.6574 278.393 37.8523L288.704 43.7585C289.026 43.9274 289.299 44.177 289.496 44.4829C289.692 44.7888 289.806 45.1405 289.827 45.5036C289.847 45.8667 289.772 46.2289 289.611 46.5547C289.449 46.8805 289.206 47.1588 288.904 47.3623Z" fill="#A1F7F6"/>
<g opacity="0.86">
<path opacity="0.86" d="M288.904 55.0708L278.893 60.977C278.577 61.1719 278.213 61.2751 277.842 61.2751C277.471 61.2751 277.107 61.1719 276.791 60.977L266.28 55.0708C265.968 54.8906 265.709 54.6316 265.529 54.3197C265.349 54.0078 265.254 53.6541 265.254 53.2939C265.254 52.9338 265.349 52.5801 265.529 52.2682C265.709 51.9563 265.968 51.6972 266.28 51.5171L276.29 45.5608C276.606 45.3659 276.97 45.2627 277.342 45.2627C277.713 45.2627 278.077 45.3659 278.393 45.5608L288.703 51.5171C289.015 51.6891 289.277 51.9373 289.466 52.2384C289.656 52.5394 289.765 52.8836 289.785 53.2386C289.805 53.5937 289.735 53.948 289.581 54.2684C289.427 54.5888 289.194 54.8649 288.904 55.0708Z" fill="#A1F7F6"/>
</g>
<g opacity="0.71">
<path opacity="0.71" d="M288.904 62.4283L278.894 68.3345C278.574 68.519 278.212 68.6161 277.843 68.6161C277.474 68.6161 277.111 68.519 276.792 68.3345L266.281 62.4283C265.957 62.2518 265.686 61.9913 265.498 61.6742C265.31 61.3571 265.21 60.9952 265.21 60.6264C265.21 60.2576 265.31 59.8956 265.498 59.5785C265.686 59.2614 265.957 59.001 266.281 58.8245L276.291 52.8682C276.615 52.6973 276.976 52.6079 277.342 52.6079C277.708 52.6079 278.069 52.6973 278.393 52.8682L288.704 58.8245C289.026 58.9934 289.299 59.243 289.496 59.5489C289.692 59.8547 289.806 60.2064 289.827 60.5696C289.847 60.9327 289.772 61.2949 289.611 61.6206C289.449 61.9464 289.206 62.2247 288.904 62.4283Z" fill="#A1F7F6"/>
</g>
<g opacity="0.57">
<path opacity="0.57" d="M288.904 70.0865L278.894 76.0427C278.57 76.2137 278.209 76.303 277.843 76.303C277.476 76.303 277.116 76.2137 276.792 76.0427L266.281 70.0865C265.957 69.91 265.686 69.6495 265.498 69.3324C265.31 69.0153 265.21 68.6534 265.21 68.2846C265.21 67.9158 265.31 67.5538 265.498 67.2367C265.686 66.9197 265.957 66.6592 266.281 66.4827L276.291 60.5264C276.615 60.3555 276.976 60.2661 277.342 60.2661C277.708 60.2661 278.069 60.3555 278.393 60.5264L288.704 66.4827C289.026 66.6516 289.299 66.9012 289.496 67.2071C289.692 67.5129 289.806 67.8646 289.827 68.2278C289.847 68.5909 289.772 68.9531 289.611 69.2788C289.449 69.6046 289.206 69.8829 288.904 70.0865Z" fill="#A1F7F6"/>
</g>
<g opacity="0.43">
<path opacity="0.43" d="M288.904 77.4439L278.894 83.4001C278.57 83.5711 278.209 83.6604 277.843 83.6604C277.476 83.6604 277.116 83.5711 276.792 83.4001L266.281 77.4439C265.957 77.2674 265.686 77.0069 265.498 76.6898C265.31 76.3727 265.21 76.0107 265.21 75.642C265.21 75.2732 265.31 74.9112 265.498 74.5941C265.686 74.277 265.957 74.0166 266.281 73.8401L276.291 67.9339C276.607 67.739 276.971 67.6357 277.342 67.6357C277.713 67.6357 278.077 67.739 278.393 67.9339L288.704 73.8401C289.026 74.009 289.299 74.2586 289.496 74.5645C289.692 74.8703 289.806 75.222 289.827 75.5852C289.847 75.9483 289.772 76.3104 289.611 76.6362C289.449 76.962 289.206 77.2403 288.904 77.4439Z" fill="#A1F7F6"/>
</g>
<g opacity="0.29">
<path opacity="0.29" d="M288.904 85.1021L278.894 91.0083C278.578 91.2032 278.214 91.3064 277.843 91.3064C277.471 91.3064 277.108 91.2032 276.792 91.0083L266.281 85.1021C265.957 84.9256 265.686 84.6651 265.498 84.348C265.31 84.0309 265.21 83.6689 265.21 83.3002C265.21 82.9314 265.31 82.5694 265.498 82.2523C265.686 81.9352 265.957 81.6748 266.281 81.4983L276.291 75.5921C276.607 75.3972 276.971 75.2939 277.342 75.2939C277.713 75.2939 278.077 75.3972 278.393 75.5921L288.704 81.5483C289.015 81.7204 289.278 81.9685 289.467 82.2696C289.656 82.5707 289.766 82.9148 289.786 83.2699C289.806 83.6249 289.736 83.9792 289.581 84.2996C289.427 84.6201 289.194 84.8962 288.904 85.1021Z" fill="#A1F7F6"/>
</g>
<g opacity="0.14">
<path opacity="0.14" d="M288.904 92.5098L278.894 98.416C278.578 98.6109 278.214 98.7141 277.843 98.7141C277.471 98.7141 277.108 98.6109 276.792 98.416L266.281 92.5098C265.957 92.3333 265.686 92.0728 265.498 91.7557C265.31 91.4387 265.21 91.0767 265.21 90.7079C265.21 90.3391 265.31 89.9772 265.498 89.6601C265.686 89.343 265.957 89.0825 266.281 88.906L276.291 82.9497C276.615 82.7788 276.976 82.6895 277.342 82.6895C277.708 82.6895 278.069 82.7788 278.393 82.9497L288.704 88.906C289.026 89.0749 289.299 89.3245 289.496 89.6304C289.692 89.9363 289.806 90.288 289.827 90.6511C289.847 91.0142 289.772 91.3764 289.611 91.7022C289.449 92.028 289.206 92.3062 288.904 92.5098Z" fill="#A1F7F6"/>
</g>
<path d="M288.904 47.3623L278.894 53.3186C278.578 53.5135 278.214 53.6167 277.843 53.6167C277.471 53.6167 277.108 53.5135 276.792 53.3186L266.281 47.3623C265.957 47.1858 265.686 46.9253 265.498 46.6083C265.31 46.2912 265.21 45.9292 265.21 45.5604C265.21 45.1916 265.31 44.8297 265.498 44.5126C265.686 44.1955 265.957 43.935 266.281 43.7585L276.291 37.8523C276.607 37.6574 276.971 37.5542 277.342 37.5542C277.713 37.5542 278.077 37.6574 278.393 37.8523L288.704 43.7585C289.026 43.9274 289.299 44.177 289.496 44.4829C289.692 44.7888 289.806 45.1405 289.827 45.5036C289.847 45.8667 289.772 46.2289 289.611 46.5547C289.449 46.8805 289.206 47.1588 288.904 47.3623Z" fill="#A2F8F7"/>
<path d="M256.47 14.027L246.259 20.0333C245.935 20.2043 245.575 20.2936 245.208 20.2936C244.842 20.2936 244.481 20.2043 244.157 20.0333L233.846 14.027C233.523 13.8505 233.252 13.59 233.064 13.2729C232.876 12.9559 232.776 12.5939 232.776 12.2251C232.776 11.8563 232.876 11.4944 233.064 11.1773C233.252 10.8602 233.523 10.5997 233.846 10.4232L243.857 4.51699C244.177 4.33249 244.539 4.23535 244.908 4.23535C245.277 4.23535 245.64 4.33249 245.959 4.51699L256.27 10.4733C256.581 10.6453 256.844 10.8935 257.033 11.1945C257.222 11.4956 257.332 11.8398 257.352 12.1948C257.372 12.5499 257.301 12.9042 257.147 13.2246C256.993 13.545 256.76 13.8211 256.47 14.027Z" fill="#FFDF75"/>
<g opacity="0.86">
<path opacity="0.86" d="M256.47 23.6875L246.46 29.5938C246.144 29.7887 245.78 29.8919 245.409 29.8919C245.037 29.8919 244.673 29.7887 244.357 29.5938L233.846 23.6875C233.523 23.5111 233.252 23.2506 233.064 22.9335C232.876 22.6164 232.776 22.2544 232.776 21.8856C232.776 21.5169 232.876 21.1549 233.064 20.8378C233.252 20.5207 233.523 20.2602 233.846 20.0838L243.857 14.1275C244.181 13.9565 244.542 13.8672 244.908 13.8672C245.274 13.8672 245.635 13.9565 245.959 14.1275L256.47 20.0337C256.793 20.2173 257.061 20.4831 257.248 20.804C257.434 21.1249 257.532 21.4894 257.532 21.8606C257.532 22.2318 257.434 22.5964 257.248 22.9173C257.061 23.2381 256.793 23.5039 256.47 23.6875Z" fill="#FFDF75"/>
</g>
<g opacity="0.71">
<path opacity="0.71" d="M256.47 33.2974L246.46 39.2536C246.136 39.4246 245.775 39.5139 245.409 39.5139C245.042 39.5139 244.681 39.4246 244.357 39.2536L233.846 33.2974C233.523 33.1209 233.252 32.8604 233.064 32.5433C232.876 32.2262 232.776 31.8643 232.776 31.4955C232.776 31.1267 232.876 30.7647 233.064 30.4476C233.252 30.1306 233.523 29.8701 233.846 29.6936L243.857 23.7874C244.173 23.5925 244.537 23.4893 244.908 23.4893C245.279 23.4893 245.643 23.5925 245.959 23.7874L256.27 29.6936C256.592 29.8625 256.865 30.1121 257.062 30.418C257.258 30.7238 257.372 31.0755 257.393 31.4387C257.413 31.8018 257.338 32.164 257.177 32.4898C257.015 32.8155 256.772 33.0938 256.47 33.2974Z" fill="#FFDF75"/>
</g>
<g opacity="0.57">
<path opacity="0.57" d="M256.47 42.9571L246.46 48.9133C246.136 49.0843 245.775 49.1736 245.409 49.1736C245.042 49.1736 244.681 49.0843 244.357 48.9133L233.846 42.9571C233.523 42.7806 233.252 42.5201 233.064 42.203C232.876 41.8859 232.776 41.524 232.776 41.1552C232.776 40.7864 232.876 40.4244 233.064 40.1073C233.252 39.7903 233.523 39.5298 233.846 39.3533L243.857 33.397C244.181 33.2261 244.542 33.1367 244.908 33.1367C245.274 33.1367 245.635 33.2261 245.959 33.397L256.27 39.3533C256.592 39.5222 256.865 39.7718 257.062 40.0777C257.258 40.3836 257.372 40.7352 257.393 41.0984C257.413 41.4615 257.338 41.8237 257.177 42.1495C257.015 42.4752 256.772 42.7535 256.47 42.9571Z" fill="#FFDF75"/>
</g>
<g opacity="0.43">
<path opacity="0.43" d="M256.47 52.5679L246.46 58.5241C246.144 58.719 245.78 58.8223 245.409 58.8223C245.037 58.8223 244.673 58.719 244.357 58.5241L233.846 52.5679C233.523 52.3914 233.252 52.1309 233.064 51.8138C232.876 51.4967 232.776 51.1348 232.776 50.766C232.776 50.3972 232.876 50.0352 233.064 49.7182C233.252 49.4011 233.523 49.1406 233.846 48.9641L243.857 43.0579C244.173 42.863 244.537 42.7598 244.908 42.7598C245.279 42.7598 245.643 42.863 245.959 43.0579L256.27 49.0141C256.593 49.176 256.867 49.4202 257.065 49.722C257.263 50.0238 257.379 50.3726 257.399 50.7331C257.419 51.0935 257.344 51.453 257.181 51.7752C257.018 52.0973 256.773 52.3708 256.47 52.5679Z" fill="#FFDF75"/>
</g>
<g opacity="0.29">
<path opacity="0.29" d="M256.471 62.2281L246.46 68.1843C246.136 68.3553 245.775 68.4446 245.409 68.4446C245.043 68.4446 244.682 68.3553 244.358 68.1843L234.047 62.2281C233.723 62.0516 233.453 61.7911 233.265 61.474C233.076 61.1569 232.977 60.795 232.977 60.4262C232.977 60.0574 233.076 59.6954 233.265 59.3783C233.453 59.0613 233.723 58.8008 234.047 58.6243L244.058 52.668C244.382 52.4971 244.742 52.4077 245.109 52.4077C245.475 52.4077 245.836 52.4971 246.16 52.668L256.471 58.6243C256.782 58.8111 257.039 59.0753 257.218 59.391C257.396 59.7068 257.49 60.0634 257.49 60.4262C257.49 60.789 257.396 61.1456 257.218 61.4613C257.039 61.7771 256.782 62.0412 256.471 62.2281Z" fill="#FFDF75"/>
</g>
<g opacity="0.14">
<path opacity="0.14" d="M256.471 71.8875L246.46 77.7937C246.144 77.9886 245.78 78.0918 245.409 78.0918C245.038 78.0918 244.674 77.9886 244.358 77.7937L234.047 71.8374C233.723 71.6609 233.453 71.4004 233.265 71.0833C233.076 70.7663 232.977 70.4043 232.977 70.0355C232.977 69.6667 233.076 69.3048 233.265 68.9877C233.453 68.6706 233.723 68.4101 234.047 68.2336L244.058 62.3274C244.374 62.1325 244.738 62.0293 245.109 62.0293C245.48 62.0293 245.844 62.1325 246.16 62.3274L256.471 68.2837C256.782 68.4705 257.039 68.7347 257.218 69.0504C257.396 69.3662 257.49 69.7228 257.49 70.0856C257.49 70.4483 257.396 70.8049 257.218 71.1207C257.039 71.4365 256.782 71.7006 256.471 71.8875Z" fill="#FFDF75"/>
</g>
<g opacity="0.1">
<path opacity="0.1" d="M256.471 81.4983L246.46 87.4045C246.144 87.5994 245.78 87.7026 245.409 87.7026C245.038 87.7026 244.674 87.5994 244.358 87.4045L234.047 81.4483C233.723 81.2718 233.453 81.0113 233.265 80.6942C233.076 80.3771 232.977 80.0151 232.977 79.6464C232.977 79.2776 233.076 78.9156 233.265 78.5985C233.453 78.2814 233.723 78.0209 234.047 77.8445L244.058 71.9382C244.374 71.7433 244.738 71.6401 245.109 71.6401C245.48 71.6401 245.844 71.7433 246.16 71.9382L256.471 77.8945C256.782 78.0814 257.039 78.3455 257.218 78.6613C257.396 78.977 257.49 79.3336 257.49 79.6964C257.49 80.0592 257.396 80.4158 257.218 80.7315C257.039 81.0473 256.782 81.3114 256.471 81.4983Z" fill="black"/>
</g>
<path d="M256.47 14.027L246.259 20.0333C245.935 20.2043 245.575 20.2936 245.208 20.2936C244.842 20.2936 244.481 20.2043 244.157 20.0333L233.846 14.027C233.523 13.8505 233.252 13.59 233.064 13.2729C232.876 12.9559 232.776 12.5939 232.776 12.2251C232.776 11.8563 232.876 11.4944 233.064 11.1773C233.252 10.8602 233.523 10.5997 233.846 10.4232L243.857 4.51699C244.177 4.33249 244.539 4.23535 244.908 4.23535C245.277 4.23535 245.64 4.33249 245.959 4.51699L256.27 10.4733C256.581 10.6453 256.844 10.8935 257.033 11.1945C257.222 11.4956 257.332 11.8398 257.352 12.1948C257.372 12.5499 257.301 12.9042 257.147 13.2246C256.993 13.545 256.76 13.8211 256.47 14.027Z" fill="#F5E981"/>
<g opacity="0.1">
<path opacity="0.1" d="M107.813 202.474L69.0727 225.999L0 186.107L38.8409 163.483L107.813 202.474Z" fill="black"/>
</g>
<path d="M111.918 196.318L75.4295 218.441L10.5112 180.952L46.9996 159.629L111.918 196.318Z" fill="#626BDC"/>
<path d="M111.918 189.211L75.4295 211.334L10.5112 173.845L46.9996 152.572L111.918 189.211Z" fill="url(#paint2_linear)"/>
<path d="M10.5112 173.845V180.953L75.4295 218.442V211.335L10.5112 173.845Z" fill="url(#paint3_linear)"/>
<path d="M111.919 189.211V196.319L75.4307 218.442V211.335L111.919 189.211Z" fill="url(#paint4_linear)"/>
<path d="M30.8813 166.937L30.0304 166.587L28.7791 166.137H28.2285H27.9282H27.2274H26.4266H25.9261H25.4756L26.6768 165.436H26.9772H27.3275H28.2285H28.8792H29.2796L30.0304 165.186L31.2817 165.636L32.0325 165.986H32.3828L33.7343 166.737L34.6352 167.238C34.9407 167.456 35.2582 167.656 35.5862 167.838L37.288 168.739L37.7885 168.99L38.7896 169.39L40.0409 170.191H40.6916H41.2922H42.1431H43.7949H44.896H45.0462H45.847H46.0973L47.0483 169.79L45.847 170.441L45.0462 170.892H44.6958H44.1953H43.5946H42.7437H40.6916L40.0409 171.192H39.3902H38.9898L37.7385 170.791H37.4382C37.1528 170.64 36.8982 170.436 36.6874 170.191H36.1869C35.6363 169.89 35.0356 169.64 34.4851 169.29L33.484 168.689L32.5831 168.139L31.2817 167.438L30.8813 166.937Z" fill="url(#paint5_linear)"/>
<path d="M56.5576 151.02H56.858H57.2083H57.809C57.9243 150.995 58.044 150.995 58.1593 151.02H58.4596H58.9101H59.2104H59.4607L60.1114 151.371L61.1124 152.021C61.4811 152.28 61.8172 152.583 62.1135 152.922L63.2146 154.074L64.4159 155.625L65.1667 156.626L66.8685 159.029L67.1188 159.379C67.3069 159.699 67.5247 160.001 67.7694 160.28C67.9187 160.542 68.086 160.793 68.27 161.031C68.4244 161.317 68.609 161.585 68.8205 161.832L69.271 162.583L69.7715 163.333L70.222 164.034L70.7225 164.785L71.123 165.385C71.3732 165.786 71.6235 166.136 71.8237 166.537L72.074 166.887L72.5745 167.688L72.8248 168.038L73.2752 168.739V169.039L73.7257 169.69L74.4264 170.641V170.941L74.7768 171.392C74.8332 171.498 74.9204 171.586 75.0271 171.642L75.3774 172.042L75.8279 172.393H76.0782L76.7289 172.843L77.3796 173.144H77.8801H78.3305H79.7821H80.4328H80.7831L82.2847 172.793L83.2858 172.493V201.774L82.1346 202.424V174.495H81.2336L79.732 174.845H79.3817H78.781H76.5287H76.1282L75.5276 174.545L74.8769 174.095L74.4264 173.694L75.0771 172.993L74.7268 172.593L74.026 171.692C73.8806 171.528 73.7623 171.343 73.6757 171.142L72.8748 170.191L72.4243 169.54V169.189L71.8237 168.289V168.038L70.9728 166.737V166.487L69.7715 165.185C69.6891 165.024 69.5883 164.873 69.4712 164.735L68.8706 163.734L68.4702 163.183L67.8195 162.232L67.4191 161.632C67.1688 161.281 66.9185 160.931 66.7183 160.58L66.3179 160.18L64.5661 157.777L63.8153 156.726L62.564 155.175C62.2389 154.769 61.8878 154.384 61.5129 154.024L60.5118 153.123L59.5108 152.422L58.6599 152.021C58.3782 151.974 58.0906 151.974 57.809 152.021H57.0081C56.7106 152.077 56.4235 152.178 56.1572 152.322L56.5576 151.02Z" fill="url(#paint6_linear)"/>
<g opacity="0.4">
<path opacity="0.4" d="M58.9607 151.921C55.2568 149.819 52.5539 152.772 50.4517 163.033C49.1504 169.34 44.7457 174.845 34.4849 168.939L33.4839 168.339L32.5829 167.788C23.9238 162.783 23.9238 168.839 23.9238 169.19L83.987 203.726V174.495C82.9039 174.994 81.7257 175.252 80.5334 175.252C79.341 175.252 78.1628 174.994 77.0797 174.495C73.9264 172.643 71.7241 167.137 64.6667 157.577C63.1519 155.338 61.2135 153.416 58.9607 151.921Z" fill="url(#paint7_linear)"/>
</g>
<path d="M97.2046 194.716L98.4059 194.016L98.4559 164.735L97.3047 165.436L97.2046 194.716Z" fill="url(#paint8_linear)"/>
<path d="M39.692 157.678H40.0423H40.4428H40.693H43.7963H44.6972H44.9975H45.0476L45.7984 157.928H46.2489L47.8505 158.529L49.5023 159.18L52.4554 160.331L53.5565 160.731H54.007L54.7078 160.982H55.2083H55.7589H56.2594H56.7599H57.2104H57.7109L59.4127 161.332H60.614H62.2157C62.782 161.378 63.3511 161.378 63.9174 161.332H65.0687L66.2199 161.032H66.5202L67.5212 160.731L68.6224 160.331L69.5734 159.981L70.5744 159.63H71.4253H74.2783H75.0792L76.3305 160.081H76.831H77.1814L78.3326 160.681C78.9833 161.032 79.634 161.482 80.3347 161.933C80.6947 162.218 81.08 162.469 81.4859 162.683L82.7372 163.334L83.7883 163.685H84.5391C84.8037 163.735 85.0754 163.735 85.34 163.685H85.9406H86.1909H86.5913H87.1919H87.5423L88.4933 163.234L89.3942 162.834H90.0449H92.6477H93.1482H93.3985L94.3995 163.184L95.7009 163.835L96.4517 164.335L95.3005 164.986L96.5017 165.186C96.0945 164.92 95.6578 164.701 95.2004 164.535C94.8474 164.366 94.4785 164.232 94.0992 164.135H93.2983H92.0971H91.4464H91.1461H90.7457H90.095L89.144 164.535L88.193 164.986H87.8927L87.242 165.236H86.5913H84.0887H83.6382H83.3879L82.3869 164.886L81.1356 164.285L80.0844 164.035C79.3837 163.534 78.733 163.134 78.1324 162.784L76.9812 162.183H76.6308L75.9801 161.883L74.6788 161.432H74.4285H73.6777H71.6756H71.0249H70.174H69.9238L68.9728 161.783H68.7225L67.8716 162.133L66.6703 162.583L65.6192 162.934H65.0687H63.8674H63.517H61.8152H60.0634H58.8121L57.1103 162.533H56.7099H56.1593H55.7589H55.1582H54.7578H54.1071H53.7067L52.9059 162.233H52.5555L51.6545 161.883L47.2499 160.131L45.0476 158.729H44.5971L43.6461 158.479H43.3458H42.3448H40.3927H39.692H39.2415H38.791L39.692 157.678Z" fill="url(#paint9_linear)"/>
<g opacity="0.4">
<path opacity="0.4" d="M96.5028 165.186C95.3558 164.416 94.0054 164.005 92.6237 164.005C91.242 164.005 89.8916 164.416 88.7447 165.186C87.6158 165.931 86.2931 166.328 84.9407 166.328C83.5882 166.328 82.2655 165.931 81.1366 165.186L80.0855 164.035C79.3848 163.535 78.7341 163.134 78.1335 162.784C71.3263 158.88 68.8738 162.383 63.9686 163.284C59.0634 164.185 56.2104 162.934 46.9507 159.33C37.6909 155.726 37.3406 160.181 37.2905 160.181L97.3537 194.768V165.487L96.5028 165.186Z" fill="url(#paint10_linear)"/>
</g>
<path d="M189.899 87.5038C188.784 87.5811 187.742 88.0891 186.995 88.9205C186.248 89.7519 185.853 90.8414 185.895 91.9585C185.895 96.213 188.147 114.983 192.351 119.037C196.556 123.091 197.357 114.332 197.357 114.332C197.357 114.332 196.656 87.1535 189.899 87.5038Z" fill="#BAD1DE"/>
<path d="M213.024 119.038C215.903 119.731 218.905 119.731 221.784 119.038C225.437 117.887 224.587 117.687 224.386 117.136C224.186 116.586 219.381 115.835 218.33 115.535C217.279 115.234 219.131 114.684 219.531 114.133C219.932 113.583 220.833 112.932 220.532 112.732C220.232 112.532 219.581 112.231 218.18 113.182C216.586 114.035 214.909 114.723 213.175 115.234L213.024 119.038Z" fill="#EFB185"/>
<path d="M214.126 115.134C213.883 115.863 213.732 116.62 213.676 117.386C213.578 118.333 213.751 119.288 214.176 120.139C214.176 120.139 197.008 122.091 192.904 119.588C192.904 119.588 189.3 112.831 195.807 111.68L214.126 115.134Z" fill="#BAD1DE"/>
<path d="M194.355 120.139C193.854 120.118 193.376 119.923 193.003 119.588L192.453 119.138C188.248 115.083 185.796 96.3137 185.996 92.0592C186.03 91.3655 186.2 90.6853 186.496 90.0571C187.497 95.0624 192.102 117.286 194.054 117.836C196.006 118.387 209.07 118.637 214.075 118.737C214.162 119.239 214.313 119.727 214.526 120.189C207.828 121.042 201.048 121.025 194.355 120.139Z" fill="#A3C1CE"/>
<path d="M208.369 171.593C208.369 171.593 207.418 174.997 209.82 175.848C211.598 176.487 213.281 177.363 214.826 178.451C215.727 179.151 225.937 183.456 227.189 181.454C228.44 179.452 225.387 177.049 224.636 176.449L216.878 169.691L208.369 171.593Z" fill="#111114"/>
<path d="M200.211 177.5C200.211 177.5 199.26 180.853 201.663 181.704C203.439 182.347 205.122 183.222 206.668 184.307C207.619 185.008 217.83 189.312 219.081 187.31C220.332 185.308 217.279 182.955 216.528 182.305C215.777 181.654 208.77 175.598 208.77 175.598L200.211 177.5Z" fill="#111114"/>
<path d="M191.302 122.792C191.302 122.792 216.328 138.558 217.079 142.562C217.829 146.567 217.629 170.191 217.629 170.191C217.629 170.191 211.222 172.944 208.119 171.242L205.516 148.969C205.516 148.969 185.796 134.404 184.945 133.953C184.094 133.503 191.302 122.792 191.302 122.792Z" fill="#16365C"/>
<path d="M185.195 133.903C186.046 134.404 205.766 148.919 205.766 148.919L208.369 171.193C210.219 171.826 212.226 171.826 214.075 171.193C213.174 164.436 211.222 149.57 210.471 145.816C209.57 140.811 189.349 129.249 189.349 129.249L185.195 133.103C184.928 133.536 184.928 133.803 185.195 133.903Z" fill="#09294F"/>
<path d="M191.3 123.393C190.148 127.005 188.674 130.506 186.895 133.854C186.895 133.854 206.916 144.465 207.967 149.62C209.019 154.776 210.22 176.649 210.22 176.649C208.643 177.544 206.887 178.081 205.079 178.219C203.27 178.357 201.454 178.095 199.759 177.449C199.759 177.449 197.506 160.582 197.256 153.825C197.256 153.825 167.225 145.816 169.227 129.199C173.077 130.428 177.199 130.535 181.108 129.507C185.017 128.478 188.552 126.358 191.3 123.393Z" fill="#16365C"/>
<path d="M197.257 153.824C197.507 160.581 199.759 177.449 199.759 177.449C200.705 177.765 201.676 178 202.662 178.149C202.662 175.497 202.312 172.043 202.062 167.488C201.011 150.47 198.408 150.821 198.408 150.821C179.188 142.162 175.183 133.853 175.183 133.853L169.127 130.149C168.026 146.066 197.257 153.824 197.257 153.824Z" fill="#09294F"/>
<path d="M178.386 89.1067C174.921 90.7352 171.575 92.6086 168.376 94.7126C168.376 95.4634 165.673 97.2152 169.177 105.624C171.951 111.27 172.795 117.671 171.579 123.843C170.9 126.592 170.013 129.286 168.926 131.902C168.926 131.902 173.181 138.208 185.144 133.804C188.346 132.392 191.024 130.011 192.802 126.997C192.237 121.373 192.439 115.698 193.402 110.129C194.854 101.019 195.705 89.2068 190.549 87.6551C190.549 87.6051 189.248 86.0034 178.386 89.1067Z" fill="#BAD1DE"/>
<path d="M193.404 110.128C192.503 115.723 192.368 121.415 193.004 127.046C191.179 130.066 188.446 132.431 185.195 133.803C183.971 134.258 182.717 134.626 181.441 134.904C182.28 132.697 182.982 130.44 183.544 128.147C184.791 122.061 184.018 115.734 181.341 110.128C177.788 101.719 180.29 100.118 180.54 99.2166C183.732 97.1002 187.079 95.2264 190.551 93.6107L194.205 92.6597C194.932 98.4857 194.661 104.393 193.404 110.128Z" fill="#CAE0EA"/>
<path d="M181.742 86.1528C181.742 86.1528 188.699 89.8567 185.596 95.0622L188.849 96.8641C189.307 95.6898 189.476 94.4226 189.342 93.1694C189.207 91.9161 188.773 90.7136 188.076 89.6634C187.379 88.6131 186.44 87.7459 185.337 87.1349C184.235 86.5239 183.002 86.1871 181.742 86.1528Z" fill="#FEFFFF"/>
<path d="M177.286 82.499C177.286 82.499 180.189 86.9037 177.887 89.9068C176.585 91.6086 179.639 95.5628 184.844 95.2625C184.844 95.2625 187.147 94.6618 186.946 93.861C186.746 93.0809 186.737 92.2641 186.92 91.4799C187.103 90.6957 187.473 89.9672 187.997 89.3562C188.798 87.9047 177.286 82.499 177.286 82.499Z" fill="#EFB185"/>
<path d="M177.886 90.1075C177.817 90.3358 177.817 90.5798 177.886 90.8082C179.491 89.5004 181.474 88.7455 183.542 88.6559L178.537 83.2002H178.036V83.7007C178.576 84.6878 178.846 85.7996 178.82 86.9242C178.794 88.0489 178.472 89.1468 177.886 90.1075Z" fill="#DD9569"/>
<path d="M186.947 93.8608C186.446 90.8076 186.947 90.8577 187.998 89.3561C187.998 88.9557 187.497 88.2549 186.396 87.4541C186.052 87.7108 185.762 88.0342 185.545 88.4051C184.121 90.3337 183.477 92.7293 183.743 95.1122H184.845C185.495 95.1122 187.097 94.7618 186.947 93.8608Z" fill="#F2B78F"/>
<path d="M176.185 80.0966C176.967 83.4543 178.831 86.4617 181.49 88.6556C185.094 91.008 189.248 92.5597 190.049 88.2552C190.65 84.8516 192.302 76.2425 189.299 74.4907C185.444 72.2383 184.293 69.4854 179.288 71.1372C177.79 72.0177 176.655 73.4033 176.086 75.0453C175.517 76.6872 175.552 78.4781 176.185 80.0966Z" fill="#EFB185"/>
<path d="M176.185 80.0965C176.753 83.5523 178.659 86.6454 181.491 88.7056C182.549 89.4409 183.691 90.0459 184.894 90.5075C183.522 89.546 182.321 88.3617 181.34 87.0038C179.889 85.302 183.543 85.9527 181.04 81.5981C180.189 80.1466 184.344 82.0486 185.245 81.9985C190.75 81.9985 190.25 78.6951 190.25 77.3937C190.16 76.8285 190.008 76.2747 189.799 75.7419L189.299 74.7409V74.4906C188.749 73.7948 188.147 73.1422 187.497 72.5386H178.287L175.985 75.6418C175.677 77.1201 175.746 78.6519 176.185 80.0965Z" fill="#E6A376"/>
<path d="M178.638 85.702C177.329 84.4265 176.37 82.8359 175.853 81.0829C175.336 79.3298 175.278 77.4733 175.685 75.6915C176.014 74.2717 176.78 72.991 177.875 72.0301C178.971 71.0692 180.341 70.4766 181.791 70.3359C183.677 69.9426 185.642 70.2294 187.336 71.1455C189.031 72.0616 190.347 73.5479 191.051 75.3411C191.652 76.8928 191.051 80.3464 184.995 78.7447C184.144 78.4945 181.791 78.1941 180.94 78.7447C180.539 79.2035 180.275 79.7658 180.177 80.3676C180.08 80.9693 180.153 81.5864 180.39 82.1483C180.79 83.1994 179.839 83.2995 179.689 83.0492C179.539 82.799 178.388 79.8459 177.287 80.9971C176.185 82.1483 178.488 85.5018 178.638 85.702Z" fill="#341C09"/>
<path d="M178.638 85.7024C178.638 85.7024 176.236 82.2488 177.287 81.1476C178.338 80.0465 179.589 82.9996 179.689 83.1998C179.79 83.4 180.791 83.1998 180.39 82.2988C180.154 81.7369 180.08 81.1199 180.178 80.5181C180.275 79.9163 180.539 79.354 180.941 78.8953C181.692 78.2446 183.744 78.5949 184.995 78.8953C183.994 78.2446 181.942 77.9943 181.191 76.2925C180.908 75.4297 180.432 74.6429 179.799 73.9923C179.166 73.3417 178.392 72.8444 177.537 72.5386C176.627 73.4674 175.986 74.6268 175.685 75.8921C175.314 77.6438 175.39 79.4607 175.906 81.1752C176.422 82.8898 177.362 84.4467 178.638 85.7024Z" fill="#221101"/>
<path d="M178.589 88.5049C179.017 90.1536 179.902 91.648 181.142 92.8166C182.381 93.9853 183.925 94.7808 185.596 95.1118L183.894 99.2662C183.894 99.2662 173.283 93.8605 178.589 88.5049Z" fill="#FEFFFF"/>
<path d="M168.577 94.712C168.577 95.4628 165.874 97.2146 169.377 105.623C171.737 111.372 172.414 117.674 171.329 123.793C170.428 127.697 169.978 126.746 168.526 130.049C167.676 131.951 171.68 135.054 175.634 135.054C177.019 131.888 177.816 128.496 177.986 125.044C178.742 121.432 178.628 117.691 177.653 114.132C176.678 110.572 174.871 107.296 172.381 104.572C167.375 98.1656 169.327 95.663 169.227 94.0112C168.972 94.2058 168.752 94.4428 168.577 94.712Z" fill="#9DBCC9"/>
<path d="M191.051 75.0915C191.051 75.0915 191.952 80.7474 184.744 78.6953C183.659 78.3605 182.654 77.8055 181.793 77.0649C180.932 76.3242 180.233 75.4139 179.739 74.3907C179.539 73.8858 179.221 73.436 178.812 73.079C178.403 72.722 177.914 72.4681 177.387 72.3386C178.246 71.4289 179.318 70.7469 180.506 70.3538C181.694 69.9607 182.961 69.8687 184.194 70.0862C186.187 70.5529 188.03 71.5172 189.55 72.8892C190.2 73.3396 189.199 75.7421 191.051 75.0915Z" fill="#341C09"/>
<path d="M178.837 134.354L178.787 135.255L191.901 144.665L192.001 143.764L178.837 134.354Z" fill="#B4B9BC"/>
<path d="M192.001 143.765L191.901 144.665L216.477 133.354L216.577 132.453L192.001 143.765Z" fill="#7D8183"/>
<path d="M178.836 134.354L192 143.764L216.576 132.452L203.412 123.092L178.836 134.354Z" fill="#E3E5E5"/>
<path d="M195.956 128.198L194.955 127.247L190.851 143.714L191.852 144.615L195.956 128.198Z" fill="#BDBBBB"/>
<path d="M221.632 116.385L220.631 115.484L194.954 127.246L195.955 128.197L221.632 116.385Z" fill="#D2D0D0"/>
<path d="M195.957 128.197L191.853 144.614L217.53 132.802L221.634 116.385L195.957 128.197Z" fill="#D5DFE6"/>
<path d="M195.956 128.197L217.529 132.802L221.633 116.385L195.956 128.197Z" fill="#E9F0F4"/>
<path d="M183.342 135.155C185.965 138.331 189.712 140.375 193.803 140.861C193.803 140.861 194.053 139.409 191.701 138.408C190.989 138.137 190.356 137.693 189.858 137.116C189.36 136.539 189.013 135.848 188.848 135.105C188.848 134.804 190.9 135.105 191.751 135.105C192.602 135.105 193.903 134.254 191.751 133.753C189.299 132.811 186.746 132.156 184.143 131.801C184.143 131.801 181.79 133.753 183.342 135.155Z" fill="#EFB185"/>
<path d="M172.532 93.311C171.166 93.3829 169.84 93.7905 168.67 94.4977C167.5 95.2049 166.523 96.1899 165.824 97.3653C163.922 101.219 158.667 119.388 160.819 124.744C162.971 130.1 183.343 136.607 183.343 136.607C183.111 135.592 183.161 134.534 183.487 133.545C183.814 132.557 184.404 131.677 185.195 131.001L168.728 120.139C168.728 120.139 176.636 95.9138 172.532 93.311Z" fill="#BAD1DE"/>
<path d="M168.728 120.139L185.195 131.001C184.842 131.303 184.538 131.657 184.294 132.052C177.839 128.672 171.721 124.683 166.025 120.139C164.823 117.937 172.181 97.6157 173.332 94.4624C175.184 99.818 168.728 120.139 168.728 120.139Z" fill="#CAE0EA"/>
<g opacity="0.5">
<path opacity="0.5" d="M152.01 66.3816L153.462 65.7309C154.23 65.4197 155.015 65.1523 155.814 64.93L156.815 64.6798H157.466H158.867H160.169H161.12L161.921 65.0802L160.169 63.8289L159.668 63.5786H159.418H158.767H157.065H155.914H155.264H154.413C153.612 63.7932 152.826 64.0607 152.06 64.3795L150.709 65.0301L150.008 65.3305L147.555 66.6819L145.854 67.6829L144.002 68.7841C142.901 69.4348 141.849 69.9854 140.848 70.4859L139.897 70.8863L138.095 71.6371L135.843 72.4379L134.592 72.7883H133.491L131.839 73.0886H130.137H128.435H127.885H125.883H125.482C124.951 72.9918 124.431 72.8409 123.931 72.6381H123.48C122.89 72.4223 122.321 72.1543 121.778 71.8373L123.981 73.1387L125.282 73.7894H125.582H125.983H126.683H127.534H127.935C128.468 73.8164 129.003 73.8164 129.536 73.7894H131.288H131.989H132.84H133.34H134.392H135.593H135.943L136.744 73.5391L139.046 72.7382H139.647L140.848 72.1877L141.799 71.7372L145.153 70.0855L146.955 68.9843L148.657 67.9332L151.109 66.6318L152.01 66.3816Z" fill="#FFEAF5"/>
<path opacity="0.5" d="M104.009 36.6509L103.408 36.3506H102.807H102.257H101.656H100.105H99.3538H99.0034H98.7031H98.3027L97.0514 36.9512C96.4076 37.346 95.789 37.7806 95.1994 38.2526H94.8991C94.2985 38.7531 93.6478 39.3037 92.9971 39.9544L90.945 42.1567L88.6425 45.0097L87.191 46.9117C86.0398 48.4633 84.9887 49.9649 83.9877 51.4164L83.6373 51.8669L83.1868 52.5676L81.5851 55.0703L80.6341 56.4217L79.6331 57.9733L78.7321 59.3248L77.7811 60.7262L76.9803 62.0276C76.6299 62.4781 76.3296 62.9786 76.0293 63.4291C75.8253 63.8141 75.591 64.1824 75.3285 64.5302C74.828 65.281 74.3775 65.9818 73.9771 66.6825L73.4766 67.3832L72.5756 68.8348C72.4378 69.0878 72.2697 69.3231 72.0751 69.5355C71.8249 69.986 71.5245 70.3864 71.2743 70.7868L70.8739 71.3874L70.023 72.5887C69.6299 73.2177 69.1951 73.8197 68.7216 74.3906C68.5719 74.5618 68.4379 74.7461 68.3212 74.9412L67.6204 75.742L67.17 76.2926C66.9788 76.5338 66.7605 76.7521 66.5193 76.9433C66.3955 77.1177 66.2432 77.27 66.0688 77.3938C65.8222 77.6831 65.5357 77.9359 65.2179 78.1445L64.8675 78.4949C64.4819 78.8081 64.0621 79.0767 63.6162 79.2958L62.415 79.8964H62.1647L61.2137 80.1967H60.8133H59.9624H57.2095H56.0583H55.4076C54.5066 80.1967 53.6057 79.7963 52.6046 79.496L50.7026 78.9454V133.653L52.905 134.904V80.2468L54.6568 80.7473C55.5943 81.0196 56.5469 81.2369 57.5098 81.398H57.7601H58.1605H59.3117H59.7622H62.3649H62.9655H63.4661H64.2669H64.5672L65.6684 80.8474C66.1629 80.6519 66.6331 80.4 67.0699 80.0966L67.4703 79.7963L68.2711 79.0455L68.5714 78.7452L69.1721 78.0945L69.4223 77.7942L69.6726 77.4939L70.2732 76.7931L70.5735 76.3927L71.8749 74.6409L72.5256 73.6899L73.0261 72.9391L73.877 71.6878L74.3275 70.987L75.3786 69.3853L75.6789 68.8848L77.2305 66.4823L77.5309 65.9818L78.8322 64.0297C78.9974 63.7185 79.1812 63.4177 79.3828 63.1288C79.7832 62.5615 80.1836 61.9609 80.5841 61.3269L81.2347 60.2758L82.4861 58.4739L83.2869 57.3226C83.6873 56.672 84.1378 56.0713 84.5883 55.3706L85.289 54.4196C86.3401 52.9681 87.3912 51.4164 88.5424 49.8648L89.994 47.9628C90.7948 46.9617 91.5456 46.0107 92.2964 45.1599L92.5967 44.8095L94.5988 42.6572L94.9492 42.3068C95.5999 41.6562 96.2505 41.1056 96.8512 40.6051L97.1515 40.3548C97.7495 39.8706 98.3856 39.4354 99.0535 39.0534L100.705 38.3026H100.955C101.456 38.1203 101.977 38.0026 102.507 37.9523C103.022 37.8777 103.544 37.8777 104.059 37.9523C104.59 38.0643 105.098 38.2675 105.56 38.5529L104.009 36.6509Z" fill="#FFEAF5"/>
<path opacity="0.5" d="M99.505 38.4031C106.412 34.3989 111.518 40.0048 115.472 59.1249C117.874 70.8873 126.133 81.2482 145.503 70.1866L147.305 69.0854L149.007 68.0343C165.174 58.7245 165.174 70.0865 165.174 70.637L53.0562 135.155V80.4974C55.0544 81.4973 57.2506 82.0387 59.4847 82.082C61.7187 82.1253 63.9342 81.6694 65.9697 80.7477C71.926 77.3441 75.9803 67.0333 89.1441 49.1645C91.8921 44.9592 95.4069 41.3086 99.505 38.4031Z" fill="url(#paint11_linear)"/>
</g>
<g opacity="0.3">
<path opacity="0.3" d="M62.6162 100.117C64.5182 99.0159 65.319 100.568 65.319 102.82C65.4199 103.959 65.2185 105.105 64.7352 106.142C64.2519 107.179 63.5037 108.071 62.5661 108.726C60.7142 109.827 59.8633 108.376 59.8633 106.023C59.787 104.887 59.9994 103.749 60.4807 102.716C60.9621 101.684 61.6966 100.79 62.6162 100.117ZM62.6162 107.225C63.2669 106.874 63.6172 105.723 63.6172 103.821C63.6172 101.919 63.2669 101.218 62.6162 101.619C61.9655 102.019 61.5651 103.12 61.5651 105.022C61.5651 106.924 61.9655 107.625 62.6162 107.225Z" fill="#FFD2CD"/>
<path opacity="0.3" d="M68.7718 96.5638C70.6738 95.4627 71.4747 97.0143 71.4747 99.2666C71.5665 100.398 71.3608 101.534 70.8778 102.561C70.3949 103.589 69.6516 104.472 68.7218 105.123C66.8698 106.224 66.069 104.772 66.0189 102.42C65.9513 101.291 66.1679 100.164 66.6488 99.1409C67.1298 98.1178 67.8597 97.2317 68.7718 96.5638ZM68.7718 103.671C69.4225 103.321 69.7729 102.17 69.7729 100.268C69.7729 98.3657 69.4225 97.665 68.7718 98.0654C68.1212 98.4658 67.7207 99.567 67.7207 101.469C67.7207 103.371 68.1212 104.072 68.7718 103.671Z" fill="#FFD2CD"/>
<path opacity="0.3" d="M75.0793 93.0101C77.0314 91.9089 77.7822 93.4606 77.7822 95.7129C77.8885 96.8479 77.6948 97.9909 77.2204 99.0274C76.7461 100.064 76.0077 100.958 75.0793 101.619C73.2274 102.67 72.4265 101.269 72.3765 98.9163C72.2946 97.7841 72.4993 96.6494 72.9717 95.6171C73.4441 94.5849 74.1689 93.6883 75.0793 93.0101ZM75.0793 100.118C75.73 99.7672 76.0804 98.616 76.0804 96.714C76.0804 94.812 75.73 94.1113 75.0793 94.5117C74.4286 94.9121 74.0282 96.0133 74.0282 97.9153C74.0282 99.8173 74.4286 100.518 75.0793 100.118Z" fill="#FFD2CD"/>
<path opacity="0.3" d="M82.2366 88.9561V97.2147L80.6349 98.1657V91.6088H80.5848L79.2334 93.1605L78.9331 91.8591L80.8351 89.7569L82.2366 88.9561Z" fill="#FFD2CD"/>
<path opacity="0.3" d="M87.2417 85.9032C89.1937 84.802 89.9445 86.3536 89.9445 88.606C90.0408 89.7399 89.8425 90.8794 89.369 91.9142C88.8955 92.949 88.1627 93.8439 87.2417 94.5122C85.3397 95.5633 84.5388 94.1118 84.5388 91.8094C84.4426 90.6755 84.6408 89.536 85.1143 88.5012C85.5879 87.4664 86.3207 86.5715 87.2417 85.9032ZM87.2417 93.0106C87.9424 92.6102 88.2427 91.5091 88.2427 89.6071C88.2427 87.7051 87.8924 87.0043 87.2417 87.4047C86.591 87.8052 86.1906 88.9063 86.1906 90.8083C86.1906 92.7103 86.591 93.4111 87.2417 93.0106Z" fill="#FFD2CD"/>
<path opacity="0.3" d="M93.3979 82.3496C95.35 81.2485 96.1008 82.75 96.1008 85.0525C96.2071 86.1874 96.0133 87.3304 95.539 88.3669C95.0646 89.4035 94.3263 90.2972 93.3979 90.9587C91.546 92.0098 90.6951 90.5583 90.6951 88.2558C90.5988 87.1219 90.7971 85.9824 91.2706 84.9477C91.7441 83.9129 92.4769 83.018 93.3979 82.3496ZM93.3979 89.4571C94.0486 89.0567 94.399 87.9555 94.3489 86.0535C94.2989 84.1515 93.9985 83.4508 93.3479 83.8512C92.6972 84.2516 92.2968 85.3528 92.3468 87.2548C92.3969 89.1568 92.6972 89.8575 93.3979 89.4571Z" fill="#FFD2CD"/>
<path opacity="0.3" d="M99.5549 78.7944C101.507 77.6933 102.258 79.1949 102.258 81.4973C102.369 82.6328 102.178 83.7775 101.703 84.815C101.228 85.8525 100.487 86.7456 99.5549 87.4035C97.703 88.4546 96.8521 87.0031 96.8521 84.7007C96.7607 83.5673 96.9612 82.4295 97.4343 81.3955C97.9074 80.3616 98.6375 79.4661 99.5549 78.7944ZM99.5549 85.9019C100.206 85.5015 100.556 84.4003 100.556 82.4983C100.556 80.5963 100.106 80.0958 99.5549 80.0958C99.0044 80.0958 98.5038 81.6475 98.5539 83.5495C98.6039 85.4515 98.9043 86.1522 99.605 85.7518L99.5549 85.9019Z" fill="#FFD2CD"/>
<path opacity="0.3" d="M105.712 75.0908C107.664 73.9897 108.415 75.4913 108.415 77.7937C108.527 78.9292 108.335 80.0739 107.861 81.1114C107.386 82.1489 106.645 83.042 105.712 83.6999C103.86 84.751 103.01 83.2995 103.01 80.947C102.927 79.8218 103.132 78.6941 103.604 77.6697C104.077 76.6454 104.803 75.7579 105.712 75.0908ZM105.712 82.1983C106.363 81.7979 106.713 80.6467 106.713 78.7947C106.713 76.9428 106.363 76.192 105.662 76.5424C104.962 76.8927 104.611 78.094 104.661 79.996C104.711 81.898 105.062 82.5487 105.712 82.1983Z" fill="#FFD2CD"/>
<path opacity="0.3" d="M111.918 71.6875C113.82 70.5864 114.571 72.0879 114.621 74.3904C114.677 75.4959 114.454 76.5978 113.973 77.5948C113.492 78.5919 112.768 79.452 111.868 80.0964C110.016 81.1475 109.165 79.6959 109.165 77.3435C109.113 76.2455 109.338 75.1521 109.819 74.1638C110.3 73.1755 111.022 72.324 111.918 71.6875ZM111.918 78.795C112.569 78.3946 112.919 77.2434 112.919 75.3914C112.919 73.5395 112.569 72.7887 111.868 73.139C111.167 73.4894 110.817 74.6907 110.867 76.5927C110.917 78.4947 111.267 79.1454 111.918 78.795Z" fill="#FFD2CD"/>
<path opacity="0.3" d="M118.074 68.1338C119.976 66.9826 120.727 68.5342 120.777 70.8367C120.874 71.9687 120.67 73.1063 120.187 74.1345C119.703 75.1627 118.957 76.0452 118.024 76.6928C116.172 77.794 115.321 76.3425 115.321 73.99C115.234 72.8591 115.442 71.7251 115.925 70.6986C116.407 69.6722 117.148 68.7885 118.074 68.1338ZM118.074 75.2413C118.725 74.8409 119.075 73.6897 119.075 71.8377C119.075 69.9858 118.725 69.1849 118.024 69.5853C117.323 69.9858 117.023 71.0869 117.023 73.039C117.023 74.991 117.423 75.5917 118.074 75.2413Z" fill="#FFD2CD"/>
<path opacity="0.3" d="M125.383 64.0298V72.3385L123.781 73.2895L123.731 66.7326L122.329 68.2843L122.079 66.9829L123.981 64.8306L125.383 64.0298Z" fill="#FFD2CD"/>
<path opacity="0.3" d="M131.539 60.4761V68.7848L129.937 69.7358L129.887 63.1789L128.486 64.7306L128.235 63.4292L130.137 61.2769L131.539 60.4761Z" fill="#FFD2CD"/>
<path opacity="0.3" d="M137.696 56.9229V65.2316L136.094 66.1826L136.044 59.5756V59.6257L134.692 61.1273L134.392 59.876L136.294 57.7237L137.696 56.9229Z" fill="#FFD2CD"/>
<path opacity="0.3" d="M142.7 53.9191C144.652 52.7679 145.403 54.3195 145.403 56.5719C145.509 57.712 145.31 58.8599 144.826 59.8978C144.343 60.9356 143.592 61.8262 142.65 62.4781C140.798 63.5793 139.998 62.1277 139.947 59.7753C139.866 58.645 140.076 57.5127 140.558 56.4871C141.04 55.4615 141.778 54.5772 142.7 53.9191ZM142.7 60.9765C143.351 60.6262 143.701 59.475 143.701 57.573C143.701 55.671 143.351 54.9702 142.7 55.3706C142.05 55.7711 141.649 56.8722 141.649 58.7742C141.649 60.6762 142.05 61.377 142.7 60.9765Z" fill="#FFD2CD"/>
<path opacity="0.3" d="M148.857 50.3153C150.809 49.2141 151.56 50.7657 151.56 53.0181C151.661 54.1525 151.465 55.2938 150.991 56.3294C150.517 57.3651 149.782 58.2594 148.857 58.9243C146.955 60.0255 146.154 58.574 146.104 56.2215C146.028 55.0848 146.24 53.9472 146.721 52.9146C147.203 51.882 147.937 50.9878 148.857 50.3153ZM148.857 57.4228C149.508 57.0724 149.858 55.9212 149.858 54.0192C149.858 52.1172 149.508 51.4164 148.857 51.8169C148.206 52.2173 147.806 53.3184 147.806 55.2204C147.806 57.1224 148.206 57.8232 148.857 57.4228Z" fill="#FFD2CD"/>
<path opacity="0.3" d="M155.165 46.7616C157.117 45.6604 157.867 47.212 157.867 49.4644C157.964 50.5983 157.765 51.7378 157.292 52.7726C156.818 53.8073 156.086 54.7023 155.165 55.3706C153.263 56.4718 152.462 55.0203 152.462 52.6678C152.365 51.5339 152.564 50.3944 153.037 49.3596C153.511 48.3248 154.244 47.4299 155.165 46.7616ZM155.165 53.869C155.815 53.5187 156.216 52.3675 156.166 50.4655C156.116 48.5635 155.815 47.8627 155.165 48.2631C154.514 48.6636 154.113 49.7647 154.163 51.6667C154.214 53.5687 154.514 54.2695 155.165 53.869Z" fill="#FFD2CD"/>
<path opacity="0.3" d="M161.17 43.2079C163.122 42.1067 163.873 43.6583 163.873 45.9107C163.979 47.0457 163.786 48.1886 163.311 49.2252C162.837 50.2617 162.099 51.1555 161.17 51.8169C159.318 52.868 158.467 51.4665 158.467 49.1141C158.381 47.9813 158.583 46.845 159.056 45.8119C159.529 44.7789 160.256 43.8828 161.17 43.2079ZM161.17 50.3153C161.821 49.965 162.171 48.8137 162.171 46.9117C162.171 45.0097 161.821 44.309 161.12 44.7094C160.419 45.1099 160.069 46.211 160.119 48.113C160.169 50.015 160.469 50.7158 161.17 50.3153Z" fill="#FFD2CD"/>
<path opacity="0.3" d="M62.6663 115.433C64.5683 114.332 65.3691 115.884 65.3691 118.136C65.47 119.276 65.2686 120.422 64.7853 121.459C64.302 122.496 63.5538 123.387 62.6162 124.042C60.7643 125.144 59.9134 123.642 59.9134 121.34C59.8276 120.202 60.0357 119.061 60.5178 118.027C60.9998 116.992 61.7397 116.099 62.6663 115.433ZM62.6663 122.541C63.317 122.191 63.6673 121.039 63.6673 119.137C63.6673 117.235 63.317 116.535 62.6162 116.935C61.9155 117.335 61.6152 118.437 61.6152 120.339C61.6152 122.241 62.0156 122.941 62.6663 122.541Z" fill="#FFD2CD"/>
<path opacity="0.3" d="M68.8225 111.88C70.7245 110.779 71.5254 112.331 71.5254 114.583C71.6262 115.723 71.4248 116.869 70.9415 117.906C70.4582 118.943 69.7101 119.834 68.7725 120.489C66.9205 121.54 66.0696 120.089 66.0696 117.786C65.9838 116.649 66.1919 115.508 66.674 114.473C67.1561 113.439 67.8959 112.546 68.8225 111.88ZM68.8225 118.988C69.4732 118.637 69.8236 117.486 69.8236 115.584C69.8236 113.682 69.4732 112.981 68.8225 113.382C68.1718 113.782 67.7714 114.883 67.7714 116.785C67.7714 118.687 68.1718 119.388 68.8225 118.988Z" fill="#FFD2CD"/>
<path opacity="0.3" d="M76.1316 107.826V116.084L74.5299 117.035L74.4799 110.478L73.0784 112.03L72.8281 110.729L74.7301 108.627L76.1316 107.826Z" fill="#FFD2CD"/>
<path opacity="0.3" d="M81.1367 104.773C83.0887 103.672 83.8395 105.223 83.8395 107.476C83.9404 108.615 83.739 109.761 83.2557 110.798C82.7724 111.835 82.0242 112.726 81.0867 113.382C79.2347 114.433 78.4339 112.981 78.3838 110.679C78.3076 109.542 78.52 108.405 79.0013 107.372C79.4826 106.34 80.2171 105.445 81.1367 104.773ZM81.1367 111.88C81.7874 111.48 82.1378 110.379 82.1378 108.477C82.1378 106.575 81.7874 105.874 81.1367 106.224C80.486 106.575 80.0856 107.776 80.0856 109.678C80.0856 111.58 80.486 112.281 81.1367 111.88Z" fill="#FFD2CD"/>
<path opacity="0.3" d="M87.293 101.218C89.245 100.117 89.9958 101.669 89.9958 103.921C90.0921 105.055 89.8938 106.194 89.4203 107.229C88.9467 108.264 88.214 109.159 87.293 109.827C85.391 110.878 84.5901 109.427 84.5401 107.124C84.4638 105.988 84.6762 104.85 85.1575 103.817C85.6388 102.785 86.3734 101.891 87.293 101.218ZM87.293 108.326C87.9436 107.925 88.294 106.824 88.294 104.922C88.294 103.02 87.9436 102.319 87.293 102.67C86.6423 103.02 86.2418 104.221 86.2418 106.123C86.2418 108.025 86.6423 108.676 87.293 108.326Z" fill="#FFD2CD"/>
<path opacity="0.3" d="M93.4495 97.6646C95.4015 96.5634 96.1523 98.065 96.1523 100.367C96.2486 101.501 96.0503 102.641 95.5768 103.676C95.1033 104.71 94.3705 105.605 93.4495 106.274C91.5475 107.325 90.7466 105.873 90.6966 103.521C90.6195 102.391 90.8319 101.26 91.3136 100.236C91.7953 99.2109 92.5304 98.326 93.4495 97.6646ZM93.4495 104.772C94.1502 104.372 94.4505 103.22 94.4505 101.368C94.4505 99.5165 94.1002 98.7657 93.4495 99.1161C92.7988 99.4665 92.3984 100.668 92.3984 102.57C92.3984 104.472 92.7988 105.122 93.4495 104.772Z" fill="#FFD2CD"/>
<path opacity="0.3" d="M100.757 93.5605L100.807 101.869L99.1554 102.82V96.2634H99.1054L97.7539 97.815L97.4536 96.5137L99.3556 94.4114L100.757 93.5605Z" fill="#FFD2CD"/>
<path opacity="0.3" d="M105.761 90.5572C107.713 89.4059 108.464 90.9576 108.464 93.26C108.565 94.3944 108.369 95.5357 107.895 96.5713C107.421 97.6069 106.686 98.5013 105.761 99.1662C103.909 100.217 103.058 98.7658 103.058 96.4133C102.976 95.2881 103.18 94.1604 103.653 93.136C104.126 92.1117 104.851 91.2243 105.761 90.5572ZM105.761 97.6646C106.412 97.2642 106.762 96.113 106.712 94.2611C106.662 92.4091 106.412 91.6083 105.711 92.0087C105.01 92.4091 104.66 93.5103 104.71 95.4623C104.76 97.4144 105.061 98.015 105.761 97.6646Z" fill="#FFD2CD"/>
<path opacity="0.3" d="M111.919 87.0039C113.871 85.8527 114.622 87.4044 114.622 89.7068C114.733 90.8423 114.542 91.987 114.067 93.0245C113.592 94.062 112.851 94.9551 111.919 95.613C110.067 96.6641 109.216 95.2126 109.216 92.8601C109.124 91.7338 109.324 90.6028 109.798 89.5767C110.271 88.5506 111.002 87.6644 111.919 87.0039ZM111.919 94.1114C112.57 93.711 112.92 92.5598 112.92 90.6578C112.92 88.7558 112.57 88.055 111.869 88.4555C111.168 88.8559 110.818 89.957 110.868 91.9091C110.918 93.8612 111.268 94.4618 111.919 94.1114Z" fill="#FFD2CD"/>
<path opacity="0.3" d="M118.125 83.4494C120.027 82.2982 120.778 83.8498 120.778 86.1022C120.9 87.2387 120.714 88.3872 120.238 89.4266C119.762 90.466 119.015 91.3579 118.075 92.0084C116.223 93.1095 115.372 91.658 115.372 89.3055C115.281 88.1741 115.486 87.0383 115.969 86.011C116.452 84.9837 117.195 84.1006 118.125 83.4494ZM118.125 90.5569C118.776 90.1564 119.126 89.0052 119.126 87.1032C119.126 85.2012 118.776 84.5005 118.075 84.9009C117.375 85.3013 117.024 86.4025 117.074 88.3545C117.124 90.3066 117.475 90.9072 118.125 90.5569Z" fill="#FFD2CD"/>
<path opacity="0.3" d="M125.383 79.3462L125.433 87.6549L123.781 88.6059V81.999V82.049L122.379 83.5506L122.079 82.2993L124.031 80.147L125.383 79.3462Z" fill="#FFD2CD"/>
<path opacity="0.3" d="M130.439 76.3425C132.341 75.1912 133.142 76.7429 133.142 78.9952C133.285 80.1675 133.104 81.3567 132.619 82.4334C132.133 83.51 131.362 84.4329 130.389 85.1017C128.537 86.2028 127.686 84.7513 127.686 82.3988C127.557 81.235 127.745 80.0581 128.23 78.9922C128.714 77.9263 129.477 77.0109 130.439 76.3425ZM130.439 83.3999C131.089 83.0495 131.44 81.8983 131.44 79.9963C131.44 78.0943 131.089 77.3936 130.389 77.794C129.688 78.1944 129.388 79.2956 129.388 81.1976C129.388 83.0996 129.788 83.8003 130.439 83.3999Z" fill="#FFD2CD"/>
<path opacity="0.3" d="M136.593 72.7386C138.495 71.6375 139.296 73.1891 139.296 75.4415C139.402 76.5816 139.203 77.7294 138.719 78.7673C138.235 79.8052 137.484 80.6957 136.543 81.3477C134.691 82.4488 133.84 80.9973 133.84 78.6448C133.764 77.5081 133.976 76.3706 134.457 75.338C134.939 74.3053 135.673 73.4112 136.593 72.7386ZM136.593 79.8461C137.243 79.4957 137.594 78.3445 137.594 76.4425C137.594 74.5405 137.243 73.8398 136.593 74.2402C135.942 74.6406 135.542 75.7418 135.542 77.6438C135.542 79.5458 135.942 80.2465 136.593 79.8461Z" fill="#FFD2CD"/>
<path opacity="0.3" d="M142.749 69.1849C144.651 68.0837 145.452 69.6354 145.452 71.8877C145.553 73.0273 145.352 74.1734 144.868 75.2103C144.385 76.2472 143.637 77.1384 142.699 77.794C140.847 78.8951 140.047 77.4436 139.997 75.0911C139.92 73.9544 140.133 72.8169 140.614 71.7842C141.095 70.7516 141.83 69.8575 142.749 69.1849ZM142.749 76.2924C143.4 75.942 143.751 74.7908 143.751 72.8888C143.751 70.9868 143.4 70.2861 142.749 70.6865C142.099 71.0869 141.698 72.1881 141.698 74.0901C141.698 75.9921 142.099 76.6928 142.749 76.2924Z" fill="#FFD2CD"/>
<path opacity="0.3" d="M150.057 65.1309V73.3895L148.455 74.3405V67.7836H148.405L147.054 69.3353L146.753 68.0339L148.655 65.9317L150.057 65.1309Z" fill="#FFD2CD"/>
<path opacity="0.3" d="M155.165 62.078C157.117 60.9768 157.867 62.5284 157.867 64.7808C157.964 65.9147 157.765 67.0542 157.292 68.089C156.818 69.1238 156.086 70.0187 155.165 70.687C153.263 71.7882 152.462 70.2866 152.412 67.9842C152.335 66.8475 152.548 65.7099 153.029 64.6773C153.51 63.6447 154.245 62.7505 155.165 62.078ZM155.165 69.1854C155.815 68.8351 156.166 67.6839 156.166 65.7819C156.166 63.8799 155.815 63.1791 155.165 63.5796C154.514 63.98 154.113 65.0811 154.113 66.9831C154.113 68.8851 154.514 69.5859 155.165 69.1854Z" fill="#FFD2CD"/>
<path opacity="0.3" d="M161.221 58.5243C163.173 57.4231 163.924 58.9747 163.924 61.2271C164.02 62.361 163.822 63.5005 163.348 64.5353C162.875 65.57 162.142 66.465 161.221 67.1333C159.319 68.2345 158.518 66.7329 158.518 64.4305C158.422 63.2966 158.62 62.1571 159.094 61.1223C159.567 60.0875 160.3 59.1926 161.221 58.5243ZM161.221 65.6317C161.872 65.2814 162.222 64.1302 162.222 62.2282C162.222 60.3262 161.872 59.6254 161.221 60.0258C160.57 60.4263 160.17 61.5274 160.17 63.4294C160.17 65.3314 160.57 66.0322 161.221 65.6317Z" fill="#FFD2CD"/>
<path opacity="0.3" d="M129.386 17.6309V25.9396L127.784 26.8906L127.734 20.3337L126.383 21.8853L126.083 20.584L127.985 18.4818L129.386 17.6309Z" fill="#FFD2CD"/>
<path opacity="0.3" d="M135.542 14.0771V22.3859L133.941 23.3369V16.78H133.891L132.539 18.3316L132.239 17.0303L134.141 14.928L135.542 14.0771Z" fill="#FFD2CD"/>
<path opacity="0.3" d="M140.548 11.0742C142.5 9.92303 143.251 11.4747 143.251 13.7771C143.348 14.9039 143.15 16.0367 142.676 17.0636C142.202 18.0906 141.468 18.9762 140.548 19.6332C138.646 20.7344 137.845 19.2829 137.845 16.9304C137.742 15.803 137.938 14.6685 138.413 13.6407C138.887 12.6128 139.623 11.7278 140.548 11.0742ZM140.548 18.1817C141.248 17.7813 141.599 16.6301 141.549 14.7281C141.499 12.8261 141.198 12.1254 140.548 12.5258C139.897 12.9262 139.497 14.0274 139.497 15.9794C139.497 17.9315 139.897 18.5321 140.548 18.1817Z" fill="#FFD2CD"/>
<path opacity="0.3" d="M146.704 7.52019C148.656 6.36898 149.407 7.92061 149.407 10.173C149.519 11.3085 149.327 12.4532 148.852 13.4907C148.378 14.5282 147.636 15.4213 146.704 16.0792C144.852 17.1804 144.001 15.7288 144.001 13.3763C143.909 12.2501 144.109 11.119 144.583 10.093C145.057 9.0669 145.787 8.18065 146.704 7.52019ZM146.704 14.6277C147.355 14.2272 147.705 13.076 147.655 11.174C147.605 9.27203 147.355 8.57129 146.654 8.97172C145.953 9.37214 145.603 10.4733 145.653 12.4253C145.703 14.3774 146.004 14.978 146.704 14.6277Z" fill="#FFD2CD"/>
<path opacity="0.3" d="M152.861 3.96648C154.814 2.81527 155.564 4.3669 155.564 6.61927C155.676 7.75476 155.484 8.89951 155.01 9.93698C154.535 10.9745 153.794 11.8676 152.861 12.5255C151.01 13.6266 150.159 12.1751 150.159 10.0228C150.03 8.86422 150.213 7.69228 150.688 6.62774C151.163 5.56321 151.913 4.64457 152.861 3.96648ZM152.861 11.0239C153.512 10.6735 153.863 9.52232 153.863 7.62032C153.863 5.71832 153.512 5.01758 152.811 5.418C152.111 5.81843 151.76 6.91958 151.81 8.82158C151.86 10.7236 152.161 11.4243 152.861 11.0239Z" fill="#FFD2CD"/>
<path opacity="0.3" d="M159.017 0.362638C160.969 -0.738521 161.72 0.813112 161.72 3.06548C161.837 4.2015 161.648 5.34807 161.173 6.3865C160.697 7.42493 159.953 8.31746 159.017 8.97169C157.165 10.0729 156.314 8.62132 156.314 6.26885C156.228 5.13604 156.43 3.99981 156.903 2.96673C157.376 1.93366 158.103 1.03761 159.017 0.362638ZM159.017 7.47011C159.668 7.11975 160.018 5.96853 160.018 4.06653C160.018 2.16453 159.668 1.4638 158.967 1.86422C158.266 2.26464 157.916 3.3658 157.966 5.2678C158.016 7.1698 158.367 7.87054 159.017 7.47011Z" fill="#FFD2CD"/>
<path opacity="0.3" d="M115.972 40.605C117.874 39.4538 118.625 41.0054 118.675 43.3079C118.766 44.4463 118.56 45.5888 118.077 46.624C117.595 47.6591 116.852 48.5515 115.922 49.2141C114.07 50.2652 113.219 48.8136 113.219 46.4612C113.127 45.3297 113.333 44.1939 113.816 43.1666C114.299 42.1393 115.042 41.2562 115.972 40.605ZM115.972 47.7125C116.623 47.3121 116.973 46.1609 116.973 44.2589C116.973 42.3569 116.623 41.6561 115.922 42.0565C115.221 42.457 114.921 43.5581 114.921 45.5102C114.921 47.4622 115.321 48.0629 115.972 47.7125Z" fill="#FFD2CD"/>
<path opacity="0.3" d="M123.281 36.501V44.8097L121.679 45.7607L121.629 39.2038L120.228 40.7054L119.978 39.4541L121.88 37.3018L123.281 36.501Z" fill="#FFD2CD"/>
<path opacity="0.3" d="M128.285 33.4972C130.187 32.346 130.988 33.8977 130.988 36.15C131.094 37.2902 130.895 38.438 130.411 39.4759C129.928 40.5138 129.177 41.4043 128.235 42.0562C126.383 43.1574 125.532 41.7059 125.532 39.3534C125.451 38.2231 125.661 37.0908 126.143 36.0652C126.625 35.0397 127.363 34.1553 128.285 33.4972ZM128.285 40.6047C128.936 40.2043 129.286 39.0531 129.286 37.1511C129.286 35.2491 128.936 34.5483 128.285 34.9488C127.635 35.3492 127.234 36.4503 127.234 38.3523C127.234 40.2543 127.635 40.9551 128.285 40.6047Z" fill="#FFD2CD"/>
<path opacity="0.3" d="M134.442 30.0436C136.394 28.8924 137.145 30.444 137.145 32.6964C137.251 33.8366 137.052 34.9844 136.568 36.0223C136.084 37.0601 135.333 37.9507 134.392 38.6026C132.54 39.7038 131.739 38.2523 131.689 35.8998C131.607 34.7695 131.817 33.6372 132.3 32.6116C132.782 31.586 133.519 30.7017 134.442 30.0436ZM134.442 37.101C135.093 36.7507 135.443 35.5995 135.443 33.6975C135.443 31.7955 135.093 31.0947 134.442 31.4952C133.791 31.8956 133.391 32.9967 133.391 34.8987C133.391 36.8007 133.791 37.5015 134.442 37.101Z" fill="#FFD2CD"/>
<path opacity="0.3" d="M140.599 26.3903C142.551 25.2391 143.301 26.7907 143.301 29.0431C143.421 30.1937 143.234 31.3554 142.759 32.4103C142.284 33.4651 141.539 34.3757 140.599 35.0494C138.697 36.1506 137.896 34.699 137.846 32.3466C137.746 31.2 137.948 30.0473 138.43 29.0025C138.913 27.9578 139.661 27.0573 140.599 26.3903ZM140.599 33.4477C141.249 33.0974 141.6 31.9461 141.6 30.0441C141.6 28.1421 141.249 27.4414 140.599 27.8418C139.948 28.2423 139.547 29.3434 139.547 31.2454C139.547 33.1474 139.948 33.8481 140.599 33.4477Z" fill="#FFD2CD"/>
<path opacity="0.3" d="M147.907 22.2856V30.5944L146.305 31.4953V24.9384L146.255 24.9885L144.903 26.4901L144.603 25.2388L146.505 23.0865L147.907 22.2856Z" fill="#FFD2CD"/>
<path opacity="0.3" d="M152.91 19.2328C154.862 18.1316 155.613 19.6832 155.613 21.9356C155.71 23.0695 155.511 24.209 155.038 25.2438C154.564 26.2785 153.831 27.1735 152.91 27.8418C151.008 28.943 150.158 27.4914 150.158 25.0389C150.084 23.9168 150.299 22.7946 150.781 21.7786C151.262 20.7626 151.995 19.8863 152.91 19.2328ZM152.91 26.3402C153.561 25.9899 153.962 24.8387 153.911 22.9367C153.861 21.0347 153.561 20.3339 152.91 20.7343C152.26 21.1348 151.859 22.2359 151.909 24.1379C151.959 26.0399 152.26 26.7407 152.91 26.3402Z" fill="#FFD2CD"/>
<path opacity="0.3" d="M159.069 15.679C161.021 14.5779 161.771 16.1295 161.771 18.3819C161.878 19.5168 161.684 20.6598 161.21 21.6964C160.735 22.7329 159.997 23.6266 159.069 24.2881C157.217 25.3893 156.366 23.9377 156.366 21.5853C156.279 20.4524 156.482 19.3162 156.954 18.2831C157.427 17.2501 158.155 16.354 159.069 15.679ZM159.069 22.7865C159.719 22.4362 160.07 21.2849 160.07 19.3829C160.07 17.4809 159.719 16.7802 159.018 17.1806C158.318 17.581 157.967 18.6822 158.017 20.5842C158.067 22.4862 158.368 23.1869 159.069 22.7865Z" fill="#FFD2CD"/>
<path opacity="0.3" d="M109.815 59.4746C111.767 58.3234 112.518 59.8751 112.518 62.1775C112.636 63.3065 112.447 64.4465 111.972 65.4772C111.496 66.5079 110.751 67.3911 109.815 68.0336C107.963 69.1348 107.112 67.6833 107.112 65.3308C107.02 64.2045 107.22 63.0735 107.694 62.0474C108.167 61.0213 108.898 60.1351 109.815 59.4746ZM109.815 66.5821C110.466 66.1817 110.816 65.0305 110.816 63.1285C110.816 61.2265 110.466 60.5257 109.765 60.9262C109.064 61.3266 108.714 62.4277 108.764 64.3798C108.814 66.3318 109.164 66.9325 109.815 66.5821Z" fill="#FFD2CD"/>
<path opacity="0.3" d="M117.174 55.3706V63.6793L115.523 64.6303V58.0234L115.473 58.0734L114.121 59.575L113.821 58.3237L115.773 56.1714L117.174 55.3706Z" fill="#FFD2CD"/>
<path opacity="0.3" d="M123.33 51.8174V60.1261L121.728 61.0771L121.678 54.4702V54.5202L120.277 56.0218L120.026 54.7705L121.928 52.6182L123.33 51.8174Z" fill="#FFD2CD"/>
<path opacity="0.3" d="M128.336 48.763C130.238 47.6619 131.039 49.2135 131.039 51.4659C131.145 52.606 130.946 53.7539 130.462 54.7917C129.979 55.8296 129.228 56.7201 128.286 57.3721C126.434 58.4732 125.583 57.0217 125.583 54.6692C125.497 53.5314 125.706 52.3905 126.188 51.3563C126.67 50.322 127.41 49.429 128.336 48.763ZM128.336 55.8705C128.987 55.5201 129.337 54.3689 129.337 52.4669C129.337 50.5649 128.987 49.8642 128.286 50.2646C127.585 50.665 127.285 51.7662 127.285 53.6682C127.285 55.5702 127.686 56.2709 128.336 55.8705Z" fill="#FFD2CD"/>
<path opacity="0.3" d="M135.642 44.709V53.0177L134.041 53.9187L133.991 47.3618L132.589 48.9134L132.339 47.6621L134.241 45.5098L135.642 44.709Z" fill="#FFD2CD"/>
<path opacity="0.3" d="M141.799 41.1553V49.464L140.197 50.365L140.147 43.8081V43.8581L138.795 45.3597L138.495 44.0583L140.397 41.9561L141.799 41.1553Z" fill="#FFD2CD"/>
<path opacity="0.3" d="M147.955 37.6021V45.8607L146.354 46.8117L146.304 40.2548L144.952 41.8065L144.652 40.5051L146.554 38.4029L147.955 37.6021Z" fill="#FFD2CD"/>
<path opacity="0.3" d="M152.96 34.5492C154.912 33.448 155.663 34.9996 155.663 37.252C155.76 38.3859 155.561 39.5254 155.088 40.5602C154.614 41.5949 153.881 42.4899 152.96 43.1582C151.058 44.2093 150.258 42.7578 150.208 40.4554C150.131 39.3187 150.344 38.1811 150.825 37.1485C151.306 36.1159 152.041 35.2217 152.96 34.5492ZM152.96 41.6566C153.611 41.3063 153.961 40.1551 153.961 38.2531C153.961 36.3511 153.611 35.6503 152.96 36.0507C152.31 36.4512 151.909 37.5523 151.909 39.4543C151.909 41.3563 152.31 42.0571 152.96 41.6566Z" fill="#FFD2CD"/>
<path opacity="0.3" d="M159.117 30.9955C161.069 29.8943 161.82 31.4459 161.82 33.6983C161.916 34.8322 161.718 35.9717 161.244 37.0065C160.77 38.0412 160.038 38.9361 159.117 39.6045C157.215 40.6556 156.414 39.2041 156.414 36.9017C156.318 35.7678 156.516 34.6282 156.989 33.5935C157.463 32.5587 158.196 31.6638 159.117 30.9955ZM159.117 38.1029C159.767 37.7526 160.168 36.6013 160.118 34.6993C160.068 32.7973 159.767 32.0966 159.117 32.497C158.466 32.8974 158.066 33.9986 158.066 35.9006C158.066 37.8026 158.466 38.5033 159.117 38.1029Z" fill="#FFD2CD"/>
</g>
<defs>
<linearGradient id="paint0_linear" x1="75.1792" y1="122.441" x2="248.662" y2="122.441" gradientUnits="userSpaceOnUse">
<stop stop-color="#FFF2C9"/>
<stop offset="1" stop-color="#FFB7BB"/>
</linearGradient>
<linearGradient id="paint1_linear" x1="181.743" y1="124.143" x2="218.381" y2="179.852" gradientUnits="userSpaceOnUse">
<stop stop-color="#FADD8D"/>
<stop offset="0.39" stop-color="#F4A3A8"/>
<stop offset="1" stop-color="#EA3FD6"/>
</linearGradient>
<linearGradient id="paint2_linear" x1="10.5112" y1="181.953" x2="111.918" y2="181.953" gradientUnits="userSpaceOnUse">
<stop stop-color="#B101D0"/>
<stop offset="0.75" stop-color="#790396"/>
<stop offset="1" stop-color="#650482"/>
</linearGradient>
<linearGradient id="paint3_linear" x1="146.84" y1="1921.6" x2="988.83" y2="1921.6" gradientUnits="userSpaceOnUse">
<stop stop-color="#B101D0"/>
<stop offset="0.75" stop-color="#790396"/>
<stop offset="1" stop-color="#650482"/>
</linearGradient>
<linearGradient id="paint4_linear" x1="625.311" y1="1379.49" x2="891.311" y2="1379.49" gradientUnits="userSpaceOnUse">
<stop stop-color="#B101D0"/>
<stop offset="0.75" stop-color="#790396"/>
<stop offset="1" stop-color="#650482"/>
</linearGradient>
<linearGradient id="paint5_linear" x1="47.0483" y1="168.289" x2="25.3755" y2="168.289" gradientUnits="userSpaceOnUse">
<stop stop-color="#31F5DB"/>
<stop offset="1" stop-color="#3CBCE2"/>
</linearGradient>
<linearGradient id="paint6_linear" x1="-5848.37" y1="1971.39" x2="-5687.22" y2="1971.39" gradientUnits="userSpaceOnUse">
<stop stop-color="#31F5DB"/>
<stop offset="1" stop-color="#3CBCE2"/>
</linearGradient>
<linearGradient id="paint7_linear" x1="-13034.4" y1="2010.85" x2="-12314.9" y2="2010.85" gradientUnits="userSpaceOnUse">
<stop stop-color="#31F5DB"/>
<stop offset="1" stop-color="#3CBCE2"/>
</linearGradient>
<linearGradient id="paint8_linear" x1="-826.017" y1="1070.18" x2="-783.765" y2="1367.91" gradientUnits="userSpaceOnUse">
<stop stop-color="#FADD8D"/>
<stop offset="0.39" stop-color="#F4A3A8"/>
<stop offset="1" stop-color="#EA3FD6"/>
</linearGradient>
<linearGradient id="paint9_linear" x1="11671.7" y1="401.649" x2="10980.4" y2="401.649" gradientUnits="userSpaceOnUse">
<stop stop-color="#FADD8D"/>
<stop offset="0.39" stop-color="#F4A3A8"/>
<stop offset="1" stop-color="#EA3FD6"/>
</linearGradient>
<linearGradient id="paint10_linear" x1="12177.1" y1="1455.59" x2="11457.6" y2="1455.59" gradientUnits="userSpaceOnUse">
<stop stop-color="#FADD8D"/>
<stop offset="0.39" stop-color="#F4A3A8"/>
<stop offset="1" stop-color="#EA3FD6"/>
</linearGradient>
<linearGradient id="paint11_linear" x1="1307.66" y1="1319.61" x2="3309.38" y2="2856.57" gradientUnits="userSpaceOnUse">
<stop stop-color="#FFF2C9"/>
<stop offset="1" stop-color="#FFB7BB"/>
</linearGradient>
</defs>
</svg>
