<svg width="248" height="227" viewBox="0 0 248 227" fill="none" xmlns="http://www.w3.org/2000/svg">
<g opacity="0.1">
<path opacity="0.1" d="M0 187.387L54.7436 219.169L181.132 146.194L125.107 113.229L0 187.387Z" fill="black"/>
</g>
<path d="M48.9299 218.134L48.6342 127.124L45.1357 125.104L45.4314 216.113C45.3892 216.53 45.4582 216.95 45.6313 217.331C45.8045 217.711 46.0755 218.04 46.4169 218.281L49.9153 220.302C49.5701 220.063 49.2961 219.736 49.1226 219.354C48.949 218.972 48.8824 218.55 48.9299 218.134Z" fill="#C0C0F6"/>
<path d="M48.6342 127.124L45.1357 125.104V112.786L48.6342 114.855V127.124Z" fill="#C0C0F6"/>
<path d="M181.624 50.3555L48.5835 127.125L48.8791 218.134C48.8791 220.253 50.4066 221.14 52.2298 220.056L178.52 147.179C179.501 146.543 180.32 145.686 180.91 144.676C181.5 143.666 181.846 142.532 181.919 141.365L181.624 50.3555Z" fill="url(#paint0_linear)"/>
<path d="M178.224 36.1645C180.096 35.0805 181.575 36.1645 181.624 38.0862V50.3555L48.5835 127.125V114.855C48.6357 113.689 48.9672 112.552 49.5503 111.54C50.1334 110.528 50.9509 109.671 51.9341 109.041L178.224 36.1645Z" fill="#F0F0F9"/>
<path d="M56.9608 117.664C57.8606 117.084 58.6107 116.299 59.1502 115.375C59.6896 114.45 60.0031 113.411 60.065 112.342C60.065 110.371 58.6854 109.583 56.9608 110.568C56.0646 111.148 55.3198 111.933 54.7884 112.859C54.257 113.785 53.9544 114.824 53.9058 115.89C53.9058 117.861 55.2854 118.649 56.9608 117.664Z" fill="#C0C0F6"/>
<path d="M66.3235 112.243C67.2283 111.672 67.9798 110.889 68.5123 109.962C69.0448 109.034 69.3422 107.99 69.3785 106.921C69.3785 104.999 67.9988 104.211 66.3235 105.196C65.4219 105.763 64.6694 106.537 64.1292 107.455C63.5891 108.372 63.277 109.406 63.2192 110.469C63.2192 112.44 64.6482 113.228 66.3235 112.243Z" fill="#C0C0F6"/>
<path d="M75.4397 106.971C76.3304 106.386 77.0709 105.599 77.6016 104.675C78.1323 103.75 78.4382 102.714 78.4947 101.65C78.4947 99.6788 77.115 98.8904 75.3904 99.8759C74.5051 100.467 73.7687 101.255 73.2387 102.178C72.7087 103.102 72.3995 104.135 72.3354 105.198C72.3354 107.169 73.7151 107.957 75.4397 106.971Z" fill="#C0C0F6"/>
<g opacity="0.5">
<g opacity="0.14">
<path opacity="0.14" d="M19.7098 156.739L13.4027 160.435C13.2029 160.531 12.984 160.581 12.7622 160.581C12.5404 160.581 12.3215 160.531 12.1216 160.435L5.91307 156.739C5.7187 156.627 5.55733 156.465 5.44515 156.27C5.33298 156.076 5.27393 155.855 5.27393 155.63C5.27393 155.406 5.33298 155.185 5.44515 154.991C5.55733 154.796 5.7187 154.634 5.91307 154.522L12.2202 150.876C12.4111 150.752 12.6335 150.687 12.8607 150.687C13.0879 150.687 13.3103 150.752 13.5013 150.876L19.7098 154.522C19.9042 154.634 20.0656 154.796 20.1778 154.991C20.2899 155.185 20.349 155.406 20.349 155.63C20.349 155.855 20.2899 156.076 20.1778 156.27C20.0656 156.465 19.9042 156.627 19.7098 156.739Z" fill="#FDCDE7"/>
</g>
<g opacity="0.29">
<path opacity="0.29" d="M19.7098 149.347L13.5506 152.895C13.3596 153.018 13.1372 153.084 12.91 153.084C12.6828 153.084 12.4604 153.018 12.2694 152.895L5.91307 149.347C5.7187 149.235 5.55733 149.073 5.44515 148.879C5.33298 148.684 5.27393 148.463 5.27393 148.239C5.27393 148.014 5.33298 147.794 5.44515 147.599C5.55733 147.404 5.7187 147.243 5.91307 147.13L12.2202 143.435C12.42 143.338 12.639 143.289 12.8607 143.289C13.0825 143.289 13.3014 143.338 13.5013 143.435L19.7098 147.13C19.9042 147.243 20.0656 147.404 20.1778 147.599C20.2899 147.794 20.349 148.014 20.349 148.239C20.349 148.463 20.2899 148.684 20.1778 148.879C20.0656 149.073 19.9042 149.235 19.7098 149.347Z" fill="#FDCDE7"/>
</g>
<g opacity="0.43">
<path opacity="0.43" d="M19.7098 141.908L13.4027 145.603C13.2118 145.726 12.9894 145.792 12.7622 145.792C12.535 145.792 12.3126 145.726 12.1216 145.603L5.91307 141.908C5.7187 141.795 5.55733 141.633 5.44515 141.439C5.33298 141.244 5.27393 141.024 5.27393 140.799C5.27393 140.574 5.33298 140.354 5.44515 140.159C5.55733 139.964 5.7187 139.803 5.91307 139.69L12.2202 136.044C12.4111 135.921 12.6335 135.855 12.8607 135.855C13.0879 135.855 13.3103 135.921 13.5013 136.044L19.7098 139.69C19.9042 139.803 20.0656 139.964 20.1778 140.159C20.2899 140.354 20.349 140.574 20.349 140.799C20.349 141.024 20.2899 141.244 20.1778 141.439C20.0656 141.633 19.9042 141.795 19.7098 141.908Z" fill="#FDCDE7"/>
</g>
<g opacity="0.57">
<path opacity="0.57" d="M19.7098 134.516L13.5506 138.114C13.3596 138.237 13.1372 138.302 12.91 138.302C12.6828 138.302 12.4604 138.237 12.2694 138.114L5.91307 134.516C5.7187 134.404 5.55733 134.242 5.44515 134.048C5.33298 133.853 5.27393 133.632 5.27393 133.408C5.27393 133.183 5.33298 132.963 5.44515 132.768C5.55733 132.573 5.7187 132.412 5.91307 132.299L12.2202 128.653C12.4111 128.53 12.6335 128.464 12.8607 128.464C13.0879 128.464 13.3103 128.53 13.5013 128.653L19.7098 132.299C19.9042 132.412 20.0656 132.573 20.1778 132.768C20.2899 132.963 20.349 133.183 20.349 133.408C20.349 133.632 20.2899 133.853 20.1778 134.048C20.0656 134.242 19.9042 134.404 19.7098 134.516Z" fill="#FDCDE7"/>
</g>
<g opacity="0.71">
<path opacity="0.71" d="M19.7098 127.125L13.4027 130.772C13.2118 130.895 12.9894 130.96 12.7622 130.96C12.535 130.96 12.3126 130.895 12.1216 130.772L5.91307 127.125C5.7187 127.013 5.55733 126.851 5.44515 126.657C5.33298 126.462 5.27393 126.241 5.27393 126.017C5.27393 125.792 5.33298 125.571 5.44515 125.377C5.55733 125.182 5.7187 125.021 5.91307 124.908L12.2202 121.212C12.4111 121.089 12.6335 121.024 12.8607 121.024C13.0879 121.024 13.3103 121.089 13.5013 121.212L19.7098 124.908C19.9042 125.021 20.0656 125.182 20.1778 125.377C20.2899 125.571 20.349 125.792 20.349 126.017C20.349 126.241 20.2899 126.462 20.1778 126.657C20.0656 126.851 19.9042 127.013 19.7098 127.125Z" fill="#FDCDE7"/>
</g>
<g opacity="0.86">
<path opacity="0.86" d="M19.7098 119.685L13.5506 123.331C13.3507 123.427 13.1318 123.477 12.91 123.477C12.6882 123.477 12.4693 123.427 12.2694 123.331L5.91307 119.685C5.7187 119.572 5.55733 119.411 5.44515 119.216C5.33298 119.022 5.27393 118.801 5.27393 118.576C5.27393 118.352 5.33298 118.131 5.44515 117.936C5.55733 117.742 5.7187 117.58 5.91307 117.468L12.2202 113.821C12.4111 113.698 12.6335 113.633 12.8607 113.633C13.0879 113.633 13.3103 113.698 13.5013 113.821L19.7098 117.468C19.9042 117.58 20.0656 117.742 20.1778 117.936C20.2899 118.131 20.349 118.352 20.349 118.576C20.349 118.801 20.2899 119.022 20.1778 119.216C20.0656 119.411 19.9042 119.572 19.7098 119.685Z" fill="#FDCDE7"/>
</g>
<path opacity="0.5" d="M19.7098 112.293L13.4027 115.94C13.2118 116.063 12.9894 116.128 12.7622 116.128C12.535 116.128 12.3126 116.063 12.1216 115.94L5.91307 112.293C5.7187 112.181 5.55733 112.019 5.44515 111.824C5.33298 111.63 5.27393 111.409 5.27393 111.185C5.27393 110.96 5.33298 110.739 5.44515 110.545C5.55733 110.35 5.7187 110.188 5.91307 110.076L12.2202 106.38C12.42 106.284 12.639 106.234 12.8607 106.234C13.0825 106.234 13.3014 106.284 13.5013 106.38L19.7098 110.076C19.9042 110.188 20.0656 110.35 20.1778 110.545C20.2899 110.739 20.349 110.96 20.349 111.185C20.349 111.409 20.2899 111.63 20.1778 111.824C20.0656 112.019 19.9042 112.181 19.7098 112.293Z" fill="#FDCDE7"/>
</g>
<path d="M19.7098 112.293L13.4027 115.94C13.2118 116.063 12.9894 116.128 12.7622 116.128C12.535 116.128 12.3126 116.063 12.1216 115.94L5.91307 112.293C5.7187 112.181 5.55733 112.019 5.44515 111.824C5.33298 111.63 5.27393 111.409 5.27393 111.185C5.27393 110.96 5.33298 110.739 5.44515 110.545C5.55733 110.35 5.7187 110.188 5.91307 110.076L12.2202 106.38C12.42 106.284 12.639 106.234 12.8607 106.234C13.0825 106.234 13.3014 106.284 13.5013 106.38L19.7098 110.076C19.9042 110.188 20.0656 110.35 20.1778 110.545C20.2899 110.739 20.349 110.96 20.349 111.185C20.349 111.409 20.2899 111.63 20.1778 111.824C20.0656 112.019 19.9042 112.181 19.7098 112.293Z" fill="#FDCDE7"/>
<g opacity="0.5">
<g opacity="0.14">
<path opacity="0.14" d="M200.25 34.6362L194.632 37.8883C194.458 37.9832 194.264 38.0329 194.066 38.0329C193.868 38.0329 193.673 37.9832 193.499 37.8883L187.832 34.6362C187.658 34.5373 187.513 34.394 187.413 34.2209C187.312 34.0478 187.259 33.851 187.259 33.6507C187.259 33.4504 187.312 33.2537 187.413 33.0806C187.513 32.9075 187.658 32.7642 187.832 32.6653L193.45 29.4132C193.623 29.3183 193.818 29.2686 194.016 29.2686C194.214 29.2686 194.409 29.3183 194.583 29.4132L200.25 32.6653C200.424 32.7642 200.569 32.9075 200.669 33.0806C200.77 33.2537 200.823 33.4504 200.823 33.6507C200.823 33.851 200.77 34.0478 200.669 34.2209C200.569 34.394 200.424 34.5373 200.25 34.6362Z" fill="#FFDF75"/>
</g>
<g opacity="0.29">
<path opacity="0.29" d="M200.251 29.7087L194.634 32.9608C194.46 33.0557 194.265 33.1054 194.067 33.1054C193.869 33.1054 193.674 33.0557 193.5 32.9608L187.834 29.7087C187.66 29.6032 187.517 29.4548 187.418 29.2779C187.318 29.101 187.266 28.9015 187.266 28.6986C187.266 28.4956 187.318 28.2961 187.418 28.1192C187.517 27.9423 187.66 27.794 187.834 27.6884L193.451 24.7813C193.617 24.6646 193.815 24.6021 194.018 24.6021C194.22 24.6021 194.418 24.6646 194.584 24.7813L200.251 28.0334C200.367 28.1396 200.461 28.2689 200.524 28.4132C200.588 28.5574 200.621 28.7133 200.621 28.871C200.621 29.0287 200.588 29.1846 200.524 29.3289C200.461 29.4731 200.367 29.6025 200.251 29.7087Z" fill="#FFDF75"/>
</g>
<g opacity="0.43">
<path opacity="0.43" d="M200.25 24.7815L194.632 28.0336C194.458 28.1285 194.264 28.1782 194.066 28.1782C193.868 28.1782 193.673 28.1285 193.499 28.0336L187.832 24.7815C187.658 24.6826 187.513 24.5393 187.413 24.3662C187.312 24.193 187.259 23.9963 187.259 23.796C187.259 23.5957 187.312 23.399 187.413 23.2259C187.513 23.0528 187.658 22.9094 187.832 22.8105L193.45 19.8541C193.623 19.7592 193.818 19.7095 194.016 19.7095C194.214 19.7095 194.409 19.7592 194.583 19.8541L200.25 23.1062C200.366 23.2124 200.459 23.3417 200.523 23.486C200.587 23.6302 200.619 23.7862 200.619 23.9438C200.619 24.1015 200.587 24.2575 200.523 24.4017C200.459 24.5459 200.366 24.6753 200.25 24.7815Z" fill="#FFDF75"/>
</g>
<g opacity="0.57">
<path opacity="0.57" d="M200.25 20.1006L194.632 23.3527C194.458 23.4475 194.264 23.4973 194.066 23.4973C193.868 23.4973 193.673 23.4475 193.499 23.3527L187.832 20.1006C187.658 20.0016 187.513 19.8583 187.413 19.6852C187.312 19.5121 187.259 19.3154 187.259 19.1151C187.259 18.9148 187.312 18.718 187.413 18.5449C187.513 18.3718 187.658 18.2285 187.832 18.1296L193.45 14.9268C193.616 14.8101 193.814 14.7476 194.016 14.7476C194.219 14.7476 194.417 14.8101 194.583 14.9268L200.25 18.1789C200.412 18.2808 200.547 18.4224 200.64 18.5905C200.733 18.7586 200.782 18.9476 200.782 19.1397C200.782 19.3319 200.733 19.5209 200.64 19.6889C200.547 19.857 200.412 19.9987 200.25 20.1006Z" fill="#FFDF75"/>
</g>
<g opacity="0.71">
<path opacity="0.71" d="M200.25 15.2226L194.632 18.4747C194.458 18.5696 194.264 18.6193 194.066 18.6193C193.868 18.6193 193.673 18.5696 193.499 18.4747L187.832 15.2226C187.658 15.1237 187.513 14.9804 187.413 14.8073C187.312 14.6342 187.259 14.4375 187.259 14.2372C187.259 14.0369 187.312 13.8401 187.413 13.667C187.513 13.4939 187.658 13.3506 187.832 13.2517L193.45 9.99958C193.623 9.9047 193.818 9.85498 194.016 9.85498C194.214 9.85498 194.409 9.9047 194.583 9.99958L200.25 13.2517C200.424 13.3506 200.569 13.4939 200.669 13.667C200.77 13.8401 200.823 14.0369 200.823 14.2372C200.823 14.4375 200.77 14.6342 200.669 14.8073C200.569 14.9804 200.424 15.1237 200.25 15.2226Z" fill="#FFDF75"/>
</g>
<g opacity="0.86">
<path opacity="0.86" d="M200.25 10.3934L194.632 13.6455C194.458 13.7404 194.264 13.7901 194.066 13.7901C193.868 13.7901 193.673 13.7404 193.499 13.6455L187.832 10.3934C187.658 10.2945 187.513 10.1512 187.413 9.97806C187.312 9.80495 187.259 9.60822 187.259 9.40791C187.259 9.20761 187.312 9.01088 187.413 8.83777C187.513 8.66466 187.658 8.52134 187.832 8.42243L193.45 5.07178C193.616 4.95516 193.814 4.89258 194.016 4.89258C194.219 4.89258 194.417 4.95516 194.583 5.07178L200.25 8.32388C200.449 8.41314 200.619 8.55836 200.738 8.74198C200.857 8.9256 200.921 9.13978 200.921 9.35864C200.921 9.5775 200.857 9.79167 200.738 9.9753C200.619 10.1589 200.449 10.3041 200.25 10.3934Z" fill="#FFDF75"/>
</g>
<path opacity="0.5" d="M200.25 5.51549L194.632 8.76758C194.458 8.86246 194.264 8.91218 194.066 8.91218C193.868 8.91218 193.673 8.86246 193.499 8.76758L187.832 5.51549C187.658 5.41657 187.513 5.27326 187.413 5.10015C187.312 4.92704 187.259 4.73031 187.259 4.53C187.259 4.3297 187.312 4.13297 187.413 3.95986C187.513 3.78675 187.658 3.64343 187.832 3.54452L193.45 0.144601C193.623 0.0497207 193.818 0 194.016 0C194.214 0 194.409 0.0497207 194.583 0.144601L200.25 3.3967C200.464 3.47835 200.649 3.6234 200.78 3.81261C200.91 4.00182 200.98 4.22624 200.98 4.45609C200.98 4.68595 200.91 4.91037 200.78 5.09958C200.649 5.28879 200.464 5.43384 200.25 5.51549Z" fill="#FFDF75"/>
</g>
<path d="M200.25 5.51549L194.632 8.76758C194.458 8.86246 194.264 8.91218 194.066 8.91218C193.868 8.91218 193.673 8.86246 193.499 8.76758L187.832 5.51549C187.658 5.41657 187.513 5.27326 187.413 5.10015C187.312 4.92704 187.259 4.73031 187.259 4.53C187.259 4.3297 187.312 4.13297 187.413 3.95986C187.513 3.78675 187.658 3.64343 187.832 3.54452L193.45 0.144601C193.623 0.0497207 193.818 0 194.016 0C194.214 0 194.409 0.0497207 194.583 0.144601L200.25 3.3967C200.464 3.47835 200.649 3.6234 200.78 3.81261C200.91 4.00182 200.98 4.22624 200.98 4.45609C200.98 4.68595 200.91 4.91037 200.78 5.09958C200.649 5.28879 200.464 5.43384 200.25 5.51549Z" fill="#F5E981"/>
<g opacity="0.5">
<path opacity="0.5" d="M149.695 104.31V106.625L124.615 121.063V118.747L149.695 104.31Z" fill="#FF61CB"/>
</g>
<g opacity="0.6">
<path opacity="0.6" d="M202.17 80.3135L202.219 96.8203L166.643 117.417L166.594 100.91L202.17 80.3135Z" fill="#FF61CB"/>
</g>
<g opacity="0.5">
<path opacity="0.5" d="M162.949 98.9387L204.881 74.7451V111.405L162.949 135.599V98.9387ZM202.368 96.82V80.3624L166.792 100.91V117.417L202.023 96.82H202.368Z" fill="#FF61CB"/>
</g>
<g opacity="0.5">
<path opacity="0.5" d="M204.881 68.1431V70.9024L162.949 95.1453V92.3367L204.881 68.1431Z" fill="#FF61CB"/>
</g>
<g opacity="0.5">
<path opacity="0.5" d="M149.743 125.103L149.792 141.462L124.712 155.899L124.663 139.54L149.743 125.103Z" fill="#FF61CB"/>
</g>
<g opacity="0.6">
<path opacity="0.6" d="M121.854 104.605L153.833 86.1274V142.448L121.805 160.926L121.854 104.605ZM149.792 141.462V125.103L124.663 139.541V155.9L149.743 141.462H149.792ZM149.792 95.1939V92.878L124.761 107.315V109.631L149.792 95.1939ZM149.792 106.625V104.31L124.712 118.747V121.063L149.792 106.625ZM149.792 111.799V109.483L124.712 123.97V126.286L149.743 111.799H149.792ZM149.792 100.368V98.0518L124.761 112.538V114.805L149.792 100.368Z" fill="#FF61CB"/>
</g>
<g opacity="0.7">
<path opacity="0.7" d="M118.503 95.0462L208.724 42.9634V113.77L118.701 165.853L118.503 95.0462ZM154.03 142.448V86.1276L121.854 104.605V160.926L153.882 142.448H154.03ZM204.98 111.405V74.7452L163.047 98.9388V135.599L204.98 111.405ZM204.98 53.5573V47.3488L120.622 95.9331V102.191L204.783 53.5573H204.98ZM204.98 59.4702V56.7109L163.047 80.9045V83.9102L204.832 59.2731L204.98 59.4702ZM204.98 64.6933V61.8847L162.998 86.1276V88.8376L204.93 64.644L204.98 64.6933ZM204.98 70.9018V68.1425L163.047 92.3361V95.1447L204.98 70.9018Z" fill="#FF61CB"/>
</g>
<g opacity="0.5">
<path opacity="0.5" d="M204.88 61.8848V64.6934L162.898 88.887V86.1277L204.88 61.8848Z" fill="#FF61CB"/>
</g>
<g opacity="0.5">
<path opacity="0.5" d="M121.855 99.7766L167.581 73.3656V70.4092L121.855 96.8201V99.7766Z" fill="#FF61CB"/>
</g>
<g opacity="0.5">
<path opacity="0.5" d="M204.833 53.5567V47.3481L120.623 95.9325V102.19L204.833 53.5567ZM203.157 49.8611V52.8176L185.074 63.2637V60.3073L203.157 49.8611ZM167.532 70.4085V73.3649L121.806 99.7759V96.8194L167.532 70.4085Z" fill="#FF61CB"/>
</g>
<g opacity="0.5">
<path opacity="0.5" d="M203.155 49.8613V52.8178L185.072 63.2639V60.3075L203.155 49.8613Z" fill="#FF61CB"/>
</g>
<g opacity="0.5">
<path opacity="0.5" d="M204.831 56.7109V59.4703L162.898 83.6639V80.9046L204.831 56.7109Z" fill="#FF61CB"/>
</g>
<g opacity="0.5">
<path opacity="0.5" d="M149.695 109.483V111.799L124.664 126.286L124.615 123.97L149.695 109.483Z" fill="#FF61CB"/>
</g>
<g opacity="0.5">
<path opacity="0.5" d="M149.646 98.0513V100.367L124.615 114.804V112.538L149.646 98.0513Z" fill="#FF61CB"/>
</g>
<g opacity="0.5">
<path opacity="0.5" d="M149.646 92.8774V95.1933L124.615 109.631V107.315L149.646 92.8774Z" fill="#FF61CB"/>
</g>
<g opacity="0.5">
<path opacity="0.5" d="M100.224 61.7866V64.2996L72.8765 80.0673V77.5544L100.224 61.7866Z" fill="#FF61CB"/>
<path opacity="0.5" d="M100.274 84.5024L100.324 102.34L72.9765 118.107L72.9272 100.27L100.274 84.5024Z" fill="#FF61CB"/>
<g opacity="0.6">
<path opacity="0.6" d="M69.8716 62.1312L104.758 41.978L104.955 103.62L70.0194 123.773L69.8716 62.1312ZM100.323 102.339V84.5017L72.9759 100.269V118.107L100.323 102.339ZM100.323 51.8329V49.4184L72.9759 65.2354V67.7484L100.323 51.9807V51.8329ZM100.323 64.2992V61.7863L72.9759 77.554V80.067L100.224 64.2007L100.323 64.2992ZM100.323 69.9658V67.4528L72.9759 83.2698V85.7828L100.323 69.9658ZM100.323 57.4994V54.9864L72.9759 70.7542V73.2671L100.323 57.4994Z" fill="#FF61CB"/>
</g>
<path opacity="0.5" d="M108.404 36.5088L68.5415 59.2735V52.6707L108.404 29.709V27.3931L66.2749 51.6852L66.5213 128.947L108.404 104.803V36.5088ZM69.9705 62.1314L104.857 41.9782L104.955 103.62L70.0197 123.773L69.9705 62.1314Z" fill="#FF61CB"/>
<path opacity="0.5" d="M108.306 31.3848L69.8232 53.6074V56.8102L108.306 34.6369V31.3848Z" fill="#FF61CB"/>
<path opacity="0.5" d="M108.307 34.6364L69.8236 56.8098V53.607L108.307 31.3843V29.709L68.4932 52.6707L68.5424 59.4706L108.307 36.5088V34.6364Z" fill="#FF61CB"/>
<path opacity="0.5" d="M100.224 67.4526V69.9656L72.8765 85.7826V83.2204L100.224 67.4526Z" fill="#FF61CB"/>
<path opacity="0.5" d="M100.176 54.9873V57.5003L72.8779 73.268L72.8286 70.755L100.176 54.9873Z" fill="#FF61CB"/>
<path opacity="0.5" d="M100.176 49.2705V51.8328L72.8286 67.6005V65.0875L100.176 49.2705Z" fill="#FF61CB"/>
</g>
<g opacity="0.5">
<g opacity="0.5">
<path opacity="0.5" d="M98.2048 150.924V167.431L62.6289 187.978L62.5796 171.471L98.2048 150.924Z" fill="#FF61CB"/>
<g opacity="0.6">
<path opacity="0.6" d="M59.1294 169.549L101.062 145.306V181.966L59.1294 206.209V169.549ZM98.5487 167.43V150.923L62.5786 171.471V187.978L98.2038 167.677L98.5487 167.43Z" fill="#FF61CB"/>
</g>
<path opacity="0.5" d="M100.864 138.752V141.511L58.9321 165.705V162.946L100.864 138.752Z" fill="#FF61CB"/>
<g opacity="0.7">
<path opacity="0.7" d="M56.7139 143.384L101.061 117.91V124.168L56.7139 149.642V212.023L104.904 184.183V113.426L56.911 141.118L56.7139 143.384ZM101.061 181.966L59.1283 206.209V169.549L101.061 145.306V181.966ZM101.061 141.512L59.1283 165.706V162.749L101.061 138.556V141.512ZM101.061 135.254L59.1283 159.497V156.689L101.11 132.495L101.061 135.254ZM101.061 130.08L59.1283 154.274V151.515L101.061 127.272V130.08Z" fill="#FF61CB"/>
</g>
<path opacity="0.5" d="M100.865 132.496V135.255L58.9331 159.498L58.8838 156.689L100.865 132.496Z" fill="#FF61CB"/>
<path opacity="0.5" d="M100.815 117.909L56.4683 143.384V149.642L100.815 124.167V117.909ZM81.1053 133.825V130.918L99.189 120.471V123.329L81.1053 133.825Z" fill="#FF61CB"/>
<path opacity="0.5" d="M99.1408 120.472V123.379L81.0571 133.874V130.918L99.1408 120.472Z" fill="#FF61CB"/>
<path opacity="0.5" d="M100.816 127.272V130.081L58.8838 154.274V151.515L100.816 127.272Z" fill="#FF61CB"/>
</g>
</g>
<g opacity="0.7">
<g opacity="0.7">
<g opacity="0.14">
<path opacity="0.14" d="M247.306 150.284L243.019 152.846C242.892 152.919 242.748 152.958 242.601 152.958C242.454 152.958 242.309 152.919 242.182 152.846L237.796 150.431C237.664 150.353 237.553 150.241 237.477 150.107C237.401 149.973 237.36 149.822 237.36 149.668C237.36 149.513 237.401 149.362 237.477 149.228C237.553 149.094 237.664 148.982 237.796 148.904L242.034 146.342C242.17 146.268 242.323 146.23 242.477 146.23C242.632 146.23 242.785 146.268 242.921 146.342L247.257 148.756C247.392 148.83 247.506 148.938 247.587 149.07C247.668 149.201 247.713 149.352 247.718 149.506C247.723 149.66 247.688 149.813 247.615 149.949C247.543 150.086 247.437 150.201 247.306 150.284Z" fill="#A8FEFD"/>
</g>
<g opacity="0.29">
<path opacity="0.29" d="M247.208 143.04L242.97 145.603C242.834 145.676 242.681 145.714 242.527 145.714C242.372 145.714 242.219 145.676 242.083 145.603L237.698 143.188C237.565 143.11 237.455 142.998 237.378 142.864C237.302 142.73 237.262 142.579 237.262 142.425C237.262 142.27 237.302 142.119 237.378 141.985C237.455 141.851 237.565 141.739 237.698 141.661L241.935 139.099C242.072 139.025 242.224 138.987 242.379 138.987C242.534 138.987 242.686 139.025 242.822 139.099L247.208 141.513C247.34 141.591 247.45 141.703 247.527 141.837C247.603 141.971 247.644 142.122 247.644 142.277C247.644 142.431 247.603 142.582 247.527 142.716C247.45 142.85 247.34 142.962 247.208 143.04Z" fill="#A7FDFC"/>
</g>
<g opacity="0.43">
<path opacity="0.43" d="M247.108 136.092L242.871 138.654C242.734 138.727 242.582 138.766 242.427 138.766C242.272 138.766 242.12 138.727 241.984 138.654L237.647 136.24C237.515 136.161 237.405 136.049 237.328 135.916C237.252 135.782 237.211 135.63 237.211 135.476C237.211 135.322 237.252 135.17 237.328 135.036C237.405 134.902 237.515 134.79 237.647 134.712L241.885 132.15C242.021 132.076 242.174 132.038 242.328 132.038C242.483 132.038 242.636 132.076 242.772 132.15L247.157 134.564C247.288 134.647 247.394 134.762 247.467 134.898C247.539 135.035 247.574 135.188 247.569 135.342C247.564 135.496 247.519 135.647 247.438 135.778C247.357 135.91 247.244 136.018 247.108 136.092Z" fill="#A6FCFB"/>
</g>
<g opacity="0.57">
<path opacity="0.57" d="M247.059 128.997L242.772 131.559C242.645 131.632 242.5 131.671 242.353 131.671C242.206 131.671 242.062 131.632 241.934 131.559L237.549 129.144C237.416 129.066 237.306 128.954 237.229 128.82C237.153 128.686 237.113 128.535 237.113 128.381C237.113 128.226 237.153 128.075 237.229 127.941C237.306 127.807 237.416 127.695 237.549 127.617L241.836 125.055C241.972 124.981 242.124 124.943 242.279 124.943C242.434 124.943 242.586 124.981 242.723 125.055L247.059 127.469C247.192 127.547 247.302 127.659 247.378 127.793C247.455 127.927 247.495 128.079 247.495 128.233C247.495 128.387 247.455 128.539 247.378 128.672C247.302 128.806 247.192 128.918 247.059 128.997Z" fill="#A4FAF9"/>
</g>
<g opacity="0.71">
<path opacity="0.71" d="M246.96 121.901L242.722 124.464C242.586 124.537 242.434 124.575 242.279 124.575C242.124 124.575 241.972 124.537 241.836 124.464L237.45 122.049C237.317 121.971 237.207 121.859 237.131 121.725C237.054 121.591 237.014 121.44 237.014 121.285C237.014 121.131 237.054 120.98 237.131 120.846C237.207 120.712 237.317 120.6 237.45 120.522L241.688 117.959C241.824 117.886 241.976 117.848 242.131 117.848C242.286 117.848 242.438 117.886 242.575 117.959L246.911 120.374C247.046 120.448 247.16 120.556 247.241 120.687C247.322 120.819 247.367 120.969 247.372 121.123C247.377 121.278 247.341 121.431 247.269 121.567C247.197 121.703 247.09 121.819 246.96 121.901Z" fill="#A3F9F8"/>
</g>
<g opacity="0.86">
<path opacity="0.86" d="M246.862 114.806L242.625 117.368C242.489 117.442 242.336 117.48 242.181 117.48C242.027 117.48 241.874 117.442 241.738 117.368L237.402 114.954C237.269 114.875 237.159 114.764 237.082 114.63C237.006 114.496 236.966 114.344 236.966 114.19C236.966 114.036 237.006 113.884 237.082 113.75C237.159 113.616 237.269 113.505 237.402 113.426L241.639 110.864C241.776 110.791 241.928 110.752 242.083 110.752C242.238 110.752 242.39 110.791 242.526 110.864L246.912 113.279C247.042 113.361 247.149 113.476 247.221 113.613C247.293 113.749 247.329 113.902 247.324 114.056C247.319 114.211 247.273 114.361 247.193 114.492C247.112 114.624 246.998 114.732 246.862 114.806Z" fill="#A2F8F7"/>
</g>
<path opacity="0.7" d="M246.813 107.71L242.526 110.273C242.39 110.346 242.238 110.384 242.083 110.384C241.928 110.384 241.776 110.346 241.639 110.273L237.303 107.858C237.17 107.78 237.06 107.668 236.984 107.534C236.907 107.4 236.867 107.249 236.867 107.094C236.867 106.94 236.907 106.789 236.984 106.655C237.06 106.521 237.17 106.409 237.303 106.331L241.442 103.621C241.57 103.547 241.714 103.508 241.861 103.508C242.008 103.508 242.153 103.547 242.28 103.621L246.665 106.084C246.853 106.11 247.027 106.198 247.158 106.335C247.289 106.472 247.369 106.65 247.387 106.838C247.404 107.027 247.356 107.216 247.252 107.375C247.148 107.533 246.993 107.651 246.813 107.71Z" fill="#A1F7F6"/>
</g>
</g>
<g opacity="0.8">
<path opacity="0.8" d="M246.764 107.71L242.526 110.272C242.39 110.345 242.238 110.384 242.083 110.384C241.928 110.384 241.776 110.345 241.639 110.272L237.303 107.858C237.17 107.779 237.06 107.667 236.984 107.534C236.907 107.4 236.867 107.248 236.867 107.094C236.867 106.94 236.907 106.788 236.984 106.654C237.06 106.52 237.17 106.408 237.303 106.33L241.442 103.62C241.579 103.547 241.731 103.508 241.886 103.508C242.04 103.508 242.193 103.547 242.329 103.62L246.715 106.084C246.898 106.123 247.063 106.222 247.182 106.366C247.302 106.51 247.371 106.69 247.376 106.877C247.382 107.065 247.325 107.248 247.214 107.399C247.103 107.55 246.944 107.66 246.764 107.71Z" fill="#A2F8F7"/>
</g>
<path opacity="0.6" d="M127.621 31.9749V33.6995L125.847 34.6357V32.8618C125.847 31.1372 125.256 30.4474 123.925 31.2358C123.271 31.6409 122.741 32.2185 122.393 32.9052C122.045 33.5919 121.894 34.3611 121.954 35.1284V45.3282C121.954 47.0528 122.595 47.7426 123.925 46.9542C124.571 46.5429 125.091 45.9626 125.43 45.2763C125.769 44.5901 125.913 43.8241 125.847 43.0616V40.5486L127.621 39.5631V41.9776C127.692 43.3741 127.381 44.7637 126.721 45.9967C126.061 47.2296 125.078 48.2592 123.876 48.9745C121.314 50.4527 120.131 48.9745 120.131 46.3137V36.4588C120.049 35.0606 120.355 33.6668 121.016 32.4318C121.677 31.1968 122.667 30.1689 123.876 29.4619C126.438 27.7866 127.621 29.0677 127.621 31.9749Z" fill="url(#paint1_linear)"/>
<path opacity="0.6" d="M136.54 26.8015V27.2943L134.766 28.329V27.6885C134.766 25.9639 134.224 25.274 132.894 26.0624C132.244 26.4449 131.718 27.0056 131.377 27.6781C131.037 28.3506 130.896 29.1066 130.972 29.8565C130.972 34.1927 136.589 31.384 136.589 36.8042C136.677 38.1742 136.394 39.5425 135.77 40.7652C135.145 41.9878 134.203 43.0195 133.042 43.7519C130.479 45.2301 129.297 44.0475 129.297 41.1403V40.007L131.071 39.0215V40.2041C131.071 41.978 131.662 42.6186 132.992 41.8302C133.647 41.4373 134.178 40.8691 134.527 40.1899C134.875 39.5107 135.026 38.7475 134.963 37.9868C134.963 33.6999 129.395 36.5086 129.395 31.0884C129.307 29.7072 129.6 28.3283 130.243 27.1028C130.887 25.8773 131.855 24.8525 133.042 24.1407C135.358 22.6625 136.54 23.8944 136.54 26.8015Z" fill="url(#paint2_linear)"/>
<path opacity="0.6" d="M145.41 21.677V22.1698L143.636 23.2045V22.564C143.636 20.8394 143.094 20.1495 141.763 20.9379C141.114 21.3204 140.587 21.8811 140.247 22.5536C139.906 23.226 139.766 23.9821 139.842 24.732C139.842 29.0682 145.459 26.2595 145.459 31.6797C145.52 33.0803 145.199 34.4711 144.531 35.7035C143.862 36.9359 142.872 37.9636 141.665 38.6766C139.103 40.1056 137.92 38.6766 137.92 36.0158V34.8825L139.694 33.897V35.1289C139.694 36.8535 140.285 37.494 141.615 36.7057C142.27 36.3128 142.801 35.7446 143.15 35.0654C143.498 34.3862 143.649 33.623 143.586 32.8623C143.586 28.5754 138.018 31.384 138.018 25.9639C137.935 24.5778 138.236 23.1956 138.888 21.9696C139.54 20.7437 140.518 19.7216 141.714 19.0162C144.227 17.538 145.41 18.7699 145.41 21.677Z" fill="url(#paint3_linear)"/>
<path opacity="0.6" d="M7.9824 183.985L5.17377 193.84L3.3999 194.875L6.79982 183L3.64627 175.51L5.56797 174.426L8.13022 180.635L10.7418 171.421L12.4664 170.435L9.36208 181.571L12.7127 189.553L10.7418 190.687L7.9824 183.985Z" fill="url(#paint4_linear)"/>
<path opacity="0.6" d="M20.3497 185.119L18.5758 186.154L15.7672 172.603V187.977L14.1904 188.913V169.45L16.7527 167.972L19.7091 181.768L22.3699 164.818L24.9322 163.34V182.458L23.1583 183.493V168.119L20.3497 185.119Z" fill="url(#paint5_linear)"/>
<path opacity="0.6" d="M26.6582 181.473V162.256L28.5306 161.172V178.467L33.458 175.708V177.531L26.6582 181.473Z" fill="url(#paint6_linear)"/>
<path opacity="0.6" d="M12.4178 86.3244V94.9966L10.5454 96.0807V76.8145L12.4178 75.7304V84.4027L16.5076 82.0375V73.3653L18.3307 72.2812V91.5474L16.5076 92.6315V83.91L12.4178 86.3244Z" fill="url(#paint7_linear)"/>
<path opacity="0.6" d="M22.7157 88.8382V71.74L19.71 73.5139V71.5429L27.7417 66.9604V69.1285L24.6374 70.656V88.0005L22.7157 88.8382Z" fill="url(#paint8_linear)"/>
<path opacity="0.6" d="M35.085 81.89L33.2619 82.9248L30.5025 69.128V84.5016L28.8765 85.4378V66.2208L31.488 64.6933L34.4937 78.4901L37.1053 61.5891L39.7168 60.1108V79.377L37.9429 80.3625V64.8904L35.085 81.89Z" fill="url(#paint9_linear)"/>
<path opacity="0.6" d="M41.3896 78.2438V58.9776L43.2621 57.9429V75.2381L48.1895 72.4788V74.4497L41.3896 78.2438Z" fill="url(#paint10_linear)"/>
<path opacity="0.6" d="M197.737 162.404L190.346 163.143V161.615L197.737 153.83V155.407L192.169 161.369L197.835 160.827L197.737 162.404Z" fill="url(#paint11_linear)"/>
<path opacity="0.6" d="M207.247 143.04L200.693 166.1L199.067 167.036L205.67 143.976L207.247 143.04Z" fill="url(#paint12_linear)"/>
<path opacity="0.6" d="M208.626 154.52L214.243 148.558L208.626 149.149V147.573L216.017 146.784V148.361L208.626 156.097V154.52Z" fill="url(#paint13_linear)"/>
<g opacity="0.5">
<path opacity="0.5" d="M148.118 92.4839C151.617 90.4636 154.474 92.0404 154.474 96.0809C154.362 98.2728 153.731 100.407 152.635 102.308C151.539 104.209 150.008 105.824 148.167 107.02C144.669 109.04 141.811 107.463 141.762 103.423C141.884 101.227 142.523 99.092 143.628 97.191C144.733 95.2899 146.271 93.677 148.118 92.4839Z" fill="#B53892"/>
</g>
<g opacity="0.5">
<path opacity="0.5" d="M148.118 95.2921C150.385 93.9617 152.208 94.9964 152.257 97.608C152.178 99.0339 151.762 100.421 151.042 101.654C150.323 102.888 149.321 103.933 148.118 104.703C145.851 106.034 144.028 104.999 144.028 102.388C144.102 100.966 144.51 99.582 145.221 98.3487C145.932 97.1155 146.925 96.068 148.118 95.2921Z" fill="#B53892"/>
</g>
<g opacity="0.5">
<path opacity="0.5" d="M148.118 98.0029C149.202 97.4117 150.04 98.0029 150.04 99.1362C150.012 99.8014 149.823 100.45 149.488 101.025C149.153 101.6 148.683 102.085 148.118 102.438C147.083 103.078 146.196 102.438 146.196 101.354C146.228 100.683 146.419 100.029 146.753 99.4466C147.087 98.864 147.555 98.3692 148.118 98.0029Z" fill="#B53892"/>
</g>
<g opacity="0.5">
<path opacity="0.5" d="M127.126 117.811C130.625 115.791 133.433 117.417 133.483 121.457C133.365 123.654 132.727 125.79 131.622 127.692C130.517 129.594 128.976 131.206 127.126 132.396C123.628 134.416 120.77 132.79 120.77 128.75C120.888 126.554 121.526 124.417 122.631 122.515C123.736 120.613 125.277 119.001 127.126 117.811Z" fill="#B53892"/>
</g>
<g opacity="0.5">
<path opacity="0.5" d="M127.127 120.619C129.394 119.289 131.217 120.373 131.217 122.984C131.14 124.405 130.729 125.788 130.019 127.02C129.309 128.253 128.318 129.301 127.127 130.08C124.861 131.361 123.038 130.326 122.988 127.715C123.075 126.291 123.494 124.907 124.213 123.674C124.932 122.442 125.93 121.396 127.127 120.619Z" fill="#B53892"/>
</g>
<g opacity="0.5">
<path opacity="0.5" d="M127.126 123.33C128.161 122.69 129.047 123.33 129.047 124.414C129.016 125.085 128.825 125.739 128.491 126.321C128.156 126.904 127.689 127.399 127.126 127.765C126.042 128.356 125.204 127.765 125.204 126.632C125.223 125.965 125.409 125.313 125.744 124.736C126.08 124.16 126.555 123.676 127.126 123.33Z" fill="#B53892"/>
</g>
<path d="M162.604 221.19C162.604 221.19 164.526 224.343 161.816 225.082C159.106 225.821 159.943 224.146 154.03 225.624C148.118 227.102 148.807 223.801 149.103 223.111C149.399 222.421 151.813 221.485 153.143 221.14L159.598 219.613L162.752 220.204L162.604 221.19Z" fill="#111114"/>
<path d="M153.834 107.119C153.662 105.457 153.366 103.81 152.947 102.192C152.503 101.403 150.729 98.0528 147.674 97.5601C146.048 97.2644 146.984 98.989 148.463 100.911C148.937 101.294 149.298 101.799 149.506 102.372C149.715 102.945 149.763 103.564 149.645 104.163C149.56 105.645 149.744 107.131 150.187 108.548C150.483 109.484 153.834 107.119 153.834 107.119Z" fill="#EFB185"/>
<path d="M150.089 108.547C149.839 107.135 149.408 105.761 148.808 104.458C147.872 103.127 149.203 101.994 148.463 101.107C147.724 100.22 146.492 98.1999 146.985 97.8057C147.774 98.9882 149.745 98.6433 150.779 102.29C151.169 104.351 151.302 106.453 151.174 108.547C150.434 108.547 150.188 108.547 150.089 108.547Z" fill="#E6A376"/>
<path d="M151.321 108.203C151.321 108.203 148.463 104.508 147.773 103.276C147.083 102.044 147.083 100.861 147.428 100.96C147.773 101.058 150.04 104.606 151.025 103.522C152.011 102.438 151.025 107.563 151.321 108.203Z" fill="#EFB185"/>
<path d="M179.604 125.597C179.604 125.597 179.259 130.771 172.706 128.948C166.152 127.125 154.425 122.395 152.996 119.093C151.67 115.308 150.665 111.418 149.99 107.465C149.99 107.465 153.144 108.499 154.326 105.937L159.5 116.432C159.5 116.432 179.949 122 179.604 125.597Z" fill="#9DBCC9"/>
<path d="M179.604 125.598C179.949 122.001 159.402 116.58 159.402 116.58L154.228 106.085C154.064 106.483 153.81 106.838 153.485 107.12C153.16 107.403 152.773 107.605 152.355 107.711C152.946 111.069 153.837 114.367 155.016 117.566C156.544 120.719 168.32 125.499 174.726 127.421C176.12 127.866 177.619 127.866 179.013 127.421C179.34 126.863 179.542 126.241 179.604 125.598Z" fill="#CAE0EA"/>
<path d="M169.058 209.363C169.058 209.363 166.595 209.757 167.186 211.186C167.777 212.615 170.586 214.734 170.98 215.621C171.374 216.508 173.641 219.711 174.38 219.415C175.119 219.12 177.09 219.415 176.844 215.917C176.511 214.089 175.552 212.435 174.131 211.239C172.71 210.042 170.916 209.379 169.058 209.363Z" fill="#111114"/>
<path d="M176.597 161.42C176.597 161.42 176.597 182.509 176.597 184.874C176.597 187.24 179.258 206.013 177.632 214.193C177.083 214.796 176.413 215.279 175.666 215.609C174.92 215.939 174.112 216.109 173.296 216.109C172.48 216.109 171.672 215.939 170.926 215.609C170.179 215.279 169.51 214.796 168.96 214.193C168.96 214.193 167.679 190.738 166.496 185.416C165.722 178.3 165.459 171.137 165.708 163.982L176.597 161.42Z" fill="#09294F"/>
<path d="M168.517 164.425C168.517 164.425 167.482 178.024 166.398 191.575C166.398 191.575 165.709 218.38 165.068 222.223C165.068 222.223 156.396 224.391 155.558 220.301C155.558 220.301 155.558 196.699 155.558 191.772C154.923 182.868 155.336 173.921 156.79 165.114C158.712 157.181 168.517 164.425 168.517 164.425Z" fill="#09294F"/>
<path d="M165.069 222.224C165.71 218.38 166.399 191.575 166.399 191.575C167.089 182.46 167.828 173.295 168.223 168.318L162.852 169.599C160.226 177.754 159.124 186.323 159.6 194.877C160.043 206.604 160.24 218.183 160.289 222.815C161.899 222.789 163.501 222.591 165.069 222.224Z" fill="#16365C"/>
<path d="M177.683 214.192C179.309 206.013 176.648 187.289 176.648 184.874C176.648 182.46 176.648 163.391 176.648 161.567L172.016 165.115C171.219 172.995 171.219 180.936 172.016 188.816C173.347 196.651 172.46 211.876 173.1 216.212C174.816 216.093 176.437 215.378 177.683 214.192Z" fill="#16365C"/>
<path d="M178.076 123.774C178.076 123.774 182.264 125.843 179.899 132.89C177.98 137.444 176.671 142.232 176.006 147.13C176.321 151.575 176.88 156 177.682 160.384C177.682 160.384 178.371 166.15 165.117 169.599C165.117 169.599 154.227 170.732 156.001 163.538C157.556 156.468 158.3 149.244 158.218 142.005C157.442 139.744 157.514 137.279 158.42 135.067C159.326 132.855 161.006 131.048 163.146 129.982C170.093 126.237 173.69 123.33 178.076 123.774Z" fill="#CAE0EA"/>
<path d="M175.02 124.069C170.878 125.61 166.913 127.593 163.195 129.982C161.055 131.048 159.375 132.855 158.469 135.067C157.562 137.278 157.491 139.744 158.267 142.005C158.349 149.244 157.605 156.468 156.05 163.538C154.621 169.303 161.371 169.746 164.081 169.697C176.203 161.222 175.119 139.295 175.02 124.069Z" fill="#CAE0EA"/>
<path d="M173.15 120.571C172.906 122.763 173.211 124.981 174.037 127.026C175.318 129.292 165.956 131.313 165.759 129.243C166.233 128.001 166.435 126.672 166.35 125.346C166.265 124.02 165.895 122.727 165.267 121.556C164.084 119.438 173.15 120.571 173.15 120.571Z" fill="#EFB185"/>
<path d="M173.986 127.173C173.22 125.353 172.899 123.377 173.05 121.408L166.25 124.808C166.25 124.808 171.177 126.04 172.114 129.341C173.493 128.75 174.479 127.962 173.986 127.173Z" fill="#DD9569"/>
<path d="M163.344 110.026C162.501 112.157 162.098 114.437 162.161 116.728C162.506 120.078 162.161 120.768 162.161 122.247C162.172 123.029 162.431 123.788 162.9 124.415C163.777 125.01 164.8 125.357 165.858 125.418C166.917 125.478 167.972 125.251 168.912 124.759C170.939 123.985 172.624 122.512 173.663 120.606C174.702 118.7 175.026 116.486 174.578 114.363C174.317 113.201 173.774 112.121 172.996 111.22C172.218 110.318 171.23 109.622 170.119 109.193C169.008 108.765 167.809 108.616 166.627 108.762C165.445 108.907 164.318 109.341 163.344 110.026Z" fill="#EFB185"/>
<path d="M174.48 119.044C173.084 115.988 171.436 113.055 169.553 110.273C168.823 109.626 168.011 109.08 167.138 108.647C165.738 108.741 164.392 109.218 163.245 110.027C162.951 110.799 162.704 111.589 162.506 112.392C163.344 113.279 165.019 114.363 165.266 115.151C165.781 117.085 165.695 119.131 165.019 121.015C164.428 122.296 166.695 124.07 166.202 125.203C167.112 125.13 168.007 124.931 168.863 124.612C170.12 124.1 171.263 123.344 172.227 122.389C173.191 121.433 173.957 120.296 174.48 119.044Z" fill="#E6A376"/>
<path d="M159.548 106.331C158.464 105.641 161.815 111.652 164.821 113.131C166.644 114.018 166.496 116.974 166.397 117.516C166.159 118.618 166.027 119.74 166.003 120.867C166.447 121.507 167.876 119.586 168.565 119.733C170.29 120.029 169.6 121.655 168.023 123.33C166.447 125.006 170.783 125.893 172.951 124.414C174.035 123.626 174.429 123.133 175.858 120.325C177.878 116.186 178.47 110.125 173.148 108.647C167.826 107.168 162.603 108.203 159.548 106.331Z" fill="#131C24"/>
<path d="M172.804 124.414C173.888 123.626 174.282 123.133 175.711 120.324C177.731 116.185 178.471 111.258 173.592 108.646C168.714 106.035 165.167 108.646 159.549 106.331C161.875 109.544 165.29 111.803 169.158 112.687C171.72 113.18 172.016 114.214 171.917 116.974C171.819 119.733 172.459 123.182 167.975 124.661C168.723 125.074 169.571 125.27 170.425 125.226C171.278 125.183 172.102 124.901 172.804 124.414Z" fill="#1D2833"/>
<path d="M166.252 128.258L163.098 130.278C163.098 130.278 172.707 133.53 175.466 128.899C175.643 128.232 175.564 127.524 175.245 126.913C174.926 126.302 174.389 125.833 173.741 125.597C173.741 125.597 173.396 129.145 166.252 128.258Z" fill="#9DBCC9"/>
<path d="M132.695 127.912C132.695 127.912 130.33 125.202 130.428 124.315C130.527 123.428 129.246 122.985 129.246 124.069C129.285 124.826 129.487 125.565 129.837 126.237C129.837 126.237 126.684 123.478 127.275 122.344C127.866 121.211 124.713 124.365 125.452 126.286C126.191 128.208 126.684 130.475 131.808 131.214C132.191 130.764 132.47 130.234 132.623 129.663C132.776 129.092 132.801 128.494 132.695 127.912Z" fill="#F1B287"/>
<path d="M163.589 132.545C163.589 132.545 165.56 137.127 159.204 138.507C152.847 139.886 141.859 141.71 139.149 139.689C136.439 137.669 129.688 131.214 129.688 131.214C129.688 131.214 132.842 130.229 132.694 127.519L142.894 133.875C142.894 133.875 162.259 129.342 163.589 132.545Z" fill="#9DBCC9"/>
<path d="M163.591 132.545C162.261 129.342 142.994 133.875 142.994 133.875L132.696 127.519C132.731 128.045 132.629 128.571 132.4 129.046C135.699 131.797 139.208 134.285 142.896 136.486C149.876 136.218 156.827 135.427 163.689 134.121C163.751 133.594 163.718 133.06 163.591 132.545Z" fill="#CAE0EA"/>
<defs>
<linearGradient id="paint0_linear" x1="48.6328" y1="135.452" x2="181.919" y2="135.452" gradientUnits="userSpaceOnUse">
<stop stop-color="#FFF2C9"/>
<stop offset="1" stop-color="#FFB7BB"/>
</linearGradient>
<linearGradient id="paint1_linear" x1="515.818" y1="599.423" x2="-34.4761" y2="459.106" gradientUnits="userSpaceOnUse">
<stop stop-color="#FFF2C9"/>
<stop offset="1" stop-color="#FFB7BB"/>
</linearGradient>
<linearGradient id="paint2_linear" x1="522.257" y1="562.748" x2="-14.9056" y2="429.717" gradientUnits="userSpaceOnUse">
<stop stop-color="#FFF2C9"/>
<stop offset="1" stop-color="#FFB7BB"/>
</linearGradient>
<linearGradient id="paint3_linear" x1="551.908" y1="524.893" x2="-0.563" y2="383.451" gradientUnits="userSpaceOnUse">
<stop stop-color="#FFF2C9"/>
<stop offset="1" stop-color="#FFB7BB"/>
</linearGradient>
<linearGradient id="paint4_linear" x1="292.842" y1="1585.27" x2="-384.371" y2="1402.67" gradientUnits="userSpaceOnUse">
<stop stop-color="#FFF2C9"/>
<stop offset="1" stop-color="#FFB7BB"/>
</linearGradient>
<linearGradient id="paint5_linear" x1="363.298" y1="1592.63" x2="-406.676" y2="1363.83" gradientUnits="userSpaceOnUse">
<stop stop-color="#FFF2C9"/>
<stop offset="1" stop-color="#FFB7BB"/>
</linearGradient>
<linearGradient id="paint6_linear" x1="254.453" y1="1267.17" x2="-247.8" y2="1148.15" gradientUnits="userSpaceOnUse">
<stop stop-color="#FFF2C9"/>
<stop offset="1" stop-color="#FFB7BB"/>
</linearGradient>
<linearGradient id="paint7_linear" x1="329.276" y1="1118.27" x2="-247.134" y2="984.847" gradientUnits="userSpaceOnUse">
<stop stop-color="#FFF2C9"/>
<stop offset="1" stop-color="#FFB7BB"/>
</linearGradient>
<linearGradient id="paint8_linear" x1="359.21" y1="987.794" x2="-227.75" y2="835.352" gradientUnits="userSpaceOnUse">
<stop stop-color="#FFF2C9"/>
<stop offset="1" stop-color="#FFB7BB"/>
</linearGradient>
<linearGradient id="paint9_linear" x1="499.021" y1="1086.36" x2="-275.533" y2="851.78" gradientUnits="userSpaceOnUse">
<stop stop-color="#FFF2C9"/>
<stop offset="1" stop-color="#FFB7BB"/>
</linearGradient>
<linearGradient id="paint10_linear" x1="343.098" y1="851.914" x2="-159.112" y2="732.887" gradientUnits="userSpaceOnUse">
<stop stop-color="#FFF2C9"/>
<stop offset="1" stop-color="#FFB7BB"/>
</linearGradient>
<linearGradient id="paint11_linear" x1="534.796" y1="496.728" x2="93.4767" y2="245.592" gradientUnits="userSpaceOnUse">
<stop stop-color="#FFF2C9"/>
<stop offset="1" stop-color="#FFB7BB"/>
</linearGradient>
<linearGradient id="paint12_linear" x1="583.096" y1="994.196" x2="-19.9217" y2="848.784" gradientUnits="userSpaceOnUse">
<stop stop-color="#FFF2C9"/>
<stop offset="1" stop-color="#FFB7BB"/>
</linearGradient>
<linearGradient id="paint13_linear" x1="562.661" y1="464.537" x2="124.346" y2="218.392" gradientUnits="userSpaceOnUse">
<stop stop-color="#FFF2C9"/>
<stop offset="1" stop-color="#FFB7BB"/>
</linearGradient>
</defs>
</svg>
