<svg width="262" height="226" viewBox="0 0 262 226" fill="none" xmlns="http://www.w3.org/2000/svg">
<g clip-path="url(#clip0)">
<g opacity="0.5">
<path opacity="0.5" d="M0 213.224L0.91894 214.445L18.6341 210.119C18.4296 209.941 18.2648 209.722 18.1505 209.476C18.0362 209.231 17.9748 208.964 17.9704 208.693L0 213.224Z" fill="#DCDCDC"/>
<path opacity="0.5" d="M12.3042 188.333C12.7879 188.749 13.248 189.191 13.6826 189.657L32.7251 182.073C35.7372 181.055 33.8993 181.258 33.3377 180.596C32.7761 179.935 33.3377 179.731 33.3377 179.426L12.3042 188.333Z" fill="#DCDCDC"/>
<g opacity="0.5">
<path opacity="0.5" d="M13.7841 187.825L11.6909 188.588L20.8803 206.353C21.69 206.2 22.5212 206.2 23.3308 206.353L13.7841 187.825Z" fill="#DCDCDC"/>
<path opacity="0.5" d="M19.2465 206.963C18.8817 207.117 18.5681 207.371 18.3422 207.695C18.1162 208.02 17.9873 208.401 17.9702 208.796C18.0068 209.307 18.2455 209.783 18.6339 210.119L19.2465 210.526C20.1962 211.005 21.2455 211.254 22.3096 211.254C23.3738 211.254 24.4231 211.005 25.3728 210.526C27.0575 209.508 27.1086 207.93 25.3728 206.963C24.7468 206.601 24.0507 206.375 23.3307 206.302C22.5211 206.149 21.6898 206.149 20.8802 206.302C20.2971 206.412 19.7419 206.637 19.2465 206.963Z" fill="#DCDCDC"/>
</g>
<path opacity="0.5" d="M83.1643 158.353L28.2832 162.069C28.5096 162.208 28.7039 162.393 28.8535 162.613C29.003 162.832 29.1044 163.08 29.1511 163.341L83.7259 159.676C83.537 159.513 83.3882 159.309 83.2908 159.08C83.1935 158.85 83.1502 158.602 83.1643 158.353Z" fill="#DCDCDC"/>
<path opacity="0.5" d="M27.4157 165.581C26.7028 165.88 25.9424 166.053 25.1694 166.09L32.7252 182.174L34.9715 181.309L27.4157 165.581Z" fill="#DCDCDC"/>
<path opacity="0.5" d="M91.5874 145.475C91.7702 145.641 91.9115 145.846 92.0002 146.076C92.0888 146.306 92.1223 146.553 92.0979 146.798L133.501 145.424V144.101L91.5874 145.475Z" fill="#DCDCDC"/>
<path opacity="0.5" d="M84.6947 144.864C83.01 145.882 83.01 147.46 84.6947 148.427C85.2524 148.739 85.8552 148.962 86.4815 149.089C87.261 149.191 88.0505 149.191 88.8299 149.089C89.5324 149.008 90.2104 148.783 90.821 148.427C91.1545 148.286 91.4465 148.062 91.6697 147.777C91.8929 147.492 92.04 147.155 92.0973 146.799C92.1216 146.554 92.0882 146.306 91.9995 146.076C91.9109 145.847 91.7695 145.641 91.5868 145.475C91.3709 145.247 91.1313 145.042 90.872 144.864C89.9122 144.389 88.8551 144.142 87.7834 144.142C86.7117 144.142 85.6545 144.389 84.6947 144.864Z" fill="#DCDCDC"/>
<path opacity="0.5" d="M84.4405 156.622C84.0994 156.781 83.8037 157.023 83.5807 157.325C83.3577 157.627 83.2145 157.981 83.1642 158.353C83.1501 158.602 83.1934 158.85 83.2907 159.08C83.3881 159.309 83.5369 159.513 83.7258 159.676L84.3895 160.185C85.3493 160.661 86.4065 160.908 87.4781 160.908C88.5498 160.908 89.607 160.661 90.5668 160.185C92.2515 159.218 92.2515 157.64 90.5668 156.622C90.0145 156.31 89.4085 156.102 88.78 156.011C88.0024 155.884 87.2092 155.884 86.4316 156.011C85.7429 156.123 85.073 156.329 84.4405 156.622Z" fill="#DCDCDC"/>
<path opacity="0.5" d="M88.8308 149.089C88.0514 149.191 87.2619 149.191 86.4824 149.089V155.96C87.26 155.833 88.0532 155.833 88.8308 155.96V149.089Z" fill="#DCDCDC"/>
<path opacity="0.5" d="M21.7481 161.763C20.0123 162.781 20.0123 164.359 21.7481 165.326C22.6229 165.788 23.5896 166.05 24.5784 166.094C25.5671 166.138 26.5534 165.963 27.466 165.581L27.9254 165.326C28.3141 165.162 28.644 164.885 28.8717 164.531C29.0995 164.177 29.2145 163.762 29.2017 163.341C29.1551 163.08 29.0537 162.832 28.9041 162.613C28.7545 162.393 28.5602 162.208 28.3339 162.069L27.9254 161.763C26.9691 161.276 25.9106 161.022 24.8368 161.022C23.7629 161.022 22.7044 161.276 21.7481 161.763Z" fill="#DCDCDC"/>
</g>
<path opacity="0.6" d="M21.7481 161.814C20.0123 162.781 20.0123 164.359 21.7481 165.326C22.7006 165.826 23.7606 166.087 24.8368 166.087C25.9129 166.087 26.9729 165.826 27.9254 165.326C28.3048 165.214 28.6374 164.982 28.874 164.666C29.1105 164.349 29.2383 163.965 29.2383 163.57C29.2383 163.176 29.1105 162.792 28.874 162.475C28.6374 162.159 28.3048 161.927 27.9254 161.814C26.977 161.302 25.9154 161.034 24.8368 161.034C23.7581 161.034 22.6965 161.302 21.7481 161.814Z" fill="#DCDCDC"/>
<g opacity="0.86">
<path opacity="0.66" d="M21.7481 157.437C20.0123 158.404 20.0123 159.982 21.7481 161C22.7079 161.475 23.7651 161.723 24.8368 161.723C25.9085 161.723 26.9656 161.475 27.9254 161C29.6102 159.982 29.6102 158.404 27.9254 157.437C26.9756 156.929 25.9146 156.663 24.8368 156.663C23.759 156.663 22.6979 156.929 21.7481 157.437Z" fill="#DCDCDC"/>
</g>
<g opacity="0.71">
<path opacity="0.71" d="M21.748 153.059C21.3756 153.187 21.0524 153.427 20.8235 153.746C20.5947 154.066 20.4717 154.448 20.4717 154.841C20.4717 155.233 20.5947 155.616 20.8235 155.936C21.0524 156.255 21.3756 156.495 21.748 156.622C22.7078 157.098 23.7649 157.345 24.8366 157.345C25.9083 157.345 26.9655 157.098 27.9253 156.622C28.2977 156.495 28.6209 156.255 28.8498 155.936C29.0786 155.616 29.2016 155.233 29.2016 154.841C29.2016 154.448 29.0786 154.066 28.8498 153.746C28.6209 153.427 28.2977 153.187 27.9253 153.059C26.969 152.572 25.9105 152.318 24.8366 152.318C23.7628 152.318 22.7043 152.572 21.748 153.059Z" fill="#DCDCDC"/>
</g>
<g opacity="0.57">
<path opacity="0.77" d="M21.7481 148.681C20.0123 149.699 20.0123 151.277 21.7481 152.244C22.7079 152.72 23.7651 152.967 24.8368 152.967C25.9085 152.967 26.9656 152.72 27.9254 152.244C28.2979 152.117 28.6211 151.877 28.8499 151.558C29.0787 151.238 29.2017 150.855 29.2017 150.463C29.2017 150.07 29.0787 149.688 28.8499 149.368C28.6211 149.049 28.2979 148.809 27.9254 148.681C26.9691 148.194 25.9106 147.94 24.8368 147.94C23.7629 147.94 22.7044 148.194 21.7481 148.681Z" fill="#DCDCDC"/>
</g>
<g opacity="0.43">
<path opacity="0.83" d="M21.7481 144.305C20.0123 145.323 20.0123 146.901 21.7481 147.868C22.7032 148.359 23.7622 148.615 24.8368 148.615C25.9114 148.615 26.9704 148.359 27.9254 147.868C29.6102 146.901 29.6102 145.323 27.9254 144.305C26.9691 143.818 25.9106 143.564 24.8368 143.564C23.7629 143.564 22.7044 143.818 21.7481 144.305Z" fill="#DCDCDC"/>
</g>
<g opacity="0.29">
<path opacity="0.89" d="M21.7481 139.978C20.0123 140.945 20.0123 142.523 21.7481 143.49C22.7006 143.989 23.7606 144.25 24.8368 144.25C25.9129 144.25 26.9729 143.989 27.9254 143.49C28.3048 143.377 28.6374 143.145 28.874 142.829C29.1105 142.513 29.2383 142.129 29.2383 141.734C29.2383 141.339 29.1105 140.955 28.874 140.639C28.6374 140.322 28.3048 140.091 27.9254 139.978C26.9756 139.47 25.9146 139.204 24.8368 139.204C23.759 139.204 22.6979 139.47 21.7481 139.978Z" fill="#DCDCDC"/>
</g>
<g opacity="0.14">
<path opacity="0.94" d="M21.7481 135.601C20.0123 136.568 20.0123 138.146 21.7481 139.164C22.7079 139.639 23.7651 139.887 24.8368 139.887C25.9085 139.887 26.9656 139.639 27.9254 139.164C29.6102 138.146 29.6102 136.568 27.9254 135.601C26.9691 135.114 25.9106 134.86 24.8368 134.86C23.7629 134.86 22.7044 135.114 21.7481 135.601Z" fill="#DCDCDC"/>
</g>
<g opacity="0.6">
<path opacity="0.6" d="M19.2461 206.963C17.5104 207.93 17.5614 209.508 19.2461 210.526C20.1959 211.005 21.2451 211.254 22.3093 211.254C23.3734 211.254 24.4227 211.005 25.3724 210.526C27.0571 209.508 27.1082 207.93 25.3724 206.963C24.4193 206.496 23.3713 206.253 22.3093 206.253C21.2472 206.253 20.1993 206.496 19.2461 206.963Z" fill="#DCDCDC"/>
</g>
<g opacity="0.51">
<path opacity="0.51" d="M19.247 202.585C18.8746 202.712 18.5514 202.953 18.3225 203.272C18.0937 203.591 17.9707 203.974 17.9707 204.367C17.9707 204.759 18.0937 205.142 18.3225 205.461C18.5514 205.781 18.8746 206.021 19.247 206.148C20.1967 206.627 21.246 206.876 22.3101 206.876C23.3743 206.876 24.4236 206.627 25.3733 206.148C25.7457 206.021 26.0689 205.781 26.2977 205.461C26.5266 205.142 26.6496 204.759 26.6496 204.367C26.6496 203.974 26.5266 203.591 26.2977 203.272C26.0689 202.953 25.7457 202.712 25.3733 202.585C24.4201 202.118 23.3722 201.875 22.3101 201.875C21.2481 201.875 20.2001 202.118 19.247 202.585Z" fill="#DCDCDC"/>
</g>
<g opacity="0.43">
<path opacity="0.43" d="M19.2461 198.208C17.5104 199.226 17.5614 200.804 19.2461 201.771C20.1959 202.25 21.2451 202.499 22.3093 202.499C23.3734 202.499 24.4227 202.25 25.3724 201.771C25.7448 201.644 26.068 201.404 26.2969 201.084C26.5257 200.765 26.6487 200.382 26.6487 199.99C26.6487 199.597 26.5257 199.214 26.2969 198.895C26.068 198.576 25.7448 198.335 25.3724 198.208C24.4193 197.741 23.3713 197.498 22.3093 197.498C21.2472 197.498 20.1993 197.741 19.2461 198.208Z" fill="#DCDCDC"/>
</g>
<g opacity="0.34">
<path opacity="0.34" d="M19.2461 193.83C17.5104 194.848 17.5614 196.426 19.2461 197.393C20.1922 197.884 21.2429 198.14 22.3093 198.14C23.3757 198.14 24.4264 197.884 25.3724 197.393C25.7448 197.266 26.068 197.026 26.2969 196.706C26.5257 196.387 26.6487 196.004 26.6487 195.612C26.6487 195.219 26.5257 194.837 26.2969 194.517C26.068 194.198 25.7448 193.958 25.3724 193.83C24.4193 193.363 23.3713 193.12 22.3093 193.12C21.2472 193.12 20.1993 193.363 19.2461 193.83Z" fill="#DCDCDC"/>
</g>
<g opacity="0.26">
<path opacity="0.26" d="M19.2461 189.504C17.5104 190.471 17.5614 192.049 19.2461 193.016C20.1895 193.516 21.2413 193.777 22.3093 193.777C23.3773 193.777 24.429 193.516 25.3724 193.016C27.0571 192.049 27.1082 190.471 25.3724 189.504C24.4264 189.014 23.3757 188.757 22.3093 188.757C21.2429 188.757 20.1922 189.014 19.2461 189.504Z" fill="#DCDCDC"/>
</g>
<g opacity="0.17">
<path opacity="0.17" d="M19.2461 185.127C17.5104 186.094 17.5614 187.672 19.2461 188.69C20.1959 189.168 21.2451 189.418 22.3093 189.418C23.3734 189.418 24.4227 189.168 25.3724 188.69C27.0571 187.672 27.1082 186.094 25.3724 185.127C24.4193 184.659 23.3713 184.417 22.3093 184.417C21.2472 184.417 20.1993 184.659 19.2461 185.127Z" fill="#DCDCDC"/>
</g>
<g opacity="0.09">
<path opacity="0.09" d="M19.2461 180.75C17.5104 181.768 17.5614 183.346 19.2461 184.313C20.1959 184.791 21.2451 185.041 22.3093 185.041C23.3734 185.041 24.4227 184.791 25.3724 184.313C25.7448 184.185 26.068 183.945 26.2969 183.626C26.5257 183.306 26.6487 182.924 26.6487 182.531C26.6487 182.139 26.5257 181.756 26.2969 181.437C26.068 181.117 25.7448 180.877 25.3724 180.75C24.4193 180.282 23.3713 180.04 22.3093 180.04C21.2472 180.04 20.1993 180.282 19.2461 180.75Z" fill="#DCDCDC"/>
</g>
<path d="M124.517 195.816L119.412 192.965C119.958 192.624 120.471 192.232 120.943 191.794L126.048 194.645C125.596 195.106 125.081 195.5 124.517 195.816Z" fill="#B2C5CC"/>
<path d="M126.048 194.646L120.942 191.795L121.453 191.286L126.558 194.137L126.048 194.646Z" fill="#ADC0C7"/>
<path d="M126.558 194.136L121.453 191.286L121.81 190.828L126.916 193.627L126.507 194.136H126.558Z" fill="#A9BBC2"/>
<path d="M126.968 193.423L121.862 190.624L122.526 190.369L127.631 193.22L127.325 193.627L126.968 193.423Z" fill="#A4B6BD"/>
<path d="M127.274 193.424L122.168 190.574L122.424 190.217L127.529 193.068L127.274 193.424Z" fill="#A0B1B8"/>
<path d="M127.631 192.864L122.525 190.013V189.606L127.631 192.456C127.621 192.592 127.621 192.728 127.631 192.864Z" fill="#9BACB3"/>
<path d="M127.631 192.456L122.525 189.605V189.198L127.631 192.049L127.375 192.456H127.631Z" fill="#97A7AD"/>
<path d="M127.989 192.05L122.884 189.199V188.843L127.989 191.693C127.972 191.811 127.972 191.931 127.989 192.05Z" fill="#93A2A8"/>
<path d="M128.194 191.693L123.088 188.843V188.436L128.194 191.286V191.693Z" fill="#8E9DA3"/>
<path d="M128.346 191.286L123.241 188.435V188.028L128.346 190.878V191.286Z" fill="#8A999E"/>
<path d="M128.498 190.879L123.393 188.028V187.57L128.498 190.421C128.517 190.573 128.517 190.727 128.498 190.879Z" fill="#859499"/>
<path d="M128.702 190.42L123.597 187.57V187.112L128.702 189.962C128.702 189.962 128.702 190.268 128.702 190.42Z" fill="#818F94"/>
<path d="M128.804 189.962L123.699 187.112C123.699 187.112 123.699 186.755 123.699 186.603L128.804 189.453V189.962Z" fill="#7C8A8F"/>
<path d="M128.959 189.454L123.854 186.603C123.874 186.383 123.874 186.161 123.854 185.941L128.959 188.792C128.959 188.792 128.959 189.199 128.959 189.454Z" fill="#78858A"/>
<path d="M129.06 188.792L123.955 185.941C123.98 185.636 123.98 185.33 123.955 185.025C124.006 184.461 123.91 183.893 123.678 183.376C123.445 182.859 123.084 182.41 122.627 182.073L127.733 184.923C128.197 185.265 128.563 185.722 128.796 186.249C129.029 186.776 129.12 187.354 129.06 187.926C129.085 188.214 129.085 188.504 129.06 188.792Z" fill="#738085"/>
<path d="M121.248 196.173L116.296 193.323H116.347L121.248 196.173Z" fill="#8A999E"/>
<path d="M121.249 196.173L116.144 193.323L121.249 196.173H120.994H121.249Z" fill="#8E9DA3"/>
<path d="M121.504 196.275L116.398 193.425H116.654L121.759 196.275H121.504Z" fill="#93A2A8"/>
<path d="M121.76 196.377L116.655 193.527H116.911L122.016 196.377H121.76Z" fill="#97A7AD"/>
<path d="M122.015 196.428L116.91 193.578H117.42L122.525 196.428H122.015Z" fill="#9BACB3"/>
<path d="M122.526 196.479L117.42 193.425H117.727L122.832 196.275L122.526 196.479Z" fill="#A0B1B8"/>
<path d="M122.526 196.478L117.42 193.627H117.727L122.832 196.478H122.526Z" fill="#A4B6BD"/>
<path d="M122.934 196.428L117.829 193.578H118.238L123.343 196.428H122.934Z" fill="#A9BBC2"/>
<path d="M123.343 196.326L118.238 193.476H118.799L123.905 196.326H123.343Z" fill="#ADC0C7"/>
<path d="M123.904 196.173L118.799 193.323L119.463 192.966L124.568 195.817L123.955 196.173H123.904Z" fill="#B2C5CC"/>
<path d="M124.465 185.28L119.359 182.43C119.541 182.289 119.749 182.185 119.972 182.125L125.077 184.924L124.414 185.28H124.465Z" fill="#87ABBB"/>
<path d="M125.128 184.924L120.022 182.125H120.584L125.689 184.975H125.128V184.924Z" fill="#84A7B7"/>
<path d="M125.691 184.771L120.585 181.921H120.994L126.099 184.771H125.691Z" fill="#80A3B2"/>
<path d="M126.097 184.669L120.992 181.819H121.35L126.455 184.669H126.097Z" fill="#7D9EAD"/>
<path d="M126.404 184.618L121.299 181.768H121.605L126.71 184.568L126.404 184.618Z" fill="#7A9AA8"/>
<path d="M126.711 184.618L121.605 181.819H121.861L126.966 184.669L126.711 184.618Z" fill="#7696A4"/>
<path d="M127.017 184.669L121.912 181.819H122.525L127.63 184.669H127.017Z" fill="#73929F"/>
<path d="M127.272 184.721L122.167 181.87H122.422L127.527 184.721H127.272Z" fill="#708D9A"/>
<path d="M127.63 184.822L122.525 181.972L127.63 184.822Z" fill="#6C8996"/>
<path d="M127.731 184.924L122.779 182.074H122.83L127.782 184.924H127.731Z" fill="#698591"/>
<path d="M121.249 196.173L116.144 193.322C115.684 192.988 115.32 192.54 115.087 192.022C114.854 191.504 114.761 190.935 114.817 190.37C114.792 190.065 114.792 189.758 114.817 189.454L119.922 192.304C119.897 192.609 119.897 192.915 119.922 193.22C119.891 193.787 120.001 194.353 120.241 194.868C120.482 195.383 120.845 195.831 121.3 196.173H121.249Z" fill="#586F7A"/>
<path d="M119.973 192.305L114.868 189.454C114.868 189.454 114.868 189.047 114.868 188.843L119.973 191.694C119.948 191.897 119.948 192.102 119.973 192.305Z" fill="#5B747E"/>
<path d="M120.075 191.694L114.97 188.843V188.283L120.075 191.134C120.051 191.32 120.051 191.508 120.075 191.694Z" fill="#5F7883"/>
<path d="M120.177 191.134L115.072 188.283C115.048 188.132 115.048 187.977 115.072 187.825L120.177 190.676V191.134Z" fill="#627C88"/>
<path d="M120.329 190.676L115.224 187.825V187.418L120.329 190.268V190.676Z" fill="#65808C"/>
<path d="M120.484 190.268L115.378 187.417V187.01L120.484 189.81V190.268Z" fill="#698591"/>
<path d="M120.636 189.811L115.531 187.011V186.604L120.636 189.454C120.653 189.573 120.653 189.693 120.636 189.811Z" fill="#6C8996"/>
<path d="M120.841 189.454L115.735 186.603C115.745 186.468 115.745 186.332 115.735 186.196L120.841 189.047C120.841 189.047 120.841 189.047 120.841 189.454Z" fill="#708D9A"/>
<path d="M121.045 189.047L115.94 186.196C115.958 186.061 115.958 185.924 115.94 185.789L121.045 188.64C121.045 188.64 121.045 188.64 121.045 189.047Z" fill="#73929F"/>
<path d="M121.249 188.64L116.144 185.789V185.433L121.249 188.284L120.994 188.64H121.249Z" fill="#7696A4"/>
<path d="M121.504 188.334L116.398 185.484L116.654 185.077L121.759 187.927C121.645 188.043 121.558 188.182 121.504 188.334Z" fill="#7A9AA8"/>
<path d="M121.76 187.876L116.655 185.025L116.961 184.618L122.066 187.469L121.76 187.876Z" fill="#7D9EAD"/>
<path d="M122.067 187.469L116.961 184.619L117.37 184.161L122.475 187.011L122.118 187.469H122.067Z" fill="#80A3B2"/>
<path d="M122.526 187.01L117.42 184.16L117.931 183.6L123.036 186.451L122.526 187.01Z" fill="#84A7B7"/>
<path d="M122.934 186.451L117.829 183.6C118.281 183.139 118.797 182.745 119.361 182.43L124.466 185.28C123.919 185.621 123.407 186.013 122.934 186.451Z" fill="#87ABBB"/>
<path d="M124.465 185.28C127.018 183.804 129.111 184.975 129.111 187.927C129.014 189.508 128.547 191.044 127.75 192.414C126.952 193.783 125.845 194.949 124.516 195.817C121.964 197.293 119.922 196.122 119.871 193.221C119.96 191.631 120.423 190.085 121.221 188.706C122.019 187.327 123.13 186.153 124.465 185.28Z" fill="#C0C0F6"/>
<path d="M86.6357 201.11L81.6836 198.26L157.547 154.434L162.499 157.285L86.6357 201.11Z" fill="#BFD4DB"/>
<path d="M162.499 157.285L157.547 154.434L157.088 41.1797L161.989 44.0301L162.499 157.285Z" fill="#778488"/>
<path d="M161.988 44.0303L162.499 157.285L86.6353 201.11L86.1758 87.805L161.988 44.0303Z" fill="url(#paint0_linear)"/>
<path d="M86.1772 87.8049L81.2251 84.9545L157.089 41.1797L161.99 44.0301L86.1772 87.8049Z" fill="#91B8C9"/>
<path d="M86.6366 201.11L81.6846 198.26L81.2251 84.9546L86.1772 87.805L86.6366 201.11Z" fill="#5A727D"/>
<path d="M80.7645 223.201L80.2029 87.5502L75.0977 84.6997L75.6592 220.351C75.6081 220.841 75.6902 221.336 75.8967 221.783C76.1033 222.231 76.4268 222.615 76.8334 222.896L81.9387 225.746C81.5321 225.466 81.2085 225.082 81.002 224.634C80.7954 224.186 80.7134 223.691 80.7645 223.201Z" fill="#C0C0F6"/>
<path d="M164.439 34.3084C166.635 33.0868 168.421 34.3084 168.421 36.5989L168.983 172.25C168.927 173.618 168.541 174.953 167.856 176.141C167.172 177.328 166.21 178.334 165.052 179.071L84.7468 225.441C82.5515 226.714 80.7647 225.747 80.7647 223.202L80.2031 87.5507C80.2674 86.1772 80.6571 84.8384 81.3404 83.6439C82.0237 82.4495 82.9811 81.4335 84.1341 80.6791L164.439 34.3084ZM162.499 157.285L161.989 44.0305L86.1762 87.8052L86.7889 201.111L162.499 157.285ZM124.516 195.817C125.845 194.949 126.952 193.784 127.75 192.414C128.547 191.044 129.014 189.508 129.111 187.927C129.111 184.975 127.018 183.804 124.465 185.28C123.13 186.154 122.019 187.327 121.221 188.706C120.423 190.085 119.96 191.631 119.871 193.221C119.871 196.122 121.964 197.293 124.516 195.817Z" fill="#DEF6FF"/>
<path d="M162.345 31.2031H162.09H161.12H160.763H160.303H159.742L79.2324 77.8284L78.4666 78.3883L78.1603 78.6937L77.8539 79.05L76.5776 80.4243V80.7806V81.1369V81.4423V81.7986C76.5555 81.9164 76.5555 82.0372 76.5776 82.1549C76.5776 82.1549 76.5776 82.4603 76.5776 82.613C76.5776 82.7657 76.5776 82.613 76.5776 82.8675V83.1729C76.5776 83.4275 76.5776 83.682 76.5776 83.9365L81.6829 86.7869C81.6575 86.482 81.6575 86.1756 81.6829 85.8707C81.6648 85.5825 81.6648 85.2935 81.6829 85.0054C81.7794 84.6752 81.8988 84.352 82.0402 84.0383L82.4997 83.122L83.0613 82.3076L83.6739 81.595C83.831 81.4128 84.0017 81.2427 84.1844 81.086H84.4397L85.1544 80.5261L164.439 34.3081L165.204 34.0027H165.868H166.583H167.195L162.345 31.2031Z" fill="#C0C0F6"/>
<g opacity="0.5">
<g opacity="0.14">
<path opacity="0.14" d="M261.336 90.5023L255.21 94.0654C255.02 94.1881 254.798 94.2534 254.572 94.2534C254.345 94.2534 254.124 94.1881 253.933 94.0654L247.705 90.5023C247.515 90.3896 247.357 90.2295 247.247 90.0376C247.138 89.8457 247.08 89.6287 247.08 89.4079C247.08 89.1871 247.138 88.9701 247.247 88.7782C247.357 88.5864 247.515 88.4262 247.705 88.3136L253.882 84.7505C254.081 84.6519 254.299 84.6006 254.521 84.6006C254.742 84.6006 254.96 84.6519 255.159 84.7505L261.336 88.3136C261.526 88.4262 261.684 88.5864 261.794 88.7782C261.903 88.9701 261.961 89.1871 261.961 89.4079C261.961 89.6287 261.903 89.8457 261.794 90.0376C261.684 90.2295 261.526 90.3896 261.336 90.5023Z" fill="#FDCDE7"/>
</g>
<g opacity="0.29">
<path opacity="0.29" d="M261.336 83.2738L255.21 86.8368C255.02 86.9595 254.798 87.0248 254.572 87.0248C254.345 87.0248 254.124 86.9595 253.933 86.8368L247.705 83.2738C247.515 83.1611 247.357 83.001 247.247 82.8091C247.138 82.6172 247.08 82.4002 247.08 82.1794C247.08 81.9586 247.138 81.7416 247.247 81.5497C247.357 81.3579 247.515 81.1977 247.705 81.085L253.882 77.522C254.081 77.4234 254.299 77.3721 254.521 77.3721C254.742 77.3721 254.961 77.4234 255.159 77.522L261.336 81.085C261.54 81.1862 261.713 81.3422 261.833 81.5355C261.953 81.7289 262.017 81.9519 262.017 82.1794C262.017 82.4069 261.953 82.6299 261.833 82.8233C261.713 83.0167 261.54 83.1727 261.336 83.2738Z" fill="#FDCDE7"/>
</g>
<g opacity="0.43">
<path opacity="0.43" d="M261.336 76.0462L255.21 79.6093C255.02 79.732 254.798 79.7973 254.572 79.7973C254.345 79.7973 254.124 79.732 253.933 79.6093L247.705 76.0462C247.515 75.9336 247.357 75.7734 247.247 75.5815C247.138 75.3897 247.08 75.1727 247.08 74.9519C247.08 74.7311 247.138 74.5141 247.247 74.3222C247.357 74.1303 247.515 73.9702 247.705 73.8575L253.882 70.2944C254.081 70.1959 254.299 70.1445 254.521 70.1445C254.742 70.1445 254.96 70.1959 255.159 70.2944L261.336 73.9084C261.528 74.014 261.687 74.1689 261.798 74.3569C261.909 74.5449 261.968 74.7591 261.968 74.9773C261.968 75.1955 261.909 75.4098 261.798 75.5978C261.687 75.7857 261.528 75.9406 261.336 76.0462Z" fill="#FDCDE7"/>
</g>
<g opacity="0.57">
<path opacity="0.57" d="M261.336 68.8187L255.21 72.3818C255.019 72.5045 254.798 72.5698 254.571 72.5698C254.345 72.5698 254.123 72.5045 253.933 72.3818L247.705 68.8187C247.513 68.7131 247.354 68.5582 247.243 68.3702C247.131 68.1822 247.073 67.968 247.073 67.7498C247.073 67.5316 247.131 67.3173 247.243 67.1293C247.354 66.9414 247.513 66.7865 247.705 66.6809L253.882 63.0669C254.08 62.9683 254.299 62.917 254.52 62.917C254.742 62.917 254.96 62.9683 255.158 63.0669L261.336 66.6809C261.527 66.7865 261.687 66.9414 261.798 67.1293C261.909 67.3173 261.968 67.5316 261.968 67.7498C261.968 67.968 261.909 68.1822 261.798 68.3702C261.687 68.5582 261.527 68.7131 261.336 68.8187Z" fill="#FDCDE7"/>
</g>
<g opacity="0.71">
<path opacity="0.71" d="M261.336 61.5906L255.21 65.1537C255.019 65.2764 254.798 65.3417 254.571 65.3417C254.345 65.3417 254.123 65.2764 253.933 65.1537L247.705 61.5906C247.513 61.485 247.354 61.3301 247.243 61.1422C247.131 60.9542 247.073 60.7399 247.073 60.5217C247.073 60.3035 247.131 60.0893 247.243 59.9013C247.354 59.7133 247.513 59.5584 247.705 59.4528L253.882 55.9915C254.093 55.8757 254.33 55.8149 254.571 55.8149C254.812 55.8149 255.049 55.8757 255.261 55.9915L261.438 59.6055C261.59 59.7265 261.712 59.882 261.792 60.0592C261.872 60.2364 261.909 60.4301 261.899 60.6243C261.889 60.8184 261.833 61.0073 261.735 61.1754C261.637 61.3435 261.5 61.4859 261.336 61.5906Z" fill="#FDCDE7"/>
</g>
<g opacity="0.86">
<path opacity="0.86" d="M261.336 54.362L255.21 57.976C255.011 58.0746 254.793 58.1259 254.571 58.1259C254.35 58.1259 254.131 58.0746 253.933 57.976L247.705 54.362C247.513 54.2564 247.354 54.1015 247.243 53.9135C247.131 53.7256 247.073 53.5113 247.073 53.2931C247.073 53.0749 247.131 52.8607 247.243 52.6727C247.354 52.4847 247.513 52.3298 247.705 52.2242L253.882 48.6611C254.072 48.5384 254.294 48.4731 254.52 48.4731C254.747 48.4731 254.968 48.5384 255.158 48.6611L261.336 52.2242C261.527 52.3298 261.687 52.4847 261.798 52.6727C261.909 52.8607 261.968 53.0749 261.968 53.2931C261.968 53.5113 261.909 53.7256 261.798 53.9135C261.687 54.1015 261.527 54.2564 261.336 54.362Z" fill="#FDCDE7"/>
</g>
<path opacity="0.5" d="M261.335 47.1346L255.26 50.9013C255.062 50.9999 254.843 51.0512 254.622 51.0512C254.4 51.0512 254.182 50.9999 253.983 50.9013L247.755 47.2873C247.564 47.1817 247.404 47.0268 247.293 46.8388C247.182 46.6509 247.123 46.4366 247.123 46.2184C247.123 46.0002 247.182 45.786 247.293 45.598C247.404 45.41 247.564 45.2551 247.755 45.1495L253.932 41.5864C254.123 41.4637 254.344 41.3984 254.571 41.3984C254.797 41.3984 255.019 41.4637 255.209 41.5864L261.386 45.1495C261.541 45.2666 261.666 45.4189 261.751 45.5938C261.835 45.7687 261.877 45.9611 261.872 46.1551C261.867 46.3492 261.815 46.5392 261.722 46.7096C261.629 46.8799 261.496 47.0256 261.335 47.1346Z" fill="#FDCDE7"/>
</g>
<path d="M261.335 47.1346L255.26 50.9013C255.062 50.9999 254.843 51.0512 254.622 51.0512C254.4 51.0512 254.182 50.9999 253.983 50.9013L247.755 47.2873C247.564 47.1817 247.404 47.0268 247.293 46.8388C247.182 46.6509 247.123 46.4366 247.123 46.2184C247.123 46.0002 247.182 45.786 247.293 45.598C247.404 45.41 247.564 45.2551 247.755 45.1495L253.932 41.5864C254.123 41.4637 254.344 41.3984 254.571 41.3984C254.797 41.3984 255.019 41.4637 255.209 41.5864L261.386 45.1495C261.541 45.2666 261.666 45.4189 261.751 45.5938C261.835 45.7687 261.877 45.9611 261.872 46.1551C261.867 46.3492 261.815 46.5392 261.722 46.7096C261.629 46.8799 261.496 47.0256 261.335 47.1346Z" fill="#FDCDE7"/>
<g opacity="0.5">
<g opacity="0.14">
<path opacity="0.14" d="M62.3853 71.7705L56.8717 74.9263C56.7106 75.0254 56.525 75.0779 56.3356 75.0779C56.1463 75.0779 55.9607 75.0254 55.7996 74.9263L50.286 71.7705C50.1165 71.6718 49.9759 71.5306 49.8781 71.361C49.7804 71.1913 49.729 70.999 49.729 70.8034C49.729 70.6077 49.7804 70.4154 49.8781 70.2458C49.9759 70.0761 50.1165 69.9349 50.286 69.8362L55.7996 66.6804C55.9607 66.5813 56.1463 66.5288 56.3356 66.5288C56.525 66.5288 56.7106 66.5813 56.8717 66.6804L62.3853 69.8362C62.5548 69.9349 62.6954 70.0761 62.7931 70.2458C62.8909 70.4154 62.9423 70.6077 62.9423 70.8034C62.9423 70.999 62.8909 71.1913 62.7931 71.361C62.6954 71.5306 62.5548 71.6718 62.3853 71.7705Z" fill="#FFDF75"/>
</g>
<g opacity="0.29">
<path opacity="0.29" d="M62.3853 67.0361L56.8717 70.1919C56.7106 70.291 56.525 70.3435 56.3356 70.3435C56.1463 70.3435 55.9607 70.291 55.7996 70.1919L50.286 67.0361C50.1165 66.9375 49.9759 66.7963 49.8781 66.6266C49.7804 66.4569 49.729 66.2646 49.729 66.069C49.729 65.8733 49.7804 65.6811 49.8781 65.5114C49.9759 65.3417 50.1165 65.2005 50.286 65.1019L55.7996 61.946C55.9607 61.8469 56.1463 61.7944 56.3356 61.7944C56.525 61.7944 56.7106 61.8469 56.8717 61.946L62.3853 65.1019C62.5548 65.2005 62.6954 65.3417 62.7931 65.5114C62.8909 65.6811 62.9423 65.8733 62.9423 66.069C62.9423 66.2646 62.8909 66.4569 62.7931 66.6266C62.6954 66.7963 62.5548 66.9375 62.3853 67.0361Z" fill="#FFDF75"/>
</g>
<g opacity="0.43">
<path opacity="0.43" d="M62.3853 62.3027L56.8717 65.4586C56.7106 65.5577 56.525 65.6101 56.3356 65.6101C56.1463 65.6101 55.9607 65.5577 55.7996 65.4586L50.286 62.3027C50.1165 62.2041 49.9759 62.0629 49.8781 61.8932C49.7804 61.7235 49.729 61.5313 49.729 61.3356C49.729 61.1399 49.7804 60.9477 49.8781 60.778C49.9759 60.6083 50.1165 60.4671 50.286 60.3685L55.7996 57.2126C55.9607 57.1135 56.1463 57.061 56.3356 57.061C56.525 57.061 56.7106 57.1135 56.8717 57.2126L62.3853 60.3685C62.5548 60.4671 62.6954 60.6083 62.7931 60.778C62.8909 60.9477 62.9423 61.1399 62.9423 61.3356C62.9423 61.5313 62.8909 61.7235 62.7931 61.8932C62.6954 62.0629 62.5548 62.2041 62.3853 62.3027Z" fill="#FFDF75"/>
</g>
<g opacity="0.57">
<path opacity="0.57" d="M62.3853 57.5693L56.8717 60.7252C56.7106 60.8243 56.525 60.8767 56.3356 60.8767C56.1463 60.8767 55.9607 60.8243 55.7996 60.7252L50.286 57.5693C50.1165 57.4707 49.9759 57.3295 49.8781 57.1598C49.7804 56.9901 49.729 56.7979 49.729 56.6022C49.729 56.4065 49.7804 56.2143 49.8781 56.0446C49.9759 55.8749 50.1165 55.7337 50.286 55.6351L55.7996 52.4792C55.9607 52.3801 56.1463 52.3276 56.3356 52.3276C56.525 52.3276 56.7106 52.3801 56.8717 52.4792L62.3853 55.6351C62.5548 55.7337 62.6954 55.8749 62.7931 56.0446C62.8909 56.2143 62.9423 56.4065 62.9423 56.6022C62.9423 56.7979 62.8909 56.9901 62.7931 57.1598C62.6954 57.3295 62.5548 57.4707 62.3853 57.5693Z" fill="#FFDF75"/>
</g>
<g opacity="0.71">
<path opacity="0.71" d="M62.3853 52.8359L56.8717 55.9918C56.7106 56.0909 56.525 56.1433 56.3356 56.1433C56.1463 56.1433 55.9607 56.0909 55.7996 55.9918L50.286 52.8359C50.1165 52.7373 49.9759 52.5961 49.8781 52.4264C49.7804 52.2567 49.729 52.0644 49.729 51.8688C49.729 51.6731 49.7804 51.4809 49.8781 51.3112C49.9759 51.1415 50.1165 51.0003 50.286 50.9017L55.7485 47.7458C55.9097 47.6467 56.0953 47.5942 56.2846 47.5942C56.4739 47.5942 56.6595 47.6467 56.8206 47.7458L62.3343 50.9017C62.5065 50.9958 62.6509 51.1333 62.7532 51.3004C62.8554 51.4675 62.912 51.6585 62.9171 51.8542C62.9223 52.0499 62.8759 52.2435 62.7826 52.4158C62.6893 52.588 62.5523 52.7329 62.3853 52.8359Z" fill="#FFDF75"/>
</g>
<g opacity="0.86">
<path opacity="0.86" d="M62.3853 48.101L56.8717 51.2569C56.7106 51.356 56.525 51.4085 56.3356 51.4085C56.1463 51.4085 55.9607 51.356 55.7996 51.2569L50.286 48.101C50.1165 48.0024 49.9759 47.8612 49.8781 47.6915C49.7804 47.5218 49.729 47.3296 49.729 47.1339C49.729 46.9383 49.7804 46.746 49.8781 46.5763C49.9759 46.4066 50.1165 46.2654 50.286 46.1668L55.7485 43.011C55.9097 42.9119 56.0953 42.8594 56.2846 42.8594C56.4739 42.8594 56.6595 42.9119 56.8206 43.011L62.3343 46.1668C62.5065 46.2609 62.6509 46.3984 62.7532 46.5655C62.8554 46.7327 62.912 46.9236 62.9171 47.1193C62.9223 47.315 62.8759 47.5087 62.7826 47.6809C62.6893 47.8532 62.5523 47.998 62.3853 48.101Z" fill="#FFDF75"/>
</g>
<path opacity="0.5" d="M62.3853 43.3677L56.8717 46.5235C56.7106 46.6226 56.525 46.6751 56.3356 46.6751C56.1463 46.6751 55.9607 46.6226 55.7996 46.5235L50.286 43.3677C50.1165 43.269 49.9759 43.1278 49.8781 42.9581C49.7804 42.7885 49.729 42.5962 49.729 42.4005C49.729 42.2049 49.7804 42.0126 49.8781 41.8429C49.9759 41.6732 50.1165 41.5321 50.286 41.4334L55.7485 38.2776C55.9097 38.1785 56.0953 38.126 56.2846 38.126C56.4739 38.126 56.6595 38.1785 56.8206 38.2776L62.3343 41.4334C62.5065 41.5275 62.6509 41.665 62.7532 41.8321C62.8554 41.9993 62.912 42.1902 62.9171 42.3859C62.9223 42.5816 62.8759 42.7753 62.7826 42.9475C62.6893 43.1198 62.5523 43.2646 62.3853 43.3677Z" fill="#FFDF75"/>
</g>
<path d="M62.3853 43.3677L56.8717 46.5744C56.7028 46.6487 56.5202 46.6871 56.3356 46.6871C56.151 46.6871 55.9685 46.6487 55.7996 46.5744L50.286 43.3677C50.1165 43.269 49.9759 43.1278 49.8781 42.9581C49.7804 42.7885 49.729 42.5962 49.729 42.4005C49.729 42.2049 49.7804 42.0126 49.8781 41.8429C49.9759 41.6732 50.1165 41.5321 50.286 41.4334L55.7996 38.2776C55.9607 38.1785 56.1463 38.126 56.3356 38.126C56.525 38.126 56.7106 38.1785 56.8717 38.2776L62.3853 41.4843C62.556 41.5757 62.6987 41.7116 62.7981 41.8774C62.8976 42.0432 62.9501 42.2328 62.9501 42.426C62.9501 42.6192 62.8976 42.8088 62.7981 42.9746C62.6987 43.1404 62.556 43.2762 62.3853 43.3677Z" fill="#F5E981"/>
<g opacity="0.6">
<g opacity="0.6">
<g opacity="0.5">
<path opacity="0.5" d="M162.244 84.8525V87.4485L133.91 103.788V101.141L162.244 84.8525Z" fill="#FF61CB"/>
</g>
<g opacity="0.6">
<path opacity="0.6" d="M221.719 57.8237L221.77 76.4026L181.439 99.6134L181.388 80.9836L221.719 57.8237Z" fill="#FF61CB"/>
</g>
<g opacity="0.5">
<path opacity="0.5" d="M177.303 78.7952L224.628 51.4614V92.8439L177.15 120.178L177.303 78.7952ZM221.77 76.352V57.824L181.438 80.9839V99.6137L221.77 76.352Z" fill="#FF61CB"/>
</g>
<g opacity="0.5">
<path opacity="0.5" d="M224.731 44.0298V47.1856L177.252 74.5194V71.3636L224.731 44.0298Z" fill="#FF61CB"/>
</g>
<g opacity="0.5">
<path opacity="0.5" d="M162.345 108.317L162.396 126.794L134.011 143.083L133.96 124.606L162.345 108.317Z" fill="#FF61CB"/>
</g>
<g opacity="0.6">
<path opacity="0.6" d="M130.796 85.2087L166.992 64.3394V127.915L130.796 148.733V85.2087ZM162.398 126.795V108.318L134.064 124.657V143.083L162.449 126.795H162.398ZM162.398 74.5195V71.9236L134.064 88.2628V90.8587L162.449 74.5195H162.398ZM162.398 87.4484V84.8524L134.064 101.141V103.788L162.398 87.4484ZM162.398 93.302V90.706L133.911 106.893V109.488L162.296 93.1493L162.398 93.302ZM162.398 80.424V77.7772L134.064 94.1164V96.7123L162.398 80.424Z" fill="#FF61CB"/>
</g>
<g opacity="0.7">
<path opacity="0.7" d="M127.018 74.4175L229.122 15.627V95.4905L127.018 154.281V74.4175ZM167.145 127.914V64.3391L130.949 85.2085V148.733L167.145 127.914ZM224.885 92.8436V51.4612L177.406 78.795V120.177L224.885 92.8436ZM224.629 27.5887V20.3607L129.366 75.4355V82.4598L224.629 27.5887ZM224.629 34.2567V31.1517L177.202 58.4346V61.5905L224.629 34.2567ZM224.629 40.1103V37.0053L177.151 64.3391V67.4441L224.629 40.1103ZM224.629 47.1855V44.0297L177.253 71.2616V74.4175L224.629 47.1855Z" fill="#FF61CB"/>
</g>
<g opacity="0.5">
<path opacity="0.5" d="M224.731 37.0049V40.1098L177.252 67.4436V64.3387L224.731 37.0049Z" fill="#FF61CB"/>
</g>
<g opacity="0.5">
<path opacity="0.5" d="M130.795 79.7116L182.511 49.9345V46.626L130.744 76.403L130.795 79.7116Z" fill="#FF61CB"/>
</g>
<g opacity="0.5">
<path opacity="0.5" d="M224.629 27.5883V20.3604L129.366 75.4351V82.4594L224.629 27.5883ZM222.74 23.4144V26.723L202.319 38.532V35.2234L222.74 23.4144ZM182.511 46.6252V49.9338L130.795 79.7108V76.3513L182.511 46.6252Z" fill="#FF61CB"/>
</g>
<g opacity="0.5">
<path opacity="0.5" d="M222.792 23.415V26.7236L202.32 38.5326V35.2241L222.792 23.415Z" fill="#FF61CB"/>
</g>
<g opacity="0.5">
<path opacity="0.5" d="M224.68 31.1519L224.731 34.2568L177.252 61.5906V58.4347L224.68 31.1519Z" fill="#FF61CB"/>
</g>
<g opacity="0.5">
<path opacity="0.5" d="M162.295 90.7056V93.3015L133.91 109.641V107.045L162.295 90.7056Z" fill="#FF61CB"/>
</g>
<g opacity="0.5">
<path opacity="0.5" d="M162.244 77.7769V80.4237L133.91 96.712V94.116L162.244 77.7769Z" fill="#FF61CB"/>
</g>
<g opacity="0.5">
<path opacity="0.5" d="M162.192 71.9238L162.243 74.5198L133.909 90.859L133.858 88.263L162.192 71.9238Z" fill="#FF61CB"/>
</g>
</g>
</g>
<g opacity="0.5">
<path opacity="0.5" d="M108.076 52.3774V54.8716L81.3247 70.2437V67.8004L108.076 52.3774Z" fill="#FF61CB"/>
<path opacity="0.5" d="M108.128 74.5186L108.179 91.9267L81.428 107.35L81.377 89.9415L108.128 74.5186Z" fill="#FF61CB"/>
<g opacity="0.6">
<path opacity="0.6" d="M78.3646 52.7337L112.314 33.0859V92.9963L78.2114 112.644L78.3646 52.7337ZM108.179 91.9274V74.5193L81.4277 89.7895V107.198L108.179 91.9274ZM108.179 42.7062V40.2121L81.4277 55.4823V57.9765L108.179 42.7062ZM108.179 54.8715V52.3774L81.4277 67.6477V70.0909L108.179 54.8206V54.8715ZM108.179 60.3688V57.9256L81.4277 73.1959V75.69L108.128 60.4197L108.179 60.3688ZM108.179 48.2035V45.8112L81.4788 61.0814V63.5756L108.179 48.3053V48.2035Z" fill="#FF61CB"/>
</g>
<path opacity="0.5" d="M115.939 27.7919L77.0884 50.1374V43.5203L115.99 21.1239V18.8843L74.791 42.5532V117.887L115.633 94.3194L115.939 27.7919ZM78.3647 52.7334L112.314 33.0856V92.996L78.2115 112.644L78.3647 52.7334Z" fill="#FF61CB"/>
<path opacity="0.5" d="M115.94 22.8037L78.3657 44.4366V47.5415L115.94 25.9087V22.8037Z" fill="#FF61CB"/>
<path opacity="0.5" d="M115.94 25.9082L78.3657 47.5411V44.4361L115.94 22.8033V21.1235L77.0894 43.5199V50.1371L115.94 27.7916V25.9082Z" fill="#FF61CB"/>
<path opacity="0.5" d="M108.076 57.9248V60.4189L81.3758 75.791L81.3247 73.2969L108.076 57.9248Z" fill="#FF61CB"/>
<path opacity="0.5" d="M108.025 45.7603V48.2035L81.3247 63.5756V61.1323L108.025 45.7603Z" fill="#FF61CB"/>
<path opacity="0.5" d="M108.026 40.2114V42.7056L81.2749 58.0776V55.6344L108.026 40.2114Z" fill="#FF61CB"/>
</g>
<g opacity="0.5">
<g opacity="0.5">
<path opacity="0.5" d="M106.597 141.352L106.648 157.437L71.8308 177.492L71.7798 161.356L106.597 141.352Z" fill="#FF61CB"/>
<g opacity="0.6">
<path opacity="0.6" d="M68.2056 159.473L109.047 135.855V171.486L68.2056 195.104V159.473ZM106.648 157.437V141.353L71.8303 161.408V177.442L106.648 157.437Z" fill="#FF61CB"/>
</g>
<path opacity="0.5" d="M109.201 129.442V132.14L68.2056 155.758V153.06L109.201 129.442Z" fill="#FF61CB"/>
<g opacity="0.7">
<path opacity="0.7" d="M66.0615 133.972L109.15 109.183V115.24L66.0615 140.08V201.161L113.183 174.031V105.009L66.2657 132.038L66.0615 133.972ZM109.354 171.588L68.512 195.206V159.575L109.354 135.957V171.588ZM109.354 132.139L68.512 155.757V153.06L109.354 129.442V132.139ZM109.354 126.082L68.512 149.7V146.952L109.354 123.384V126.082ZM109.354 120.992L68.512 144.61V141.912L109.354 118.294V120.992Z" fill="#FF61CB"/>
</g>
<path opacity="0.5" d="M109.201 123.385V126.083L68.2056 149.701V147.003L109.201 123.385Z" fill="#FF61CB"/>
<path opacity="0.5" d="M109.15 109.184L66.0615 133.972V140.08L109.15 115.241V109.184ZM89.8519 124.708V121.807L107.516 111.627V114.477L89.8519 124.708Z" fill="#FF61CB"/>
<path opacity="0.5" d="M107.517 111.626L107.568 114.528L89.8525 124.708V121.807L107.517 111.626Z" fill="#FF61CB"/>
<path opacity="0.5" d="M109.201 118.295V120.993L68.1553 144.611V141.913L109.201 118.295Z" fill="#FF61CB"/>
</g>
</g>
<g opacity="0.7">
<g opacity="0.7">
<g opacity="0.14">
<path opacity="0.14" d="M49.6751 192.151L45.4888 194.645C45.3569 194.721 45.2072 194.761 45.0549 194.761C44.9025 194.761 44.7529 194.721 44.6209 194.645L40.3836 192.253C40.2569 192.176 40.1522 192.067 40.0795 191.938C40.0069 191.809 39.9688 191.663 39.9688 191.515C39.9688 191.367 40.0069 191.221 40.0795 191.092C40.1522 190.963 40.2569 190.854 40.3836 190.777L44.5188 188.334C44.6508 188.258 44.8004 188.218 44.9528 188.218C45.1051 188.218 45.2548 188.258 45.3867 188.334L49.624 190.726C49.7428 190.801 49.8415 190.904 49.9114 191.026C49.9813 191.148 50.0205 191.285 50.0255 191.425C50.0306 191.566 50.0013 191.705 49.9402 191.831C49.8792 191.958 49.7882 192.068 49.6751 192.151Z" fill="#A8FEFD"/>
</g>
<g opacity="0.29">
<path opacity="0.29" d="M49.573 185.23L45.4378 187.724C45.3059 187.8 45.1562 187.84 45.0039 187.84C44.8515 187.84 44.7019 187.8 44.5699 187.724L40.2815 185.331C40.1548 185.254 40.0501 185.146 39.9775 185.016C39.9048 184.887 39.8667 184.741 39.8667 184.593C39.8667 184.445 39.9048 184.299 39.9775 184.17C40.0501 184.041 40.1548 183.933 40.2815 183.855L44.4168 181.361C44.5487 181.285 44.6984 181.245 44.8507 181.245C45.0031 181.245 45.1527 181.285 45.2847 181.361L49.573 183.753C49.6998 183.831 49.8045 183.939 49.8771 184.068C49.9497 184.198 49.9879 184.343 49.9879 184.491C49.9879 184.64 49.9497 184.785 49.8771 184.914C49.8045 185.044 49.6998 185.152 49.573 185.23Z" fill="#A7FDFC"/>
</g>
<g opacity="0.43">
<path opacity="0.43" d="M49.4697 178.154L45.3345 180.648C45.2026 180.724 45.0529 180.764 44.9006 180.764C44.7482 180.764 44.5986 180.724 44.4666 180.648L40.2293 178.307C40.1026 178.229 39.9979 178.121 39.9252 177.992C39.8526 177.862 39.8145 177.717 39.8145 177.569C39.8145 177.42 39.8526 177.275 39.9252 177.146C39.9979 177.016 40.1026 176.908 40.2293 176.831L44.4156 174.336C44.5378 174.26 44.6794 174.219 44.824 174.219C44.9685 174.219 45.1101 174.26 45.2324 174.336L49.5208 176.729C49.6339 176.812 49.7249 176.922 49.7859 177.049C49.847 177.175 49.8763 177.314 49.8713 177.455C49.8662 177.595 49.827 177.732 49.7571 177.854C49.6871 177.976 49.5885 178.079 49.4697 178.154Z" fill="#A6FCFB"/>
</g>
<g opacity="0.57">
<path opacity="0.57" d="M49.4188 171.384L45.2325 173.878C45.1102 173.955 44.9686 173.996 44.8241 173.996C44.6795 173.996 44.5379 173.955 44.4156 173.878L40.1272 171.536C40.0005 171.459 39.8958 171.351 39.8232 171.221C39.7505 171.092 39.7124 170.947 39.7124 170.798C39.7124 170.65 39.7505 170.505 39.8232 170.375C39.8958 170.246 40.0005 170.138 40.1272 170.06L44.3135 167.566C44.4493 167.503 44.5975 167.47 44.7475 167.47C44.8975 167.47 45.0456 167.503 45.1814 167.566L49.4188 169.959C49.5346 170.038 49.6293 170.145 49.6947 170.269C49.7601 170.393 49.7943 170.531 49.7943 170.671C49.7943 170.811 49.7601 170.95 49.6947 171.074C49.6293 171.198 49.5346 171.304 49.4188 171.384Z" fill="#A4FAF9"/>
</g>
<g opacity="0.71">
<path opacity="0.71" d="M49.3167 164.461L45.1815 166.955C45.0495 167.031 44.8999 167.071 44.7475 167.071C44.5952 167.071 44.4455 167.031 44.3136 166.955L40.0252 164.614C39.8985 164.537 39.7938 164.428 39.7211 164.299C39.6485 164.17 39.6104 164.024 39.6104 163.876C39.6104 163.728 39.6485 163.582 39.7211 163.453C39.7938 163.324 39.8985 163.215 40.0252 163.138L44.1604 160.644C44.2924 160.568 44.442 160.528 44.5944 160.528C44.7467 160.528 44.8964 160.568 45.0283 160.644L49.3167 162.985C49.4434 163.063 49.5481 163.171 49.6208 163.3C49.6934 163.429 49.7315 163.575 49.7315 163.723C49.7315 163.871 49.6934 164.017 49.6208 164.146C49.5481 164.276 49.4434 164.384 49.3167 164.461Z" fill="#A3F9F8"/>
</g>
<g opacity="0.86">
<path opacity="0.86" d="M49.2664 157.793L45.0801 160.288C44.9482 160.364 44.7985 160.404 44.6462 160.404C44.4938 160.404 44.3442 160.364 44.2122 160.288L39.9749 157.793C39.8482 157.716 39.7435 157.608 39.6708 157.478C39.5982 157.349 39.5601 157.204 39.5601 157.055C39.5601 156.907 39.5982 156.762 39.6708 156.632C39.7435 156.503 39.8482 156.395 39.9749 156.317L44.1612 153.823C44.2835 153.746 44.425 153.706 44.5696 153.706C44.7141 153.706 44.8557 153.746 44.978 153.823L49.2664 156.165C49.4346 156.225 49.5801 156.335 49.683 156.481C49.7858 156.627 49.841 156.801 49.841 156.979C49.841 157.157 49.7858 157.331 49.683 157.477C49.5801 157.623 49.4346 157.733 49.2664 157.793Z" fill="#A2F8F7"/>
</g>
<path opacity="0.7" d="M49.1644 150.668L44.9781 153.162C44.8558 153.239 44.7142 153.279 44.5697 153.279C44.4251 153.279 44.2835 153.239 44.1612 153.162L39.8729 150.769C39.7461 150.692 39.6414 150.584 39.5688 150.454C39.4962 150.325 39.458 150.179 39.458 150.031C39.458 149.883 39.4962 149.737 39.5688 149.608C39.6414 149.479 39.7461 149.371 39.8729 149.293L44.0081 146.799C44.14 146.723 44.2897 146.683 44.442 146.683C44.5944 146.683 44.744 146.723 44.876 146.799L49.1133 149.191C49.2428 149.264 49.3514 149.369 49.4286 149.496C49.5058 149.623 49.549 149.767 49.5541 149.915C49.5593 150.063 49.5261 150.21 49.4579 150.342C49.3896 150.474 49.2885 150.586 49.1644 150.668Z" fill="#A1F7F6"/>
</g>
</g>
<g opacity="0.8">
<path opacity="0.8" d="M49.1639 150.668L44.9776 153.162C44.8554 153.239 44.7138 153.279 44.5692 153.279C44.4247 153.279 44.2831 153.239 44.1608 153.162L39.8724 150.769C39.7315 150.704 39.6123 150.6 39.5288 150.469C39.4452 150.338 39.4009 150.186 39.4009 150.031C39.4009 149.876 39.4452 149.724 39.5288 149.594C39.6123 149.463 39.7315 149.359 39.8724 149.293L44.0076 146.799C44.1396 146.723 44.2892 146.683 44.4416 146.683C44.5939 146.683 44.7436 146.723 44.8755 146.799L49.1129 149.191C49.2424 149.264 49.351 149.369 49.4281 149.496C49.5053 149.623 49.5486 149.767 49.5537 149.915C49.5588 150.063 49.5257 150.21 49.4574 150.342C49.3892 150.474 49.2881 150.586 49.1639 150.668Z" fill="#A2F8F7"/>
</g>
<g opacity="0.9">
<path opacity="0.6" d="M185.319 13.2352V14.9149L183.583 15.9329V14.1514C183.583 12.4208 183.021 11.7591 181.694 12.5226C181.051 12.921 180.53 13.4876 180.188 14.1608C179.846 14.8339 179.696 15.5878 179.754 16.3402V26.5203C179.754 28.2001 180.367 28.8618 181.694 28.0983C182.417 27.7121 183.004 27.1155 183.378 26.388C183.752 25.6605 183.895 24.8366 183.787 24.0262V21.6338L185.523 20.6158V22.9573C185.592 24.3203 185.286 25.6763 184.639 26.8785C183.991 28.0808 183.025 29.0834 181.847 29.778C179.345 31.2032 178.171 30.0325 178.171 27.182V17.46C178.102 16.0969 178.408 14.7409 179.055 13.5387C179.703 12.3365 180.669 11.3338 181.847 10.6393C184.144 9.21403 185.319 10.1811 185.319 13.2352Z" fill="url(#paint1_linear)"/>
<path opacity="0.6" d="M193.998 8.19597V8.70498L192.263 9.723V9.06129C192.263 7.38156 191.701 6.71985 190.374 7.48336C189.754 7.87398 189.254 8.42763 188.93 9.08327C188.606 9.73891 188.469 10.4711 188.536 11.1991C188.587 15.2712 193.998 12.6752 193.998 17.9689C194.058 19.3235 193.748 20.6689 193.101 21.8613C192.453 23.0537 191.493 24.0483 190.323 24.7388C187.821 26.2149 186.647 24.7388 186.647 22.1937V21.0739L188.434 20.3613V21.532C188.434 23.2626 188.995 23.8734 190.323 23.1608C190.96 22.7602 191.474 22.1915 191.807 21.5177C192.141 20.844 192.281 20.0914 192.212 19.3433C192.212 15.1694 186.8 17.918 186.8 12.6243C186.719 11.2781 187.009 9.93527 187.639 8.74176C188.269 7.54825 189.215 6.54969 190.374 5.85453C192.875 4.1748 193.998 5.34552 193.998 8.19597Z" fill="url(#paint2_linear)"/>
<path opacity="0.6" d="M202.676 3.20719V3.7162L200.991 4.68332V4.07251C200.991 2.39278 200.43 1.73106 199.103 2.49458C198.479 2.88092 197.976 3.4338 197.651 4.09055C197.326 4.7473 197.192 5.48164 197.265 6.21034C197.265 10.4351 202.727 7.68647 202.727 12.9802C202.792 14.3297 202.49 15.6717 201.852 16.8637C201.213 18.0556 200.263 19.053 199.103 19.75C196.601 21.2261 195.427 20.0045 195.427 17.2049V16.0851L197.06 15.2707V16.2887C197.06 18.0194 197.673 18.6302 199 17.8666C199.63 17.4701 200.138 16.9095 200.471 16.2457C200.804 15.5818 200.949 14.8398 200.889 14.1C200.889 9.92611 195.478 12.6748 195.478 7.38106C195.401 6.02976 195.699 4.6835 196.338 3.48953C196.978 2.29555 197.934 1.29982 199.103 0.611244C201.553 -0.813981 202.676 0.35674 202.676 3.20719Z" fill="url(#paint3_linear)"/>
</g>
<g opacity="0.9">
<path opacity="0.6" d="M27.8227 128.78V137.433L25.9849 138.451V119.516L27.8227 118.447V126.896L31.8048 124.606V116.156L33.6427 115.087V133.87L31.8048 134.888V126.489L27.8227 128.78Z" fill="url(#paint4_linear)"/>
<path opacity="0.6" d="M37.8812 131.427V114.578L34.8691 116.258V114.375L42.7312 109.896V111.982L39.7191 113.713V130.561L37.8812 131.427Z" fill="url(#paint5_linear)"/>
<path opacity="0.6" d="M49.9797 124.453L48.244 125.42L45.5382 111.982V127.253L43.9556 128.169V109.183L46.5082 107.707L49.1629 121.145L51.7666 104.653L54.3192 103.228V122.163L52.5834 123.181V107.91L49.9797 124.453Z" fill="url(#paint6_linear)"/>
<path opacity="0.6" d="M56.1572 120.89V102.108L57.9951 101.09V117.938L62.6409 115.291V117.073L56.1572 120.89Z" fill="url(#paint7_linear)"/>
</g>
<g opacity="0.6">
<path opacity="0.6" d="M163.06 204.928L155.861 205.691V204.215L163.06 196.631V198.158L157.546 203.961L163.06 203.604V204.928Z" fill="url(#paint8_linear)"/>
<path opacity="0.6" d="M172.402 186.043L165.969 208.694L164.387 209.61L170.819 187.163L172.402 186.043Z" fill="url(#paint9_linear)"/>
<path opacity="0.6" d="M173.577 197.292L179.091 191.489L173.577 192.049V190.522L180.776 189.759V191.286L173.577 198.819V197.292Z" fill="url(#paint10_linear)"/>
</g>
<g opacity="0.5">
<path opacity="0.5" d="M203.852 68.2582C207.477 66.1712 210.438 67.851 210.438 72.0248C210.321 74.2891 209.668 76.4935 208.532 78.4576C207.396 80.4218 205.81 82.0897 203.903 83.3248C200.278 85.4118 197.317 83.783 197.266 79.6091C197.401 77.3363 198.066 75.1263 199.21 73.1555C200.353 71.1847 201.943 69.5076 203.852 68.2582Z" fill="#E8C4E0"/>
</g>
<g opacity="0.5">
<path opacity="0.5" d="M203.852 71.2612C206.2 69.9378 208.14 71.0067 208.14 73.7045C208.06 75.172 207.635 76.6002 206.899 77.8736C206.163 79.1469 205.136 80.2296 203.903 81.0342C201.554 82.3576 199.614 81.0342 199.614 78.591C199.694 77.1234 200.119 75.6952 200.856 74.4219C201.592 73.1486 202.618 72.0658 203.852 71.2612Z" fill="#B53892"/>
</g>
<g opacity="0.5">
<path opacity="0.5" d="M203.851 74.0102C204.975 73.3485 205.842 74.0102 205.893 75.1301C205.847 75.8256 205.638 76.5007 205.283 77.1016C204.929 77.7025 204.438 78.2126 203.851 78.5913C202.779 79.2021 201.86 78.5913 201.86 77.4715C201.889 76.7776 202.085 76.1008 202.432 75.4984C202.778 74.8959 203.265 74.3855 203.851 74.0102Z" fill="#B53892"/>
</g>
<path d="M210.08 83.6309C209.94 81.9085 209.632 80.2038 209.161 78.5408C208.701 77.7264 206.915 74.3669 204.056 73.8579C202.422 73.5525 203.341 75.2831 204.873 77.2683C205.338 77.6607 205.691 78.1684 205.897 78.7402C206.104 79.3121 206.155 79.9279 206.047 80.5259C205.965 82.0202 206.137 83.5176 206.557 84.9543C206.659 86.0741 210.08 83.6309 210.08 83.6309Z" fill="#EFB185"/>
<path d="M206.252 84.9034C206.041 83.4719 205.61 82.0813 204.975 80.7804C204.056 79.457 205.384 78.2863 204.669 77.421C203.954 76.5557 202.678 74.4178 203.137 74.0615C203.954 75.2831 205.945 74.8759 206.966 78.5408C207.415 80.613 207.552 82.74 207.375 84.8525C206.609 85.107 206.405 85.3106 206.252 84.9034Z" fill="#E6A376"/>
<path d="M207.528 84.7507C207.528 84.7507 204.669 81.035 203.954 79.6607C203.239 78.2863 203.239 77.2174 203.597 77.3192C203.954 77.421 206.251 81.035 207.272 79.9152C208.293 78.7953 207.272 84.1399 207.528 84.7507Z" fill="#EFB185"/>
<path d="M236.168 102.26C236.168 102.26 235.811 107.35 229.174 105.67C222.537 103.991 210.693 99.0533 209.162 95.8465C207.797 92.0418 206.772 88.1241 206.099 84.1393C206.099 84.1393 209.315 85.2082 210.489 82.6123L215.594 93.1997C215.594 93.1997 236.475 98.6461 236.168 102.26Z" fill="#EA49BD"/>
<path d="M236.168 102.26C236.475 98.6461 215.748 93.1997 215.748 93.1997L210.642 82.6123C210.468 83.0066 210.209 83.3573 209.882 83.639C209.555 83.9208 209.17 84.1264 208.753 84.2411C209.357 87.5737 210.263 90.8447 211.459 94.0141C212.991 97.17 224.886 102.006 231.472 103.838C232.886 104.27 234.397 104.27 235.811 103.838C236.023 103.337 236.144 102.803 236.168 102.26Z" fill="#FE61CA"/>
<g opacity="0.1">
<path opacity="0.1" d="M242.09 186.807C252.301 192.762 252.301 202.383 242.09 208.338C236.324 211.286 229.936 212.823 223.456 212.823C216.976 212.823 210.588 211.286 204.822 208.338C194.611 202.383 194.611 192.762 204.822 186.807C210.597 183.887 216.981 182.365 223.456 182.365C229.931 182.365 236.315 183.887 242.09 186.807Z" fill="black"/>
</g>
<path d="M225.396 187.316C225.396 187.316 222.895 187.672 223.507 189.097C224.12 190.523 226.979 192.711 227.336 193.628C227.694 194.544 230.042 197.751 230.808 197.445C231.573 197.14 233.513 197.445 233.258 193.933C232.935 192.086 231.97 190.41 230.533 189.201C229.095 187.991 227.277 187.324 225.396 187.316Z" fill="#111114"/>
<path d="M220.648 200.804C220.648 200.804 221.873 204.316 218.861 205.182C215.849 206.047 216.717 204.113 210.182 205.742C203.647 207.37 202.881 204.062 203.035 203.298C203.188 202.535 207.578 201.161 209.008 200.804L213.143 199.735H220.903L220.648 200.804Z" fill="#111114"/>
<path d="M233.002 138.909C233.002 138.909 233.002 160.186 233.002 162.578C233.002 164.97 235.708 183.906 234.074 192.152C233.519 192.763 232.842 193.252 232.085 193.586C231.329 193.921 230.511 194.094 229.684 194.094C228.857 194.094 228.038 193.921 227.282 193.586C226.526 193.252 225.849 192.763 225.293 192.152C225.293 192.152 223.966 168.483 222.792 163.138C222.017 155.955 221.744 148.726 221.975 141.505L233.002 138.909Z" fill="#5FB9E6"/>
<path d="M224.63 141.912C224.63 141.912 223.558 155.706 222.485 169.297C222.485 169.297 221.771 196.376 221.158 200.295C221.158 200.295 212.377 202.433 211.509 198.31C211.509 198.31 211.764 174.489 211.509 169.551C210.957 160.515 211.454 151.445 212.99 142.523C214.93 134.633 224.63 141.912 224.63 141.912Z" fill="#5FB9E6"/>
<path d="M221.364 200.296C221.976 196.376 222.691 169.297 222.691 169.297C223.406 160.135 224.121 150.922 224.529 145.883L219.117 147.206C216.469 155.418 215.344 164.043 215.799 172.657C216.31 184.466 216.463 196.122 216.565 200.805C218.177 200.795 219.785 200.625 221.364 200.296Z" fill="#77D2FF"/>
<path d="M234.127 192.152C235.76 183.906 233.054 165.021 233.054 162.578C233.054 160.135 233.054 140.894 233.054 139.062L228.358 142.676C227.559 150.614 227.559 158.611 228.358 166.549C229.736 174.438 228.868 189.81 229.532 194.239C231.258 194.089 232.88 193.352 234.127 192.152Z" fill="#77D2FF"/>
<path d="M234.33 100.224C234.33 100.224 238.823 102.464 236.27 110.15C234.195 115.03 232.787 120.166 232.084 125.42C232.396 130.252 232.993 135.062 233.871 139.825C233.871 139.825 234.637 146.137 220.189 150.005C220.189 150.005 208.294 151.176 209.978 143.388C211.693 135.703 212.498 127.845 212.378 119.974C211.555 117.479 211.678 114.771 212.722 112.361C213.766 109.951 215.66 108.005 218.045 106.892C225.6 102.922 229.736 99.9186 234.33 100.224Z" fill="#FE61CA"/>
<path d="M212.632 120.025C212.752 127.896 211.947 135.755 210.233 143.439C208.905 148.835 214.164 149.904 217.584 150.056C218.656 146.595 216.818 140.385 219.32 132.801C221.976 126.239 222.336 118.977 220.341 112.186C220.075 111.181 219.507 110.282 218.713 109.608C217.919 108.935 216.937 108.52 215.899 108.419C214.286 109.83 213.118 111.678 212.538 113.739C211.958 115.799 211.991 117.983 212.632 120.025Z" fill="#EA49BD"/>
<path d="M228.969 96.7117C228.71 98.8297 228.973 100.979 229.734 102.973C230.96 105.212 221.515 107.299 221.311 105.212C221.802 103.964 222.011 102.624 221.922 101.287C221.834 99.9495 221.451 98.648 220.8 97.4752C219.779 95.3374 228.969 96.7117 228.969 96.7117Z" fill="#EFB185"/>
<path d="M229.735 103.075C228.941 101.267 228.607 99.2909 228.765 97.3232L221.873 100.734C222.128 100.734 226.978 101.955 227.795 105.315C229.327 104.704 230.297 103.94 229.735 103.075Z" fill="#DD9569"/>
<path d="M219.015 85.8191C218.195 87.9807 217.796 90.2784 217.84 92.5889C218.147 95.9484 217.84 96.661 217.84 98.1371C217.803 98.9379 218.077 99.7222 218.606 100.326C219.492 100.93 220.528 101.279 221.601 101.333C222.673 101.387 223.739 101.144 224.681 100.631C226.73 99.8628 228.433 98.387 229.483 96.472C230.532 94.5571 230.857 92.3303 230.399 90.1966C230.132 89.0247 229.579 87.9364 228.79 87.0275C228.002 86.1186 227.001 85.417 225.876 84.9846C224.752 84.5521 223.537 84.4021 222.341 84.5476C221.144 84.6931 220.002 85.1298 219.015 85.8191Z" fill="#EFB185"/>
<path d="M230.298 94.8801C228.844 91.8084 227.137 88.8629 225.192 86.0743C224.457 85.4046 223.632 84.8394 222.742 84.3945C221.336 84.5489 219.988 85.0377 218.811 85.8198C218.811 85.8198 218.454 86.8378 218.096 88.1612C218.913 89.1283 220.649 90.1972 220.904 90.9607C221.425 92.8479 221.39 94.8449 220.802 96.7125C220.24 97.9851 222.487 99.8175 222.027 100.886C222.957 100.838 223.873 100.632 224.733 100.276C227.228 99.2776 229.227 97.3389 230.298 94.8801Z" fill="#E6A376"/>
<path d="M218.503 84.7506C217.38 85.4123 217.482 87.4483 220.545 88.9753C222.383 89.8916 222.23 92.8438 222.128 93.4037C221.881 94.5074 221.744 95.6327 221.719 96.7632C222.179 97.374 223.608 95.4398 224.323 95.5925C226.059 95.9488 225.395 97.5267 223.761 99.2573C222.128 100.988 226.518 101.802 228.867 100.326C229.939 99.5118 230.347 99.0537 231.777 96.2033C232.429 95.2669 232.878 94.2052 233.095 93.0859C233.313 91.9667 233.293 90.8145 233.039 89.7031C232.784 88.5917 232.3 87.5455 231.616 86.6314C230.933 85.7173 230.066 84.9553 229.071 84.3943C227.506 83.309 225.632 82.7572 223.727 82.8214C221.823 82.8857 219.99 83.5624 218.503 84.7506Z" fill="#131C24"/>
<path d="M228.613 100.326C229.685 99.512 230.093 99.0539 231.523 96.2035C233.616 92.0296 234.331 87.0922 229.43 84.3945C228.037 83.2763 226.316 82.6416 224.529 82.5864C222.741 82.5313 220.985 83.0589 219.525 84.0891C219.27 84.0891 217.79 84.9035 217.892 85.6161C219.474 85.8706 223.763 86.685 224.835 88.5174C225.907 90.3499 227.694 90.0445 227.592 92.844C227.49 95.6436 228.153 99.0539 223.61 100.581C224.383 101.014 225.263 101.219 226.148 101.174C227.033 101.129 227.888 100.835 228.613 100.326Z" fill="#1D2833"/>
<path d="M221.975 103.941L221.056 104.755L218.912 106.537C218.912 106.537 228.458 109.285 231.266 104.603C231.472 103.96 231.429 103.264 231.145 102.651C230.862 102.039 230.359 101.555 229.735 101.294C229.735 101.294 229.224 105.112 221.975 103.941Z" fill="#DEF0F9"/>
<path d="M191.854 126.795C191.854 126.795 188.281 126.54 187.668 125.777C187.056 125.013 185.881 125.777 186.698 126.439C187.249 126.969 187.912 127.369 188.638 127.609C188.638 127.609 184.401 127.609 184.043 126.591C183.686 125.573 183.584 129.9 185.473 130.765C186.726 131.557 188.218 131.889 189.69 131.703C191.162 131.517 192.523 130.825 193.539 129.747C193.488 129.163 193.311 128.597 193.02 128.088C192.73 127.578 192.332 127.137 191.854 126.795Z" fill="#F1B287"/>
<path d="M217.482 108.318C217.482 108.318 222.178 110.202 218.554 115.699C214.929 121.196 208.343 130.257 204.923 130.715C201.502 131.173 192.058 131.275 192.058 131.275C192.485 130.527 192.67 129.666 192.588 128.81C192.506 127.953 192.16 127.143 191.598 126.49L203.544 123.792C203.544 123.792 214.418 106.893 217.482 108.318Z" fill="#EA49BD"/>
<path d="M217.482 108.318C214.214 106.944 203.544 123.589 203.544 123.589L191.598 126.286C192.001 126.642 192.301 127.099 192.466 127.61C196.864 127.254 201.221 126.505 205.484 125.37C210.314 120.25 214.767 114.79 218.809 109.031C218.4 108.736 217.954 108.497 217.482 108.318Z" fill="#FE61CA"/>
</g>
<defs>
<linearGradient id="paint0_linear" x1="150.019" y1="63.5422" x2="91.7147" y2="198.322" gradientUnits="userSpaceOnUse">
<stop stop-color="#FFF2C9"/>
<stop offset="1" stop-color="#FFB7BB"/>
</linearGradient>
<linearGradient id="paint1_linear" x1="631.911" y1="465.737" x2="122.6" y2="335.485" gradientUnits="userSpaceOnUse">
<stop stop-color="#FFF2C9"/>
<stop offset="1" stop-color="#FFB7BB"/>
</linearGradient>
<linearGradient id="paint2_linear" x1="647.235" y1="427.833" x2="139.178" y2="297.227" gradientUnits="userSpaceOnUse">
<stop stop-color="#FFF2C9"/>
<stop offset="1" stop-color="#FFB7BB"/>
</linearGradient>
<linearGradient id="paint3_linear" x1="660.433" y1="395.929" x2="154.912" y2="267.639" gradientUnits="userSpaceOnUse">
<stop stop-color="#FFF2C9"/>
<stop offset="1" stop-color="#FFB7BB"/>
</linearGradient>
<linearGradient id="paint4_linear" x1="345.47" y1="1289.57" x2="-189.511" y2="1165.51" gradientUnits="userSpaceOnUse">
<stop stop-color="#FFF2C9"/>
<stop offset="1" stop-color="#FFB7BB"/>
</linearGradient>
<linearGradient id="paint5_linear" x1="372.622" y1="1154.37" x2="-169.949" y2="1014.2" gradientUnits="userSpaceOnUse">
<stop stop-color="#FFF2C9"/>
<stop offset="1" stop-color="#FFB7BB"/>
</linearGradient>
<linearGradient id="paint6_linear" x1="500.058" y1="1276.22" x2="-202.192" y2="1069.78" gradientUnits="userSpaceOnUse">
<stop stop-color="#FFF2C9"/>
<stop offset="1" stop-color="#FFB7BB"/>
</linearGradient>
<linearGradient id="paint7_linear" x1="347.597" y1="1005.97" x2="-105.399" y2="901.025" gradientUnits="userSpaceOnUse">
<stop stop-color="#FFF2C9"/>
<stop offset="1" stop-color="#FFB7BB"/>
</linearGradient>
<linearGradient id="paint8_linear" x1="425.656" y1="594.743" x2="22.9655" y2="368.389" gradientUnits="userSpaceOnUse">
<stop stop-color="#FFF2C9"/>
<stop offset="1" stop-color="#FFB7BB"/>
</linearGradient>
<linearGradient id="paint9_linear" x1="472.01" y1="1191.42" x2="-85.7538" y2="1057.21" gradientUnits="userSpaceOnUse">
<stop stop-color="#FFF2C9"/>
<stop offset="1" stop-color="#FFB7BB"/>
</linearGradient>
<linearGradient id="paint10_linear" x1="456.329" y1="564.769" x2="53.6374" y2="338.416" gradientUnits="userSpaceOnUse">
<stop stop-color="#FFF2C9"/>
<stop offset="1" stop-color="#FFB7BB"/>
</linearGradient>
<clipPath id="clip0">
<rect width="262" height="226" fill="white"/>
</clipPath>
</defs>
</svg>
