<svg width="237" height="226" viewBox="0 0 237 226" fill="none" xmlns="http://www.w3.org/2000/svg">
<g clip-path="url(#clip0)">
<path opacity="0.1" d="M17.9961 179.126L108.182 226.001L235.923 148.51L150.363 98.4814L17.9961 179.126Z" fill="black"/>
<path d="M183.126 145.846L186.174 144.052L186.337 73.4678L183.344 75.2623L183.126 145.846Z" fill="#E6E6FF"/>
<path d="M183.345 75.2617L186.338 73.4672L145.3 49.7578L142.252 51.5523L183.345 75.2617Z" fill="#AEB6BC"/>
<path d="M142.252 51.5527L142.034 122.137L183.127 145.846L183.344 75.2621L142.252 51.5527Z" fill="#C0C0F6"/>
<path d="M80.8569 205.882L83.9049 204.141L84.0682 133.557L81.0202 135.297L80.8569 205.882Z" fill="#ACACE0"/>
<path d="M81.0211 135.297L84.069 133.557L43.0308 109.847L39.9829 111.642L81.0211 135.297Z" fill="#AEB6BC"/>
<path d="M39.9828 111.642L39.7651 182.226L80.8577 205.881L81.021 135.297L39.9828 111.642Z" fill="#C0C0F6"/>
<path d="M21.5869 116.372V120.886L74.5447 151.61V147.151L21.5869 116.372Z" fill="#ACACE0"/>
<path d="M74.5444 147.15V151.609L195.101 82.1126L195.046 77.5991L74.5444 147.15Z" fill="#C0C0F6"/>
<path d="M21.5869 116.372L74.5447 147.151L195.047 77.5997L142.143 46.8755L21.5869 116.372Z" fill="#E9F0F4"/>
<path d="M111.009 88.7471L124.997 96.8496L157.98 77.8169L144.047 69.7144L111.009 88.7471Z" fill="#C0C0F6"/>
<path d="M112.697 86.5713L112.751 88.5289L122.385 94.1844V92.1724L112.697 86.5713Z" fill="#95C4DE"/>
<path d="M122.384 92.1727V94.1847L145.298 80.9705V78.9585L122.384 92.1727Z" fill="#A9D6EA"/>
<path d="M112.697 86.5716L122.385 92.1726L145.299 78.9585L135.611 73.3574L112.697 86.5716Z" fill="#E6E7EC"/>
<path d="M112.697 86.5716L145.299 78.9585L135.611 73.3574L112.697 86.5716Z" fill="#DEF6FF"/>
<path d="M121.679 88.4754L119.937 87.4965L119.883 69.6602L121.624 70.639L121.679 88.4754Z" fill="#95C4DE"/>
<path d="M121.624 70.6394L119.883 69.6606L135.449 60.688L137.136 61.6668L121.624 70.6394Z" fill="#C0C5D1"/>
<path d="M137.135 61.6665L137.19 79.5029L121.678 88.4755L121.624 70.6391L137.135 61.6665Z" fill="#A9D6EA"/>
<path d="M106.003 88.3664L104.316 87.877L97.2402 52.9111L98.8731 53.3462L106.003 88.3664Z" fill="#95C4DE"/>
<path d="M98.8731 53.3465L97.2402 52.9114L143.449 26.2656L145.082 26.7007L98.8731 53.3465Z" fill="#A9D6EA"/>
<path d="M145.081 26.7012L152.156 61.7214L106.002 88.3672L98.8721 53.347L145.081 26.7012Z" fill="#DEF6FF"/>
<path d="M143.831 29.5288L150.144 61.0144L107.364 85.7569L100.833 53.8363L143.831 29.5288Z" fill="url(#paint0_linear)"/>
<path d="M138.334 39.8062L142.47 60.3615L114.603 76.4577L110.358 55.6305L138.334 39.8062Z" fill="#DEFCFF"/>
<path d="M138.387 46.6035L138.551 47.528L122.93 56.9356L122.767 56.0655L138.387 46.6035Z" fill="#17CFBF"/>
<path d="M138.007 44.1567L138.17 45.0812L122.55 54.4888L122.386 53.6187L138.007 44.1567Z" fill="#17CFBF"/>
<path d="M139.531 52.1504L139.749 53.0748L124.128 62.4824L123.965 61.6124L139.531 52.1504Z" fill="#17CFBF"/>
<path d="M139.149 49.7031L139.366 50.6276L123.746 60.0352L123.583 59.1651L139.149 49.7031Z" fill="#17CFBF"/>
<path d="M104.97 53.3462L105.351 55.0863L102.956 56.4458L102.63 54.7057L104.97 53.3462Z" fill="#17CFBF"/>
<path d="M106.058 57.8604L106.385 59.6005L104.045 60.96L103.664 59.2198L106.058 57.8604Z" fill="#17CFBF"/>
<path d="M106.982 62.6997L107.363 64.4398L105.023 65.7993L104.642 64.0592L106.982 62.6997Z" fill="#17CFBF"/>
<path d="M107.799 67.1045L108.126 68.8446L105.785 70.2041L105.404 68.464L107.799 67.1045Z" fill="#17CFBF"/>
<path d="M112.806 56.5009L120.044 52.6943L121.895 62.0476L114.602 65.9085L112.806 56.5009ZM114.765 64.4946L121.296 61.0687C121.148 60.4764 120.815 59.9466 120.345 59.5556C119.875 59.1647 119.294 58.9328 118.684 58.8936C118.764 58.5354 118.764 58.1641 118.684 57.806C118.672 57.5883 118.606 57.3771 118.491 57.1917C118.376 57.0062 118.217 56.8523 118.028 56.7442C117.838 56.636 117.625 56.577 117.407 56.5725C117.188 56.568 116.973 56.6182 116.779 56.7184C116.331 56.9981 115.98 57.4097 115.775 57.8966C115.571 58.3834 115.522 58.9217 115.636 59.4374C115.696 59.7358 115.826 60.0155 116.017 60.2531C115.038 61.439 114.568 62.9639 114.711 64.4946H114.765Z" fill="#17CFBF"/>
<path d="M116.835 56.7184C117.028 56.6182 117.244 56.568 117.462 56.5725C117.681 56.5771 117.894 56.6361 118.083 56.7442C118.273 56.8524 118.432 57.0062 118.547 57.1917C118.661 57.3771 118.728 57.5884 118.74 57.806C118.82 58.1641 118.82 58.5355 118.74 58.8936C119.35 58.9329 119.931 59.1647 120.401 59.5556C120.87 59.9466 121.204 60.4764 121.352 61.0688L114.821 64.4946C114.678 62.9639 115.148 61.439 116.127 60.2531C115.937 60.0155 115.806 59.7358 115.746 59.4374C115.627 58.9273 115.667 58.393 115.862 57.9067C116.057 57.4204 116.396 57.0056 116.835 56.7184Z" fill="#17CFBF"/>
<path d="M62.6787 116.155L76.6121 124.257L109.649 105.225L95.7161 97.1221L62.6787 116.155Z" fill="#C0C0F6"/>
<path d="M64.0947 114.469V116.426L73.7283 122.027V120.07L64.0947 114.469Z" fill="#95C4DE"/>
<path d="M73.7285 120.07V122.028L96.6424 108.814V106.856L73.7285 120.07Z" fill="#A9D6EA"/>
<path d="M64.0947 114.469L73.7284 120.07L96.6422 106.856L86.9542 101.255L64.0947 114.469Z" fill="#DEF6FF"/>
<path d="M64.0947 114.469L96.6422 106.856L86.9542 101.255L64.0947 114.469Z" fill="#DEF6FF"/>
<path d="M73.0212 116.373L71.2795 115.339L71.2251 97.5029L72.9668 98.5361L73.0212 116.373Z" fill="#95C4DE"/>
<path d="M72.9668 98.5365L71.2251 97.5033L86.7913 88.5308L88.4786 89.564L72.9668 98.5365Z" fill="#C0C5D1"/>
<path d="M88.4776 89.5635L88.532 107.4L73.0202 116.372L72.9658 98.5361L88.4776 89.5635Z" fill="#A9D6EA"/>
<path d="M57.3453 116.209L55.6581 115.774L48.5825 80.7539L50.2153 81.2433L57.3453 116.209Z" fill="#95C4DE"/>
<path d="M50.2153 81.2436L48.5825 80.7542L94.7913 54.1084L96.4241 54.5978L50.2153 81.2436Z" fill="#A9D6EA"/>
<path d="M96.4231 54.5981L103.553 89.6184L57.3443 116.21L50.2144 81.244L96.4231 54.5981Z" fill="#DEF6FF"/>
<path d="M95.1728 57.3716L101.486 88.9115L58.7066 113.6L52.1753 81.6791L95.1728 57.3716Z" fill="url(#paint1_linear)"/>
<path d="M89.6758 67.7031L93.8123 88.2041L65.9455 104.3L61.7002 83.5275L89.6758 67.7031Z" fill="#6876A5"/>
<path d="M89.7295 74.5005L89.8928 75.4249L74.3266 84.8325L74.1089 83.9625L89.7295 74.5005Z" fill="#17CFBF"/>
<path d="M89.3492 72.0537L89.5124 72.9782L73.9462 82.3858L73.7285 81.4613L89.3492 72.0537Z" fill="#17CFBF"/>
<path d="M90.9278 80.0474L91.091 80.9718L75.4704 90.3794L75.3071 89.455L90.9278 80.0474Z" fill="#17CFBF"/>
<path d="M90.5454 77.6006L90.7087 78.4707L75.0881 87.8782L74.9248 87.0082L90.5454 77.6006Z" fill="#17CFBF"/>
<path d="M56.3125 81.2437L56.6935 82.9838L54.2987 84.3433L53.9722 82.6031L56.3125 81.2437Z" fill="#17CFBF"/>
<path d="M57.4006 85.7573L57.7272 87.4975L55.3868 88.8569L55.0059 87.0624L57.4006 85.7573Z" fill="#17CFBF"/>
<path d="M58.3787 90.5967L58.7052 92.3368L56.3649 93.6963L55.9839 91.9018L58.3787 90.5967Z" fill="#17CFBF"/>
<path d="M59.1414 95.0015L59.4679 96.7416L57.1276 98.1011L56.7466 96.3066L59.1414 95.0015Z" fill="#17CFBF"/>
<path d="M64.3125 84.398L71.5513 80.5371L73.4019 89.9447L66.1086 93.7513L64.3125 84.398ZM66.1086 92.4462L72.6399 89.0203C72.4991 88.4238 72.1682 87.8892 71.6971 87.4969C71.2259 87.1046 70.6399 86.8759 70.0274 86.8451C70.1083 86.5054 70.1083 86.1515 70.0274 85.8119C70.0274 84.7243 68.9388 84.2349 68.1224 84.6699C67.6741 84.9496 67.3235 85.3612 67.1188 85.8481C66.9142 86.335 66.8655 86.8732 66.9794 87.3889C67.039 87.704 67.1692 88.0014 67.3604 88.259C66.8637 88.828 66.4909 89.4942 66.2661 90.2151C66.0412 90.936 65.969 91.6959 66.0542 92.4462H66.1086Z" fill="#17CFBF"/>
<path d="M68.1764 84.5613C68.9928 84.1263 69.8637 84.5613 70.0814 85.7033C70.1623 86.0429 70.1623 86.3968 70.0814 86.7365C70.6939 86.7672 71.2799 86.996 71.7511 87.3883C72.2222 87.7806 72.5531 88.3152 72.6939 88.9116L66.1626 92.3375C66.0774 91.5872 66.1496 90.8274 66.3745 90.1065C66.5994 89.3856 66.9721 88.7194 67.4689 88.1503C67.2777 87.8928 67.1474 87.5953 67.0879 87.2802C66.9686 86.7702 67.009 86.2359 67.2037 85.7496C67.3984 85.2633 67.738 84.8484 68.1764 84.5613Z" fill="#17CFBF"/>
<path d="M54.8424 68.0829L-1 100.33V82.6565L54.8424 50.4097V68.0829Z" fill="url(#paint2_linear)"/>
<path d="M6.56592 91.8477L7.05576 91.5758C7.4006 91.3721 7.6807 91.0751 7.86369 90.7191C8.04668 90.363 8.1251 89.9625 8.08988 89.5638V81.8963L9.06957 81.3525V88.9113C9.12264 89.6218 8.97786 90.3332 8.65125 90.9667C8.32464 91.6001 7.82894 92.1309 7.21905 92.5003L6.56592 92.8266V91.8477Z" fill="#E9F0F4"/>
<path d="M10.9738 88.258L10.6472 90.4876L9.77637 91.0314L11.4092 80.1555L12.8243 79.3398L14.5115 88.4212L13.5318 89.0193L13.2053 87.0073L10.9738 88.258ZM10.9738 87.2248L12.8787 86.1372L11.899 80.6993L10.9738 87.2248Z" fill="#E9F0F4"/>
<path d="M15.7097 77.5455L17.1248 85.4849L18.5399 76.1317L19.4107 75.5879L17.7779 86.4637L16.3628 87.0075L14.73 77.8718L15.7097 77.5455Z" fill="#E9F0F4"/>
<path d="M20.7722 82.6025V84.832L19.9014 85.3214L21.5342 74.4456L22.9493 73.6299L24.6365 82.7112L23.6569 83.255L23.0582 81.5692L20.7722 82.6025ZM20.7722 81.5692L22.7316 80.4273L21.7519 74.9894L20.7722 81.5692Z" fill="#E9F0F4"/>
<path d="M28.882 72.3249L27.9567 72.8687V72.5424C27.9567 71.618 27.6846 71.2917 26.977 71.6724C26.6446 71.9403 26.396 72.2979 26.261 72.7027C26.1259 73.1076 26.11 73.5427 26.215 73.9563C26.215 76.1858 29.1541 74.7176 29.1541 77.5453C29.1942 78.2739 29.0325 78.9994 28.6869 79.6421C28.3412 80.2849 27.8249 80.82 27.1947 81.1887C25.8885 82.0044 25.2354 81.1887 25.2354 79.8292V79.2311L26.1606 78.7417V79.3398C26.1606 80.2643 26.4872 80.5906 27.1947 80.2099C27.521 79.9905 27.7834 79.6889 27.9555 79.3356C28.1275 78.9822 28.2031 78.5897 28.1744 78.1979C28.1744 75.9683 25.2898 77.3822 25.2898 74.5545C25.2483 73.8394 25.404 73.1266 25.7399 72.4938C26.0758 71.861 26.579 71.3323 27.1947 70.9654C28.2833 70.2041 28.882 70.6935 28.882 72.3249Z" fill="#E9F0F4"/>
<path d="M33.5619 69.6606V70.6938L32.691 71.2376V70.2587C32.691 69.3887 32.3645 69.008 31.6569 69.4431C31.3121 69.6468 31.032 69.9438 30.849 70.2998C30.666 70.6559 30.5876 71.0564 30.6228 71.4551V76.893C30.6228 77.7631 30.9494 78.1437 31.6569 77.7631C32.0018 77.5459 32.2805 77.2384 32.4628 76.8741C32.6451 76.5099 32.724 76.1026 32.691 75.6967V74.3916L33.5619 73.8478V75.0985C33.6 75.8342 33.4379 76.5665 33.0929 77.2176C32.748 77.8686 32.2329 78.4142 31.6025 78.7963C30.2962 79.5576 29.6431 78.7963 29.6431 77.3824V71.9445C29.6105 71.2034 29.7807 70.4675 30.1356 69.8159C30.4904 69.1644 31.0164 68.6218 31.6569 68.2467C32.9632 67.4854 33.5619 68.138 33.5619 69.6606Z" fill="#E9F0F4"/>
<path d="M36.3925 65.5823C37.8076 64.821 38.3519 65.256 38.3519 66.7786V67.5943C38.3747 68.0907 38.2892 68.5862 38.1012 69.0463C37.9133 69.5065 37.6273 69.9202 37.2633 70.2589C38.0797 70.2589 38.3519 70.6395 38.3519 71.7271V73.3041C38.2519 73.6598 38.2519 74.036 38.3519 74.3917L37.3178 74.9899C37.2276 74.6145 37.2276 74.2232 37.3178 73.8479V72.2709C37.3178 71.1289 36.8823 71.0202 36.0659 71.5096L35.4128 71.8903V76.1318L34.4331 76.73V66.7242L36.3925 65.5823ZM36.3925 70.4764C36.7859 70.2886 37.1119 69.9842 37.3262 69.6048C37.5404 69.2253 37.6325 68.7892 37.5899 68.3556V67.4312C37.5899 66.5067 37.5899 66.1804 36.6102 66.6155L35.6849 67.1593V70.6939L36.3925 70.4764Z" fill="#E9F0F4"/>
<path d="M40.3645 63.2983V73.3585L39.3848 73.9567V63.8965L40.3645 63.2983Z" fill="#E9F0F4"/>
<path d="M43.2507 61.6669C44.6114 60.8512 45.2101 61.6669 45.2101 62.972V64.1684C45.2473 64.8954 45.0779 65.6182 44.7216 66.2532C44.3653 66.8883 43.8365 67.4097 43.1963 67.7574L42.5432 68.2468V72.2165L41.5635 72.8147V62.7545L43.2507 61.6669ZM43.2507 66.7786C43.5912 66.5838 43.8692 66.2964 44.0523 65.9497C44.2354 65.6031 44.316 65.2116 44.2848 64.8209V63.4614C44.2848 62.537 44.0127 62.2651 43.3051 62.6457L42.3799 63.1895V67.268L43.2507 66.7786Z" fill="#E9F0F4"/>
<path d="M47.2239 69.3888V60.3618L45.6455 61.2862V60.253L49.782 57.8604V58.8936L47.9859 59.818V68.845L47.2239 69.3888Z" fill="#E9F0F4"/>
<path d="M82.6007 1.63135L52.2847 19.0871V36.7603L82.6007 19.2502V1.63135Z" fill="url(#paint3_linear)"/>
<path d="M58.3809 28.5477H58.8707C59.197 28.3284 59.4594 28.0267 59.6315 27.6734C59.8035 27.3201 59.879 26.9276 59.8504 26.5357V18.6507L60.8301 18.1069V25.6656C60.8832 26.3762 60.7384 27.0876 60.4118 27.7211C60.0852 28.3545 59.5895 28.8853 58.9796 29.2547C58.7919 29.384 58.5913 29.4934 58.3809 29.5809V28.5477Z" fill="#CFE8F3"/>
<path d="M62.7899 25.0136L62.4633 27.1888L61.5381 27.7325L63.2253 16.8567L64.6404 16.041L66.2733 25.1223L65.2936 25.7205L64.967 23.8716L62.7899 25.0136ZM62.7899 23.9804L64.7493 22.8928L63.7696 17.4549L62.7899 23.9804Z" fill="#CFE8F3"/>
<path d="M67.4714 14.3011L68.8865 22.2405L70.3016 12.6698L71.1725 12.126L69.5396 23.0018L68.1245 23.8719L66.4917 14.7362L67.4714 14.3011Z" fill="#CFE8F3"/>
<path d="M72.587 19.3583L72.2605 21.7509L71.3896 22.2404L73.0225 11.3645L74.4376 10.5488L76.1248 19.6302L75.1451 20.1739L74.8186 18.3794L72.587 19.3583ZM72.587 18.3251L74.492 17.1831L73.5123 11.7452L72.587 18.3251Z" fill="#CFE8F3"/>
<path d="M140.619 0L110.358 17.4557V35.129L140.619 17.6732V0Z" fill="url(#paint4_linear)"/>
<path d="M120.481 15.8245C121.842 15.0632 122.441 15.8245 122.441 17.1296V18.3803C122.472 19.1063 122.299 19.8266 121.944 20.4604C121.588 21.0943 121.063 21.6167 120.427 21.9693L119.556 22.4587V26.4284L118.74 27.1897V16.9121L120.481 15.8245ZM120.481 20.9361C120.837 20.7543 121.13 20.4711 121.323 20.1226C121.517 19.774 121.603 19.3758 121.57 18.9785V17.6734C121.57 16.7489 121.243 16.4226 120.536 16.8577L119.611 17.4015V21.4255L120.481 20.9361Z" fill="#CFE8F3"/>
<path d="M124.182 19.196V23.7095L123.202 24.3076V14.2475L124.182 13.7037V18.2172L126.304 16.9664V12.453L127.284 11.9092V21.7518L126.304 22.35V17.9997L124.182 19.196Z" fill="#CFE8F3"/>
<path d="M130.223 10.2231C131.584 9.40738 132.182 10.2231 132.182 11.5282V12.7245C132.213 13.4505 132.041 14.1708 131.685 14.8046C131.33 15.4385 130.804 15.961 130.168 16.3135L129.298 16.803V20.7726L128.318 21.3164V11.3107L130.223 10.2231ZM130.223 15.3347C130.573 15.1474 130.862 14.8632 131.056 14.516C131.249 14.1688 131.337 13.7734 131.311 13.3771V12.0176C131.311 11.0931 130.985 10.8212 130.277 11.2019L129.352 11.7457V15.8241L130.223 15.3347Z" fill="#CFE8F3"/>
<path d="M35.8482 30.2896L5.53223 47.7453V65.4185L35.8482 47.9084V30.2896Z" fill="url(#paint5_linear)"/>
<path d="M17.4508 46.876V47.8005L16.5255 48.3443V47.3654C16.5255 46.4954 16.2534 46.1147 15.5458 46.4954C15.201 46.7126 14.9223 47.02 14.74 47.3843C14.5577 47.7486 14.4787 48.1558 14.5117 48.5618V53.9997C14.5117 54.8698 14.8383 55.2504 15.5458 54.8154C15.8852 54.6094 16.1581 54.3101 16.3318 53.9533C16.5055 53.5965 16.5728 53.1973 16.5255 52.8034V51.3895L17.4508 50.8457V52.0964C17.4909 52.825 17.3292 53.5505 16.9835 54.1932C16.6379 54.836 16.1216 55.3711 15.4914 55.7398C14.1851 56.5555 13.532 55.7398 13.532 54.3804V48.9424C13.5243 48.2675 13.6843 47.6012 13.9978 47.0033C14.3113 46.4053 14.7684 45.8945 15.3281 45.5165C16.8521 44.7552 17.4508 45.4078 17.4508 46.876Z" fill="#CFE8F3"/>
<path d="M20.77 48.0719V50.0839L20.0625 50.5189V48.4525L18.3208 49.4857V48.9419L20.0625 47.9631V45.6792L20.77 45.2441V47.2562L22.4573 46.2773V47.093L20.77 48.0719Z" fill="#CFE8F3"/>
<path d="M25.5071 45.244V47.2561L24.7995 47.6911V45.6791L23.1123 46.6579V45.8422L24.7995 44.8634V42.8514L25.5071 42.4707V44.4284L27.2488 43.5039V44.3196L25.5071 45.244Z" fill="#CFE8F3"/>
<path d="M114.876 105.44V107.67L126.687 114.576V112.347L114.876 105.44Z" fill="#82A5B5"/>
<path d="M126.687 112.348V114.577L167.997 90.7046V88.4751L126.687 112.348Z" fill="#5B737E"/>
<path d="M114.876 105.441L126.687 112.347L167.997 88.4748L156.186 81.623L114.876 105.441Z" fill="#92B8CA"/>
<path d="M117.651 105.061L121.679 107.399L159.941 85.4843L155.641 83.3091L117.651 105.061Z" fill="#ABCFDD"/>
<path d="M123.638 108.268L127.666 110.552L165.928 88.6376L161.628 86.4624L123.638 108.268Z" fill="#ABCFDD"/>
<path opacity="0.6" d="M187.427 171.185C203.429 179.451 203.374 192.937 187.427 200.985C178.402 205.084 168.603 207.204 158.689 207.204C148.776 207.204 138.977 205.084 129.952 200.985C114.059 192.774 114.005 179.233 129.952 171.185C138.981 167.1 148.778 164.987 158.689 164.987C168.601 164.987 178.398 167.1 187.427 171.185Z" fill="#FFEBC4"/>
<g opacity="0.86">
<path opacity="0.66" d="M190.473 148.618C208.434 157.917 208.38 172.817 190.473 182.061C180.373 186.618 169.417 188.974 158.334 188.974C147.251 188.974 136.296 186.618 126.195 182.061C108.397 172.817 108.288 157.862 126.195 148.618C136.299 144.075 147.254 141.726 158.334 141.726C169.415 141.726 180.369 144.075 190.473 148.618Z" fill="#FAE9C7"/>
</g>
<g opacity="0.71">
<path opacity="0.71" d="M193.577 126.105C213.389 136.383 213.334 152.86 193.577 163.083C182.402 168.136 170.276 170.75 158.009 170.75C145.742 170.75 133.617 168.136 122.441 163.083C102.738 152.86 102.629 136.329 122.441 126.105C133.624 121.079 145.747 118.48 158.009 118.48C170.271 118.48 182.394 121.079 193.577 126.105Z" fill="#F5E7CB"/>
</g>
<g opacity="0.57">
<path opacity="0.77" d="M196.625 103.592C218.396 114.849 218.396 132.957 196.625 144.105C184.386 149.625 171.111 152.48 157.683 152.48C144.254 152.48 130.979 149.625 118.74 144.105C96.9689 132.957 96.9689 114.74 118.468 103.592C130.751 98.056 144.071 95.1929 157.546 95.1929C171.021 95.1929 184.342 98.056 196.625 103.592Z" fill="#F0E5CE"/>
</g>
<g opacity="0.43">
<path opacity="0.83" d="M199.726 81.0798C223.348 93.3151 223.293 113 199.726 125.127C186.404 131.148 171.95 134.263 157.327 134.263C142.705 134.263 128.251 131.148 114.929 125.127C91.4704 113 91.3071 93.2063 114.602 81.0798C137.897 68.9532 176.268 68.9532 199.726 81.0798Z" fill="#EBE2D2"/>
</g>
<g opacity="0.29">
<path opacity="0.89" d="M202.775 58.5659C228.356 71.78 228.247 93.0423 203.047 106.148C177.847 119.253 136.972 119.416 111.446 106.148C85.9193 92.8791 86.0826 71.6712 111.119 58.5659C136.156 45.4605 177.466 45.4605 202.775 58.5659Z" fill="#E6E0D5"/>
</g>
<g opacity="0.14">
<path opacity="0.94" d="M205.822 36.0535C233.036 50.2465 233.036 73.0857 206.094 87.17C179.153 101.254 135.067 101.417 107.853 87.0068C80.6395 72.5963 80.6395 49.9746 107.527 35.8904C134.414 21.8061 178.609 21.7518 205.822 36.0535Z" fill="#E1DED9"/>
</g>
<path opacity="0.6" d="M187.427 171.294C203.429 179.614 203.374 193.046 187.427 201.148C178.398 205.233 168.601 207.346 158.689 207.346C148.778 207.346 138.981 205.233 129.952 201.148C114.059 192.937 114.005 179.397 129.952 171.294C138.987 167.233 148.782 165.133 158.689 165.133C168.597 165.133 178.392 167.233 187.427 171.294Z" fill="url(#paint6_linear)"/>
<path d="M197.114 86.2459C192.978 85.2127 189.494 97.7743 182.745 107.019L167.342 96.6867C163.151 98.59 164.675 99.5144 164.675 99.5144C168.726 106.259 174.617 111.71 181.657 115.23C182.668 115.665 183.773 115.834 184.868 115.719C192.597 111.858 196.951 103.919 200.38 93.9677C202.883 87.0072 197.114 86.2459 197.114 86.2459Z" fill="#EFB185"/>
<path d="M197.605 83.7443C197.605 83.7443 211.375 86.9527 197.605 107.073C195.091 107.497 192.509 106.969 190.364 105.591C188.22 104.213 186.668 102.085 186.012 99.623C186.012 99.623 190.638 82.9286 197.605 83.7443Z" fill="#4B23C9"/>
<path d="M167.725 96.5234C167.725 96.5234 162.282 89.726 155.914 90.4329C155.914 90.4329 155.914 92.2818 158.309 93.315C159.149 93.6492 159.892 94.1871 160.472 94.8801C161.051 95.5732 161.449 96.3996 161.629 97.2847C161.629 97.6653 159.397 97.6653 158.472 97.5566C157.547 97.4478 156.186 98.9161 158.472 99.3511C161.209 100.308 164.067 100.876 166.963 101.037C166.963 101.037 169.249 98.4266 167.725 96.5234Z" fill="#EFB185"/>
<path d="M187.971 177.059C187.936 177.308 187.844 177.545 187.703 177.753C187.561 177.96 187.373 178.132 187.154 178.255L159.941 193.917L159.015 194.297H157.981H156.947C156.638 194.246 156.343 194.136 156.076 193.971H155.75H155.478C155.454 193.864 155.454 193.752 155.478 193.645C155.478 193.645 155.478 193.645 155.478 193.318V195.602C155.694 195.642 155.915 195.642 156.131 195.602H156.838H157.165H158.961H159.288H159.723L186.937 179.887C187.164 179.789 187.36 179.63 187.504 179.429C187.648 179.228 187.734 178.991 187.753 178.745L187.971 177.059Z" fill="#242626"/>
<path d="M189.495 192.013L188.569 192.393C188.245 192.447 187.914 192.447 187.59 192.393C187.265 192.447 186.934 192.447 186.61 192.393L185.63 192.013L158.417 176.352C158.175 176.252 157.966 176.087 157.812 175.876C157.659 175.665 157.566 175.416 157.546 175.155V177.167C157.566 177.428 157.659 177.677 157.812 177.888C157.966 178.1 158.175 178.264 158.417 178.364L185.63 194.079H186.066H186.447H189.114H189.767V191.795C189.7 191.893 189.605 191.969 189.495 192.013Z" fill="#242626"/>
<path d="M188.789 190.327C189.026 190.417 189.23 190.577 189.374 190.786C189.519 190.995 189.596 191.243 189.596 191.496C189.596 191.75 189.519 191.998 189.374 192.206C189.23 192.415 189.026 192.575 188.789 192.665C188.155 193.013 187.443 193.195 186.72 193.195C185.997 193.195 185.286 193.013 184.652 192.665L157.438 177.004C157.182 176.926 156.957 176.768 156.798 176.552C156.638 176.337 156.552 176.076 156.552 175.808C156.552 175.54 156.638 175.279 156.798 175.064C156.957 174.848 157.182 174.69 157.438 174.612C158.075 174.304 158.773 174.144 159.479 174.144C160.186 174.144 160.884 174.304 161.521 174.612L188.789 190.327Z" fill="#3B3F3F"/>
<path d="M142.197 164.497C142.197 164.497 138.714 165.639 139.911 167.542C141.109 169.446 145.789 171.893 146.551 172.98C147.313 174.068 151.45 178.418 152.429 177.602C153.409 176.787 156.348 177.167 155.096 172.165C154.178 169.585 152.386 167.406 150.031 166.006C147.676 164.606 144.905 164.072 142.197 164.497Z" fill="#111114"/>
<path d="M140.947 128.063C140.947 128.063 135.504 130.347 141.927 158.407L145.301 173.144C145.301 173.144 148.893 178.582 156.513 173.144L152.758 142.365L140.947 128.063Z" fill="#29383D"/>
<path d="M146.825 178.908C146.825 178.908 149.111 183.802 144.865 185.488C140.62 187.174 141.654 184.292 132.456 187.663C123.258 191.035 121.57 186.304 121.57 185.216C121.57 184.128 127.775 181.464 129.734 180.703L137.191 177.766L146.77 177.331L146.825 178.908Z" fill="#111114"/>
<path d="M131.313 135.296C131.313 135.296 127.231 137.199 133.49 164.498L136.919 179.452C136.919 179.452 140.511 184.89 148.131 179.452L144.376 148.619L131.313 135.296Z" fill="#29383D"/>
<path d="M144.974 153.621L141.436 151.827L144.647 181.137C145.887 180.754 147.061 180.186 148.131 179.451L144.974 153.621Z" fill="#243135"/>
<path d="M154.824 159.603L150.198 155.199L153.899 174.666C154.836 174.283 155.716 173.77 156.511 173.144L154.824 159.603Z" fill="#243135"/>
<path d="M155.86 191.524C155.604 191.603 155.379 191.761 155.219 191.976C155.06 192.192 154.974 192.453 154.974 192.721C154.974 192.989 155.06 193.25 155.219 193.465C155.379 193.68 155.604 193.839 155.86 193.917C156.493 194.237 157.192 194.404 157.901 194.404C158.611 194.404 159.31 194.237 159.942 193.917L187.156 178.256C188.245 177.549 188.245 176.516 187.156 175.863C186.514 175.542 185.806 175.375 185.088 175.375C184.37 175.375 183.662 175.542 183.02 175.863L155.86 191.524Z" fill="#3B3F3F"/>
<path d="M176.596 163.138C176.569 162.837 176.465 162.549 176.293 162.301C176.121 162.053 175.888 161.854 175.616 161.724C174.842 161.323 173.984 161.114 173.113 161.114C172.241 161.114 171.383 161.323 170.609 161.724C170.276 161.853 169.994 162.088 169.807 162.392C169.62 162.697 169.539 163.054 169.575 163.41V183.91H169.847L170.609 184.291H173.875H174.31L174.8 184.019C175.507 183.639 175.888 183.095 175.834 182.605L176.596 163.138ZM169.629 163.518V163.79V163.518Z" fill="#111114"/>
<path d="M169.085 167.652L168.813 167.271C168.741 167.102 168.629 166.953 168.487 166.836L168.214 166.51L167.289 165.64L166.255 164.77L164.241 163.138H163.86L162.282 161.996H162.01L160.322 160.854L159.778 160.474L158.091 159.386H157.819L155.968 157.7H155.37L153.193 156.395L150.036 154.601L147.26 153.078H146.988L144.539 151.882L142.361 150.903L140.511 149.87L139.422 149.543H138.933H137.898L167.561 132.305H168.541H169.14L170.283 132.631L171.589 133.121L173.766 134.1H174.093L176.433 135.242H176.814L179.481 136.656H179.807L182.91 138.396L185.087 139.701L185.686 140.027L187.699 141.278H188.026L189.659 142.311L190.203 142.692L191.89 143.834H192.217L193.578 144.758L193.959 145.084L195.319 146.063L196.245 146.824C196.245 146.824 196.245 146.824 196.245 147.096L197.17 147.858V148.13C197.194 148.171 197.206 148.218 197.206 148.265C197.206 148.313 197.194 148.36 197.17 148.401L167.507 165.64C167.536 165.551 167.536 165.456 167.507 165.368C167.532 165.26 167.532 165.149 167.507 165.041L169.085 167.652Z" fill="#C0C0F6"/>
<path d="M153.192 156.177C144.375 151.12 137.245 148.129 137.245 149.543C137.245 150.957 144.375 156.232 153.192 161.343C162.009 166.455 169.139 169.392 169.139 167.978C169.139 166.564 162.281 161.289 153.192 156.177Z" fill="#ACACE0"/>
<path d="M196.026 143.289C196.026 143.289 194.992 157.373 179.698 153.132C164.404 148.89 153.573 144.812 153.573 144.812C153.573 144.812 133.87 131.217 141.653 127.737C141.544 127.737 148.674 120.559 196.026 143.289Z" fill="#29383D"/>
<path d="M196.026 143.289C196.026 143.289 194.992 157.373 179.698 153.132C164.404 148.89 153.573 144.812 153.573 144.812C153.573 144.812 133.87 131.217 141.653 127.737C141.544 127.737 148.674 120.559 196.026 143.289Z" fill="#29383D"/>
<path d="M187.644 149.38C187.644 149.38 186.665 163.518 171.316 159.277C159.931 155.817 148.86 151.397 138.225 146.062C138.225 146.062 125.489 137.362 133.272 133.881C133.163 133.881 140.51 126.703 187.644 149.38Z" fill="#29383D"/>
<path d="M133.163 133.882C131.259 134.697 130.605 135.894 130.66 137.145C142.743 137.145 169.575 146.443 169.575 146.443V141.44C138.443 128.607 133.163 133.882 133.163 133.882Z" fill="#354751"/>
<path d="M142.09 127.084C140.185 127.9 139.477 129.042 139.586 130.347C151.669 130.51 178.61 139.646 178.61 139.646V134.643C147.369 121.81 142.09 127.084 142.09 127.084Z" fill="#304047"/>
<path d="M198.149 83.744C198.149 83.744 204.734 87.1699 200.761 98.3176C197.547 105.509 195.313 113.1 194.121 120.885C194.446 128.01 195.191 135.11 196.353 142.147C196.353 142.147 197.278 151.392 175.997 156.503C175.997 156.503 158.526 157.917 161.628 146.498C164.348 135.26 165.755 123.746 165.819 112.184C165.492 107.78 162.989 98.9158 174.146 93.206C185.304 87.4962 191.128 83.1458 198.149 83.744Z" fill="#632BEE"/>
<path d="M165.819 112.185C165.755 123.746 164.348 135.261 161.628 146.498C159.505 154.383 167.071 156.123 172.132 156.45C173.82 151.392 171.37 142.202 175.235 131.109C179.305 121.549 180.034 110.898 177.303 100.874C176.902 99.4381 176.082 98.1541 174.948 97.1856C173.814 96.2171 172.417 95.6081 170.935 95.436C168.577 97.4531 166.843 100.1 165.937 103.066C165.031 106.033 164.99 109.196 165.819 112.185Z" fill="#4B23C9"/>
<path d="M196.354 142.148C195.193 135.11 194.448 128.011 194.123 120.886C195.343 113.106 197.575 105.52 200.763 98.3183C204.41 87.7687 200.437 84.8866 198.151 83.7446C196.899 89.1825 177.74 91.1946 178.121 94.6205C178.502 98.0464 183.564 102.669 183.564 110.01C183.65 117.941 182.847 125.858 181.169 133.61C180.054 140.581 180.054 147.684 181.169 154.655C197.116 149.761 196.354 142.148 196.354 142.148Z" fill="#693DF4"/>
<path d="M190.474 78.0345C189.995 81.265 190.37 84.5647 191.563 87.6053C193.359 90.9768 179.426 93.7501 179.153 90.6505C179.92 88.8361 180.268 86.8731 180.174 84.9061C180.08 82.9391 179.545 81.0183 178.609 79.2853C176.976 76.1313 190.474 78.0345 190.474 78.0345Z" fill="#EFB185"/>
<path d="M191.509 87.8227C190.386 85.1257 189.955 82.1908 190.257 79.2852L180.08 84.0705C180.461 84.0705 187.21 86.0282 188.625 90.9223C190.693 90.161 192.108 89.019 191.509 87.8227Z" fill="#DD9569"/>
<path d="M176.16 62.1558C174.873 65.2954 174.225 68.6601 174.255 72.0529C174.636 77.0014 173.874 77.9802 174.255 80.1554C174.24 81.3258 174.602 82.4701 175.29 83.4181C176.577 84.3293 178.088 84.8718 179.662 84.9868C181.235 85.1018 182.81 84.785 184.216 84.0707C187.241 82.9975 189.783 80.8777 191.38 78.0949C192.977 75.3121 193.525 72.0501 192.924 68.8989C192.554 67.1537 191.76 65.5264 190.612 64.1602C189.464 62.794 187.997 61.731 186.34 61.0648C184.684 60.3985 182.889 60.1496 181.114 60.3399C179.339 60.5301 177.638 61.1538 176.16 62.1558Z" fill="#EFB185"/>
<path d="M174.691 59.8172C174.499 61.2452 174.778 62.6968 175.485 63.9525C176.192 65.2083 177.289 66.2 178.61 66.7777C181.277 68.1372 180.95 72.5419 180.787 73.3032C180.38 74.9222 180.161 76.5826 180.134 78.2517C180.732 79.1762 182.909 76.4028 183.889 76.6203C186.447 77.1641 185.413 79.5568 183.018 82.0583C180.623 84.5597 186.991 85.8648 190.039 83.744C191.672 82.602 192.271 81.9495 194.448 77.7623C197.659 71.7262 197.931 64.4394 190.801 60.3609C183.671 56.2825 179.154 61.7748 174.691 59.8172Z" fill="#221101"/>
<path d="M189.767 83.6898C191.399 82.5479 191.998 81.8953 194.175 77.7081C197.386 71.672 197.659 64.3852 190.529 60.3068C183.399 56.2283 179.153 61.775 174.69 59.9261C174.592 60.5385 174.592 61.1627 174.69 61.775C176.976 62.21 183.181 63.5151 184.759 66.2885C186.338 69.0618 188.896 68.5724 188.678 72.7052C188.46 76.838 189.331 81.8409 182.637 83.9617C183.73 84.5927 184.979 84.902 186.241 84.8539C187.502 84.8058 188.725 84.4023 189.767 83.6898Z" fill="#341C09"/>
<path d="M177.086 127.736C176.161 126.758 173.712 135.132 171.643 146.443C169.718 153.655 168.892 161.117 169.194 168.575C170.119 169.5 172.623 161.125 174.637 149.869C176.608 142.665 177.434 135.197 177.086 127.736Z" fill="#ACACE0"/>
<path d="M207.076 107.725C207.05 107.618 207.05 107.506 207.076 107.399H206.64L176.923 128.389H177.467V128.661C177.442 128.768 177.442 128.88 177.467 128.987C177.276 136.088 176.401 143.154 174.855 150.087C173.988 156.559 172.153 162.865 169.412 168.793L198.803 151.609C201.363 144.305 203.187 136.763 204.246 129.096C205.886 122.082 206.834 114.924 207.076 107.725Z" fill="#C0C0F6"/>
<path d="M141.381 112.239C141.381 112.239 130.496 108.051 132.782 102.124C133.163 101.145 134.306 99.8402 135.884 102.124C137.463 104.408 142.415 105.931 142.579 108.269C142.579 108.323 143.613 113.598 141.381 112.239Z" fill="#EFB185"/>
<path d="M172.35 97.8822C168.214 96.9034 164.731 109.411 157.927 118.655L142.579 108.323C138.388 110.281 139.912 111.151 139.912 111.151C143.948 117.888 149.818 123.338 156.839 126.866C157.832 127.297 158.919 127.466 159.995 127.356C167.779 123.495 172.078 115.61 175.562 105.604C178.12 98.8611 172.35 97.8822 172.35 97.8822Z" fill="#EFB185"/>
<path d="M172.841 95.381C172.841 95.381 186.611 98.5894 172.841 118.71C170.327 119.134 167.745 118.606 165.6 117.228C163.456 115.85 161.904 113.721 161.248 111.26C161.248 111.26 165.874 94.5653 172.841 95.381Z" fill="#632BEE"/>
<path d="M139.748 104.788C139.748 104.788 139.204 102.45 139.748 102.232C140.293 102.015 142.959 106.854 142.578 108.323C142.197 109.791 139.748 104.788 139.748 104.788Z" fill="#EFB185"/>
</g>
<defs>
<linearGradient id="paint0_linear" x1="100.833" y1="57.6429" x2="150.144" y2="57.6429" gradientUnits="userSpaceOnUse">
<stop stop-color="#3A3586"/>
<stop offset="1" stop-color="#626BDC"/>
</linearGradient>
<linearGradient id="paint1_linear" x1="533.945" y1="941.277" x2="980.704" y2="941.277" gradientUnits="userSpaceOnUse">
<stop stop-color="#3A3586"/>
<stop offset="1" stop-color="#626BDC"/>
</linearGradient>
<linearGradient id="paint2_linear" x1="11.8955" y1="27.5797" x2="36.3229" y2="105.376" gradientUnits="userSpaceOnUse">
<stop stop-color="#FFF2C9"/>
<stop offset="1" stop-color="#FFB7BB"/>
</linearGradient>
<linearGradient id="paint3_linear" x1="-177.207" y1="867.56" x2="-151.172" y2="1393.46" gradientUnits="userSpaceOnUse">
<stop stop-color="#FFF2C9"/>
<stop offset="1" stop-color="#FFB7BB"/>
</linearGradient>
<linearGradient id="paint4_linear" x1="195.393" y1="953.049" x2="221.475" y2="1478.95" gradientUnits="userSpaceOnUse">
<stop stop-color="#FFF2C9"/>
<stop offset="1" stop-color="#FFB7BB"/>
</linearGradient>
<linearGradient id="paint5_linear" x1="-517.116" y1="997.039" x2="-490.674" y2="1522.93" gradientUnits="userSpaceOnUse">
<stop stop-color="#FFF2C9"/>
<stop offset="1" stop-color="#FFB7BB"/>
</linearGradient>
<linearGradient id="paint6_linear" x1="1899.77" y1="1610.92" x2="3115.83" y2="1610.92" gradientUnits="userSpaceOnUse">
<stop stop-color="#FFF2C9"/>
<stop offset="1" stop-color="#FFB7BB"/>
</linearGradient>
<clipPath id="clip0">
<rect width="236.922" height="226" fill="white"/>
</clipPath>
</defs>
</svg>
