<svg width="296" height="290" viewBox="0 0 296 290" fill="none" xmlns="http://www.w3.org/2000/svg">
<g clip-path="url(#clip0)">
<g opacity="0.3">
<path opacity="0.3" d="M163.267 190.495L152.602 196.699L150.164 195.3L158.574 190.373L155.527 189.765L156.99 188.427L161.195 189.278L163.267 190.495Z" fill="#FFD2CD"/>
<path opacity="0.3" d="M152.357 184.109C155.282 185.812 153.82 187.88 150.894 189.583C149.513 190.569 147.894 191.173 146.203 191.333C144.512 191.493 142.808 191.204 141.265 190.495C138.462 188.853 139.742 186.724 142.728 184.96C144.13 184.017 145.748 183.444 147.433 183.295C149.117 183.146 150.811 183.426 152.357 184.109ZM143.216 189.4C144.191 190.008 145.958 189.4 148.335 188.184C150.712 186.967 151.443 185.812 150.468 185.203C149.493 184.595 147.725 185.203 145.288 186.42C142.85 187.636 142.24 188.853 143.216 189.4Z" fill="#FFD2CD"/>
<path opacity="0.3" d="M143.398 178.817C146.262 180.52 144.861 182.648 141.935 184.351C140.531 185.316 138.901 185.902 137.203 186.051C135.505 186.2 133.797 185.908 132.246 185.203C129.503 183.622 130.722 181.432 133.769 179.668C135.171 178.725 136.79 178.152 138.474 178.003C140.158 177.854 141.852 178.134 143.398 178.817ZM134.074 184.169C135.049 184.716 136.816 184.169 139.254 182.892C141.692 181.614 142.362 180.52 141.326 179.911C140.29 179.303 138.645 179.911 136.146 181.128C133.647 182.344 133.099 183.561 134.074 184.169Z" fill="#FFD2CD"/>
<path opacity="0.3" d="M190.752 206.369L180.087 212.573L177.71 211.174L186.121 206.247L183.073 205.578L184.536 204.301L188.68 205.152L190.752 206.369Z" fill="#FFD2CD"/>
<path opacity="0.3" d="M198.43 210.566C201.295 212.208 199.893 214.337 196.968 216.04C195.575 217.005 193.955 217.591 192.266 217.741C190.578 217.89 188.879 217.597 187.339 216.892C184.535 215.31 185.815 213.181 188.801 211.418C190.198 210.464 191.818 209.884 193.504 209.735C195.19 209.586 196.887 209.872 198.43 210.566ZM189.289 215.858C190.264 216.405 191.97 215.858 194.408 214.641C196.846 213.425 197.516 212.208 196.48 211.661C195.444 211.113 193.799 211.661 191.3 212.877C188.801 214.094 188.314 215.31 189.289 215.858Z" fill="#FFD2CD"/>
<g opacity="0.3">
<path opacity="0.3" d="M170.64 194.631C173.565 196.273 172.102 198.402 169.177 200.105C167.795 201.091 166.177 201.695 164.486 201.855C162.795 202.016 161.091 201.727 159.548 201.017C156.745 199.375 158.025 197.246 161.011 195.483C162.413 194.539 164.031 193.967 165.715 193.818C167.399 193.669 169.094 193.949 170.64 194.631ZM161.498 199.923C162.473 200.47 164.241 199.923 166.678 198.706C169.116 197.49 169.726 196.334 168.751 195.726C167.775 195.118 166.008 195.726 163.57 196.942C161.133 198.159 160.523 199.375 161.498 199.923Z" fill="#FFD2CD"/>
<path opacity="0.3" d="M180.087 199.983C182.951 201.625 181.55 203.754 178.624 205.457C177.233 206.448 175.604 207.055 173.903 207.215C172.201 207.375 170.487 207.083 168.934 206.369C166.192 204.727 167.472 202.598 170.458 200.834C171.86 199.891 173.479 199.318 175.163 199.169C176.847 199.02 178.541 199.3 180.087 199.983ZM170.946 205.274C171.921 205.822 173.627 205.274 176.065 204.058C178.502 202.841 179.173 201.625 178.137 201.077C177.101 200.53 175.455 201.077 172.957 202.294C170.458 203.51 169.97 204.727 170.946 205.274Z" fill="#FFD2CD"/>
</g>
<path opacity="0.3" d="M207.633 215.858C210.497 217.5 209.035 219.629 206.11 221.332C204.717 222.297 203.097 222.883 201.408 223.032C199.72 223.182 198.021 222.889 196.481 222.183C193.738 220.602 194.957 218.473 197.943 216.709C199.352 215.756 200.982 215.177 202.677 215.028C204.373 214.879 206.079 215.164 207.633 215.858ZM198.431 221.149C199.406 221.697 201.173 221.149 203.611 219.872C206.049 218.595 206.719 217.5 205.683 216.953C204.647 216.405 202.94 216.953 200.503 218.169C198.065 219.386 197.456 220.602 198.431 221.149Z" fill="#FFD2CD"/>
<path opacity="0.3" d="M236.642 232.765L225.977 238.969L223.54 237.57L232.011 232.704L228.963 232.035L230.426 230.697L234.57 231.609L236.642 232.765Z" fill="#FFD2CD"/>
<g opacity="0.3">
<path opacity="0.3" d="M216.773 221.148C219.637 222.79 218.236 224.919 215.31 226.622C213.918 227.587 212.298 228.173 210.609 228.322C208.921 228.472 207.222 228.179 205.681 227.473C202.878 225.892 204.158 223.763 207.144 221.999C208.534 221.029 210.155 220.439 211.845 220.29C213.534 220.14 215.234 220.436 216.773 221.148ZM207.632 226.439C208.607 227.007 210.313 226.581 212.751 225.162C215.128 223.824 215.859 222.79 214.823 222.182C213.787 221.574 212.141 222.182 209.643 223.459C207.144 224.736 206.656 225.892 207.632 226.439Z" fill="#FFD2CD"/>
<path opacity="0.3" d="M227.499 227.534L216.834 233.677L214.396 232.278L222.806 227.412L219.759 226.743L221.222 225.405L225.366 226.317L227.499 227.534Z" fill="#FFD2CD"/>
</g>
<path opacity="0.3" d="M244.32 237.206C247.184 238.848 245.783 240.977 242.857 242.68C241.453 243.645 239.823 244.23 238.125 244.38C236.427 244.529 234.719 244.237 233.167 243.532C230.425 241.95 231.644 239.821 234.691 237.997C236.091 237.047 237.714 236.475 239.401 236.337C241.089 236.198 242.783 236.498 244.32 237.206ZM235.118 242.498C236.093 243.045 237.86 242.498 240.298 241.22C242.735 239.943 243.406 238.848 242.37 238.24C241.334 237.632 239.688 238.24 237.19 239.457C234.691 240.673 234.143 241.889 235.118 242.498Z" fill="#FFD2CD"/>
<path opacity="0.3" d="M143.52 201.929L132.855 208.133L130.417 206.734L138.889 201.807L135.841 201.199L137.304 199.861L141.448 200.712L143.52 201.929Z" fill="#FFD2CD"/>
<path opacity="0.3" d="M152.724 207.221L142.059 213.425L139.621 212.026L148.092 207.1L145.045 206.491L146.508 205.153L150.652 206.005L152.724 207.221Z" fill="#FFD2CD"/>
<path opacity="0.3" d="M161.864 212.513L151.199 218.717L148.822 217.318L157.232 212.392L154.185 211.723L155.648 210.445L159.792 211.297L161.864 212.513Z" fill="#FFD2CD"/>
<path opacity="0.3" d="M169.542 216.708C172.406 218.35 171.005 220.479 168.079 222.182C166.687 223.147 165.067 223.733 163.378 223.883C161.69 224.032 159.991 223.739 158.45 223.034C155.647 221.452 156.927 219.324 159.913 217.56C161.31 216.606 162.93 216.026 164.616 215.877C166.302 215.728 167.999 216.014 169.542 216.708ZM160.401 222C161.376 222.547 163.082 222 165.52 220.783C167.958 219.567 168.628 218.35 167.592 217.803C166.556 217.256 164.91 217.803 162.412 219.019C159.913 220.236 159.426 221.452 160.401 222Z" fill="#FFD2CD"/>
<path opacity="0.3" d="M206.23 237.874C209.155 239.516 207.692 241.645 204.767 243.348C203.375 244.313 201.754 244.899 200.066 245.048C198.377 245.198 196.679 244.905 195.138 244.199C192.335 242.618 193.614 240.489 196.601 238.725C197.99 237.755 199.611 237.165 201.301 237.016C202.991 236.866 204.69 237.162 206.23 237.874ZM197.088 243.165C198.063 243.713 199.831 243.165 202.207 241.888C204.584 240.611 205.315 239.516 204.34 238.908C203.365 238.3 201.598 238.908 199.16 240.185C196.722 241.462 196.113 242.618 197.088 243.165Z" fill="#FFD2CD"/>
<path opacity="0.3" d="M198.613 233.679L187.948 239.822L185.51 238.423L193.92 233.558L190.873 232.889L192.336 231.611L196.48 232.463L198.613 233.679Z" fill="#FFD2CD"/>
<path opacity="0.3" d="M187.887 227.292C190.752 228.935 189.35 231.063 186.425 232.766C185.032 233.731 183.412 234.318 181.723 234.467C180.035 234.616 178.336 234.324 176.796 233.618C173.992 232.037 175.272 229.908 178.258 228.144C179.648 227.173 181.269 226.584 182.959 226.434C184.649 226.285 186.348 226.581 187.887 227.292ZM178.746 232.584C179.721 233.131 181.488 232.584 183.865 231.307C186.242 230.029 186.973 228.935 185.998 228.387C185.023 227.84 183.256 228.387 180.818 229.604C178.38 230.82 177.771 232.037 178.746 232.584Z" fill="#FFD2CD"/>
<path opacity="0.3" d="M178.744 221.999C181.609 223.642 180.146 225.77 177.221 227.473C175.828 228.438 174.208 229.025 172.519 229.174C170.831 229.323 169.133 229.031 167.592 228.325C164.849 226.744 166.068 224.615 169.054 222.851C170.463 221.897 172.093 221.318 173.789 221.169C175.484 221.02 177.19 221.306 178.744 221.999ZM169.542 227.291C170.517 227.838 172.284 227.291 174.722 226.014C177.16 224.736 177.83 223.642 176.794 223.094C175.758 222.547 174.113 223.094 171.614 224.311C169.115 225.527 168.567 226.744 169.542 227.291Z" fill="#FFD2CD"/>
<path opacity="0.3" d="M224.575 248.397C227.501 250.1 226.038 252.229 223.113 253.871C221.731 254.857 220.112 255.461 218.421 255.621C216.73 255.781 215.027 255.492 213.484 254.783C210.68 253.202 211.96 251.012 214.946 249.248C216.348 248.305 217.967 247.732 219.651 247.583C221.335 247.434 223.029 247.714 224.575 248.397ZM215.434 253.749C216.409 254.296 218.176 253.749 220.614 252.472C223.052 251.195 223.661 250.1 222.686 249.492C221.711 248.883 219.944 249.492 217.506 250.708C215.068 251.924 214.459 253.141 215.434 253.749Z" fill="#FFD2CD"/>
<path opacity="0.3" d="M215.433 243.288C218.297 244.93 216.895 247.059 213.97 248.762C212.566 249.727 210.936 250.312 209.237 250.461C207.539 250.611 205.832 250.319 204.28 249.613C201.538 248.032 202.818 245.903 205.804 244.14C207.194 243.169 208.814 242.579 210.504 242.43C212.194 242.28 213.893 242.576 215.433 243.288ZM206.23 248.579C207.205 249.127 208.973 248.58 211.41 247.302C213.848 246.025 214.519 244.93 213.483 244.322C212.446 243.714 210.801 244.322 208.302 245.538C205.804 246.755 205.316 247.971 206.23 248.579Z" fill="#FFD2CD"/>
<path opacity="0.3" d="M186.547 249.37C189.412 251.012 188.01 253.141 185.085 254.844C183.681 255.809 182.05 256.394 180.352 256.543C178.654 256.693 176.946 256.401 175.395 255.696C172.652 254.114 173.932 251.985 176.918 250.222C178.308 249.251 179.929 248.661 181.619 248.512C183.309 248.362 185.008 248.658 186.547 249.37ZM177.406 254.662C178.32 255.209 180.088 254.662 182.525 253.384C184.963 252.107 185.633 251.012 184.597 250.404C183.561 249.796 181.916 250.404 179.417 251.681C176.918 252.959 176.431 254.053 177.406 254.662Z" fill="#FFD2CD"/>
<path opacity="0.3" d="M204.891 259.831C207.755 261.534 206.353 263.663 203.428 265.305C202.046 266.291 200.428 266.895 198.737 267.055C197.046 267.215 195.342 266.926 193.799 266.217C190.996 264.636 192.276 262.446 195.262 260.682C196.664 259.739 198.282 259.166 199.966 259.017C201.65 258.869 203.345 259.148 204.891 259.831ZM195.749 265.122C196.724 265.731 198.431 265.122 200.868 263.906C203.306 262.689 203.977 261.534 202.941 260.926C201.904 260.317 200.259 260.926 197.76 262.142C195.262 263.358 194.774 264.575 195.749 265.122Z" fill="#FFD2CD"/>
<path opacity="0.3" d="M195.748 254.541C198.612 256.244 197.149 258.373 194.224 260.015C192.842 261.001 191.224 261.605 189.533 261.765C187.841 261.925 186.138 261.636 184.595 260.927C181.792 259.346 183.071 257.156 186.058 255.392C187.471 254.449 189.1 253.877 190.793 253.728C192.487 253.579 194.191 253.859 195.748 254.541ZM186.545 259.893C187.52 260.441 189.288 259.893 191.725 258.616C194.163 257.339 194.772 256.244 193.797 255.636C192.822 255.027 191.055 255.636 188.617 256.852C186.18 258.068 185.57 259.285 186.545 259.893Z" fill="#FFD2CD"/>
<path opacity="0.3" d="M177.344 244.018C180.27 245.661 178.807 247.789 175.882 249.492C174.489 250.457 172.869 251.044 171.18 251.193C169.492 251.342 167.793 251.05 166.253 250.344C163.449 248.763 164.729 246.634 167.715 244.87C169.105 243.899 170.726 243.31 172.416 243.16C174.106 243.011 175.805 243.307 177.344 244.018ZM168.203 249.371C169.178 249.918 170.945 249.371 173.322 248.094C175.699 246.816 176.43 245.721 175.455 245.113C174.48 244.505 172.713 245.113 170.275 246.391C167.837 247.668 167.228 248.823 168.203 249.371Z" fill="#FFD2CD"/>
<path opacity="0.3" d="M169.727 239.821L159.062 245.964L156.625 244.565L165.035 239.699L161.987 239.03L163.45 237.753L167.594 238.604L169.727 239.821Z" fill="#FFD2CD"/>
<path opacity="0.3" d="M160.524 234.529L149.859 240.672L147.421 239.273L155.892 234.407L152.845 233.738L154.307 232.461L158.452 233.312L160.524 234.529Z" fill="#FFD2CD"/>
<path opacity="0.3" d="M151.382 229.239L140.717 235.382L138.279 234.044L146.689 229.118L143.642 228.449L145.105 227.171L149.31 228.023L151.382 229.239Z" fill="#FFD2CD"/>
<path opacity="0.3" d="M120.973 234.286C123.837 235.928 122.375 238.057 119.51 239.76C118.106 240.725 116.476 241.31 114.778 241.46C113.079 241.609 111.372 241.317 109.82 240.612C107.078 239.03 108.297 236.902 111.344 235.138C112.739 234.178 114.359 233.596 116.046 233.446C117.733 233.297 119.431 233.587 120.973 234.286ZM111.77 239.578C112.746 240.125 114.513 239.578 116.951 238.301C119.388 237.023 120.059 235.928 119.023 235.381C117.987 234.834 116.341 235.381 113.842 236.597C111.344 237.814 110.795 239.03 111.77 239.578Z" fill="#FFD2CD"/>
<path opacity="0.3" d="M111.768 228.994C114.632 230.637 113.231 232.765 110.306 234.468C108.913 235.433 107.293 236.019 105.604 236.169C103.916 236.318 102.217 236.025 100.677 235.32C97.8732 233.738 99.153 231.61 102.139 229.846C103.536 228.892 105.156 228.313 106.842 228.163C108.528 228.014 110.225 228.3 111.768 228.994ZM102.627 234.286C103.602 234.833 105.308 234.286 107.746 233.069C110.184 231.853 110.854 230.637 109.879 230.089C108.904 229.542 107.136 230.089 104.638 231.306C102.139 232.522 101.652 233.738 102.627 234.286Z" fill="#FFD2CD"/>
<path opacity="0.3" d="M102.628 223.702C105.493 225.345 104.03 227.473 101.105 229.176C99.7178 230.151 98.1001 230.748 96.4115 230.908C94.7228 231.068 93.0215 230.786 91.4756 230.089C88.7332 228.447 89.9521 226.318 92.9383 224.554C94.3516 223.611 95.9803 223.038 97.674 222.89C99.3676 222.741 101.071 223.02 102.628 223.702ZM93.4258 228.994C94.4009 229.541 96.1682 228.994 98.606 227.777C101.044 226.561 101.714 225.345 100.678 224.797C99.642 224.25 97.9965 224.797 95.4979 226.014C92.9992 227.23 92.4507 228.446 93.4258 228.994Z" fill="#FFD2CD"/>
<path opacity="0.3" d="M94.9499 219.507L84.2849 225.711L81.8472 224.312L90.3182 219.386L87.2101 218.778L88.7337 217.439L92.8778 218.291L94.9499 219.507Z" fill="#FFD2CD"/>
<path opacity="0.3" d="M139.315 244.869C142.18 246.511 140.778 248.64 137.853 250.343C136.428 251.341 134.765 251.945 133.031 252.094C131.297 252.244 129.555 251.933 127.98 251.194C125.237 249.613 126.517 247.484 129.503 245.72C130.913 244.716 132.567 244.108 134.293 243.958C136.018 243.808 137.753 244.123 139.315 244.869ZM130.174 250.16C131.088 250.708 132.855 250.16 135.293 248.883C137.731 247.606 138.401 246.511 137.365 245.903C136.329 245.295 134.684 245.903 132.185 247.18C129.686 248.457 129.138 249.613 130.174 250.16Z" fill="#FFD2CD"/>
<path opacity="0.3" d="M131.638 240.673L120.973 246.816L118.535 245.418L127.006 240.552L123.959 239.883L125.422 238.605L129.566 239.457L131.638 240.673Z" fill="#FFD2CD"/>
<path opacity="0.3" d="M148.456 250.16C151.381 251.802 149.919 253.931 146.994 255.634C145.601 256.599 143.981 257.185 142.292 257.334C140.604 257.484 138.905 257.191 137.365 256.486C134.561 254.904 135.841 252.775 138.827 251.012C140.217 250.041 141.838 249.451 143.528 249.302C145.217 249.152 146.917 249.448 148.456 250.16ZM139.315 255.452C140.29 255.999 142.057 255.452 144.495 254.174C146.933 252.897 147.542 251.802 146.567 251.194C145.592 250.586 143.824 251.194 141.387 252.471C138.949 253.749 138.34 254.904 139.315 255.452Z" fill="#FFD2CD"/>
<path opacity="0.3" d="M185.205 271.267C188.069 272.97 186.607 275.038 183.681 276.741C182.3 277.727 180.681 278.331 178.99 278.491C177.299 278.651 175.595 278.362 174.052 277.653C171.31 276.011 172.529 273.882 175.515 272.118C176.928 271.175 178.557 270.603 180.251 270.454C181.944 270.305 183.648 270.585 185.205 271.267ZM176.002 276.558C176.978 277.167 178.745 276.558 181.183 275.342C183.62 274.125 184.291 272.97 183.255 272.362C182.219 271.753 180.512 272.362 178.075 273.578C175.637 274.794 175.027 276.011 176.002 276.558Z" fill="#FFD2CD"/>
<g opacity="0.3">
<path opacity="0.3" d="M157.659 255.453C160.523 257.095 159.122 259.224 156.196 260.927C154.743 261.897 153.057 262.465 151.312 262.572C149.566 262.679 147.824 262.321 146.263 261.535C143.52 259.954 144.8 257.825 147.786 256.061C149.225 255.084 150.902 254.512 152.639 254.405C154.376 254.298 156.11 254.66 157.659 255.453ZM148.517 260.744C149.493 261.312 151.199 260.886 153.637 259.467C156.013 258.129 156.745 257.095 155.709 256.487C154.673 255.879 153.027 256.487 150.529 257.764C148.03 259.041 147.542 260.136 148.517 260.744Z" fill="#FFD2CD"/>
<path opacity="0.3" d="M168.325 261.779L157.659 267.983L155.283 266.584L163.693 261.658L160.646 261.049L162.108 259.711L166.252 260.624L168.325 261.779Z" fill="#FFD2CD"/>
<path opacity="0.3" d="M176.003 265.975C178.867 267.678 177.465 269.807 174.54 271.449C173.158 272.435 171.54 273.039 169.849 273.199C168.157 273.359 166.454 273.07 164.911 272.361C162.108 270.78 163.387 268.59 166.374 266.826C167.775 265.883 169.394 265.31 171.078 265.161C172.762 265.013 174.456 265.292 176.003 265.975ZM166.861 271.266C167.836 271.875 169.543 271.266 171.98 270.05C174.418 268.833 175.088 267.678 174.052 267.07C173.016 266.461 171.371 267.07 168.872 268.286C166.374 269.503 165.886 270.719 166.861 271.266Z" fill="#FFD2CD"/>
</g>
<path opacity="0.3" d="M18.6485 198.158C21.5738 199.8 20.1112 201.929 17.1859 203.632C15.7935 204.597 14.1731 205.183 12.4846 205.333C10.796 205.482 9.09759 205.189 7.5569 204.484C4.75353 202.902 6.03333 200.773 9.01953 199.01C10.4094 198.039 12.0303 197.449 13.72 197.3C15.4098 197.151 17.1093 197.446 18.6485 198.158ZM9.50708 203.45C10.4822 203.997 12.2495 203.45 14.6263 202.172C17.0031 200.895 17.7344 199.8 16.7593 199.192C15.7842 198.584 14.0169 199.192 11.5791 200.469C9.14142 201.747 8.53199 202.841 9.50708 203.45Z" fill="#FFD2CD"/>
<path opacity="0.3" d="M47.7189 215.067L37.0539 221.271L34.6162 219.872L43.0873 214.946L40.0401 214.338L41.4418 213L45.6469 213.851L47.7189 215.067Z" fill="#FFD2CD"/>
<path opacity="0.3" d="M37.0522 208.681C39.9166 210.384 38.4539 212.513 35.5896 214.155C34.196 215.141 32.5674 215.744 30.8669 215.904C29.1663 216.064 27.4534 215.775 25.8997 215.067C23.0963 213.486 24.3761 211.296 27.3623 209.532C28.7757 208.589 30.4044 208.017 32.098 207.868C33.7916 207.719 35.4955 207.999 37.0522 208.681ZM27.8499 214.033C28.8249 214.581 30.5923 214.033 33.03 212.756C35.4677 211.479 36.0772 210.384 35.1021 209.776C34.127 209.167 32.3596 209.776 29.9219 210.992C27.4842 212.209 26.8748 213.425 27.8499 214.033Z" fill="#FFD2CD"/>
<path opacity="0.3" d="M29.3742 204.483L18.7092 210.687L16.2715 209.288L24.7426 204.361L21.6345 203.753L23.0971 202.415L27.3022 203.327L29.3742 204.483Z" fill="#FFD2CD"/>
<path opacity="0.3" d="M56.9201 220.357L46.1942 226.561L43.8174 225.162L52.2275 220.235L49.1804 219.627L50.643 218.289L54.7871 219.141L56.9201 220.357Z" fill="#FFD2CD"/>
<g opacity="0.3">
<path opacity="0.3" d="M64.5372 224.556C67.4015 226.198 65.9998 228.327 63.0746 230.03C61.7098 231.046 60.0996 231.682 58.4081 231.874C56.7166 232.067 55.0043 231.808 53.4456 231.125C50.6422 229.482 51.922 227.354 54.9082 225.59C56.2939 224.617 57.9045 224.012 59.5888 223.831C61.2732 223.65 62.9759 223.9 64.5372 224.556ZM55.3957 229.847C56.3708 230.395 58.0772 229.847 60.515 228.631C62.9527 227.415 63.623 226.259 62.587 225.651C61.551 225.042 59.9055 225.651 57.4069 226.867C54.9082 228.084 54.4207 229.3 55.3957 229.847Z" fill="#FFD2CD"/>
<path opacity="0.3" d="M75.2629 230.941L64.5979 237.145L62.1602 235.746L70.5703 230.82L67.5231 230.212L68.9858 228.874L73.1299 229.725L75.2629 230.941Z" fill="#FFD2CD"/>
</g>
<path opacity="0.3" d="M84.4069 236.233L73.7419 242.437L71.3042 241.038L79.7753 236.112L76.7281 235.504L78.1908 234.166L82.3349 235.017L84.4069 236.233Z" fill="#FFD2CD"/>
<path opacity="0.3" d="M92.0846 240.431C94.9489 242.073 93.5473 244.202 90.622 245.905C89.2179 246.87 87.5875 247.455 85.8894 247.604C84.1913 247.753 82.4834 247.461 80.9321 246.756C78.1896 245.175 79.4085 243.046 82.4556 241.282C83.8504 240.323 85.4704 239.74 87.1578 239.591C88.8452 239.442 90.5425 239.731 92.0846 240.431ZM82.8822 245.722C83.8573 246.27 85.6247 245.722 88.0624 244.506C90.5001 243.289 91.1705 242.073 90.1345 241.526C89.0984 240.978 87.453 241.526 84.9543 242.742C82.4556 243.958 81.9072 245.175 82.8822 245.722Z" fill="#FFD2CD"/>
<path opacity="0.3" d="M119.57 256.305C122.496 257.947 121.033 260.076 118.108 261.779C116.715 262.744 115.095 263.33 113.406 263.479C111.718 263.628 110.019 263.336 108.479 262.63C105.675 261.049 106.955 258.92 109.941 257.156C111.331 256.185 112.952 255.596 114.642 255.446C116.332 255.297 118.031 255.593 119.57 256.305ZM110.429 261.596C111.404 262.144 113.171 261.596 115.609 260.319C118.047 259.042 118.656 257.947 117.681 257.339C116.706 256.73 114.939 257.339 112.501 258.616C110.063 259.893 109.454 261.049 110.429 261.596Z" fill="#FFD2CD"/>
<path opacity="0.3" d="M111.953 252.108L101.288 258.251L98.8506 256.852L107.322 251.987L104.214 251.318L105.676 249.979L109.881 250.892L111.953 252.108Z" fill="#FFD2CD"/>
<path opacity="0.3" d="M102.75 246.815L92.0847 252.958L89.647 251.559L98.1181 246.693L95.0709 246.024L96.5335 244.747L100.678 245.599L102.75 246.815Z" fill="#FFD2CD"/>
<path opacity="0.3" d="M130.296 262.69L119.631 268.833L117.193 267.434L125.664 262.569L122.556 261.9L124.08 260.562L128.224 261.474L130.296 262.69Z" fill="#FFD2CD"/>
<path opacity="0.3" d="M139.439 267.921L128.774 274.125L126.397 272.726L134.807 267.8L131.76 267.192L133.223 265.854L137.367 266.766L139.439 267.921Z" fill="#FFD2CD"/>
<path opacity="0.3" d="M156.319 277.409C159.183 279.112 157.721 281.241 154.856 282.883C153.463 283.869 151.834 284.472 150.134 284.632C148.433 284.792 146.72 284.504 145.167 283.795C142.424 282.153 143.643 280.024 146.629 278.26C148.043 277.317 149.671 276.745 151.365 276.596C153.058 276.447 154.762 276.727 156.319 277.409ZM147.117 282.7C148.092 283.309 149.859 282.7 152.297 281.484C154.735 280.268 155.405 279.112 154.369 278.504C153.333 277.895 151.687 278.504 149.189 279.72C146.69 280.937 146.142 282.153 147.117 282.7Z" fill="#FFD2CD"/>
<path opacity="0.3" d="M148.641 273.213L137.976 279.417L135.539 278.018L144.01 273.153L140.962 272.484L142.425 271.146L146.569 272.058L148.641 273.213Z" fill="#FFD2CD"/>
<path opacity="0.3" d="M165.46 282.701C168.324 284.404 166.922 286.472 163.997 288.175C162.615 289.162 160.997 289.766 159.306 289.926C157.614 290.086 155.911 289.797 154.368 289.088C151.565 287.446 152.844 285.317 155.831 283.553C157.232 282.61 158.851 282.037 160.535 281.888C162.219 281.739 163.913 282.019 165.46 282.701ZM156.318 287.993C157.293 288.601 159.061 287.993 161.437 286.776C163.814 285.56 164.545 284.404 163.57 283.796C162.595 283.188 160.828 283.796 158.39 285.013C155.952 286.229 155.343 287.446 156.318 287.993Z" fill="#FFD2CD"/>
</g>
<g opacity="0.5">
<g opacity="0.5">
<path opacity="0.5" d="M86.7842 107.108V112.217L98.5462 105.466V100.356L86.7842 107.108Z" fill="url(#paint0_linear)"/>
</g>
<path opacity="0.5" d="M75.0811 130.646V135.755L98.605 122.192L98.5441 117.083L75.0811 130.646Z" fill="url(#paint1_linear)"/>
<path opacity="0.5" d="M66.8555 143.722V148.831L98.6068 130.524V125.476L66.8555 143.722Z" fill="url(#paint2_linear)"/>
<path opacity="0.5" d="M61.7969 138.247V143.356L71.8525 137.578V132.469L61.7969 138.247Z" fill="url(#paint3_linear)"/>
<path opacity="0.5" d="M75.021 105.527V110.636L98.484 97.0729V91.9639L75.021 105.527Z" fill="url(#paint4_linear)"/>
<path opacity="0.5" d="M60.2734 130.768L60.3344 135.877L98.5456 113.799V108.69L60.2734 130.768Z" fill="url(#paint5_linear)"/>
<path opacity="0.5" d="M61.7344 113.191V118.3L71.79 112.522V107.413L61.7344 113.191Z" fill="url(#paint6_linear)"/>
<path opacity="0.5" d="M48.7544 129.005V134.114L83.0653 114.347V109.298L48.7544 129.005Z" fill="url(#paint7_linear)"/>
<path opacity="0.5" d="M61.7344 104.796V109.906L98.483 88.7394V83.6304L61.7344 104.796Z" fill="url(#paint8_linear)"/>
<path opacity="0.5" d="M45.8291 122.314V127.484L57.1645 120.915V115.806L45.8291 122.314Z" fill="url(#paint9_linear)"/>
<path opacity="0.5" d="M52.6553 101.696V106.744L86.7224 87.1594V82.0503L52.6553 101.696Z" fill="url(#paint10_linear)"/>
<path opacity="0.5" d="M40.3447 117.144V122.253L57.165 112.522V107.413L40.3447 117.144Z" fill="url(#paint11_linear)"/>
<path opacity="0.5" d="M34.4321 103.763V108.872L57.1029 95.8564V90.6865L34.4321 103.763Z" fill="url(#paint12_linear)"/>
<path opacity="0.5" d="M40.2227 83.6907V88.7998L57.0429 79.0683V74.02L40.2227 83.6907Z" fill="url(#paint13_linear)"/>
<path opacity="0.5" d="M32.3608 96.5859V101.695L57.1037 87.4626V82.3535L32.3608 96.5859Z" fill="url(#paint14_linear)"/>
<path opacity="0.5" d="M34.3101 78.7042L34.371 83.8133L57.0418 70.7365V65.6274L34.3101 78.7042Z" fill="url(#paint15_linear)"/>
<g opacity="0.5">
<path opacity="0.5" d="M89.5249 80.4064V85.5155L98.4835 80.3456L98.4226 75.2974L89.5249 80.4064Z" fill="url(#paint16_linear)"/>
<path opacity="0.5" d="M74.8994 80.4073L74.9604 85.5772L98.4234 72.0138V66.9048L74.8994 80.4073Z" fill="url(#paint17_linear)"/>
<path opacity="0.5" d="M66.6714 76.8192V81.9282L98.4227 63.6816V58.5117L66.6714 76.8192Z" fill="url(#paint18_linear)"/>
</g>
<g opacity="0.5">
<path opacity="0.5" d="M74.8989 63.7416V68.7898L98.362 55.2873V50.1782L74.8989 63.7416Z" fill="url(#paint19_linear)"/>
</g>
<g opacity="0.5">
<path opacity="0.5" d="M61.6128 71.343V76.4521L71.6684 70.674V65.5649L61.6128 71.343Z" fill="url(#paint20_linear)"/>
</g>
<path opacity="0.5" d="M86.5996 40.2034V45.3125L98.3616 38.5612V33.4521L86.5996 40.2034Z" fill="url(#paint21_linear)"/>
<path opacity="0.5" d="M74.8369 38.6217V43.7307L98.2999 30.1674V25.1191L74.8369 38.6217Z" fill="url(#paint22_linear)"/>
<path opacity="0.5" d="M60.0889 63.8641L60.1498 68.9731L98.3611 46.8947V41.7856L60.0889 63.8641Z" fill="url(#paint23_linear)"/>
<path opacity="0.5" d="M89.3433 13.5034V18.6124L98.3019 13.5034L98.2409 8.3335L89.3433 13.5034Z" fill="url(#paint24_linear)"/>
<path opacity="0.5" d="M61.5527 46.2864V51.3955L71.6083 45.6174L71.5474 40.5083L61.5527 46.2864Z" fill="url(#paint25_linear)"/>
<path opacity="0.5" d="M48.5728 62.0992V67.2083L82.8836 47.5019V42.332L48.5728 62.0992Z" fill="url(#paint26_linear)"/>
<path opacity="0.5" d="M61.5527 37.8922V43.0012L98.3013 21.8351V16.7261L61.5527 37.8922Z" fill="url(#paint27_linear)"/>
<path opacity="0.5" d="M74.7148 13.5633L74.7758 18.6116L98.2388 5.10906V0L74.7148 13.5633Z" fill="url(#paint28_linear)"/>
<path opacity="0.5" d="M45.6475 55.4702V60.5184L56.9829 54.0104V48.9014L45.6475 55.4702Z" fill="url(#paint29_linear)"/>
<path opacity="0.5" d="M52.4712 34.7307V39.9006L86.5383 20.2551V15.146L52.4712 34.7307Z" fill="url(#paint30_linear)"/>
<path opacity="0.5" d="M40.1011 50.2398L40.162 55.3489L56.9823 45.6174V40.5083L40.1011 50.2398Z" fill="url(#paint31_linear)"/>
<path opacity="0.5" d="M34.2505 36.9186V41.9668L56.9213 28.89V23.8418L34.2505 36.9186Z" fill="url(#paint32_linear)"/>
<g opacity="0.5">
<path opacity="0.5" d="M61.4907 21.1648V26.2739L71.4854 20.4958V15.3867L61.4907 21.1648Z" fill="url(#paint33_linear)"/>
</g>
<g opacity="0.5">
<path opacity="0.5" d="M0.0595703 73.2911V78.4001L18.4643 67.8171V62.708L0.0595703 73.2911Z" fill="url(#paint34_linear)"/>
</g>
<g opacity="0.5">
<path opacity="0.5" d="M0.12207 90.0779V95.187L13.5295 87.4626V82.3535L0.12207 90.0779Z" fill="url(#paint35_linear)"/>
</g>
<g opacity="0.5">
<path opacity="0.5" d="M0.0595703 81.6839V86.793L34.3095 67.0866V61.9775L0.0595703 81.6839Z" fill="url(#paint36_linear)"/>
</g>
<g opacity="0.5">
<path opacity="0.5" d="M0 64.9573L0.060943 70.0664L11.762 63.3151V58.2061L0 64.9573Z" fill="url(#paint37_linear)"/>
</g>
<g opacity="0.5">
<path opacity="0.5" d="M0 56.6258V61.6741L23.524 48.1716L23.463 43.0625L0 56.6258Z" fill="url(#paint38_linear)"/>
</g>
<g opacity="0.5">
<path opacity="0.5" d="M40.4048 150.597V155.706L57.225 145.974V140.865L40.4048 150.597Z" fill="url(#paint39_linear)"/>
<path opacity="0.5" d="M32.543 163.49V168.599L57.2858 154.367V149.258L32.543 163.49Z" fill="url(#paint40_linear)"/>
<path opacity="0.5" d="M34.5547 145.608V150.718L57.2255 137.641V132.532L34.5547 145.608Z" fill="url(#paint41_linear)"/>
</g>
<g opacity="0.5">
<path opacity="0.5" d="M0.244141 148.588V153.697L34.4941 133.991V128.882L0.244141 148.588Z" fill="url(#paint42_linear)"/>
</g>
<g opacity="0.5">
<path opacity="0.5" d="M0.244141 131.862V136.971L12.0061 130.219L11.9452 125.11L0.244141 131.862Z" fill="url(#paint43_linear)"/>
</g>
<g opacity="0.5">
<path opacity="0.5" d="M0.181641 123.469V128.639L23.7056 115.076V109.967L0.181641 123.469Z" fill="url(#paint44_linear)"/>
<path opacity="0.5" d="M0.181641 115.137V120.246L23.6447 106.744V101.574L0.181641 115.137Z" fill="url(#paint45_linear)"/>
<path opacity="0.5" d="M0.12207 106.804L0.183013 111.853L9.3854 106.561L9.32446 101.452L0.12207 106.804Z" fill="url(#paint46_linear)"/>
</g>
<path opacity="0.5" d="M0.12207 98.4105V103.52L30.167 86.2461V81.0762L0.12207 98.4105Z" fill="url(#paint47_linear)"/>
<g opacity="0.5">
<path opacity="0.5" d="M61.6748 88.0691V93.1782L71.7304 87.4001L71.6695 82.291L61.6748 88.0691Z" fill="url(#paint48_linear)"/>
</g>
<g opacity="0.5">
<path opacity="0.5" d="M0.244141 140.256V145.304L18.6489 134.721V129.612L0.244141 140.256Z" fill="url(#paint49_linear)"/>
</g>
<path opacity="0.5" d="M0.303711 156.982V162.03L13.7112 154.306V149.258L0.303711 156.982Z" fill="url(#paint50_linear)"/>
<g opacity="0.5">
<path opacity="0.5" d="M0.363281 182.041V187.15L23.8873 173.586L23.8263 168.538L0.363281 182.041Z" fill="url(#paint51_linear)"/>
<path opacity="0.5" d="M0.363281 173.646V178.816L9.56567 173.464V168.354L0.363281 173.646Z" fill="url(#paint52_linear)"/>
<path opacity="0.5" d="M0.303711 165.314V170.423L30.3486 153.089V148.041L0.303711 165.314Z" fill="url(#paint53_linear)"/>
</g>
</g>
<g opacity="0.1">
<path opacity="0.1" d="M154.247 165.618C176.978 178.695 177.1 199.983 154.247 213.059C141.538 219.536 127.471 222.913 113.202 222.913C98.9317 222.913 84.8653 219.536 72.1564 213.059C49.4247 199.983 49.2419 178.695 71.8517 165.618C84.6027 159.101 98.7233 155.702 113.049 155.702C127.375 155.702 141.496 159.101 154.247 165.618Z" fill="black"/>
</g>
<path d="M163.935 166.687V167.112C163.935 167.599 163.935 168.146 163.569 168.694C163.204 169.241 163.569 169.849 163.021 170.458C162.728 171.329 162.382 172.183 161.985 173.012C161.973 173.154 161.973 173.296 161.985 173.438C161.497 174.35 160.949 175.202 160.339 176.114V176.479C159.73 177.27 159.121 178.06 158.389 178.851L158.024 179.338C157.292 180.128 156.439 180.919 155.586 181.71L153.758 183.169C153.254 183.624 152.725 184.051 152.173 184.447L150.04 185.846L147.907 187.244L144.007 189.312L142.91 189.799L139.192 191.38H138.705L134.073 193.023L131.026 193.874L128.771 194.482C127.674 194.482 126.577 194.969 125.419 195.212L123.225 195.638H122.189L118.228 196.185H117.009H114.754H110.793H102.322H99.3965H96.715L93.7897 195.881L91.413 195.942L88.4268 195.395L85.9281 194.908L82.3934 193.996L80.0166 193.388L78.8587 193.023L75.324 191.806L74.288 191.441L71.2408 190.164L69.7173 189.495C68.2546 188.765 66.792 188.035 65.4513 187.244C53.7502 180.676 48.0216 172.039 48.0825 163.22V177.878C48.0825 186.515 53.7502 195.151 65.2075 201.781C66.6092 202.572 68.0109 203.302 69.4735 203.971L71.058 204.64L73.6176 205.795H74.0442L75.0802 206.16C76.2356 206.629 77.4155 207.035 78.6149 207.377L79.8338 207.742H80.6261C81.1404 207.834 81.6491 207.956 82.1496 208.106L85.7453 208.958H86.7204H88.122L91.2301 209.505H92.449H93.8507H96.715H98.1167H99.4574H102.322L103.602 211.877H110.488H114.328H115.973H116.521C118.715 211.877 120.909 211.33 123.042 210.965H123.408L125.297 210.6L128.466 209.931L130.721 209.323C131.757 209.019 132.793 208.776 133.768 208.411C133.971 208.437 134.175 208.437 134.378 208.411L137.912 207.194H138.461L142.118 205.613L143.214 205.065C144.555 204.457 145.835 203.788 147.115 203.058L147.846 202.632L149.309 201.659L151.442 200.26L153.026 198.983L154.855 197.463C155.59 196.82 156.282 196.129 156.927 195.395C157.437 194.938 157.762 194.311 157.841 193.631L158.938 192.293L159.73 191.259L160.035 190.833L161.315 188.826L161.619 188.157C161.639 188.016 161.639 187.872 161.619 187.731C161.985 187.001 162.29 186.271 162.594 185.541C162.899 184.812 162.594 185.541 162.594 185.177C162.594 184.812 162.899 184.021 163.082 183.473C163.265 182.926 163.082 182.683 163.387 182.257C163.424 182.159 163.424 182.051 163.387 181.953C163.387 181.345 163.387 180.737 163.387 180.128V178.973V163.706C163.659 164.681 163.842 165.679 163.935 166.687Z" fill="#C0C0F6"/>
<path d="M147.055 140.802C169.787 153.879 169.969 175.166 147.36 188.243C134.664 194.767 120.6 198.196 106.321 198.249C92.041 198.302 77.9521 194.977 65.2084 188.547C42.6595 175.166 42.6595 153.879 64.9646 140.802C77.6735 134.326 91.7399 130.949 106.01 130.949C120.279 130.949 134.346 134.326 147.055 140.802Z" fill="#E9F0F4"/>
<path d="M141.873 116.655C130.767 111.034 118.49 108.105 106.038 108.105C93.5861 108.105 81.3093 111.034 70.2038 116.655C60.331 122.373 55.4556 129.854 55.4556 137.335V158.136C55.4556 165.678 60.3919 173.281 70.3866 178.998C71.6055 179.667 72.8243 180.336 74.1041 180.944L75.5058 181.553L77.6998 182.526C79.4658 183.252 81.2776 183.861 83.1237 184.35H83.5503H84.8301L88.0601 185.141H88.8523H90.1321L92.8136 185.567C93.1583 185.596 93.5049 185.596 93.8496 185.567H95.0685H97.5672H98.786H100.005H102.504H109.817H113.23H114.631H115.058C117.008 185.567 118.897 185.141 120.786 184.776H121.091L122.798 184.35L125.54 183.803L127.551 183.256L130.111 182.526H130.659C130.994 182.432 131.32 182.31 131.634 182.161C132.975 181.735 134.255 181.248 135.535 180.701L136.997 180.093C138.65 179.38 140.258 178.567 141.812 177.66L142.421 177.295L143.762 176.383C144.374 176.033 144.964 175.647 145.529 175.227L146.992 174.071C147.479 173.646 148.028 173.281 148.516 172.794C148.615 172.82 148.72 172.82 148.82 172.794C149.47 172.186 150.08 171.578 150.648 170.969V170.605L152.355 170.3L153.025 169.327V169.023C153.434 168.463 153.801 167.874 154.122 167.259V166.894C154.404 166.385 154.648 165.857 154.854 165.313C155.045 165.034 155.189 164.726 155.28 164.401C155.28 164.401 155.28 164.401 155.28 164.097C155.28 163.792 155.585 163.063 155.707 162.576C155.829 162.089 155.707 161.846 156.011 161.542V161.238C156.045 160.732 156.045 160.224 156.011 159.717C156.041 159.353 156.041 158.987 156.011 158.623V137.335C156.038 137.801 156.038 138.268 156.011 138.734C157.413 130.949 152.355 122.798 141.873 116.655ZM151.867 150.047L153.025 148.648C152.676 149.143 152.289 149.611 151.867 150.047ZM153.818 147.37L154.549 146.154C154.346 146.583 154.101 146.99 153.818 147.37ZM155.219 144.634C155.428 144.219 155.611 143.793 155.768 143.356C155.613 143.793 155.43 144.22 155.219 144.634ZM156.194 141.836C156.325 141.417 156.426 140.991 156.499 140.558C156.429 140.991 156.327 141.418 156.194 141.836ZM151.014 151.141C150.588 151.628 150.039 152.115 149.552 152.601L151.014 151.141ZM146.443 155.217L147.297 154.548L146.443 155.217ZM144.067 156.859L142.177 158.136L144.067 156.859ZM60.4529 149.986C60.7576 150.29 61.0014 150.655 61.3061 151.02C61.6108 151.385 60.9404 150.29 60.4529 149.986ZM55.5774 138.734C55.5446 139.199 55.5446 139.667 55.5774 140.133C55.5446 139.667 55.5446 139.199 55.5774 138.734ZM56.065 141.653C56.065 142.079 56.065 142.505 56.3697 142.93C56.6744 143.356 56.1869 142.079 56.065 141.653ZM57.0401 144.451C57.1969 144.887 57.3801 145.314 57.5886 145.728C57.3801 145.314 57.1969 144.887 57.0401 144.451ZM58.5027 147.249L59.1731 148.404L58.5027 147.249ZM67.0347 155.886L66.1206 155.217L67.0347 155.886ZM63.9876 153.514C63.6219 153.514 63.3782 152.905 63.0734 152.601C62.7687 152.297 63.5 153.209 63.8657 153.514H63.9876Z" fill="url(#paint54_linear)"/>
<path d="M163.935 125.691V126.056C163.85 126.617 163.707 127.167 163.508 127.699C163.403 128.301 163.24 128.891 163.021 129.462C162.738 130.318 162.391 131.152 161.985 131.956V132.443C161.497 133.355 160.949 134.207 160.339 135.119V135.484C159.757 136.328 159.105 137.121 158.389 137.856L158.024 138.342C157.292 139.133 156.439 139.924 155.586 140.714L153.758 142.174C153.257 142.633 152.728 143.059 152.173 143.451L150.101 144.85C149.381 145.365 148.628 145.833 147.846 146.249C146.599 147.034 145.295 147.725 143.946 148.317L142.91 148.804C141.691 149.412 140.472 149.899 139.192 150.446H138.705L134.5 151.845L131.513 152.696L129.258 153.305C128.161 153.609 127.064 153.791 125.968 154.035L123.835 154.46C121.701 154.825 119.447 155.129 117.253 155.373H115.12H111.28H102.322H99.4573H96.6539L93.8506 155.069L91.4128 154.947L88.3657 154.399L85.9889 153.913C84.7701 153.913 83.6121 153.365 82.3933 153.001L80.0165 152.392L78.8586 152.027L75.3239 150.811L74.2879 150.446C73.2518 150.081 72.2768 149.595 71.3017 149.169L69.6562 148.5C68.2545 147.77 66.7919 147.04 65.4511 146.249C53.9939 139.68 48.2652 131.044 48.3262 122.346V137.004C48.3262 145.641 53.9939 154.278 65.4511 160.907C66.8528 161.698 68.2545 162.428 69.7171 163.097L71.1798 163.766L73.8613 164.922H74.2879L75.3239 165.347L78.7977 166.503L80.0775 166.929H80.8697H82.3323C83.5512 167.294 84.7701 167.598 85.9889 167.841H86.964H88.4266L91.4128 169.301C91.8186 169.33 92.226 169.33 92.6317 169.301H94.0334H96.9587H98.2994H99.5792H102.565H110.915H114.876H116.399H117.131H118.35H121.884H122.798H123.347L125.236 168.936L128.405 168.267L130.66 167.659L133.707 166.807C133.91 166.78 134.114 166.78 134.317 166.807L137.851 165.53H138.4L142.056 163.949L143.153 163.401C144.494 162.793 145.774 162.124 147.054 161.394L147.724 160.968L149.187 159.995L151.32 158.596L152.965 157.319C153.582 156.845 154.172 156.337 154.733 155.798H155.098C155.83 155.069 156.561 154.399 157.17 153.67C157.78 152.94 157.17 153.67 157.536 153.244C157.902 152.818 158.328 152.332 158.694 151.906L159.486 150.811V150.446L160.827 148.439C160.917 148.211 161.019 147.987 161.132 147.77V147.344C161.497 146.614 161.802 145.884 162.107 145.155C162.411 144.425 162.107 145.154 162.107 144.79C162.107 144.425 162.411 143.634 162.594 143.087C162.777 142.539 162.594 142.296 162.899 141.87C162.928 141.771 162.928 141.665 162.899 141.566C162.899 140.958 162.899 140.35 162.899 139.741V138.586V122.711C163.337 123.67 163.684 124.668 163.935 125.691Z" fill="#C0C0F6"/>
<path d="M147.055 99.809C169.787 112.886 169.969 134.174 147.055 147.25C134.346 153.727 120.28 157.104 106.01 157.104C91.74 157.104 77.6735 153.727 64.9647 147.25C42.2329 134.174 42.111 112.886 64.9647 99.809C77.6764 93.3421 91.7417 89.9707 106.01 89.9707C120.278 89.9707 134.343 93.3421 147.055 99.809Z" fill="#E9F0F4"/>
<path d="M141.873 75.7219C130.782 70.0533 118.499 67.0972 106.038 67.0972C93.5773 67.0972 81.2949 70.0533 70.2038 75.7219C60.331 81.3784 55.4556 88.8595 55.4556 96.3407V117.203C55.4556 124.745 60.3919 132.347 70.3866 138.065C71.6055 138.795 72.8243 139.403 74.1041 140.011L75.4449 140.619L77.6998 141.592C79.4758 142.291 81.2861 142.9 83.1237 143.417H83.5503L84.8301 143.721L88.0601 144.512H88.8523H90.0712L92.8136 144.938H93.8496H95.0685H97.6281H98.786H99.9439H102.564H109.817H113.29H114.631H115.058C116.947 144.938 118.897 144.512 120.786 144.147H121.091L122.737 143.782L125.54 143.174L127.551 142.626L130.111 141.896H130.659H131.634L135.535 140.376L136.997 139.768C138.65 139.055 140.258 138.242 141.812 137.335L142.421 136.97L143.762 136.058C144.374 135.708 144.964 135.322 145.529 134.902L146.992 133.746C147.479 133.321 148.028 132.956 148.516 132.469C148.615 132.495 148.72 132.495 148.82 132.469L150.648 130.644V130.279L152.355 129.55L153.025 128.576V128.272C153.434 127.712 153.801 127.123 154.122 126.508V126.144C154.404 125.634 154.648 125.106 154.854 124.562C155.045 124.283 155.189 123.975 155.28 123.65C155.28 123.65 155.585 122.616 155.707 122.129C155.829 121.643 155.707 121.46 156.011 121.095V120.791C156.045 120.285 156.045 119.777 156.011 119.271C156.041 118.906 156.041 118.54 156.011 118.176V96.8881C156.038 97.354 156.038 97.821 156.011 98.287C157.413 89.9543 152.355 81.8042 141.873 75.7219ZM151.867 109.052L153.025 107.654C152.676 108.149 152.289 108.617 151.867 109.052ZM153.818 106.376L154.549 105.16C154.346 105.588 154.101 105.996 153.818 106.376ZM155.219 103.639C155.428 103.225 155.611 102.798 155.768 102.362C155.604 102.716 155.421 103.062 155.219 103.396V103.639ZM156.194 100.841C156.325 100.423 156.426 99.9963 156.499 99.5642C156.429 99.9969 156.327 100.424 156.194 100.841ZM151.014 110.147L149.552 111.607L151.014 110.147ZM146.443 114.222L147.297 113.553L146.443 114.222ZM144.067 115.865L142.177 117.142L144.067 115.865ZM60.4529 108.992C60.7576 108.992 61.0014 109.661 61.3061 110.026C61.6108 110.391 60.9404 109.478 60.4529 108.992ZM55.5774 97.7396C55.5446 98.2053 55.5446 98.6727 55.5774 99.1385C55.5446 98.6727 55.5446 98.2053 55.5774 97.7396ZM56.065 100.659C56.065 101.085 56.065 101.511 56.3697 101.936C56.6744 102.362 56.1869 101.085 56.065 100.659ZM57.0401 103.457C57.1969 103.893 57.3801 104.32 57.5886 104.734C57.3778 104.3 57.1946 103.853 57.0401 103.396V103.457ZM58.5027 106.255L59.1731 107.41L58.5027 106.255ZM67.0347 114.891L66.1206 114.222L67.0347 114.891ZM63.9876 112.519L63.0734 111.607L63.9876 112.519Z" fill="url(#paint55_linear)"/>
<path d="M163.935 82.0837C163.935 82.0837 163.935 82.3878 163.935 82.5095C163.851 83.0702 163.708 83.6206 163.509 84.1517C163.403 84.734 163.24 85.3045 163.021 85.8547C162.728 86.7266 162.382 87.5797 161.985 88.4092V88.835C161.497 89.7676 160.949 90.6799 160.339 91.572V91.9369C159.73 92.7276 159.121 93.5183 158.389 94.309L158.024 94.7955C157.292 95.5862 156.439 96.3769 155.586 97.1676L153.758 98.6273L152.173 99.9046L150.04 101.304C149.309 101.79 148.638 102.277 147.846 102.702C147.054 103.128 145.287 104.101 143.946 104.77L142.91 105.257L139.131 106.899H138.705L134.073 108.481L131.087 109.332L128.832 109.94L125.541 110.67L123.408 111.096C121.214 111.461 119.02 111.765 116.765 112.008H114.815H110.793H108.294C107.197 112.008 106.161 112.008 105.125 112.008H102.444H99.4574H96.8978L93.9116 111.704L91.413 111.4L88.2439 110.853L85.9281 110.366L82.2106 109.454L80.0166 108.845L78.554 108.481L75.0802 107.264L74.0442 106.899L70.9971 105.622L69.4735 104.953C68.0109 104.223 66.5482 103.493 65.2075 102.702C53.7502 96.3161 48.0216 87.4361 48.0825 78.7993V93.3966C48.0825 102.094 53.7502 110.731 65.2075 117.361C66.6092 118.151 68.0109 118.881 69.4735 119.55L70.9971 120.219L73.6176 121.375H74.0442L75.0802 121.74L78.554 122.956L79.8947 123.382H80.6261H82.0887C83.3111 123.751 84.5519 124.055 85.8062 124.294H86.7204H88.122L91.2301 124.842H92.449H93.8507H96.715H98.1167H99.4574H102.322H103.845H108.172C108.7 124.872 109.229 124.872 109.757 124.842H110.732H114.571H116.217H116.704C118.939 124.598 121.133 124.294 123.286 123.929H123.591L125.48 123.564L128.71 122.895L131.026 122.226L133.951 121.436H134.622L138.156 120.219H138.583L142.361 118.638L143.397 118.09C144.738 117.482 146.079 116.813 147.359 116.083L148.029 115.658L149.614 114.563L151.625 113.285C152.234 112.86 152.722 112.373 153.27 111.947L155.037 110.488L155.403 110.184C156.139 109.541 156.831 108.85 157.475 108.116L157.902 107.629L158.999 106.352L159.791 105.257L160.096 104.892C160.522 104.223 160.949 103.554 161.315 102.885C161.68 102.216 161.315 102.398 161.68 102.216V101.79C162.046 101.06 162.351 100.33 162.655 99.6005C162.96 98.8706 162.655 99.6005 162.655 99.2356L163.143 97.4717C163.143 97.1068 163.143 96.681 163.448 96.3161C163.471 96.2161 163.471 96.112 163.448 96.012C163.448 95.4038 163.448 94.7955 163.448 94.1873V92.9709V79.1643C163.702 80.12 163.865 81.0974 163.935 82.0837Z" fill="#C0C0F6"/>
<path d="M147.054 56.2597C169.847 69.3365 169.908 90.6242 147.054 103.701C134.345 110.177 120.279 113.554 106.009 113.554C91.7394 113.554 77.673 110.177 64.9641 103.701C42.2324 90.6242 42.0495 69.3365 64.9641 56.2597C77.6759 49.7928 91.7412 46.4214 106.009 46.4214C120.277 46.4214 134.343 49.7928 147.054 56.2597Z" fill="#E9F0F4"/>
<g opacity="0.1">
<path opacity="0.1" d="M253.219 185.689L239.02 193.96C238.738 194.11 238.424 194.187 238.106 194.187C237.787 194.187 237.473 194.11 237.191 193.96L222.87 185.689C222.591 185.529 222.36 185.298 222.199 185.021C222.038 184.743 221.954 184.428 221.954 184.107C221.954 183.787 222.038 183.471 222.199 183.194C222.36 182.916 222.591 182.686 222.87 182.526L237.07 174.315C237.34 174.134 237.658 174.038 237.984 174.038C238.309 174.038 238.627 174.134 238.898 174.315L253.219 182.465C253.513 182.62 253.758 182.852 253.929 183.136C254.1 183.42 254.191 183.745 254.191 184.077C254.191 184.408 254.1 184.733 253.929 185.017C253.758 185.301 253.513 185.533 253.219 185.689Z" fill="black"/>
</g>
<g opacity="0.14">
<path opacity="0.14" d="M237.192 164.826C237.428 164.675 237.703 164.594 237.984 164.594C238.265 164.594 238.54 164.675 238.776 164.826L250.965 172.003C251.205 172.142 251.405 172.342 251.543 172.582C251.682 172.822 251.755 173.095 251.755 173.372C251.755 173.649 251.682 173.922 251.543 174.162C251.405 174.402 251.205 174.602 250.965 174.74L238.776 181.857C238.54 182.009 238.265 182.089 237.984 182.089C237.703 182.089 237.428 182.009 237.192 181.857L225.003 174.68C224.761 174.549 224.559 174.356 224.418 174.121C224.277 173.885 224.203 173.616 224.203 173.342C224.203 173.067 224.277 172.798 224.418 172.562C224.559 172.327 224.761 172.134 225.003 172.003L237.192 164.826Z" fill="#FFDF75"/>
</g>
<g opacity="0.29">
<path opacity="0.29" d="M237.314 156.007C237.522 155.9 237.752 155.845 237.985 155.845C238.218 155.845 238.448 155.9 238.655 156.007L249.259 162.089C249.463 162.199 249.633 162.361 249.752 162.559C249.871 162.757 249.933 162.984 249.933 163.214C249.933 163.445 249.871 163.672 249.752 163.87C249.633 164.068 249.463 164.23 249.259 164.34L238.777 170.422C238.597 170.489 238.405 170.513 238.214 170.492C238.023 170.471 237.84 170.405 237.68 170.3L227.076 164.218C226.874 164.1 226.706 163.931 226.589 163.729C226.473 163.526 226.411 163.296 226.411 163.062C226.411 162.829 226.473 162.599 226.589 162.396C226.706 162.193 226.874 162.025 227.076 161.907L237.314 156.007Z" fill="#FFDF75"/>
</g>
<g opacity="0.43">
<path opacity="0.43" d="M237.68 147.249C237.838 147.158 238.016 147.11 238.198 147.11C238.38 147.11 238.559 147.158 238.716 147.249L247.431 152.297C247.597 152.385 247.735 152.517 247.832 152.677C247.928 152.838 247.979 153.022 247.979 153.209C247.979 153.397 247.928 153.581 247.832 153.741C247.735 153.902 247.597 154.034 247.431 154.122L238.838 159.109C238.68 159.2 238.502 159.248 238.32 159.248C238.138 159.248 237.959 159.2 237.802 159.109L229.087 154.061C228.921 153.973 228.783 153.841 228.686 153.681C228.59 153.52 228.539 153.336 228.539 153.149C228.539 152.961 228.59 152.777 228.686 152.617C228.783 152.456 228.921 152.324 229.087 152.236L237.68 147.249Z" fill="#FFDF75"/>
</g>
<g opacity="0.57">
<path opacity="0.57" d="M237.68 138.43C237.804 138.371 237.939 138.34 238.076 138.34C238.213 138.34 238.349 138.371 238.472 138.43L245.298 142.384C245.411 142.462 245.503 142.567 245.567 142.689C245.631 142.81 245.665 142.946 245.665 143.083C245.665 143.221 245.631 143.356 245.567 143.478C245.503 143.6 245.411 143.704 245.298 143.783L238.533 147.675C238.415 147.751 238.278 147.792 238.137 147.792C237.997 147.792 237.859 147.751 237.741 147.675L230.854 143.722C230.741 143.644 230.649 143.539 230.585 143.417C230.521 143.295 230.488 143.16 230.488 143.023C230.488 142.885 230.521 142.75 230.585 142.628C230.649 142.506 230.741 142.401 230.854 142.323L237.68 138.43Z" fill="#FFDF75"/>
</g>
<g opacity="0.71">
<path opacity="0.71" d="M237.68 129.67C237.757 129.606 237.854 129.571 237.954 129.571C238.055 129.571 238.152 129.606 238.229 129.67L243.226 132.529C243.591 132.529 243.226 133.259 243.226 133.502L238.35 136.3C238.274 136.364 238.176 136.4 238.076 136.4C237.976 136.4 237.879 136.364 237.802 136.3L232.805 133.441C232.439 133.441 232.805 132.712 232.805 132.468L237.68 129.67Z" fill="#FFDF75"/>
</g>
<g opacity="0.86">
<path opacity="0.86" d="M237.679 120.852L240.787 122.676C240.787 122.676 240.787 123.041 240.787 123.163L237.8 124.927C237.8 124.927 237.8 124.927 237.496 124.927L234.327 123.102C234.327 123.102 234.327 122.737 234.327 122.615L237.679 120.852Z" fill="#FFDF75"/>
</g>
<path d="M239.324 112.823L238.044 113.553L236.764 112.823L238.044 112.093L239.324 112.823Z" fill="#FFDF75"/>
<g opacity="0.1">
<path opacity="0.1" d="M216.835 162.213L199.954 172.005C199.672 172.154 199.358 172.232 199.04 172.232C198.721 172.232 198.407 172.154 198.125 172.005L181.122 162.213C180.845 162.045 180.615 161.808 180.456 161.526C180.297 161.243 180.213 160.925 180.213 160.601C180.213 160.277 180.297 159.959 180.456 159.676C180.615 159.394 180.845 159.157 181.122 158.989L198.003 149.197C198.285 149.048 198.599 148.97 198.918 148.97C199.236 148.97 199.55 149.048 199.832 149.197L216.835 159.05C217.113 159.21 217.345 159.44 217.505 159.718C217.666 159.996 217.751 160.311 217.751 160.631C217.751 160.952 217.666 161.267 217.505 161.545C217.345 161.822 217.113 162.053 216.835 162.213Z" fill="black"/>
</g>
<g opacity="0.14">
<path opacity="0.14" d="M198.125 138.307C198.372 138.189 198.643 138.127 198.917 138.127C199.192 138.127 199.463 138.189 199.71 138.307L214.519 146.883C214.761 147.013 214.963 147.207 215.104 147.442C215.244 147.678 215.319 147.947 215.319 148.221C215.319 148.495 215.244 148.765 215.104 149C214.963 149.236 214.761 149.429 214.519 149.559L199.832 158.135C199.595 158.287 199.32 158.368 199.039 158.368C198.758 158.368 198.483 158.287 198.247 158.135L183.438 149.62C183.198 149.481 182.998 149.282 182.859 149.041C182.721 148.801 182.647 148.529 182.647 148.252C182.647 147.974 182.721 147.702 182.859 147.462C182.998 147.222 183.198 147.022 183.438 146.883L198.125 138.307Z" fill="#FDCDE7"/>
</g>
<g opacity="0.29">
<path opacity="0.29" d="M198.248 128.213C198.455 128.106 198.685 128.05 198.918 128.05C199.151 128.05 199.381 128.106 199.588 128.213L212.143 135.45C212.345 135.568 212.513 135.737 212.629 135.94C212.746 136.143 212.807 136.372 212.807 136.606C212.807 136.84 212.746 137.07 212.629 137.272C212.513 137.475 212.345 137.644 212.143 137.762L199.954 145C199.742 145.09 199.514 145.136 199.284 145.136C199.053 145.136 198.825 145.09 198.613 145L186.059 137.701C185.855 137.592 185.685 137.429 185.566 137.231C185.447 137.033 185.385 136.807 185.385 136.576C185.385 136.345 185.447 136.118 185.566 135.92C185.685 135.722 185.855 135.56 186.059 135.45L198.248 128.213Z" fill="#FDCDE7"/>
</g>
<g opacity="0.43">
<path opacity="0.43" d="M198.43 118.115C198.588 118.024 198.767 117.977 198.948 117.977C199.13 117.977 199.309 118.024 199.466 118.115L209.827 124.197C209.992 124.285 210.131 124.417 210.228 124.578C210.324 124.738 210.375 124.922 210.375 125.11C210.375 125.297 210.324 125.481 210.228 125.642C210.131 125.802 209.992 125.934 209.827 126.022L199.588 132.104C199.431 132.195 199.252 132.243 199.07 132.243C198.888 132.243 198.71 132.195 198.552 132.104L188.192 126.022C188.026 125.934 187.888 125.802 187.791 125.642C187.695 125.481 187.644 125.297 187.644 125.11C187.644 124.922 187.695 124.738 187.791 124.578C187.888 124.417 188.026 124.285 188.192 124.197L198.43 118.115Z" fill="#FDCDE7"/>
</g>
<g opacity="0.57">
<path opacity="0.57" d="M198.552 108.02C198.676 107.96 198.811 107.93 198.948 107.93C199.086 107.93 199.221 107.96 199.345 108.02L207.45 112.703C207.578 112.77 207.684 112.871 207.759 112.994C207.833 113.117 207.873 113.259 207.873 113.403C207.873 113.547 207.833 113.688 207.759 113.811C207.684 113.934 207.578 114.035 207.45 114.102L199.466 118.725C199.348 118.8 199.211 118.841 199.07 118.841C198.93 118.841 198.792 118.8 198.674 118.725L190.569 114.041C190.441 113.974 190.334 113.873 190.26 113.75C190.185 113.627 190.146 113.486 190.146 113.342C190.146 113.198 190.185 113.057 190.26 112.933C190.334 112.81 190.441 112.709 190.569 112.642L198.552 108.02Z" fill="#FDCDE7"/>
</g>
<g opacity="0.71">
<path opacity="0.71" d="M198.676 97.9215C198.761 97.8787 198.855 97.8564 198.95 97.8564C199.045 97.8564 199.139 97.8787 199.224 97.9215L205.319 101.328C205.394 101.377 205.456 101.445 205.499 101.525C205.542 101.604 205.564 101.693 205.564 101.784C205.564 101.874 205.542 101.963 205.499 102.043C205.456 102.122 205.394 102.19 205.319 102.24L199.529 105.585C199.444 105.628 199.35 105.65 199.255 105.65C199.16 105.65 199.066 105.628 198.981 105.585L192.886 102.179C192.811 102.122 192.749 102.049 192.707 101.964C192.665 101.88 192.643 101.787 192.643 101.692C192.643 101.598 192.665 101.505 192.707 101.42C192.749 101.336 192.811 101.263 192.886 101.206L198.676 97.9215Z" fill="#FDCDE7"/>
</g>
<g opacity="0.86">
<path opacity="0.86" d="M198.858 87.8267L202.515 89.9554C202.515 89.9554 202.515 90.3204 202.515 90.442L198.98 92.51L195.324 90.3812V89.8946L198.858 87.8267Z" fill="#FDCDE7"/>
</g>
<path d="M200.442 78.5202L198.979 79.3717L197.517 78.5202L198.979 77.7295L200.442 78.5202Z" fill="#FDCDE7"/>
<g opacity="0.1">
<path opacity="0.1" d="M280.947 203.145L268.758 210.078C268.475 210.257 268.148 210.351 267.814 210.351C267.479 210.351 267.152 210.257 266.869 210.078L254.68 203.145C254.402 202.985 254.171 202.754 254.01 202.477C253.849 202.199 253.764 201.884 253.764 201.563C253.764 201.243 253.849 200.928 254.01 200.65C254.171 200.372 254.402 200.142 254.68 199.982L266.869 192.987C267.15 192.838 267.464 192.76 267.783 192.76C268.102 192.76 268.416 192.838 268.697 192.987L280.886 199.982C281.167 200.136 281.403 200.362 281.57 200.637C281.736 200.911 281.827 201.225 281.833 201.546C281.839 201.866 281.76 202.183 281.605 202.464C281.449 202.745 281.222 202.979 280.947 203.145Z" fill="black"/>
</g>
<g opacity="0.14">
<path opacity="0.14" d="M267.175 187.819C267.411 187.667 267.686 187.586 267.967 187.586C268.248 187.586 268.523 187.667 268.759 187.819L277.962 193.111C278.202 193.25 278.402 193.449 278.54 193.689C278.679 193.93 278.752 194.202 278.752 194.479C278.752 194.756 278.679 195.029 278.54 195.269C278.402 195.509 278.202 195.709 277.962 195.848L268.82 201.078C268.584 201.23 268.309 201.311 268.028 201.311C267.747 201.311 267.472 201.23 267.236 201.078L258.033 195.787C257.793 195.648 257.593 195.448 257.454 195.208C257.316 194.968 257.243 194.696 257.243 194.418C257.243 194.141 257.316 193.869 257.454 193.629C257.593 193.388 257.793 193.189 258.033 193.05L267.175 187.819Z" fill="#A1F7F6"/>
</g>
<g opacity="0.29">
<path opacity="0.29" d="M267.297 180.825C267.501 180.708 267.732 180.646 267.967 180.646C268.203 180.646 268.434 180.708 268.638 180.825L276.438 185.326C276.641 185.444 276.808 185.613 276.925 185.815C277.042 186.018 277.103 186.248 277.103 186.482C277.103 186.716 277.042 186.945 276.925 187.148C276.808 187.351 276.641 187.519 276.438 187.637L268.699 192.077C268.495 192.195 268.263 192.257 268.028 192.257C267.793 192.257 267.562 192.195 267.358 192.077L259.557 187.577C259.368 187.455 259.213 187.289 259.106 187.092C258.998 186.896 258.942 186.675 258.942 186.451C258.942 186.227 258.998 186.007 259.106 185.81C259.213 185.614 259.368 185.447 259.557 185.326L267.297 180.825Z" fill="#A1F7F6"/>
</g>
<g opacity="0.43">
<path opacity="0.43" d="M267.416 173.829C267.585 173.738 267.773 173.691 267.965 173.691C268.156 173.691 268.345 173.738 268.513 173.829L274.973 177.539C275.139 177.627 275.278 177.759 275.374 177.919C275.471 178.08 275.522 178.264 275.522 178.451C275.522 178.639 275.471 178.823 275.374 178.983C275.278 179.144 275.139 179.275 274.973 179.364L268.879 183.013C268.71 183.103 268.522 183.151 268.331 183.151C268.139 183.151 267.951 183.103 267.782 183.013L261.322 179.242C261.171 179.142 261.048 179.007 260.962 178.847C260.876 178.688 260.832 178.51 260.832 178.33C260.832 178.149 260.876 177.971 260.962 177.812C261.048 177.653 261.171 177.517 261.322 177.417L267.416 173.829Z" fill="#A1F7F6"/>
</g>
<g opacity="0.57">
<path opacity="0.57" d="M267.6 166.896C267.718 166.82 267.856 166.78 267.996 166.78C268.137 166.78 268.274 166.82 268.393 166.896L273.451 169.816C273.578 169.883 273.685 169.983 273.76 170.107C273.834 170.23 273.874 170.371 273.874 170.515C273.874 170.659 273.834 170.8 273.76 170.923C273.685 171.047 273.578 171.147 273.451 171.215L268.514 174.073C268.396 174.149 268.259 174.189 268.118 174.189C267.978 174.189 267.84 174.149 267.722 174.073L262.603 171.093C262.49 171.014 262.397 170.91 262.334 170.788C262.27 170.666 262.236 170.531 262.236 170.393C262.236 170.256 262.27 170.121 262.334 169.999C262.397 169.877 262.49 169.772 262.603 169.694L267.6 166.896Z" fill="#A1F7F6"/>
</g>
<g opacity="0.71">
<path opacity="0.71" d="M267.723 159.901H268.149L271.867 162.03C271.943 162.087 272.004 162.16 272.046 162.245C272.089 162.329 272.111 162.422 272.111 162.517C272.111 162.611 272.089 162.704 272.046 162.789C272.004 162.873 271.943 162.947 271.867 163.003L268.271 165.071C268.186 165.114 268.092 165.136 267.997 165.136C267.902 165.136 267.808 165.114 267.723 165.071L263.944 162.882C263.944 162.882 263.944 162.152 263.944 161.909L267.723 159.901Z" fill="#A1F7F6"/>
</g>
<g opacity="0.86">
<path opacity="0.86" d="M268.148 152.967L270.464 154.305V154.792L268.27 156.069L265.894 154.67C265.894 154.67 265.894 154.245 265.894 154.184L268.148 152.967Z" fill="#A1F7F6"/>
</g>
<path d="M269.002 146.521L268.027 147.129L266.991 146.521L268.027 145.973L269.002 146.521Z" fill="#A1F7F6"/>
<path d="M155.345 210.385V213.244H156.076V210.385L155.345 210.021V210.385Z" fill="#B8387B"/>
<path d="M246.453 222.306C246.453 222.306 241.76 226.199 242.796 230.274C242.796 230.274 244.32 231.916 245.783 228.996C247.245 226.077 248.769 222.184 246.453 222.306Z" fill="#0A1014"/>
<path d="M242.796 230.639C242.796 230.639 249.804 233.072 251.023 230.639C251.901 228.843 253.007 227.166 254.314 225.652C255.228 224.8 261.018 215.069 259.129 213.488C257.239 211.906 254.436 214.704 253.583 215.434L243.771 223.158L242.796 230.639Z" fill="#111114"/>
<path d="M184.414 187.333C184.414 187.333 209.096 201.505 214.885 206.249C224.706 212.268 234.882 217.691 245.357 222.489C244.3 225.036 243.603 227.718 243.285 230.456C243.285 230.456 219.822 230.091 205.073 216.589C205.073 216.589 155.527 206.249 159.732 180.765C168.117 182.313 176.369 184.509 184.414 187.333Z" fill="#09294F"/>
<path d="M254.316 225.833C256.876 222.507 258.628 218.635 259.435 214.52C258.807 214.405 258.159 214.529 257.618 214.866C257.077 215.204 256.682 215.731 256.51 216.344C254.941 219.821 253.149 223.193 251.147 226.441C250.598 227.11 247.368 230.212 247.917 231.732C249.319 231.732 250.537 231.732 251.025 230.82C251.902 229.023 253.009 227.347 254.316 225.833Z" fill="#1D1D21"/>
<path d="M232.071 242.924C232.071 242.924 240.055 244.201 240.908 242.072C241.532 240.447 242.373 238.912 243.407 237.511C244.077 236.72 248.343 227.84 246.576 226.623C244.808 225.407 242.614 228.083 241.944 228.691C241.274 229.3 233.961 235.929 233.961 235.929L232.071 242.924Z" fill="#161619"/>
<path d="M243.405 237.511C245.336 234.413 246.544 230.921 246.94 227.293C246.384 227.264 245.835 227.431 245.389 227.764C244.944 228.098 244.63 228.577 244.502 229.118C243.464 232.275 242.18 235.345 240.663 238.302C240.236 238.91 237.737 241.891 238.286 243.168C239.505 243.168 240.602 243.168 240.906 242.073C241.53 240.448 242.371 238.913 243.405 237.511Z" fill="#1D1D21"/>
<path d="M173.748 141.595C172.35 141.82 171.095 142.582 170.252 143.719C169.409 144.856 169.045 146.276 169.239 147.677C169.239 152.969 174.358 175.898 180.026 180.46C185.693 185.022 185.51 174.378 185.51 174.378C185.51 174.378 182.037 140.439 173.748 141.595Z" fill="#EA49BD"/>
<path d="M180.268 185.083C178.689 190.183 176.649 195.13 174.174 199.862C174.174 199.862 198.856 214.034 204.645 218.839C214.592 224.787 224.889 230.129 235.482 234.835C233.923 237.417 232.927 240.298 232.557 243.289C232.557 243.289 209.094 242.924 194.346 229.422C194.346 229.422 144.799 219.143 149.004 193.598C154.487 195.302 160.343 195.405 165.882 193.897C171.421 192.388 176.413 189.33 180.268 185.083Z" fill="#16365C"/>
<path d="M160.401 143.419C155.666 146.029 151.087 148.913 146.689 152.055C146.384 153.028 144.86 153.698 149.248 164.22C151.782 170.761 152.187 177.933 150.406 184.717C149.466 187.541 148.993 190.499 149.005 193.475C149.005 193.475 154.185 204.606 168.994 199.132C174.115 196.057 178.503 191.906 181.853 186.967C180.263 184.462 179.191 181.665 178.699 178.741C178.207 175.816 178.305 172.823 178.989 169.937C180.817 158.624 181.853 143.966 175.454 142.02C175.454 141.533 173.808 139.891 160.401 143.419Z" fill="#FF61CB"/>
<path d="M164.546 139.891C164.546 139.891 173.139 144.452 169.299 150.96L173.383 153.15C173.95 151.695 174.159 150.124 173.99 148.572C173.822 147.019 173.282 145.53 172.415 144.229C171.549 142.929 170.381 141.856 169.011 141.101C167.642 140.346 166.11 139.931 164.546 139.891Z" fill="#FEFFFF"/>
<path d="M159 135.208C159 135.208 162.656 140.742 159.792 144.452C158.146 146.52 161.925 151.447 168.385 151.021C168.385 151.021 171.31 150.352 171.005 149.318C170.751 148.361 170.735 147.357 170.958 146.393C171.181 145.428 171.637 144.532 172.285 143.783C173.321 141.959 159 135.208 159 135.208Z" fill="#EFB185"/>
<path d="M159.793 144.453C159.586 144.692 159.458 144.989 159.428 145.304C161.44 143.687 163.916 142.75 166.497 142.628L160.403 135.877L159.793 135.573V136.181C160.552 137.428 160.953 138.858 160.953 140.317C160.953 141.775 160.552 143.206 159.793 144.453Z" fill="#DD9569"/>
<path d="M171.007 149.319C170.692 148.367 170.645 147.348 170.871 146.372C171.097 145.397 171.586 144.501 172.287 143.784C172.591 143.236 171.677 142.385 170.275 141.412C169.873 141.741 169.523 142.131 169.239 142.567C167.434 144.993 166.647 148.026 167.046 151.022C167.49 151.082 167.941 151.082 168.386 151.022C169.179 150.9 171.19 150.474 171.007 149.319Z" fill="#F2B78F"/>
<path d="M157.659 132.167C158.696 136.368 161.122 140.097 164.546 142.75C168.995 145.67 174.175 147.555 175.15 142.264C175.881 138.067 177.953 127.362 174.236 125.173C169.421 122.436 167.654 119.091 162.047 121.037C160.086 122.044 158.56 123.729 157.752 125.777C156.945 127.825 156.912 130.097 157.659 132.167Z" fill="#EFB185"/>
<path d="M157.658 132.167C158.045 134.307 158.854 136.349 160.035 138.176C161.217 140.003 162.75 141.578 164.544 142.811C165.852 143.724 167.264 144.479 168.749 145.061C167.067 143.839 165.587 142.361 164.362 140.682C162.533 138.614 167.043 139.405 163.996 134.053C162.899 132.167 168.079 134.539 169.237 134.539C176.063 134.539 175.331 130.464 175.697 128.822C175.539 128.12 175.335 127.43 175.088 126.754L174.478 125.538V125.173C173.793 124.321 173.06 123.509 172.284 122.74L160.827 123.044C160.827 123.044 159.303 124.99 157.963 126.876C157.449 128.592 157.345 130.404 157.658 132.167Z" fill="#E6A376"/>
<path d="M160.646 139.223C159.085 137.65 157.94 135.716 157.312 133.593C156.685 131.47 156.594 129.225 157.05 127.059C157.394 125.261 158.308 123.622 159.659 122.384C161.009 121.146 162.722 120.376 164.546 120.186C166.868 119.686 169.292 120.022 171.389 121.135C173.486 122.249 175.121 124.067 176.003 126.268C176.735 128.275 176.003 132.35 168.568 130.526C167.471 130.526 164.546 129.856 163.51 130.83C163.021 131.387 162.699 132.07 162.581 132.802C162.462 133.533 162.552 134.283 162.84 134.966C163.266 136.304 162.108 136.425 161.986 136.121C161.865 135.817 160.341 132.168 158.939 133.627C157.538 135.087 160.524 138.919 160.646 139.223Z" fill="#131C24"/>
<path d="M160.645 139.223C160.645 138.918 157.72 134.904 158.999 133.627C160.279 132.35 161.864 135.877 162.046 136.121C162.229 136.364 163.326 136.121 162.9 134.965C162.612 134.282 162.522 133.532 162.641 132.801C162.759 132.07 163.081 131.387 163.57 130.829C164.484 129.978 167.044 130.403 168.628 130.525C167.348 129.734 164.789 129.43 163.875 127.301C163.498 126.247 162.901 125.284 162.124 124.476C161.347 123.669 160.406 123.036 159.365 122.618C158.232 123.786 157.433 125.235 157.049 126.815C156.551 129.018 156.619 131.311 157.248 133.48C157.876 135.65 159.045 137.625 160.645 139.223Z" fill="#131C24"/>
<path d="M160.646 142.688C161.196 144.711 162.295 146.542 163.822 147.98C165.349 149.418 167.245 150.408 169.3 150.839L167.227 155.948C167.227 155.948 154.003 149.318 160.646 142.688Z" fill="#FEFFFF"/>
<path d="M176.064 126.268C176.064 126.268 177.222 133.323 168.263 130.768C166.942 130.325 165.722 129.624 164.676 128.705C163.629 127.786 162.777 126.668 162.169 125.416C161.92 124.795 161.523 124.244 161.014 123.81C160.504 123.376 159.897 123.071 159.244 122.922C160.309 121.764 161.648 120.891 163.138 120.381C164.628 119.871 166.222 119.741 167.776 120.003C170.249 120.576 172.536 121.769 174.418 123.47C174.967 123.956 173.809 126.876 176.064 126.268Z" fill="#131C24"/>
<path d="M205.561 178.148C209.173 178.816 212.894 178.607 216.408 177.539C220.796 175.715 219.76 175.593 219.395 174.924C219.029 174.255 212.874 173.829 211.838 173.586C210.802 173.343 212.691 172.43 213.117 171.7C213.544 170.971 214.58 170.119 214.214 169.876C213.849 169.632 212.996 169.389 211.35 170.666C209.554 171.881 207.634 172.9 205.622 173.708L205.561 178.148Z" fill="#EFB185"/>
<path d="M206.537 173.102C206.289 174.034 206.166 174.995 206.171 175.96C206.161 177.138 206.477 178.296 207.085 179.305C207.085 179.305 186.121 183.502 180.758 180.765C180.758 180.765 175.577 172.858 183.5 170.729L206.537 173.102Z" fill="#EA49BD"/>
<path d="M153.941 181.677L176.734 191.104C176.176 191.853 175.763 192.698 175.515 193.598C170.396 191.955 151.138 189.158 151.869 185.083C154.124 164.038 154.368 153.029 154.368 153.029L155.16 155.523C156.083 164.252 155.672 173.071 153.941 181.677Z" fill="#EA49BD"/>
<path d="M167.41 195.424L167.349 196.519L183.133 207.771L183.255 206.676L167.41 195.424Z" fill="#B4B9BC"/>
<path d="M183.254 206.676L183.132 207.771L212.69 194.208L212.751 193.113L183.254 206.676Z" fill="#7D8183"/>
<path d="M167.409 195.424L183.254 206.676L212.75 193.112L196.966 181.86L167.409 195.424Z" fill="#E3E5E5"/>
<path d="M188.008 188.003L186.789 186.909L181.853 206.615L183.072 207.71L188.008 188.003Z" fill="#BDBBBB"/>
<path d="M218.846 173.832L217.688 172.737L186.79 186.908L188.008 188.003L218.846 173.832Z" fill="#D2D0D0"/>
<path d="M188.009 188.004L183.073 207.71L213.91 193.539L218.846 173.833L188.009 188.004Z" fill="#D5DFE6"/>
<path d="M188.007 188.004L213.908 193.539L218.844 173.833L188.007 188.004Z" fill="#E9F0F4"/>
<path d="M175.273 196.881C179.223 200.111 184.256 201.72 189.351 201.382C189.351 201.382 189.351 199.557 186.243 198.888C185.295 198.742 184.403 198.351 183.654 197.753C182.906 197.156 182.327 196.373 181.977 195.482C181.977 195.117 184.414 194.935 185.511 194.874C186.608 194.813 187.888 193.354 185.511 193.171C182.314 192.607 179.064 192.403 175.821 192.563C175.821 192.563 173.018 195.3 175.273 196.881Z" fill="#EFB185"/>
<path d="M151.2 150.415C149.829 150.2 148.429 150.524 147.293 151.318C146.156 152.112 145.372 153.314 145.105 154.672C143.704 159.842 141.51 183.137 145.532 189.159C149.554 195.18 176.003 198.343 176.003 198.343C175.462 197.182 175.244 195.897 175.372 194.623C175.501 193.35 175.972 192.134 176.735 191.105L154.125 181.677C154.125 181.677 159.427 152.057 151.2 150.415Z" fill="#EA49BD"/>
<g opacity="0.6">
<path opacity="0.6" d="M247.307 82.5378V84.6666L245.113 85.9439V83.6934C245.113 81.5038 244.382 80.6523 242.676 81.6255C241.871 82.1305 241.219 82.8444 240.789 83.6908C240.36 84.5372 240.169 85.4842 240.238 86.4304V99.0206C240.238 101.149 241.03 102.001 242.676 101.028C243.49 100.533 244.15 99.8208 244.58 98.9719C245.011 98.1229 245.196 97.1708 245.113 96.2228V93.1209L247.307 91.9044V94.8239C247.352 96.5394 246.942 98.2362 246.118 99.7423C245.294 101.248 244.085 102.51 242.615 103.4C239.446 105.164 237.983 103.4 237.983 100.055V87.8902C237.86 86.1362 238.229 84.3828 239.047 82.8255C239.864 81.2682 241.1 79.9683 242.615 79.071C245.784 77.4288 247.307 79.071 247.307 82.5378Z" fill="url(#paint56_linear)"/>
<path opacity="0.6" d="M258.277 76.1504V76.8195L256.144 78.0359V77.3061C256.144 75.1165 255.412 74.265 253.767 75.2381C252.974 75.736 252.332 76.4417 251.913 77.2782C251.494 78.1148 251.313 79.0501 251.39 79.9822C251.39 85.2738 258.338 81.8069 258.338 88.4973C258.446 90.2493 258.072 91.9976 257.255 93.5523C256.439 95.107 255.211 96.4089 253.706 97.3165C250.537 99.1412 249.074 97.3165 249.074 94.0322V92.6941L251.207 91.4168V92.9373C251.207 95.0661 251.999 95.8568 253.645 94.9445C254.443 94.4367 255.087 93.7204 255.506 92.8733C255.925 92.0262 256.103 91.0807 256.022 90.1395C256.022 84.848 249.135 88.3149 249.135 81.6244C249.027 79.9045 249.397 78.1882 250.203 76.6644C251.01 75.1406 252.222 73.8683 253.706 72.9877C256.814 71.0414 258.277 72.5619 258.277 76.1504Z" fill="url(#paint57_linear)"/>
<path opacity="0.6" d="M269.247 69.8252V70.4942L267.114 71.7107V70.9808C267.114 68.7912 266.383 67.9397 264.737 68.9128C263.944 69.4107 263.303 70.1164 262.884 70.953C262.464 71.7895 262.283 72.7248 262.36 73.657C262.36 78.9485 269.308 75.4816 269.308 82.1721C269.383 83.8939 268.992 85.6041 268.178 87.1236C267.363 88.6431 266.153 89.916 264.676 90.8088C261.507 92.6335 260.045 91.1129 260.045 87.5244V86.1863L262.056 85.1523V86.6729C262.056 88.8017 262.787 89.6532 264.493 88.68C265.292 88.1723 265.935 87.456 266.354 86.6089C266.773 85.7618 266.952 84.8163 266.87 83.8751C266.87 78.5836 259.984 82.0504 259.984 75.36C259.887 73.6501 260.262 71.9465 261.068 70.4345C261.874 68.9225 263.08 67.6599 264.554 66.7841C267.784 64.7161 269.247 66.2367 269.247 69.8252Z" fill="url(#paint58_linear)"/>
</g>
<g opacity="0.6">
<path opacity="0.6" d="M200.137 55.8353V66.54L197.821 67.8172V44.0358L200.137 42.5761V53.4632L205.195 50.5438V39.8391L207.511 38.501V62.2824L205.195 63.5597V52.9158L200.137 55.8353Z" fill="url(#paint59_linear)"/>
<path opacity="0.6" d="M212.874 59.1812V37.8326L209.096 40.0222V37.5894L218.968 31.8721V34.305L215.19 36.4946V57.8431L212.874 59.1812Z" fill="url(#paint60_linear)"/>
<path opacity="0.6" d="M228.17 50.3004L225.976 51.5776L222.563 34.6691V53.5848L220.552 54.7404V30.9589L223.721 29.1343L227.134 46.1645L230.425 25.3025L233.594 23.417V47.1985L231.583 48.6582V29.3776L228.17 50.3004Z" fill="url(#paint61_linear)"/>
<path opacity="0.6" d="M235.97 45.8608V22.0793L238.286 20.7412V42.0898L244.38 38.7446V41.1166L235.97 45.8608Z" fill="url(#paint62_linear)"/>
</g>
<g opacity="0.5">
<path opacity="0.5" d="M274.243 114.833V115.563L272.049 116.84V116.049C272.049 113.921 271.379 113.069 269.734 114.042C268.93 114.514 268.279 115.206 267.858 116.037C267.437 116.867 267.263 117.8 267.357 118.726C267.357 124.078 274.243 120.611 274.304 127.301C274.38 129.03 273.983 130.747 273.156 132.268C272.33 133.79 271.105 135.058 269.612 135.938C266.443 137.702 264.98 136.242 264.98 132.654V131.255L267.113 130.038V131.559C267.113 133.688 267.905 134.478 269.551 133.505C270.36 133.02 271.017 132.319 271.448 131.481C271.879 130.642 272.066 129.7 271.988 128.761C271.988 123.47 265.102 126.937 265.102 120.246C264.998 118.535 265.371 116.829 266.177 115.316C266.984 113.802 268.193 112.541 269.673 111.67C272.476 109.481 274.243 111.244 274.243 114.833Z" fill="url(#paint63_linear)"/>
<path opacity="0.5" d="M285.275 108.325V120.49C285.261 121.924 284.992 123.345 284.482 124.686C284.482 125.112 285.092 125.051 285.762 124.686V127.058H285.397C284.117 127.849 283.264 127.788 282.776 127.058C282.074 127.908 281.228 128.629 280.277 129.187C277.108 131.012 275.585 129.552 275.585 125.964V113.799C275.511 112.055 275.914 110.324 276.752 108.792C277.589 107.26 278.829 105.984 280.338 105.102C283.69 103.399 285.275 104.676 285.275 108.325ZM278.083 112.339V124.93C278.083 127.058 278.876 127.849 280.521 126.937C281.34 126.432 282.003 125.709 282.433 124.85C282.864 123.99 283.046 123.028 282.959 122.071V109.481C282.959 107.291 282.228 106.44 280.521 107.413C279.707 107.938 279.05 108.673 278.62 109.54C278.191 110.408 278.006 111.375 278.083 112.339Z" fill="url(#paint64_linear)"/>
<path opacity="0.5" d="M287.833 124.869V101.087L290.149 99.8101V121.159L296.244 117.753V120.185L287.833 124.869Z" fill="url(#paint65_linear)"/>
</g>
</g>
<defs>
<linearGradient id="paint0_linear" x1="25.1099" y1="46.1639" x2="138.508" y2="147.535" gradientUnits="userSpaceOnUse">
<stop stop-color="#FFF2C9"/>
<stop offset="1" stop-color="#FFB7BB"/>
</linearGradient>
<linearGradient id="paint1_linear" x1="123.54" y1="302.126" x2="471.302" y2="692.976" gradientUnits="userSpaceOnUse">
<stop stop-color="#FFF2C9"/>
<stop offset="1" stop-color="#FFB7BB"/>
</linearGradient>
<linearGradient id="paint2_linear" x1="94.7966" y1="387.527" x2="524.949" y2="909.246" gradientUnits="userSpaceOnUse">
<stop stop-color="#FFF2C9"/>
<stop offset="1" stop-color="#FFB7BB"/>
</linearGradient>
<linearGradient id="paint3_linear" x1="58.378" y1="269.539" x2="258.87" y2="434.748" gradientUnits="userSpaceOnUse">
<stop stop-color="#FFF2C9"/>
<stop offset="1" stop-color="#FFB7BB"/>
</linearGradient>
<linearGradient id="paint4_linear" x1="171.219" y1="234.061" x2="519.266" y2="624.243" gradientUnits="userSpaceOnUse">
<stop stop-color="#FFF2C9"/>
<stop offset="1" stop-color="#FFB7BB"/>
</linearGradient>
<linearGradient id="paint5_linear" x1="131.077" y1="384.099" x2="628.193" y2="1008.43" gradientUnits="userSpaceOnUse">
<stop stop-color="#FFF2C9"/>
<stop offset="1" stop-color="#FFB7BB"/>
</linearGradient>
<linearGradient id="paint6_linear" x1="78.9294" y1="219.551" x2="279.322" y2="384.767" gradientUnits="userSpaceOnUse">
<stop stop-color="#FFF2C9"/>
<stop offset="1" stop-color="#FFB7BB"/>
</linearGradient>
<linearGradient id="paint7_linear" x1="80.3204" y1="386.735" x2="535.824" y2="948.621" gradientUnits="userSpaceOnUse">
<stop stop-color="#FFF2C9"/>
<stop offset="1" stop-color="#FFB7BB"/>
</linearGradient>
<linearGradient id="paint8_linear" x1="208.361" y1="287" x2="689.141" y2="887.235" gradientUnits="userSpaceOnUse">
<stop stop-color="#FFF2C9"/>
<stop offset="1" stop-color="#FFB7BB"/>
</linearGradient>
<linearGradient id="paint9_linear" x1="44.4689" y1="260.027" x2="261.201" y2="447.819" gradientUnits="userSpaceOnUse">
<stop stop-color="#FFF2C9"/>
<stop offset="1" stop-color="#FFB7BB"/>
</linearGradient>
<linearGradient id="paint10_linear" x1="169.165" y1="288.984" x2="622.729" y2="846.904" gradientUnits="userSpaceOnUse">
<stop stop-color="#FFF2C9"/>
<stop offset="1" stop-color="#FFB7BB"/>
</linearGradient>
<linearGradient id="paint11_linear" x1="44.2134" y1="284.758" x2="322.628" y2="566.284" gradientUnits="userSpaceOnUse">
<stop stop-color="#FFF2C9"/>
<stop offset="1" stop-color="#FFB7BB"/>
</linearGradient>
<linearGradient id="paint12_linear" x1="62.5439" y1="287.457" x2="401.817" y2="664.794" gradientUnits="userSpaceOnUse">
<stop stop-color="#FFF2C9"/>
<stop offset="1" stop-color="#FFB7BB"/>
</linearGradient>
<linearGradient id="paint13_linear" x1="90.0106" y1="205.56" x2="367.122" y2="486.904" gradientUnits="userSpaceOnUse">
<stop stop-color="#FFF2C9"/>
<stop offset="1" stop-color="#FFB7BB"/>
</linearGradient>
<linearGradient id="paint14_linear" x1="76.898" y1="279.443" x2="436.624" y2="690.006" gradientUnits="userSpaceOnUse">
<stop stop-color="#FFF2C9"/>
<stop offset="1" stop-color="#FFB7BB"/>
</linearGradient>
<linearGradient id="paint15_linear" x1="109.097" y1="220.753" x2="448.05" y2="598.949" gradientUnits="userSpaceOnUse">
<stop stop-color="#FFF2C9"/>
<stop offset="1" stop-color="#FFB7BB"/>
</linearGradient>
<linearGradient id="paint16_linear" x1="146.323" y1="127.512" x2="332.3" y2="273.061" gradientUnits="userSpaceOnUse">
<stop stop-color="#FFF2C9"/>
<stop offset="1" stop-color="#FFB7BB"/>
</linearGradient>
<linearGradient id="paint17_linear" x1="219.337" y1="166.242" x2="567.279" y2="557.321" gradientUnits="userSpaceOnUse">
<stop stop-color="#FFF2C9"/>
<stop offset="1" stop-color="#FFB7BB"/>
</linearGradient>
<linearGradient id="paint18_linear" x1="267.657" y1="178.404" x2="699.22" y2="700.161" gradientUnits="userSpaceOnUse">
<stop stop-color="#FFF2C9"/>
<stop offset="1" stop-color="#FFB7BB"/>
</linearGradient>
<linearGradient id="paint19_linear" x1="251.106" y1="120.902" x2="597.66" y2="510.889" gradientUnits="userSpaceOnUse">
<stop stop-color="#FFF2C9"/>
<stop offset="1" stop-color="#FFB7BB"/>
</linearGradient>
<linearGradient id="paint20_linear" x1="112.997" y1="136.114" x2="313.489" y2="301.324" gradientUnits="userSpaceOnUse">
<stop stop-color="#FFF2C9"/>
<stop offset="1" stop-color="#FFB7BB"/>
</linearGradient>
<linearGradient id="paint21_linear" x1="199.162" y1="51.0054" x2="420.022" y2="246.416" gradientUnits="userSpaceOnUse">
<stop stop-color="#FFF2C9"/>
<stop offset="1" stop-color="#FFB7BB"/>
</linearGradient>
<linearGradient id="paint22_linear" x1="298.909" y1="53.2226" x2="645.739" y2="443.078" gradientUnits="userSpaceOnUse">
<stop stop-color="#FFF2C9"/>
<stop offset="1" stop-color="#FFB7BB"/>
</linearGradient>
<linearGradient id="paint23_linear" x1="339.859" y1="151.079" x2="836.618" y2="775.302" gradientUnits="userSpaceOnUse">
<stop stop-color="#FFF2C9"/>
<stop offset="1" stop-color="#FFB7BB"/>
</linearGradient>
<linearGradient id="paint24_linear" x1="194.965" y1="-1.94544" x2="381.78" y2="143.394" gradientUnits="userSpaceOnUse">
<stop stop-color="#FFF2C9"/>
<stop offset="1" stop-color="#FFB7BB"/>
</linearGradient>
<linearGradient id="paint25_linear" x1="133.551" y1="86.1255" x2="334.043" y2="251.335" gradientUnits="userSpaceOnUse">
<stop stop-color="#FFF2C9"/>
<stop offset="1" stop-color="#FFB7BB"/>
</linearGradient>
<linearGradient id="paint26_linear" x1="267.133" y1="168.455" x2="723.983" y2="730.623" gradientUnits="userSpaceOnUse">
<stop stop-color="#FFF2C9"/>
<stop offset="1" stop-color="#FFB7BB"/>
</linearGradient>
<linearGradient id="paint27_linear" x1="408.46" y1="59.5546" x2="889.239" y2="659.789" gradientUnits="userSpaceOnUse">
<stop stop-color="#FFF2C9"/>
<stop offset="1" stop-color="#FFB7BB"/>
</linearGradient>
<linearGradient id="paint28_linear" x1="347.593" y1="-14.517" x2="694.088" y2="376.182" gradientUnits="userSpaceOnUse">
<stop stop-color="#FFF2C9"/>
<stop offset="1" stop-color="#FFB7BB"/>
</linearGradient>
<linearGradient id="paint29_linear" x1="106.065" y1="121.392" x2="321.827" y2="309.321" gradientUnits="userSpaceOnUse">
<stop stop-color="#FFF2C9"/>
<stop offset="1" stop-color="#FFB7BB"/>
</linearGradient>
<linearGradient id="paint30_linear" x1="354.646" y1="71.339" x2="809.555" y2="629.537" gradientUnits="userSpaceOnUse">
<stop stop-color="#FFF2C9"/>
<stop offset="1" stop-color="#FFB7BB"/>
</linearGradient>
<linearGradient id="paint31_linear" x1="135.986" y1="127.177" x2="414.388" y2="409.711" gradientUnits="userSpaceOnUse">
<stop stop-color="#FFF2C9"/>
<stop offset="1" stop-color="#FFB7BB"/>
</linearGradient>
<linearGradient id="paint32_linear" x1="185.918" y1="109.211" x2="523.934" y2="486.411" gradientUnits="userSpaceOnUse">
<stop stop-color="#FFF2C9"/>
<stop offset="1" stop-color="#FFB7BB"/>
</linearGradient>
<linearGradient id="paint33_linear" x1="153.442" y1="36.0723" x2="353.598" y2="200.095" gradientUnits="userSpaceOnUse">
<stop stop-color="#FFF2C9"/>
<stop offset="1" stop-color="#FFB7BB"/>
</linearGradient>
<linearGradient id="paint34_linear" x1="18.0963" y1="237.204" x2="312.046" y2="544.772" gradientUnits="userSpaceOnUse">
<stop stop-color="#FFF2C9"/>
<stop offset="1" stop-color="#FFB7BB"/>
</linearGradient>
<linearGradient id="paint35_linear" x1="-9.12907" y1="248.932" x2="231.051" y2="472.797" gradientUnits="userSpaceOnUse">
<stop stop-color="#FFF2C9"/>
<stop offset="1" stop-color="#FFB7BB"/>
</linearGradient>
<linearGradient id="paint36_linear" x1="42.5295" y1="330.481" x2="498.2" y2="891.574" gradientUnits="userSpaceOnUse">
<stop stop-color="#FFF2C9"/>
<stop offset="1" stop-color="#FFB7BB"/>
</linearGradient>
<linearGradient id="paint37_linear" x1="14.8201" y1="186.298" x2="235.68" y2="381.708" gradientUnits="userSpaceOnUse">
<stop stop-color="#FFF2C9"/>
<stop offset="1" stop-color="#FFB7BB"/>
</linearGradient>
<linearGradient id="paint38_linear" x1="62.1033" y1="215.22" x2="408.828" y2="605.968" gradientUnits="userSpaceOnUse">
<stop stop-color="#FFF2C9"/>
<stop offset="1" stop-color="#FFB7BB"/>
</linearGradient>
<linearGradient id="paint39_linear" x1="-1.47764" y1="363.623" x2="276.789" y2="644.982" gradientUnits="userSpaceOnUse">
<stop stop-color="#FFF2C9"/>
<stop offset="1" stop-color="#FFB7BB"/>
</linearGradient>
<linearGradient id="paint40_linear" x1="-57.7684" y1="464.523" x2="301.958" y2="875.086" gradientUnits="userSpaceOnUse">
<stop stop-color="#FFF2C9"/>
<stop offset="1" stop-color="#FFB7BB"/>
</linearGradient>
<linearGradient id="paint41_linear" x1="-14.4142" y1="398.772" x2="324.681" y2="775.887" gradientUnits="userSpaceOnUse">
<stop stop-color="#FFF2C9"/>
<stop offset="1" stop-color="#FFB7BB"/>
</linearGradient>
<linearGradient id="paint42_linear" x1="-143.948" y1="549.007" x2="311.722" y2="1110.1" gradientUnits="userSpaceOnUse">
<stop stop-color="#FFF2C9"/>
<stop offset="1" stop-color="#FFB7BB"/>
</linearGradient>
<linearGradient id="paint43_linear" x1="-49.0386" y1="325.669" x2="171.704" y2="521.08" gradientUnits="userSpaceOnUse">
<stop stop-color="#FFF2C9"/>
<stop offset="1" stop-color="#FFB7BB"/>
</linearGradient>
<linearGradient id="paint44_linear" x1="-65.9208" y1="396.775" x2="282.07" y2="787.673" gradientUnits="userSpaceOnUse">
<stop stop-color="#FFF2C9"/>
<stop offset="1" stop-color="#FFB7BB"/>
</linearGradient>
<linearGradient id="paint45_linear" x1="-49.7946" y1="374.191" x2="298.299" y2="764.192" gradientUnits="userSpaceOnUse">
<stop stop-color="#FFF2C9"/>
<stop offset="1" stop-color="#FFB7BB"/>
</linearGradient>
<linearGradient id="paint46_linear" x1="-21.1836" y1="255.277" x2="168.811" y2="406.33" gradientUnits="userSpaceOnUse">
<stop stop-color="#FFF2C9"/>
<stop offset="1" stop-color="#FFB7BB"/>
</linearGradient>
<linearGradient id="paint47_linear" x1="-10.9945" y1="364.536" x2="403.307" y2="859.322" gradientUnits="userSpaceOnUse">
<stop stop-color="#FFF2C9"/>
<stop offset="1" stop-color="#FFB7BB"/>
</linearGradient>
<linearGradient id="paint48_linear" x1="99.3833" y1="169.497" x2="299.767" y2="334.607" gradientUnits="userSpaceOnUse">
<stop stop-color="#FFF2C9"/>
<stop offset="1" stop-color="#FFB7BB"/>
</linearGradient>
<linearGradient id="paint49_linear" x1="-82.0252" y1="399.987" x2="211.925" y2="707.555" gradientUnits="userSpaceOnUse">
<stop stop-color="#FFF2C9"/>
<stop offset="1" stop-color="#FFB7BB"/>
</linearGradient>
<linearGradient id="paint50_linear" x1="-82.018" y1="393.088" x2="157.101" y2="617.025" gradientUnits="userSpaceOnUse">
<stop stop-color="#FFF2C9"/>
<stop offset="1" stop-color="#FFB7BB"/>
</linearGradient>
<linearGradient id="paint51_linear" x1="-177.949" y1="553.798" x2="168.728" y2="944.727" gradientUnits="userSpaceOnUse">
<stop stop-color="#FFF2C9"/>
<stop offset="1" stop-color="#FFB7BB"/>
</linearGradient>
<linearGradient id="paint52_linear" x1="-71.0473" y1="386.998" x2="119.689" y2="536.607" gradientUnits="userSpaceOnUse">
<stop stop-color="#FFF2C9"/>
<stop offset="1" stop-color="#FFB7BB"/>
</linearGradient>
<linearGradient id="paint53_linear" x1="-174.557" y1="567.489" x2="238.423" y2="1062.04" gradientUnits="userSpaceOnUse">
<stop stop-color="#FFF2C9"/>
<stop offset="1" stop-color="#FFB7BB"/>
</linearGradient>
<linearGradient id="paint54_linear" x1="106.77" y1="153.818" x2="112.354" y2="202.356" gradientUnits="userSpaceOnUse">
<stop stop-color="#FADD8D"/>
<stop offset="0.39" stop-color="#F4A3A8"/>
<stop offset="1" stop-color="#EA3FD6"/>
</linearGradient>
<linearGradient id="paint55_linear" x1="1809.57" y1="1416.07" x2="1929.56" y2="2199.58" gradientUnits="userSpaceOnUse">
<stop stop-color="#FADD8D"/>
<stop offset="0.39" stop-color="#F4A3A8"/>
<stop offset="1" stop-color="#EA3FD6"/>
</linearGradient>
<linearGradient id="paint56_linear" x1="867.631" y1="963.878" x2="183.691" y2="787.562" gradientUnits="userSpaceOnUse">
<stop stop-color="#FFF2C9"/>
<stop offset="1" stop-color="#FFB7BB"/>
</linearGradient>
<linearGradient id="paint57_linear" x1="884.317" y1="925.454" x2="204.063" y2="753.074" gradientUnits="userSpaceOnUse">
<stop stop-color="#FFF2C9"/>
<stop offset="1" stop-color="#FFB7BB"/>
</linearGradient>
<linearGradient id="paint58_linear" x1="909.949" y1="873.877" x2="225.979" y2="698.148" gradientUnits="userSpaceOnUse">
<stop stop-color="#FFF2C9"/>
<stop offset="1" stop-color="#FFB7BB"/>
</linearGradient>
<linearGradient id="paint59_linear" x1="888.422" y1="1083.33" x2="171.701" y2="915.741" gradientUnits="userSpaceOnUse">
<stop stop-color="#FFF2C9"/>
<stop offset="1" stop-color="#FFB7BB"/>
</linearGradient>
<linearGradient id="paint60_linear" x1="925.76" y1="954.375" x2="202.765" y2="769.415" gradientUnits="userSpaceOnUse">
<stop stop-color="#FFF2C9"/>
<stop offset="1" stop-color="#FFB7BB"/>
</linearGradient>
<linearGradient id="paint61_linear" x1="1181.73" y1="1032.34" x2="245.567" y2="756.595" gradientUnits="userSpaceOnUse">
<stop stop-color="#FFF2C9"/>
<stop offset="1" stop-color="#FFB7BB"/>
</linearGradient>
<linearGradient id="paint62_linear" x1="864.119" y1="794.172" x2="243.047" y2="647.081" gradientUnits="userSpaceOnUse">
<stop stop-color="#FFF2C9"/>
<stop offset="1" stop-color="#FFB7BB"/>
</linearGradient>
<linearGradient id="paint63_linear" x1="712.979" y1="495.944" x2="482.197" y2="615.834" gradientUnits="userSpaceOnUse">
<stop stop-color="#FFF2C9"/>
<stop offset="1" stop-color="#FFB7BB"/>
</linearGradient>
<linearGradient id="paint64_linear" x1="773.673" y1="500.145" x2="533.287" y2="638.345" gradientUnits="userSpaceOnUse">
<stop stop-color="#FFF2C9"/>
<stop offset="1" stop-color="#FFB7BB"/>
</linearGradient>
<linearGradient id="paint65_linear" x1="704.217" y1="497.492" x2="490.473" y2="601.213" gradientUnits="userSpaceOnUse">
<stop stop-color="#FFF2C9"/>
<stop offset="1" stop-color="#FFB7BB"/>
</linearGradient>
<clipPath id="clip0">
<rect width="296" height="290" fill="white"/>
</clipPath>
</defs>
</svg>
